<?xml version="1.0" encoding="utf-8"?>
<svg version="1.1" xmlns:xlink="http://www.w3.org/1999/xlink" width="14px" height="14px" viewBox="15 701  14 14" xmlns="http://www.w3.org/2000/svg">
  <path d="M 15.5 708  A 6.5 6.5 0 0 1 22 701.5 A 6.5 6.5 0 0 1 28.5 708 A 6.5 6.5 0 0 1 22 714.5 A 6.5 6.5 0 0 1 15.5 708 Z " fill-rule="nonzero" fill="#ffffff" stroke="none" />
  <path d="M 15.5 708  A 6.5 6.5 0 0 1 22 701.5 A 6.5 6.5 0 0 1 28.5 708 A 6.5 6.5 0 0 1 22 714.5 A 6.5 6.5 0 0 1 15.5 708 Z " stroke-width="1" stroke="#ff644d" fill="none" />
  <path d="M 18 708  L 21 711  L 26 704  " stroke-width="3" stroke="#ff644d" fill="none" />
</svg>