<?xml version="1.0" encoding="utf-8"?>
<svg version="1.1" xmlns:xlink="http://www.w3.org/1999/xlink" width="13px" height="14px" xmlns="http://www.w3.org/2000/svg">
  <g transform="matrix(1 0 0 1 -347 -113 )">
    <path d="M 12.1907290518652 2.70258491133156  C 12.3539725478409 2.72278328824769  12.4963764485857 2.8002103997596  12.6144674882276 2.92813345356182  C 12.7325585278696 3.05605650736404  12.7881307818188 3.20417793808239  12.7881307818188 3.37249774571692  C 12.7881307818188 3.54081755335145  12.7290852619978 3.6889389840698  12.6144674882276 3.81686203787202  C 12.4963764485857 3.94478509167424  12.3574458137127 4.02221220318615  12.1907290518652 4.04241058010227  C 12.1907290518652 4.04241058010227  11.506495675116 4.04241058010227  11.506495675116 4.04241058010227  C 11.506495675116 4.04241058010227  11.506495675116 11.5427412082958  11.506495675116 11.5427412082958  C 11.506495675116 11.909678388939  11.4127174965768 12.246318004208  11.2216878736266 12.5526600541028  C 11.0341315165481 12.8590021039977  10.780583107905 13.104749023144  10.4645159135691 13.2865344153893  C 10.1484487192332 13.4683198076345  9.80112213205086 13.5625788999099  9.42253615202216 13.5625788999099  C 9.42253615202216 13.5625788999099  3.76805931269412 13.5625788999099  3.76805931269412 13.5625788999099  C 3.38947333266543 13.5625788999099  3.04214674548307 13.4716862037872  2.72607955114715 13.2865344153893  C 2.41001235681123 13.104749023144  2.15646394816814 12.8590021039977  1.96890759108971 12.5526600541028  C 1.78135123401123 12.246318004208  1.68409978960024 11.909678388939  1.68409978960024 11.5427412082958  C 1.68409978960024 11.5427412082958  1.68409978960024 4.04241058010227  1.68409978960024 4.04241058010227  C 1.68409978960024 4.04241058010227  0.999866412851033 4.04241058010227  0.999866412851033 4.04241058010227  C 0.833149651003531 4.02221220318615  0.690745750258737 3.94478509167424  0.5761279764886 3.81686203787202  C 0.458036936846678 3.6889389840698  0.402464682897474 3.54081755335145  0.402464682897474 3.37249774571692  C 0.402464682897474 3.20417793808239  0.461510202718462 3.05605650736404  0.5761279764886 2.92813345356182  C 0.694219016130576 2.8002103997596  0.833149651003531 2.72278328824769  0.999866412851033 2.70258491133156  C 0.999866412851033 2.70258491133156  3.76805931269412 2.70258491133156  3.76805931269412 2.70258491133156  C 3.76805931269412 2.70258491133156  3.76805931269412 2.0225728884882  3.76805931269412 2.0225728884882  C 3.76805931269412 1.65563570784495  3.86183749123333 1.31899609257595  4.0528671141836 1.01265404268114  C 4.24042347126202 0.706311992786376  4.49397187990512 0.460565073639994  4.81003907424104 0.27877968139475  C 5.12610626857696 0.0969942891494535  5.47343285575926 0.00273519687412621  5.85201883578795 0.00273519687412621  C 5.85201883578795 0.00273519687412621  7.33857662892828 0.00273519687412621  7.33857662892828 0.00273519687412621  C 7.71716260895697 0.00273519687412621  8.06448919613928 0.0936278929967481  8.38055639047519 0.27877968139475  C 8.69662358481111 0.460565073639994  8.95017199345426 0.706311992786376  9.13772835053269 1.01265404268114  C 9.32528470761111 1.31899609257595  9.42253615202216 1.65563570784495  9.42253615202216 2.0225728884882  C 9.42253615202216 2.0225728884882  9.42253615202216 2.70258491133156  9.42253615202216 2.70258491133156  C 9.42253615202216 2.70258491133156  12.1907290518652 2.70258491133156  12.1907290518652 2.70258491133156  Z M 10.1067695287714 11.4585813044785  C 10.1067695287714 11.4585813044785  10.1067695287714 4.04241058010222  10.1067695287714 4.04241058010222  C 10.1067695287714 4.04241058010222  3.08382593594503 4.04241058010222  3.08382593594503 4.04241058010222  C 3.08382593594503 4.04241058010222  3.08382593594503 11.4585813044785  3.08382593594503 11.4585813044785  C 3.08382593594503 11.6403666967238  3.14981798750969 11.8827472197175  3.28527535651075 12.0106702735197  C 3.41725945964003 12.1385933273219  3.58050295561564 12.2059212503757  3.76805931269418 12.2059212503757  C 3.76805931269418 12.2059212503757  9.42253615202222 12.2059212503757  9.42253615202222 12.2059212503757  C 9.61009250910064 12.2059212503757  9.77333600507636 12.1419597234746  9.90532010820569 12.0106702735197  C 10.037304211335 11.8793808235648  10.1067695287714 11.6403666967238  10.1067695287714 11.4585813044785  Z M 5.25114383996266 10.8627291854524  C 5.06706074875602 10.8627291854524  4.81351234011293 10.7987676585513  4.67458170523997 10.660745416291  C 4.53565107036702 10.5260895701834  4.46618575293062 10.3678689510069  4.46618575293062 10.182717162609  C 4.46618575293062 10.182717162609  4.46618575293062 6.05888187556364  4.46618575293062 6.05888187556364  C 4.48702534816155 5.89729486023452  4.56691046321346 5.75927261797424  4.69889456634279 5.64818154493544  C 4.83087866947213 5.53372407574398  5.07053401462786 5.47986173730091  5.24419730821899 5.47986173730091  C 5.41438733593833 5.47986173730091  5.57068430017042 5.53709047189664  5.70266840329964 5.64818154493544  C 5.83465250642898 5.76263901412689  5.91453762148083 5.89729486023452  5.93537721671181 6.05888187556364  C 5.93537721671181 6.05888187556364  5.93537721671181 10.182717162609  5.93537721671181 10.182717162609  C 5.93537721671181 10.3645025548543  5.86938516514715 10.5260895701834  5.73392779614609 10.660745416291  C 5.60194369301681 10.7954012623986  5.43870019704115 10.8627291854524  5.25114383996266 10.8627291854524  Z M 5.16778545903891 2.10673279230546  C 5.16778545903891 2.10673279230546  5.16778545903891 2.78674481514883  5.16778545903891 2.78674481514883  C 5.16778545903891 2.78674481514883  8.02281000567754 2.78674481514883  8.02281000567754 2.78674481514883  C 8.02281000567754 2.78674481514883  8.02281000567754 2.10673279230546  8.02281000567754 2.10673279230546  C 8.02281000567754 1.92494740006017  7.95681795411287 1.68256687706649  7.82136058511181 1.55464382326427  C 7.68937648198248 1.42672076946205  7.52613298600687 1.3593928464082  7.33857662892833 1.3593928464082  C 7.33857662892833 1.3593928464082  5.85201883578806 1.3593928464082  5.85201883578806 1.3593928464082  C 5.66446247870963 1.3593928464082  5.50121898273392 1.42335437330934  5.36923487960459 1.55464382326427  C 5.23725077647531 1.68256687706649  5.16778545903891 1.92494740006017  5.16778545903891 2.10673279230546  Z M 7.92903182713827 10.8627291854524  C 7.73800220418795 10.8627291854524  7.5851785058278 10.7987676585513  7.44972113682669 10.660745416291  C 7.31773703369735 10.5260895701834  7.24827171626096 10.3678689510069  7.24827171626096 10.182717162609  C 7.24827171626096 10.182717162609  7.24827171626096 6.05888187556364  7.24827171626096 6.05888187556364  C 7.26911131149188 5.89729486023452  7.3489964265438 5.75927261797424  7.48098052967313 5.64818154493544  C 7.61296463280246 5.53372407574398  7.8526199779582 5.47986173730091  8.02628327154932 5.47986173730091  C 8.1999465651405 5.47986173730091  8.3527702635007 5.53709047189664  8.48475436662998 5.64818154493544  C 8.61673846975926 5.76263901412689  8.69662358481111 5.89729486023452  8.71746318004215 6.05888187556364  C 8.71746318004215 6.05888187556364  8.71746318004215 10.182717162609  8.71746318004215 10.182717162609  C 8.71746318004215 10.3645025548543  8.64799786260564 10.5260895701834  8.5090672277328 10.660745416291  C 8.37013659285984 10.7954012623986  8.12006145008864 10.8627291854524  7.92903182713827 10.8627291854524  Z " fill-rule="nonzero" fill="#999999" stroke="none" transform="matrix(1 0 0 1 347 113 )" />
  </g>
</svg>