<?xml version="1.0" encoding="utf-8"?>
<svg version="1.1" xmlns:xlink="http://www.w3.org/1999/xlink" width="14px" height="14px" viewBox="60 737  14 14" xmlns="http://www.w3.org/2000/svg">
  <path d="M 60.5 744  A 6.5 6.5 0 0 1 67 737.5 A 6.5 6.5 0 0 1 73.5 744 A 6.5 6.5 0 0 1 67 750.5 A 6.5 6.5 0 0 1 60.5 744 Z " fill-rule="nonzero" fill="#ffffff" stroke="none" />
  <path d="M 60.5 744  A 6.5 6.5 0 0 1 67 737.5 A 6.5 6.5 0 0 1 73.5 744 A 6.5 6.5 0 0 1 67 750.5 A 6.5 6.5 0 0 1 60.5 744 Z " stroke-width="1" stroke="#797979" fill="none" />
</svg>