<?xml version="1.0" encoding="utf-8"?>
<svg version="1.1" xmlns:xlink="http://www.w3.org/1999/xlink" width="14px" height="14px" xmlns="http://www.w3.org/2000/svg">
  <g transform="matrix(1 0 0 1 -16 -323 )">
    <path d="M 11.9090823587648 7.85263288162867  C 12.3823105005878 7.93318235257719  12.7749891714622 8.15804962564198  13.0871183713879 8.51716601695443  C 13.3992475713136 8.87628240826684  13.5603465132108 9.29916713074687  13.5704151970794 9.78246395643834  C 13.5704151970794 9.78246395643834  13.5704151970794 11.7962007301528  13.5704151970794 11.7962007301528  C 13.5704151970794 12.0848363343853  13.510003093868 12.3634032547491  13.3925351154013 12.625189035332  C 13.2750671369346 12.8869748159148  13.1072557391251 13.1151983169359  12.8924571499289 13.3098595383949  C 12.5165596188355 13.6521947899263  12.0701813006621 13.8267186436483  11.5566784233649 13.8267186436483  C 11.5566784233649 13.8267186436483  11.2982488707382 13.8267186436483  11.2982488707382 13.8267186436483  C 9.3986238475342 13.5917826867149  7.55269847162925 12.9574556029948  5.93164036878906 11.9270936204443  C 4.35421322937937 10.9168690056308  3.05870923828974 9.62472124249738  2.04848462347627 8.04393787513146  C 1.01812264092564 6.4329484561599  0.377083101293219 4.59373553616729  0.132078460491285 2.69075428500711  C 0.0884474970607964 2.40211868077469  0.111941092754167 2.11683930449847  0.195846791658918 1.83827238413464  C 0.283108718519895 1.55970546377077  0.420714064723707 1.30798836705649  0.61537528618278 1.08983354990404  C 0.810036507641852 0.868322504795507  1.03826000866281 0.700511106985952  1.30675824515807 0.583043128519231  C 1.57525648165332 0.465575150052564  1.85382340201717 0.40516304684113  2.14581523420579 0.40516304684113  C 2.14581523420579 0.40516304684113  4.15955200792027 0.40516304684113  4.15955200792027 0.40516304684113  C 4.65291751748033 0.395094362972585  5.08922715178514 0.546124621001142  5.47183713879089 0.864966276839308  C 5.85444712579663 1.18045170472127  6.08602685477382 1.58655528742031  6.17328878163477 2.07992079698038  C 6.18335746550334 2.19738877544704  6.21020728915289 2.3484190334756  6.25383825258335 2.52965534310996  C 6.31760658375101 2.83171585916712  6.40486851061196 3.12706391931189  6.51226780521005 3.41569952354431  C 6.62973578367672 3.73789740733868  6.62637955572055 4.05673906317679  6.49548666542911 4.3755807190149  C 6.36795000309384 4.69106614689687  6.14643895798528 4.92600210383021  5.83430975805951 5.07703236185882  C 5.83430975805951 5.07703236185882  5.55909906565184 5.27169358331791  5.55909906565184 5.27169358331791  C 5.92492791287664 5.92615803477514  6.45521192995477 6.52021038302087  6.98885217498912 7.05049440009903  C 7.51913619206731 7.58077841717719  8.11318854031307 8.11441866221149  8.76765299177027 8.48024750943629  C 8.76765299177027 8.48024750943629  8.91197079388645 8.17483076542293  8.91197079388645 8.17483076542293  C 9.06300105191504 7.86270156549721  9.29793700884837 7.64454674834477  9.62013489264271 7.51365385805336  C 9.94233277643705 7.38611719571809  10.2645306602313 7.37940473980574  10.5867285440257 7.49687271827241  C 10.8652954643895 7.60427201287053  11.1572872965781 7.69489016768766  11.4559915846791 7.77208341068009  C 11.4559915846791 7.77208341068009  11.5533221954086 7.78886455046103  11.5533221954086 7.78886455046103  C 11.7144211373058 7.83249551389147  11.8318891157725 7.85263288162867  11.9090823587648 7.85263288162867  Z M 12.2480613823402 11.8801064290577  C 12.2480613823402 11.8801064290577  12.2312802425593 9.78246395643834  12.2312802425593 9.78246395643834  C 12.2312802425593 9.62136501454118  12.1842930511726 9.47704721242497  12.086962440443 9.34615432213356  C 11.9896318297135 9.21861765979829  11.8620951673783 9.13806818884972  11.7009962254811 9.10450590928782  C 11.7009962254811 9.10450590928782  11.153931068622 9.0071752985583  11.153931068622 9.0071752985583  C 10.7981709052658 8.91991337169732  10.4491231978219 8.8192265330116  10.1067879462905 8.70175855454493  C 10.1067879462905 8.70175855454493  9.68725945176662 9.63478992636598  9.68725945176662 9.63478992636598  C 9.61342243673042 9.80595755213168  9.48588577439518 9.92678175855455  9.30800569271705 9.99726254563458  C 9.13012561103895 10.0677433327146  8.95560175731704 10.0643871047584  8.78443413155132 9.99055008972224  C 7.75407214900069 9.50725326403071  6.7505599900997 8.85950126848589  5.94506528061386 8.05065033104391  C 5.13957057112805 7.23844316564578  4.4951748035394 6.2349310067447  4.01187797784794 5.20456902419408  C 3.93804096281173 5.03340139842838  3.92797227894316 4.85887754470643  3.98838438215459 4.68099746302833  C 4.04544025740983 4.50311738135022  4.16290823587649 4.37893694697116  4.33407586164222 4.30174370397878  C 4.33407586164222 4.30174370397878  5.26710723346327 3.865434069674  5.26710723346327 3.865434069674  C 5.13957057112803 3.53316750201109  5.03552750448608 3.18747602252343  4.96169048944993 2.83507208712338  C 4.91805952601944 2.65383577748908  4.88785347441372 2.46924323989858  4.8643598787204 2.28800693026427  C 4.83079759915849 2.12690798836712  4.75024812820991 1.99937132603185  4.62271146587464 1.90204071530233  C 4.4951748035394 1.80471010457281  4.34750077346699 1.75772291318617  4.18975805952604 1.75772291318617  C 4.18975805952604 1.75772291318617  2.17602128581153 1.75772291318617  2.17602128581153 1.75772291318617  C 1.97129138048389 1.75772291318617  1.80347998267436 1.83491615617855  1.67594332033912 1.99265887011951  C 1.54840665800385 2.14704535610432  1.49470701070482 2.32828166573862  1.51484437844194 2.53301157106626  C 1.71957428376958 4.2413316007674  2.28342058040963 5.89930821112565  3.2063832683621 7.33577377637531  C 4.10920858857746 8.75210197388787  5.2637510055071 9.91335684672986  6.67001051915106 10.8161821669452  C 8.10983231235692 11.7492135387663  9.7678089227152 12.3264847472311  11.4727727244601 12.5412833364273  C 11.6775026297878 12.5614207041644  11.8553827114659 12.5077210568654  12.0131254254068 12.3801843945301  C 12.1675119113916 12.2526477321949  12.2480613823402 12.0848363343853  12.2480613823402 11.8801064290577  Z " fill-rule="nonzero" fill="#666666" stroke="none" transform="matrix(1 0 0 1 16 323 )" />
  </g>
</svg>