<?xml version="1.0" encoding="utf-8"?>
<svg version="1.1" xmlns:xlink="http://www.w3.org/1999/xlink" width="18px" height="18px" xmlns="http://www.w3.org/2000/svg">
  <g transform="matrix(1 0 0 1 -9 0 )">
    <path d="M 5.31266666666667 17.5888301816038  C 4.5644444375 18.0624905660377  3.586 17.8175094198113  3.1315555625 17.0463396226415  C 2.9161230946945 16.6801897854632  2.84916645800411 16.2429322694743  2.94488889583333 15.8273207617925  L 3.91333333333333 11.6193962334906  C 3.9368318741986 11.5196053672487  3.90465373426393 11.4147272651112  3.8295555625 11.346339629717  L 0.659555562499999 8.532  C 0.00111112499999895 7.94784905660377  -0.074888875000001 6.92626415094339  0.487999999999999 6.24520755424528  C 0.758528759483964 5.91701832953767  1.1465561024365 5.71257826165457  1.56577777083333 5.67735849764151  L 5.726 5.33207547169811  C 5.81666666666667 5.32437735141509  5.89777777083333 5.26347169811321  5.93488889583333 5.17086791745283  L 7.53777777083333 1.17667925235849  C 7.87177777083333 0.344603780660377  8.80066666666667 -0.0527547099056612  9.61111110416667 0.296603766509433  C 9.99762834297185 0.463965667088428  10.303445772199 0.780355662317483  10.4617777708333 1.17667925235849  L 12.0646666666667 5.17064151650943  C 12.1017777708333 5.26347169811321  12.1828888958333 5.32460377358491  12.2735555625 5.33207547169811  L 16.4342222291667 5.6775848985849  C 17.3066666666667 5.75003772169811  17.9526666666667 6.53637735849056  17.8835555625 7.42913208254717  C 17.8510905914625 7.85516654174826  17.6560301121139 8.25126642984043  17.3402222291667 8.53245282311321  L 14.1702222291667 11.3467924528302  C 14.0964444583333 11.4122264221698  14.063111125 11.5181886863208  14.0864444375 11.619622634434  L 15.0548888958333 15.8275471627358  C 15.2553333333333 16.6981131933962  14.7348888958333 17.5752452759434  13.8853333333333 17.7851320683962  C 13.4762138745408 17.8862981220286  13.0443531195006 17.8156421153359  12.6868888958333 17.5890566037736  L 9.12488889583333 15.3339622641509  C 9.04839195892111 15.2850402775678  8.95116360357889 15.2850402775678  8.87466666666666 15.3339622641509  L 5.3124444375 17.5890566037736  Z M 8.17133333333333 14.1799245283019  C 8.67874211908939 13.8582205404933  9.32148011007728 13.8582205404933  9.82888889583333 14.1799245283019  L 13.3908888958333 16.4350188679245  C 13.4455555625 16.4694339551887  13.51 16.4800754787736  13.5711111041667 16.4649056603774  C 13.7046666666667 16.4318490636792  13.7911111041667 16.2860377287736  13.7571111041667 16.1375094339623  L 12.7886666666667 11.9295849056604  C 12.6522716381839 11.3396605691344  12.8468485577647 10.7212237910794  13.2944444375 10.3220377429245  L 16.4644444375 7.50792453537736  C 16.5162222083333 7.46196227830189  16.548888875 7.39516981839623  16.5546666666667 7.3222641509434  C 16.5664444375 7.17079245283019  16.4611111041667 7.04264151650943  16.326 7.03154716981132  L 12.1653333333333 6.68581132075472  C 11.5708241022623 6.63496750410463  11.0548551723371 6.2479105709781  10.8306666666667 5.6846037735849  L 9.22777777083333 1.69064150943396  C 9.20271533330218 1.62647550569069  9.15373919754712 1.57502862678339  9.0915555625 1.54754717688679  C 8.96866666666667 1.49456604481132  8.82644445833333 1.55547169811321  8.77222222916667 1.69064150943396  L 7.16911110416667 5.6846037735849  C 6.94492259849624 6.2479105709781  6.42895366857107 6.63496750410463  5.8344444375 6.68581132075472  L 1.674 7.03154716981132  C 1.60917389919336 7.03729739947288  1.54930893930869 7.06926242108711  1.50777777083333 7.12030187971698  C 1.41357867848139 7.23621293709788  1.42583077633854 7.40718371712929  1.5355555625 7.50792453537736  L 4.7055555625 10.3222641438679  C 5.15315144980792 10.7214501960663  5.34772837011491 11.3398869845954  5.21133333333333 11.9298113278302  L 4.24288889583333 16.1375094339623  C 4.22633414491517 16.2089215849181  4.23764807951 16.2840932850767  4.2744444375 16.3471698042453  C 4.34711110416666 16.4701132004717  4.494888875 16.5070188679245  4.60911110416667 16.4347924457547  L 8.17133333333333 14.1799245283019  Z " fill-rule="nonzero" fill="#999999" stroke="none" transform="matrix(1 0 0 1 9 0 )" />
  </g>
</svg>