<?xml version="1.0" encoding="utf-8"?>
<svg version="1.1" xmlns:xlink="http://www.w3.org/1999/xlink" width="26px" height="22px" xmlns="http://www.w3.org/2000/svg">
  <g transform="matrix(1 0 0 1 -87 -277 )">
    <path d="M 23.153 10.8472941176471  C 23.12505 9.45611764705882  24.271 8.34317647058823  25.6685 8.34317647058823  L 25.6685 3.27929411764706  C 25.6685 1.88811764705882  24.52255 0.747352941176474  23.12505 1  L 2.8613 1  C 1.4638 0.747352941176474  0.3458 1.88811764705883  0.3458 3.27929411764706  L 0.3458 8.31535294117647  C 1.7433 8.31535294117647  2.8613 9.45611764705883  2.8613 10.8472941176471  C 2.8613 12.2384705882353  1.71535 13.3792352941176  0.3458 13.3792352941176  L 0.3458 18.4152941176471  C 0.3458 19.8064705882353  1.49175 20.9472352941176  2.88925 21  L 23.153 21  C 24.5505 20.9472352941176  25.69645 19.8064705882353  25.69645 18.4152941176471  L 25.69645 13.3792352941176  C 24.29895 13.3792352941176  23.153 12.2384705882353  23.153 10.8472941176471  Z M 14.2649 15.2712352941176  L 14.2649 17.8031764705882  L 11.72145 17.8031764705882  L 11.72145 15.2712352941176  L 14.2649 15.2712352941176  Z M 14.2649 9.59523529411765  L 14.2649 12.1271764705882  L 11.72145 12.1271764705882  L 11.72145 9.59523529411765  L 14.2649 9.59523529411765  Z M 14.2649 3.91923529411765  L 14.2649 6.45117647058824  L 11.72145 6.45117647058824  L 11.72145 3.91923529411765  L 14.2649 3.91923529411765  Z " fill-rule="nonzero" fill="#ffcb99" stroke="none" transform="matrix(1 0 0 1 87 277 )" />
  </g>
</svg>