<?xml version="1.0" encoding="utf-8"?>
<svg version="1.1" xmlns:xlink="http://www.w3.org/1999/xlink" width="50px" height="10px" xmlns="http://www.w3.org/2000/svg">
  <g transform="matrix(1 0 0 1 -76 -291 )">
    <path d="M 7.26217948717949 4.35357142857142  C 7.45512820512821 4.13857142857143  7.45512820512821 3.80071428571428  7.26217948717949 3.58571428571428  L 4.58846153846154 0.606428571428569  C 4.39551282051282 0.391428571428573  4.09230769230769 0.391428571428573  3.89935897435898 0.606428571428569  L 1.22564102564103 3.58571428571428  C 1.03269230769231 3.80071428571428  1.03269230769231 4.13857142857143  1.22564102564103 4.35357142857142  L 3.89935897435898 7.33285714285714  C 4.09230769230769 7.54785714285713  4.39551282051282 7.54785714285713  4.58846153846154 7.33285714285714  L 7.26217948717949 4.35357142857142  Z M 6.18717948717949 3.95428571428571  L 4.2025641025641 6.16571428571428  L 2.21794871794872 3.95428571428571  L 4.2025641025641 1.74285714285714  L 6.18717948717949 3.95428571428571  Z M 49.0769230769231 6.38071428571429  C 49.049358974359 4.50714285714286  47.698717948718 3.00214285714286  46.0448717948718 3.00214285714286  C 44.3910256410256 3.00214285714286  43.0128205128205 4.50714285714285  43.0128205128205 6.38071428571429  C 43.0128205128205 8.22357142857143  44.3634615384615 9.75928571428572  46.0448717948718 9.75928571428572  C 47.7262820512821 9.75928571428572  49.0769230769231 8.25428571428572  49.0769230769231 6.38071428571429  Z M 47.8089743589744 6.38071428571428  C 47.8089743589744 7.45571428571429  47.0096153846154 8.34642857142857  46.0448717948718 8.34642857142857  C 45.0801282051282 8.34642857142857  44.2807692307692 7.45571428571429  44.2807692307692 6.38071428571428  C 44.2807692307692 5.30571428571428  45.0801282051282 4.41499999999999  46.0448717948718 4.41499999999999  C 47.0096153846154 4.41499999999999  47.8089743589744 5.30571428571428  47.8089743589744 6.38071428571428  Z " fill-rule="nonzero" fill="#ffc879" stroke="none" transform="matrix(1 0 0 1 76 291 )" />
  </g>
</svg>