<?xml version="1.0" encoding="utf-8"?>
<svg version="1.1" xmlns:xlink="http://www.w3.org/1999/xlink" width="12px" height="2px" xmlns="http://www.w3.org/2000/svg">
  <g transform="matrix(1 0 0 1 -275 -303 )">
    <path d="M 4.82514285714286 1.216  L 4.82514285714286 1.7536  C 4.89828571428572 1.7536  4.97142857142857 1.7664  5.02628571428571 1.7664  L 5.02628571428571 1.2288  C 4.97142857142857 1.2288  4.89828571428572 1.216  4.82514285714286 1.216  Z M 5.19085714285714 1.2416  L 5.19085714285714 1.7792  C 5.264 1.7792  5.33714285714286 1.792  5.392 1.792  L 5.392 1.2544  C 5.33714285714286 1.2544  5.264 1.2544  5.19085714285714 1.2416  Z M 5.55657142857143 1.2672  L 5.55657142857143 1.8048  C 5.62971428571428 1.8048  5.68457142857143 1.8048  5.75771428571428 1.8176  L 5.75771428571428 1.2672  L 5.55657142857143 1.2672  Z M 5.904 1.2672  L 5.904 1.8048  C 5.904 1.8048  5.92228571428571 1.8176  5.904 1.8048  C 5.97714285714286 1.8176  6.032 1.8176  6.10514285714286 1.8176  L 6.10514285714286 1.2672  L 5.904 1.2672  Z M 6.47085714285714 1.2544  C 6.416 1.2544  6.34285714285714 1.2672  6.26971428571429 1.2672  L 6.26971428571429 1.8176  L 6.47085714285714 1.8176  L 6.47085714285714 1.2544  Z M 10.0548571428571 0.691200000000001  L 10.4022857142857 1.1136  C 10.4571428571429 1.088  10.5302857142857 1.0752  10.5851428571429 1.0496  L 10.2377142857143 0.627200000000002  C 10.1828571428571 0.652800000000002  10.1097142857143 0.665600000000001  10.0548571428571 0.691200000000001  Z M 10.3657142857143 0.588800000000001  L 10.7131428571429 0.998400000000001  C 10.768 0.972800000000001  10.8411428571429 0.947200000000001  10.896 0.921600000000001  L 10.5485714285714 0.524800000000002  C 10.4937142857143 0.550400000000002  10.4205714285714 0.5632  10.3657142857143 0.588800000000001  Z M 10.6948571428571 0.4608  L 11.024 0.870400000000001  C 11.0788571428571 0.844800000000001  11.152 0.819200000000001  11.2068571428571 0.793600000000001  L 10.8777142857143 0.396800000000002  C 10.8228571428571 0.422400000000002  10.7497142857143 0.448000000000002  10.6948571428571 0.4608  Z M 10.9874285714286 0.3584  L 11.3348571428571 0.742400000000001  L 11.4994285714286 0.665600000000001  L 11.1702857142857 0.2816  C 11.1154285714286 0.3072  11.0605714285714 0.3328  10.9874285714286 0.3584  Z M 11.4811428571429 0.1536  C 11.4445714285714 0.1792  11.3897142857143 0.2048  11.3165714285714 0.2304  L 11.6274285714286 0.601599999999999  L 11.792 0.524799999999999  L 11.4811428571429 0.1536  Z M 0.564571428571428 0.1024  L 0.253714285714287 0.473599999999999  L 0.418285714285714 0.550399999999999  L 0.729142857142855 0.1792  L 0.564571428571428 0.1024  Z M 0.857142857142857 0.243199999999999  L 0.546285714285716 0.627199999999999  L 0.710857142857143 0.703999999999999  L 1.04 0.319999999999999  C 0.985142857142859 0.294399999999999  0.930285714285714 0.268799999999999  0.857142857142857 0.243199999999999  Z M 1.18628571428571 0.371200000000002  L 0.857142857142857 0.768000000000001  L 1.02171428571428 0.844800000000001  L 1.36914285714285 0.4352  C 1.31428571428571 0.4096  1.24114285714286 0.384  1.18628571428571 0.371200000000002  Z M 1.51542857142857 0.4864  L 1.168 0.896000000000001  C 1.22285714285714 0.921600000000001  1.296 0.934399999999999  1.35085714285714 0.959999999999999  L 1.69828571428571 0.550399999999999  C 1.64342857142857 0.524799999999999  1.57028571428571 0.499199999999999  1.51542857142857 0.4864  Z M 1.82628571428571 0.588800000000001  L 1.47885714285714 1.0112  C 1.53371428571428 1.0368  1.60685714285714 1.0624  1.66171428571429 1.0752  L 2.00914285714286 0.652799999999999  C 1.95428571428572 0.627199999999999  1.88114285714286 0.614400000000001  1.82628571428571 0.588800000000001  Z " fill-rule="nonzero" fill="#efc04b" stroke="none" transform="matrix(1 0 0 1 275 303 )" />
  </g>
</svg>