<?xml version="1.0" encoding="utf-8"?>
<svg version="1.1" xmlns:xlink="http://www.w3.org/1999/xlink" width="12px" height="2px" xmlns="http://www.w3.org/2000/svg">
  <g transform="matrix(1 0 0 1 -260 -294 )">
    <path d="M 4.816 1.24  L 4.816 1.7776  C 4.88914285714286 1.7776  4.96228571428571 1.7904  5.01714285714286 1.7904  L 5.01714285714286 1.2528  C 4.96228571428571 1.2528  4.88914285714286 1.24  4.816 1.24  Z M 5.18171428571429 1.2656  L 5.18171428571429 1.8032  C 5.25485714285714 1.8032  5.328 1.816  5.38285714285714 1.816  L 5.38285714285714 1.2784  C 5.328 1.2784  5.25485714285714 1.2784  5.18171428571429 1.2656  Z M 5.52914285714286 1.2912  L 5.52914285714286 1.8288  C 5.60228571428571 1.8288  5.65714285714286 1.8288  5.73028571428571 1.8416  L 5.73028571428571 1.2912  L 5.52914285714286 1.2912  Z M 5.89485714285714 1.2912  L 5.89485714285714 1.8288  C 5.89485714285714 1.8288  5.89485714285714 1.8416  5.89485714285714 1.8288  C 5.968 1.8416  6.02285714285714 1.8416  6.096 1.8416  L 6.096 1.2912  L 5.89485714285714 1.2912  Z M 6.46171428571428 1.2784  C 6.38857142857143 1.2784  6.33371428571429 1.2912  6.26057142857143 1.2912  L 6.26057142857143 1.8416  L 6.46171428571428 1.8416  L 6.46171428571428 1.2784  Z M 10.0274285714286 0.715200000000002  L 10.3748571428571 1.1376  C 10.4297142857143 1.112  10.5028571428571 1.0992  10.5577142857143 1.0736  L 10.2102857142857 0.651200000000003  C 10.1554285714286 0.676800000000003  10.0822857142857 0.689600000000002  10.0274285714286 0.715200000000002  Z M 10.3565714285714 0.612799999999999  L 10.704 1.0224  C 10.7588571428571 0.996799999999999  10.832 0.971199999999999  10.8868571428571 0.945599999999999  L 10.5394285714286 0.5488  C 10.4845714285714 0.5744  10.4114285714286 0.587199999999999  10.3565714285714 0.612799999999999  Z M 10.6857142857143 0.484799999999998  L 11.0148571428571 0.894399999999999  C 11.0697142857143 0.868799999999999  11.1428571428571 0.843199999999999  11.1977142857143 0.817599999999999  L 10.8685714285714 0.4208  C 10.8137142857143 0.4464  10.7405714285714 0.472  10.6857142857143 0.484799999999998  Z M 10.9782857142857 0.382399999999998  L 11.3257142857143 0.766399999999999  L 11.4902857142857 0.689599999999999  L 11.1611428571429 0.305599999999998  C 11.1062857142857 0.331199999999998  11.0514285714286 0.356799999999998  10.9782857142857 0.382399999999998  Z M 11.472 0.177600000000001  L 11.3074285714286 0.254400000000001  L 11.6182857142857 0.6256  L 11.7828571428571 0.5488  L 11.472 0.177600000000001  Z M 0.555428571428572 0.126400000000001  L 0.244571428571429 0.4976  L 0.409142857142858 0.5744  L 0.720000000000001 0.203200000000001  L 0.555428571428572 0.126400000000001  Z M 0.848 0.2672  L 0.537142857142857 0.6512  L 0.701714285714286 0.728  L 1.03085714285714 0.344  C 0.976 0.3184  0.921142857142857 0.2928  0.848 0.2672  Z M 1.15885714285714 0.3952  L 0.829714285714286 0.791999999999999  L 0.994285714285714 0.868799999999999  L 1.34171428571429 0.459199999999998  C 1.28685714285714 0.433599999999998  1.21371428571429 0.407999999999998  1.15885714285714 0.3952  Z M 1.488 0.510399999999999  L 1.14057142857143 0.919999999999999  C 1.19542857142857 0.945599999999999  1.26857142857143 0.958399999999997  1.32342857142857 0.983999999999998  L 1.67085714285714 0.574399999999997  C 1.616 0.548799999999997  1.54285714285714 0.523199999999997  1.488 0.510399999999999  Z M 1.81714285714286 0.612800000000001  L 1.46971428571429 1.0352  C 1.52457142857143 1.0608  1.59771428571429 1.0864  1.65257142857143 1.0992  L 2 0.6768  C 1.94514285714286 0.6512  1.872 0.638400000000001  1.81714285714286 0.612800000000001  Z " fill-rule="nonzero" fill="#efc04b" stroke="none" transform="matrix(1 0 0 1 260 294 )" />
  </g>
</svg>