<?xml version="1.0" encoding="utf-8"?>
<svg version="1.1" xmlns:xlink="http://www.w3.org/1999/xlink" width="26px" height="20px" xmlns="http://www.w3.org/2000/svg">
  <g transform="matrix(1 0 0 1 -92 -281 )">
    <path d="M 23.01195 9.79125  C 23.01195 8.4475  24.12995 7.345625  25.52745 7.345625  L 25.52745 2.48125  C 25.52745 1.1375  24.3815 0.0356250000000014  22.984 0  L 2.72025 0  C 1.32275 0.0356250000000014  0.204750000000003 1.1375  0.204750000000003 2.48125  L 0.204750000000003 7.345625  C 1.60225 7.345625  2.72025 8.4475  2.72025 9.79125  C 2.72025 11.135  1.5743 12.236875  0.204750000000003 12.236875  L 0.204750000000003 17.10125  C 0.204750000000003 18.445  1.3507 19.546875  2.7482 19.546875  L 23.01195 19.546875  C 24.40945 19.546875  25.5554 18.445  25.5554 17.10125  L 25.5554 12.236875  C 24.1579 12.236875  23.01195 11.135  23.01195 9.79125  Z M 14.12385 14.0375  L 14.12385 16.483125  L 11.5804 16.483125  L 11.5804 14.0375  L 14.12385 14.0375  Z M 14.12385 8.555  L 14.12385 11.000625  L 11.5804 11.000625  L 11.5804 8.555  L 14.12385 8.555  Z M 14.12385 3.0725  L 14.12385 5.518125  L 11.5804 5.518125  L 11.5804 3.0725  L 14.12385 3.0725  Z " fill-rule="nonzero" fill="#ff7e00" stroke="none" transform="matrix(1 0 0 1 92 281 )" />
  </g>
</svg>