<?xml version="1.0" encoding="utf-8"?>
<svg version="1.1" xmlns:xlink="http://www.w3.org/1999/xlink" width="18px" height="18px" xmlns="http://www.w3.org/2000/svg">
  <g transform="matrix(1 0 0 1 -15 -58 )">
    <path d="M 3 0  L 6.3 0  C 6.7970625 0  7.2 0.4029375  7.2 0.9  C 7.2 1.3970625  6.7970625 1.8  6.3 1.8  L 3 1.8  C 2.3371875 1.8  1.8 2.3371875  1.8 3  L 1.8 6.2994375  C 1.8 6.7965  1.3970625 7.199625  0.9 7.1998125  C 0.432375 7.2  0.0478125 6.843375  0.00412499999999998 6.387  L 0 6.3001875  L 0 3  C 0 1.38675  1.2733125 0.070875  2.869875 0.00281250000000011  L 3 0  Z M 4.5 8.1  L 13.5 8.1  C 13.9970625 8.1  14.4 8.5029375  14.4 9  C 14.4 9.4970625  13.9970625 9.9  13.5 9.9  L 4.5 9.9  C 4.0029375 9.9  3.6 9.4970625  3.6 9  C 3.6 8.5029375  4.0029375 8.1  4.5 8.1  Z M 11.7 0  L 15 0  C 16.61325 0  17.929125 1.2733125  17.9971875 2.869875  L 18 3  L 18 6.3  C 18 6.7970625  17.5970625 7.2  17.1 7.2  C 16.6029375 7.2  16.2 6.7970625  16.2 6.3  L 16.2 3  C 16.2 2.3371875  15.6628125 1.8  15 1.8  L 11.7 1.8  C 11.2029375 1.8  10.8 1.3970625  10.8 0.9  C 10.8 0.4029375  11.2029375 0  11.7 0  Z M 17.1 10.8  C 17.5970625 10.8  18 11.2029375  18 11.7  L 18 15  C 18 16.61325  16.7266875 17.929125  15.130125 17.9971875  L 15 18  L 11.7 18  C 11.2029375 18  10.8 17.5970625  10.8 17.1  C 10.8 16.6029375  11.2029375 16.2  11.7 16.2  L 15 16.2  C 15.6628125 16.2  16.2 15.6628125  16.2 15  L 16.2 11.7  C 16.2 11.2029375  16.6029375 10.8  17.1 10.8  Z M 0 11.7  C 0 11.2029375  0.4029375 10.8  0.9 10.8  C 1.3970625 10.8  1.8 11.2029375  1.8 11.7  L 1.8 15  C 1.8 15.6628125  2.3371875 16.2  3 16.2  L 6.3 16.2  C 6.7970625 16.2  7.2 16.6029375  7.2 17.1  C 7.2 17.5970625  6.7970625 18  6.3 18  L 3 18  C 1.38675 18  0.070875 16.7266875  0.00281250000000011 15.130125  L 0 15  L 0 11.7  Z " fill-rule="nonzero" fill="#ffffff" stroke="none" transform="matrix(1 0 0 1 15 58 )" />
  </g>
</svg>