<?xml version="1.0" encoding="utf-8"?>
<svg version="1.1" xmlns:xlink="http://www.w3.org/1999/xlink" width="35px" height="32px" xmlns="http://www.w3.org/2000/svg">
  <g transform="matrix(1 0 0 1 -170 -130 )">
    <path d="M 13.7903645833333 13.9014957264957  C 14.8172743055556 12.8663105413106  16.0538194444445 12.3487179487179  17.5 12.3487179487179  C 18.9461805555556 12.3487179487179  20.1827256944445 12.8663105413106  21.2096354166667 13.9014957264957  C 22.2365451388889 14.9366809116809  22.75 16.1831908831908  22.75 17.6410256410256  C 22.75 19.0988603988604  22.2365451388889 20.3453703703704  21.2096354166667 21.3805555555556  C 20.1827256944445 22.4157407407408  18.9461805555556 22.9333333333333  17.5 22.9333333333333  C 16.0538194444445 22.9333333333333  14.8172743055556 22.4157407407408  13.7903645833333 21.3805555555556  C 12.7634548611111 20.3453703703704  12.25 19.0988603988604  12.25 17.6410256410256  C 12.25 16.1831908831908  12.7634548611111 14.9366809116809  13.7903645833333 13.9014957264957  Z M 26.25 4.70427350427346  L 30.3333333333334 4.70427350427346  C 31.6215277777778 4.70427350427346  32.7213541666667 5.16367521367526  33.6328125 6.08247863247864  C 34.5442708333334 7.00128205128203  35 8.10997150997153  35 9.40854700854702  L 35 25.8735042735043  C 35 27.1720797720798  34.5442708333334 28.2807692307692  33.6328125 29.1995726495727  C 32.7213541666667 30.1183760683761  31.6215277777778 30.5777777777778  30.3333333333334 30  L 4.66666666666665 30  C 3.3784722222222 30.5777777777778  2.27864583333335 30.1183760683761  1.3671875 29.1995726495727  C 0.45572916666665 28.2807692307692  0 27.1720797720798  0 25.8735042735043  L 0 9.40854700854702  C 0 8.10997150997153  0.45572916666665 7.00128205128203  1.3671875 6.08247863247864  C 2.27864583333335 5.16367521367526  3.3784722222222 4.70427350427346  4.66666666666665 4.70427350427346  L 8.75 4.70427350427346  L 9.6796875 2.20512820512825  C 9.9105902777778 1.6048433048433  10.3328993055556 1.08725071225076  10.9466145833333 0.652350427350434  C 11.5603298611111 0.217450142450111  12.1892361111111 0  12.8333333333333 0  L 22.1666666666667 0  C 22.8107638888889 0  23.4396701388889 0.217450142450111  24.0533854166667 0.652350427350434  C 24.6671006944445 1.08725071225076  25.0894097222222 1.6048433048433  25.3203125 2.20512820512825  L 26.25 4.70427350427346  Z M 11.73046875 23.4570512820513  C 13.3285590277778 25.06801994302  15.2517361111111 25.8735042735043  17.5 25.8735042735043  C 19.7482638888889 25.8735042735043  21.6714409722222 25.06801994302  23.26953125 23.4570512820513  C 24.8676215277778 21.8460826210826  25.6666666666667 19.9074074074074  25.6666666666667 17.6410256410256  C 25.6666666666667 15.3746438746439  24.8676215277778 13.4359686609687  23.26953125 11.825  C 21.6714409722222 10.2140313390314  19.7482638888889 9.40854700854702  17.5 9.40854700854702  C 15.2517361111111 9.40854700854702  13.3285590277778 10.2140313390314  11.73046875 11.825  C 10.1323784722222 13.4359686609687  9.33333333333335 15.3746438746439  9.33333333333335 17.6410256410256  C 9.33333333333335 19.9074074074074  10.1323784722222 21.8460826210826  11.73046875 23.4570512820513  Z " fill-rule="nonzero" fill="#7f7f7f" stroke="none" transform="matrix(1 0 0 1 170 130 )" />
  </g>
</svg>