<?xml version="1.0" encoding="utf-8"?>
<svg version="1.1" xmlns:xlink="http://www.w3.org/1999/xlink" width="12px" height="12px" xmlns="http://www.w3.org/2000/svg">
  <g transform="matrix(1 0 0 1 -187 -349 )">
    <path d="M 8.57709271875 9.418818046875  C 9.0495084375 9.418818046875  9.43252875 9.035398  9.43252875 8.563398015625  L 9.43252875 0.864425921875  C 9.43252875 0.392026203125  9.049524421875 0.00902189062500014  8.577092734375 0.00902189062500014  L 0.878376453125 0.00902189062500014  C 0.405976734375 0.00902189062500014  0.022956421875 0.39202621875  0.022956421875 0.864425921875  L 0.022956421875 8.563398015625  C 0.022956421875 9.035398  0.405976734375 9.418818046875  0.878376453125 9.418818046875  L 8.57709271875 9.418818046875  Z M 8.577092734375 7.70800996875  C 8.577092734375 8.17997796875  8.19408840625 8.563398015625  7.7217046875 8.563398015625  L 1.733796484375 8.563398015625  C 1.261396765625 8.563398015625  0.878376453125 8.17997796875  0.878376453125 7.707993984375  L 0.878376453125 1.7198459375  C 0.878376453125 1.24744621875  1.261396765625 0.86442590625  1.733796484375 0.86442590625  L 7.7217046875 0.86442590625  C 8.19410440625 0.86442590625  8.577092734375 1.247430234375  8.577092734375 1.7198459375  L 8.577092734375 7.70800996875  Z M 11.998788828125 3.430686  C 11.998788828125 2.958270296875  11.615752515625 2.57526596875  11.1433528125 2.57526596875  L 10.28794878125 2.57526596875  L 10.28794878125 3.430686  C 10.7603325 3.430686  11.1433528125 3.8137063125  11.1433528125 4.286297890625  L 11.1433528125 10.2742380625  C 11.1433528125 10.7462220625  10.7603325 11.12964209375  10.28794878125 11.12964209375  L 4.300024578125 11.129642109375  C 3.827624859375 11.129642109375  3.444604546875 10.7462220625  3.444604546875 10.274238078125  L 2.589184515625 10.274238078125  L 2.589184515625 11.129642109375  C 2.589184515625 11.60164209375  2.972204828125 11.985078125  3.444604546875 11.985078125  L 11.143352796875 11.985078125  C 11.6157685 11.985078125  11.9987888125 11.60164209375  11.9987888125 11.129642109375  L 11.998788828125 3.430686  Z " fill-rule="nonzero" fill="#666666" stroke="none" transform="matrix(1 0 0 1 187 349 )" />
  </g>
</svg>