<?xml version="1.0" encoding="utf-8"?>
<svg version="1.1" xmlns:xlink="http://www.w3.org/1999/xlink" width="15px" height="15px" xmlns="http://www.w3.org/2000/svg">
  <g transform="matrix(1 0 0 1 -25 -256 )">
    <path d="M 14.9358959765625 7.5  C 14.9358959619141 3.39354916992187  11.6073577148438 0.0640965380859375  7.4999925 0.0640965380859375  C 3.39265728515625 0.0640965380859375  0.064089052734375 3.39354916992187  0.064089052734375 7.5  C 0.064089052734375 11.6064508300781  3.39264229980469 14.9358884619141  7.49999251464844 14.9358884619141  C 11.6073577148438 14.9358884619141  14.9358959765625 11.6064508154297  14.9358959765625 7.5  Z M 7.93478771484375 11.7407897460937  L 3.34635367675781 11.7208382666016  C 3.34635367675781 11.7208382666016  4.32757340332031 9.24097961425781  4.62440216308594 8.40046948242187  C 4.92123090820312 7.55811559570313  5.49126442382812 6.24737428710937  6.26826262207031 7.4600670703125  C 7.04344705078125 8.67277485351562  7.75146200683594 10.9982981542969  7.75146200683594 10.9982981542969  L 7.93478771484375 11.7407897460937  Z M 8.93870206054687 10.7531993261719  L 8.88424398925781 10.5280819628906  C 8.88424398925781 10.5280819628906  8.2579236328125 8.47122150878906  7.46822904785156 6.85007065429687  C 8.02555117675781 5.29063294921875  8.78803921875 3.21380604492187  9.01312661132813 2.90338151367187  C 9.38166673828125 2.39870368652344  10.4237302148437 1.57994380371094  11.3405086523438 4.35207430664062  C 12.48965953125 7.81950839355469  13.1059666699219 10.7531843554687  13.1059666699219 10.7531843554687  L 8.93870206054687 10.7531843408203  Z " fill-rule="nonzero" fill="#6799f9" stroke="none" transform="matrix(1 0 0 1 25 256 )" />
  </g>
</svg>