<?xml version="1.0" encoding="utf-8"?>
<svg version="1.1" xmlns:xlink="http://www.w3.org/1999/xlink" width="15px" height="15px" xmlns="http://www.w3.org/2000/svg">
  <g transform="matrix(1 0 0 1 -55 -133 )">
    <path d="M 7.41073038773669 0.190937781785408  C 8.71641118124438 0.190937781785408  9.92831379621282 0.515554553651953  11.046438232642 1.17560865644725  C 12.1429215509468 1.81041478809743  13.0085662759243 2.67605951307485  13.6433724075744 3.77254283137967  C 14.299819657349 4.89066726780891  14.6280432822363 6.19274120829584  14.6280432822363 7.49842200180348  C 14.6280432822363 8.80410279531117  14.299819657349 10.0160054102796  13.6433724075744 11.1341298467088  C 13.0085662759243 12.2306131650136  12.1429215509468 13.0962578899911  11.046438232642 13.7310640216412  C 9.92831379621282 14.3875112714158  8.71641118124438 14.7157348963031  7.41073038773669 14.7157348963031  C 6.105049594229 14.7157348963031  4.80297565374207 14.3875112714158  3.68485121731288 13.7310640216412  C 2.58836789900812 13.0962578899911  1.72272317403059 12.2306131650136  1.08791704238047 11.1341298467088  C 0.431469792605867 10.0160054102796  0.103246167718623 8.80410279531117  0.103246167718623 7.49842200180348  C 0.103246167718623 6.19634806131654  0.431469792605867 4.89066726780891  1.08791704238047 3.77254283137967  C 1.72272317403059 2.6760595130749  2.58836789900806 1.81041478809743  3.68485121731288 1.17560865644725  C 4.80297565374207 0.519161406672708  6.105049594229 0.190937781785408  7.41073038773669 0.190937781785408  Z M 7.4143372407575 13.2621731289451  C 8.45311091073046 13.2621731289451  9.41974752028858 12.9952660054103  10.3214607754734 12.4650586113617  C 11.1871055004509 11.9564923354374  11.8724075743913 11.2711902614969  12.3809738503156 10.4055455365194  C 12.9111812443643 9.50383228133455  13.178088367899 8.53719567177643  13.178088367899 7.49842200180348  C 13.178088367899 6.45964833183052  12.9183949504058 5.39923354373315  12.3990081154193 4.50112714156904  C 11.8796212804328 3.63548241659163  11.1871055004509 2.94296663660964  10.3214607754734 2.42357980162319  C 9.41974752028858 1.90419296663669  8.45311091073046 1.64449954914346  7.4143372407575 1.64449954914346  C 6.37556357078455 1.64449954914346  5.31514878268717 1.90419296663674  4.41704238052307 2.42357980162319  C 3.55139765554566 2.94296663660964  2.85888187556367 3.63548241659163  2.33949504057716 4.50112714156904  C 1.82010820559071 5.4028403967539  1.56041478809749 6.45964833183052  1.56041478809749 7.49842200180348  C 1.56041478809749 8.53719567177643  1.82010820559071 9.50743913435537  2.33949504057716 10.4055455365194  C 2.85888187556367 11.2711902614969  3.55139765554566 11.9637060414789  4.41704238052307 12.4830928764653  C 5.31875563570793 13.0024797114518  6.37556357078455 13.2621731289451  7.4143372407575 13.2621731289451  Z M 7.41073038773675 4.16568981064023  C 7.41073038773675 4.16568981064023  7.41073038773675 4.15126239855726  7.41073038773675 4.15126239855726  C 7.66321009918852 4.15126239855726  7.87962128043284 4.24143372407576  8.05275022542833 4.418169522092  C 8.22587917042381 4.598512173129  8.31244364292161 4.90509467989182  8.31244364292161 5.15757439134359  C 8.31244364292161 5.41005410279536  8.22587917042381 5.62646528403968  8.05275022542833 5.79959422903517  C 7.87962128043284 5.97272317403065  7.66681695220922 6.05928764652845  7.41073038773675 6.05928764652845  C 7.15464382326428 6.05928764652845  6.85166816952216 5.97272317403065  6.67853922452662 5.79959422903517  C 6.50541027953113 5.62646528403968  6.41884580703339 5.41366095581606  6.41884580703339 5.15757439134359  C 6.41884580703339 4.90509467989182  6.50541027953113 4.598512173129  6.67853922452662 4.42538322813346  C 6.85166816952216 4.25225428313797  7.15464382326428 4.16568981064023  7.41073038773675 4.16568981064023  Z M 7.41073038773675 7.04395852119029  C 7.60910730387741 7.04395852119029  7.77862939585214 7.11609558160507  7.92290351668169 7.26036970243467  C 8.06717763751129 7.40464382326422  8.13931469792607 7.57416591523901  8.13931469792607 7.77254283137967  C 8.13931469792607 7.77254283137967  8.13931469792607 10.0268259693418  8.13931469792607 10.0268259693418  C 8.13931469792607 10.2215960324617  8.06717763751129 10.3947249774572  7.92290351668169 10.5389990982868  C 7.77862939585214 10.6832732191163  7.60910730387741 10.7554102795311  7.41073038773675 10.7554102795311  C 7.21596032461679 10.7554102795311  6.95266005410281 10.6832732191163  6.80838593327326 10.5389990982868  C 6.66411181244371 10.3947249774572  6.59197475202888 10.2252028854824  6.59197475202888 10.0268259693418  C 6.59197475202888 10.0268259693418  6.59197475202888 7.77254283137967  6.59197475202888 7.77254283137967  C 6.59197475202888 7.57777276825971  6.66411181244371 7.40825067628498  6.80838593327326 7.26036970243467  C 6.95266005410281 7.11609558160507  7.21235347159609 7.04395852119029  7.41073038773675 7.04395852119029  Z " fill-rule="nonzero" fill="#666666" stroke="none" transform="matrix(1 0 0 1 55 133 )" />
  </g>
</svg>