<?xml version="1.0" encoding="utf-8"?>
<svg version="1.1" xmlns:xlink="http://www.w3.org/1999/xlink" width="14px" height="9px" xmlns="http://www.w3.org/2000/svg">
  <g transform="matrix(1 0 0 1 -117 -242 )">
    <path d="M 6.99180263157895 0.911383223684211  C 9.59303947368421 0.911383223684211  11.8320570175439 2.38261677631579  12.8798618421053 4.50605427631579  L 13.9009100877193 4.50605427631579  C 12.7942653508772 1.87251809210526  10.1200964912281 0.0130559210526317  6.99178728070175 0.0130559210526317  C 3.86398464912281 0.0130559210526317  1.18981578947368 1.87251809210526  0.0831864035087717 4.50603947368421  L 1.10425 4.50603947368421  C 2.15202412280702 2.38261677631579  4.39104166666667 0.911368421052631  6.99180263157895 0.911368421052631  Z M 6.99180263157895 8.10071052631579  C 4.39105701754386 8.10071052631579  2.15202412280702 6.62947697368421  1.10425 4.50603947368421  L 0.0831864035087719 4.50603947368421  C 1.18980043859649 7.14004934210526  3.86396929824561 8.99949671052632  6.99180263157895 8.99949671052632  C 10.1200964912281 8.99949671052632  12.7942807017544 7.14003453947369  13.9009100877193 4.50603947368421  L 12.8798464912281 4.50603947368421  C 11.8320416666667 6.62947697368421  9.59303947368421 8.10071052631579  6.99178728070175 8.10071052631579  Z M 6.99200219298246 2.1099375  C 5.61944956140351 2.1099375  4.50692543859649 3.18271381578947  4.50692543859649 4.50627631578947  C 4.50692543859649 5.82980921052632  5.6194649122807 6.90261513157895  6.99200219298246 6.90261513157895  C 8.36458552631579 6.90261513157895  9.47709429824561 5.82980921052631  9.47709429824561 4.50627631578947  C 9.47709429824561 3.18271381578947  8.36458552631579 2.1099375  6.99200219298246 2.1099375  Z M 6.99200219298246 3.00825  C 7.84979385964912 3.00825  8.54549561403509 3.67910526315789  8.54549561403509 4.50627631578947  C 8.54549561403509 5.33344736842105  7.84979385964912 6.00425822368421  6.99200219298246 6.00425822368421  C 6.13421052631579 6.00425822368421  5.43901535087719 5.33343256578947  5.43901535087719 4.50627631578947  C 5.43901535087719 3.67910526315789  6.13421052631579 3.00825  6.99200219298246 3.00825  Z " fill-rule="nonzero" fill="#666666" stroke="none" transform="matrix(1 0 0 1 117 242 )" />
  </g>
</svg>