<?xml version="1.0" encoding="utf-8"?>
<svg version="1.1" xmlns:xlink="http://www.w3.org/1999/xlink" width="25px" height="20px" xmlns="http://www.w3.org/2000/svg">
  <g transform="matrix(1 0 0 1 -309 -155 )">
    <path d="M 0.357575767045455 18.6881226149425  C 0.684848494318182 19.460536408046  0.993939403409091 19.7977011494253  1.78787877840909 19.7977011494253  L 22.7939394034091 19.7977011494253  C 23.5871521375323 19.7912152272521  24.3011204351025 19.3097653370067  24.6121212215909 18.5716475  C 25.0036582315661 17.8022511226969  25.0036582315661 16.8889366071882  24.6121212215909 16.1195402298851  L 20.3696969602273 6.10268198275862  C 20.036497106696 5.364080657575  19.3116690811654 4.8864524006227  18.5090909090909 4.87662836206897  C 17.747752121093 4.89701526480074  17.0744508290925 5.38174150884537  16.8060605965909 6.10268198275862  C 16.8060605965909 6.10268198275862  14.1757575568182 13.1340995977012  12.5636363636364 13.1340996264368  C 10.9515151704545 13.1340996551724  9.6969696875 10.0689655172414  9.0060605965909 9.19233715517242  C 7.53333332386363 7.27356321839081  6.54545454545454 7.66590037356322  5.27878786931818 9.48045977011494  L 0.618181818181818 15.892720316092  C 0.13674377192383 16.7428772064596  0.0417417838889107 17.761920220197  0.357575767045455 18.6881226149425  Z M 6.16966584049224 2.48583154317009  C 6.16966584049224 3.80385536618166  7.22423068733969 4.87326617224205  8.52727272727273 4.87662836206897  C 8.53333322206419 4.8766752778966  8.53939387215696 4.87669873606803  8.5454545444358 4.87669873606803  C 9.85754922805165 4.87669873606803  10.9212121296631 3.80080982409326  10.9212121296631 2.47363359238987  C 10.9212121296631 1.14645736068648  9.85754922805165 0.0705684487117081  8.5454545444358 0.0705684487117081  C 7.23338703118965 0.0705684487117081  6.16973538425344 1.14641446992931  6.16969696022727 2.4735632183908  C 6.1696762137714 2.47765262633247  6.16966584049224 2.4817420813864  6.16966584049224 2.48583154317009  Z " fill-rule="nonzero" fill="#ffffff" stroke="none" transform="matrix(1 0 0 1 309 155 )" />
  </g>
</svg>