<?xml version="1.0" encoding="utf-8"?>
<svg version="1.1" xmlns:xlink="http://www.w3.org/1999/xlink" width="23px" height="22px" xmlns="http://www.w3.org/2000/svg">
  <g transform="matrix(1 0 0 1 -131 -158 )">
    <path d="M 5.50343964634146 10.5597248245779  C 8.29974817521429 10.5597248245779  10.5666041275797 8.29286887221241  10.5666041275797 5.49656034333958  C 10.5666041275797 2.70025181446675  8.29974817521429 0.433395862101293  5.50343964634146 0.433395862101293  C 2.70713111746863 0.433395862101293  0.44027516510323 2.70025181446675  0.44027516510323 5.49656034333958  C 0.44027516510323 8.29286887221241  2.70713111746863 10.5597248245779  5.50343964634146 10.5597248245779  Z M 17.170731707317 14.9624765478424  C 19.6023043356684 14.9624765478424  21.5734834202626 12.9912974632481  21.5734834202626 10.5597248348968  C 21.5734834202626 8.12815220654556  19.6023043356684 6.15697312195124  17.170731707317 6.15697312195124  C 14.7391590789658 6.15697312195124  12.7679799943714 8.12815220654556  12.7679799943714 10.5597248348968  C 12.7679799943714 12.9912974632481  14.7391590789658 14.9624765478424  17.170731707317 14.9624765478424  Z M 0 21.5666041275798  L 11.0068792926829 21.5666041275798  L 11.0068792926829 17.3839899868668  C 11.0068792812849 14.3445242089985  8.54290543452873 11.8805503622423  5.50343965666036 11.8805503508443  C 2.4639738707325 11.8805503508443  0 14.3445242009388  0 17.3839899868668  L 0 21.5666041275798  Z M 12.3277048086304 21.5666041275798  L 22.0137586060038 21.5666041275798  L 22.0137586060038 21.1263289624765  C 22.0137586060038 18.4515990633116  19.8454616064821 16.2833020637898  17.170731707317 16.2833020637898  C 14.4960018081521 16.2833020637898  12.3277048086304 18.4515990633116  12.3277048086304 21.1263289624765  L 12.3277048086304 21.5666041275798  Z " fill-rule="nonzero" fill="#ffffff" stroke="none" transform="matrix(1 0 0 1 131 158 )" />
  </g>
</svg>