<?xml version="1.0" encoding="utf-8"?>
<svg version="1.1" xmlns:xlink="http://www.w3.org/1999/xlink" width="19px" height="22px" xmlns="http://www.w3.org/2000/svg">
  <g transform="matrix(1 0 0 1 -133 -225 )">
    <path d="M 0.175925925925926 21.4268221191406  C 0.119899587962963 21.7433795216796  0.382568360385194 22  0.706586711805554 22  L 18.2934132881944 22  C 18.6174316396148 22  18.880100412037 21.7433795216796  18.8240740740741 21.4268221191406  L 18.8240740740741 7.94109295117187  C 18.8799992954969 7.63541390807036  18.6343830233396 7.38360025028966  18.3218676134259 7.36877483203125  C 13.4291903460648 7.141223203125  11.5535516226852 3.96438481054687  11.2592592592593 3.68066176757813  L 11.2592592592593 0.573177880859374  C 11.3954394282407 0.256620478320413  11.1327706558185 0  10.8087523043981 0  L 0.706586711805554 0  C 0.382568360385194 0  0.119899587962963 0.256620478320413  0.175925925925926 0.573177880859374  L 0.175925925925926 21.4268221191406  Z M 12.691431275463 20.1681234863281  L 11 20.1681234863281  L 11 7.3309451015625  L 12.9595472905093 8.11189996289063  C 13.1553581901927 8.21005337875262  13.2784726184596 8.40701529171016  13 8.62202827148437  L 13 19.5949456054688  C 13.2781183993056 19.9115030080077  13.0154496268833 20.1681234863281  12.691431275463 20.1681234863281  Z M 16.453855806713 16.5043704804688  L 15.1296296296296 16.5043704804688  L 15.1296296296296 9.17084609375  L 16.6677032696759 9.74402397460938  C 16.8928652108983 9.8298572113093  17.0411068498435 10.0418092114044  16.8888888888889 10.2779391601562  L 16.8888888888889 15.9311925996094  C 17.0405429305556 16.2477500021483  16.7778741581333 16.5043704804688  16.453855806713 16.5043704804688  Z M 2.11111111111111 5.5  L 2.11111111111111 3.722790328125  L 9.5 3.722790328125  L 9.5 5.5  L 2.11111111111111 5.5  Z M 2.11111111111111 11  L 7.71720451273149 11  L 7.71720451273149 12.8692763632812  L 2.11111111111111 12.8692763632812  L 2.11111111111111 11  Z M 9.5 7.3404025234375  L 9.5 9.20323063085938  L 2.11111111111111 9.20323063085938  L 2.11111111111111 7.3404025234375  L 9.5 7.3404025234375  Z " fill-rule="nonzero" fill="#ffffff" stroke="none" transform="matrix(1 0 0 1 133 225 )" />
  </g>
</svg>