<?xml version="1.0" encoding="utf-8"?>
<svg version="1.1" xmlns:xlink="http://www.w3.org/1999/xlink" width="19px" height="22px" xmlns="http://www.w3.org/2000/svg">
  <g transform="matrix(1 0 0 1 -312 -225 )">
    <path d="M 17.309736443314 0.229166666666667  C 17.7374836352013 0.22773097211838  18.1485487964022 0.401185175805757  18.4538604651163 0.711944434895833  C 18.7566821613372 1.02116666666667  18.9269457456395 1.442222203125  19 1.87916666666667  L 19 20.5785555651042  C 18.9263565799419 21.6088888984375  18.0662015319767 22.125277796875  17.1830697674419 21.6198888984375  L 9.74567441860465 17.9055555651042  L 1.81693023255814 21.6498333333333  C 0.933209302325582 22.1289444348958  0.0736434200581392 21.6052222317708  0 20.5779444348958  L 0 1.87794443489584  C 0.0748216962209299 0.968  0.798294582848837 0.2303888984375  1.69085272238372 0.229166666666667  L 17.309736443314 0.229166666666667  Z M 3.82533332412791 10.6205  C 3.47655813953488 10.7488333333333  3.13072867296512 10.8857222317708  2.76722481540698 11.0268888984375  L 3.38995348837209 11.8353888984375  C 3.70220155959302 12.241777796875  4.02917830377907 12.6371666666667  4.32375192877907 13.0576111015625  C 4.64660465116279 13.5183888697917  5.03308525290698 13.6644444348958  5.53916279069768 13.4688888984375  L 12.571224815407 10.7518888984375  C 13.5786666758721 10.3626111302083  14.5861085363372 9.97455556510416  15.5923720930233 9.58466666666667  C 16.0253953488372 9.4166111015625  16.2875658822674 8.96866666666666  16.2239379752907 8.51705556510417  C 16.1296744186047 7.85705556510416  15.5411162790698 7.4848888984375  14.945488372093 7.71405556510417  C 13.6664496031977 8.206  12.3874108619186 8.69916666666666  11.1101395348837 9.1966111015625  C 11.0123410944767 9.2351111015625  10.9487131875 9.22594443489583  10.8656434200581 9.15627776822916  C 9.26080621075582 7.80083333333333  7.65184497965116 6.44966666666666  6.04641860465116 5.09544443489583  C 5.98161239389535 5.04105553645833  5.92976744186047 5.02577776822916  5.84964342005814 5.05877776822916  C 5.4773023255814 5.20788886979166  5.101426375 5.35027776822916  4.72672867296512 5.49572223177083  C 4.69786046511628 5.50672223177083  4.66958139534884 5.5213888984375  4.63423255813954 5.5385  L 7.676 10.5129444348958  C 7.65361239389535 10.5257777682292  7.6412403008721 10.5349444348958  7.62827906976744 10.5398333333333  C 6.83764342005814 10.8453888984375  6.04700774273256 11.1509444348958  5.25519378924419 11.4528333333333  C 5.21631006831396 11.4675  5.15503874127907 11.4534444348958  5.11792248982558 11.429  C 4.72790697674419 11.1741666666667  4.3420155130814 10.9138333333333  3.9525891380814 10.6583888984375  C 3.91606199709302 10.6339444635417  3.85950385755814 10.6076666666667  3.82474418604651 10.6205  Z " fill-rule="nonzero" fill="#ffffff" stroke="none" transform="matrix(1 0 0 1 312 225 )" />
  </g>
</svg>