<?xml version="1.0" encoding="utf-8"?>
<svg version="1.1" xmlns:xlink="http://www.w3.org/1999/xlink" width="22px" height="8px" xmlns="http://www.w3.org/2000/svg">
  <g transform="matrix(1 0 0 1 0 -6 )">
    <path d="M 0.203462989980767 1.19045071095983  C 0.203462989980767 1.19045071095983  1.23448270086793 1.20217670966201  1.23448270086793 1.20217670966201  C 1.23448270086793 1.20217670966201  1.23448270086793 0.114004030100539  1.23448270086793 0.114004030100539  C 1.23448270086793 0.114004030100539  2.00827459022492 0.114004030100539  2.00827459022492 0.114004030100539  C 2.00827459022492 0.114004030100539  2.00827459022492 1.20217670966201  2.00827459022492 1.20217670966201  C 2.00827459022492 1.20217670966201  2.9423067618466 1.20217670966201  2.9423067618466 1.20217670966201  C 2.9423067618466 1.20217670966201  2.9423067618466 1.97140222452441  2.9423067618466 1.97140222452441  C 2.9423067618466 1.97140222452441  2.00827459022492 1.97140222452441  2.00827459022492 1.97140222452441  C 2.00827459022492 1.97140222452441  2.00827459022492 3.17918009084803  2.00827459022492 3.17918009084803  C 2.00827459022492 3.17918009084803  3.04772800017862 3.17918009084803  3.04772800017862 3.17918009084803  C 3.04772800017862 3.17918009084803  3.04772800017862 3.93667960700829  3.04772800017862 3.93667960700829  C 3.04772800017862 3.93667960700829  1.97875664349195 3.93667960700829  1.97875664349195 3.93667960700829  C 1.96399767012545 4.1219503865026  1.94080499769244 4.35881556028645  1.92604602432594 4.5276699415977  C 2.33508042905418 4.94980589487587  2.75254853284894 5.41415544348183  3.17845033571032 5.93478978585822  C 3.17845033571032 5.93478978585822  2.76730750621544 6.61958811006501  2.76730750621544 6.61958811006501  C 2.46957875450852 6.15171591138558  2.15080076264291 5.70086355868712  1.81219108692733 5.26875305957492  C 1.64640448732077 6.26550134623893  1.17441352110483 7.18846514517091  0.551353076476433 7.9282095652273  C 0.551353076476433 7.9282095652273  0.0137047609831313 7.40288482337004  0.0137047609831313 7.40288482337004  C 0.696834385374626 6.64304010746935  1.09110981673637 5.45402383906922  1.20496475413493 3.93433440726784  C 1.20496475413493 3.93433440726784  0.0959333268821117 3.93433440726784  0.0959333268821117 3.93433440726784  C 0.0959333268821117 3.93433440726784  0.0959333268821117 3.16745409214586  0.0959333268821117 3.16745409214586  C 0.0959333268821117 3.16745409214586  1.2344827008679 3.16745409214586  1.2344827008679 3.16745409214586  C 1.2344827008679 3.16745409214586  1.2344827008679 1.95967622582225  1.2344827008679 1.95967622582225  C 1.2344827008679 1.95967622582225  0.203462989980767 1.95967622582225  0.203462989980767 1.95967622582225  C 0.203462989980767 1.95967622582225  0.203462989980767 1.19045071095983  0.203462989980767 1.19045071095983  Z M 6.25253364547198 7.78280718132038  C 6.25253364547198 7.78280718132038  5.58416299444701 7.78749758080123  5.58416299444701 7.78749758080123  C 5.14982749251909 7.78749758080123  4.93898501585505 7.52483520987261  4.93898501585505 7.01827206593883  C 4.93898501585505 7.01827206593883  4.93898501585505 5.47278543699269  4.93898501585505 5.47278543699269  C 4.85570899611592 5.76491813660127  4.69055006662633 6.0457495942876  4.55103485879321 6.3100217443277  C 4.17151840079797 7.01358166645796  3.54953309463905 7.55063240701741  2.69983791368298 7.93993556392947  C 2.69983791368298 7.93993556392947  2.32875515475425 7.27858923712703  2.32875515475425 7.27858923712703  C 3.17212506141041 6.89163127995539  3.73296604933673 6.3921037352429  4.03657921573298 5.79407780143218  C 4.35958954228228 5.01314968803968  4.52510425755308 4.10444904713383  4.52151691206024 3.2448456835802  C 4.52151691206024 3.2448456835802  4.52151691206024 1.68528785619144  4.52151691206024 1.68528785619144  C 4.52151691206024 1.68528785619144  5.23416448318469 1.68528785619144  5.23416448318469 1.68528785619144  C 5.23416448318469 1.68528785619144  5.23416448318469 3.23311968487803  5.23416448318469 3.23311968487803  C 5.22564285070098 3.85900358300747  5.15493242956625 4.54055079234988  5.02332200652064 5.14914787281278  C 5.02332200652064 5.14914787281278  5.60103039258012 5.14914787281278  5.60103039258012 5.14914787281278  C 5.60103039258012 5.14914787281278  5.60103039258012 6.85410808410844  5.60103039258012 6.85410808410844  C 5.59964253332347 6.86389661759059  5.5989454121617 6.87379093853708  5.5989454121617 6.88370045134392  C 5.5989454121617 6.98861311355179  5.67540729983227 7.07366163031909  5.76972781825955 7.07366163031909  C 5.77676824474829 7.07366163031909  5.783801934541 7.07317738280497  5.79078862157773 7.07221165996882  C 5.79078862157773 7.07221165996882  6.1386787080734 7.07221165996882  6.1386787080734 7.07221165996882  C 6.2213674241478 7.07694518988922  6.29889292259794 7.02740790472643  6.3368706361376 6.94557087398536  C 6.41136091932431 6.66073836167005  6.44689909614935 6.36506073048589  6.44229187446962 6.06846617106298  C 6.44229187446962 6.06846617106298  7.05795190632858 6.28891494666379  7.05795190632858 6.28891494666379  C 7.0115665614625 7.01358166645795  6.92090429649698 7.44509841869785  6.80072408479849 7.58815560286435  C 6.6470749651407 7.72858337664911  6.45091381429995 7.79823632004925  6.25253364547198 7.78280718132038  Z M 6.5245204403686 0.367285602067421  C 6.5245204403686 0.367285602067421  6.5245204403686 5.14445747333189  6.5245204403686 5.14445747333189  C 6.5245204403686 5.14445747333189  5.83295711691056 5.14445747333189  5.83295711691056 5.14445747333189  C 5.83295711691056 5.14445747333189  5.83295711691056 1.09898792108289  5.83295711691056 1.09898792108289  C 5.83295711691056 1.09898792108289  3.92272427833439 1.09898792108289  3.92272427833439 1.09898792108289  C 3.92272427833439 1.09898792108289  3.92272427833439 5.14445747333189  3.92272427833439 5.14445747333189  C 3.92272427833439 5.14445747333189  3.23116095487635 5.14445747333189  3.23116095487635 5.14445747333189  C 3.23116095487635 5.14445747333189  3.23116095487635 0.367285602067421  3.23116095487635 0.367285602067421  C 3.23116095487635 0.367285602067421  6.5245204403686 0.367285602067421  6.5245204403686 0.367285602067421  Z M 11.4666680933736 1.87759423490706  C 11.4666680933736 1.87759423490706  11.5720893317056 2.65385534899077  11.5720893317056 2.65385534899077  C 11.5720893317056 2.65385534899077  9.38565284869957 3.01736130875807  9.38565284869954 3.01736130875807  C 9.4113535540994 3.36656767538573  9.45712973298859 3.77221537581268  9.52270045853119 4.11491478728128  C 9.57462167158568 4.4107987185232  9.69277836105087 4.70354673190448  9.77149458099474 4.99201949020368  C 10.1852135195 4.44002734602644  10.5279489373116 3.76812328242069  10.789863743282 3.11116929837546  C 10.789863743282 3.11116929837546  11.4223911732742 3.47467525814275  11.4223911732742 3.47467525814275  C 11.08469281254 4.33605756261604  10.6200752553451 5.1873161763865  10.0476982254246 5.87850499208781  C 10.0956287913242 6.01212523225504  10.1512663951983 6.14216349033151  10.2142637819892 6.2678081489999  C 10.473600028286 6.75795489475064  10.7160688764496 7.0018556677558  10.9290197778803 7.01123646671754  C 11.0491999895788 6.98543926957276  11.171488626044 6.57971971447765  11.300102536809 5.7940778014322  C 11.300102536809 5.7940778014322  11.9073288696014 6.23263015289339  11.9073288696014 6.23263015289339  C 11.8135248221898 6.60786548719113  11.6893219692588 6.97286609291193  11.5362461106727 7.3231480321953  C 11.3675721293415 7.67727319300085  11.1778139003439 7.86254397249516  10.9669714236798 7.86254397249516  C 10.602213939051 7.86254397249516  10.2458901534888 7.58346520338349  9.88745794315997 7.0440692630836  C 9.75647636681036 6.84503222302994  9.58943408258576 6.63308047318872  9.4931825117982 6.41086533316637  C 9.0414877802927 6.83070528657841  8.53538200266471 7.1722651071827  7.99198407795027 7.42399162103397  C 7.99198407795027 7.42399162103397  7.55975700078901 6.70636050046109  7.55975700078901 6.70636050046109  C 8.15734112602521 6.44689979341279  8.70907221111311 6.07217564062524  9.189569345402 5.59942622297614  C 9.09258180613655 5.29689545646013  8.99981111640439 4.98498389098238  8.92390782480531 4.64727512835986  C 8.8186205809277 4.16931620618912  8.74045466864699 3.62583688291154  8.68987267570823 3.13696649552023  C 8.68987267570823 3.13696649552023  7.76427420315312 3.29644007786975  7.76427420315312 3.29644007786975  C 7.76427420315312 3.29644007786975  7.65674454005446 2.52017896378604  7.65674454005446 2.52017896378604  C 7.65674454005446 2.52017896378604  8.61396938410918 2.35132458247477  8.61396938410918 2.35132458247477  C 8.56125876494317 1.67590705722973  8.52963239344357 0.916062341329039  8.52963239344357 0.0811712337344542  C 8.52963239344357 0.0811712337344542  9.25914736270114 0.0811712337344542  9.25914736270114 0.0811712337344542  C 9.25914736270114 0.873848746001212  9.27390633606764 1.59147986657408  9.32029168093372 2.23171939571263  C 9.32029168093372 2.23171939571263  11.4666680933736 1.87759423490706  11.4666680933736 1.87759423490706  Z M 10.2585407020887 0.0389576384066405  C 10.5452952038247 0.430307252419599  10.8620920033158 0.900177329944748  11.1019106087448 1.32881749564545  C 11.1019106087448 1.32881749564545  10.4925758511858 1.66652625826798  10.4925758511858 1.66652625826797  C 10.2642748032655 1.22810511705195  9.95284794998653 0.751542229594005  9.66607334266275 0.357904803105692  C 9.66607334266275 0.357904803105692  10.2585407020887 0.0389576384066405  10.2585407020887 0.0389576384066405  Z M 12.073894426166 0.798802354307327  C 12.073894426166 0.798802354307327  12.82449364309 0.801147554047756  12.82449364309 0.801147554047756  C 12.82449364309 0.801147554047756  12.82449364309 6.07550177028428  12.82449364309 6.07550177028428  C 12.82449364309 6.07550177028428  12.073894426166 6.07550177028428  12.073894426166 6.07550177028428  C 12.073894426166 6.07550177028428  12.073894426166 0.798802354307327  12.073894426166 0.798802354307327  Z M 13.5687675857141 7.83674677535036  C 13.5687675857141 7.83674677535036  12.4238929374283 7.8390919750908  12.4238929374283 7.8390919750908  C 12.4238929374283 7.8390919750908  12.2552189560971 7.07221165996882  12.2552189560971 7.07221165996882  C 12.6115427416594 7.10504445633489  12.9467822795552 7.12146085451793  13.2651544193179 7.12146085451793  C 13.2795851021934 7.1239497983105  13.3468772089366 7.12519980601625  13.3614803494727 7.12519980601625  C 13.5186812135181 7.12519980601625  13.6461176929691 6.98345227807074  13.6461176929691 6.80859784105764  C 13.6461176929691 6.79795042526389  13.645634807455 6.78730978750227  13.6446708773131 6.77671649267409  C 13.6446708773131 6.77671649267409  13.6446708773131 0.0882068329557542  13.6446708773131 0.0882068329557542  C 13.6446708773131 0.0882068329557542  14.3573184484375 0.0882068329557542  14.3573184484375 0.0882068329557542  C 14.3573184484375 0.0882068329557542  14.3573184484375 6.976058470611  14.3573184484375 6.976058470611  C 14.3573184484375 7.55063240701739  14.0916569278409 7.83674677535036  13.5687675857141 7.83674677535036  Z M 18.2895306382219 0.0295768394448982  C 18.2895306382219 0.0295768394448982  19.0865152000119 0.0295768394448982  19.0865152000119 0.0295768394448982  C 19.0865152000119 0.0295768394448982  19.0865152000119 1.49063627773541  19.0865152000119 1.49063627773541  C 19.0865152000119 1.49063627773541  21.7895157508449 1.49063627773541  21.7895157508449 1.49063627773541  C 21.7895157508449 1.49063627773541  21.7895157508449 5.63694941882309  21.7895157508449 5.63694941882309  C 21.7895157508449 5.63694941882309  21.0684344806538 5.63694941882309  21.0684344806538 5.63694941882309  C 21.0684344806538 5.63694941882309  21.0684344806538 5.14445747333189  21.0684344806538 5.14445747333189  C 21.0684344806538 5.14445747333189  19.0865152000119 5.14445747333189  19.0865152000119 5.14445747333189  C 19.0865152000119 5.14445747333189  19.0865152000119 7.98214915925729  19.0865152000119 7.98214915925729  C 19.0865152000119 7.98214915925729  18.2895306382219 7.98214915925729  18.2895306382219 7.98214915925729  C 18.2895306382219 7.98214915925729  18.2895306382219 5.14445747333189  18.2895306382219 5.14445747333189  C 18.2895306382219 5.14445747333189  16.3181534814131 5.14445747333189  16.3181534814131 5.14445747333189  C 16.3181534814131 5.14445747333189  16.3181534814131 5.63694941882309  16.3181534814131 5.63694941882309  C 16.3181534814131 5.63694941882309  15.5970722112221 5.63694941882309  15.5970722112221 5.63694941882309  C 15.5970722112221 5.63694941882309  15.5970722112221 1.49063627773541  15.5970722112221 1.49063627773541  C 15.5970722112221 1.49063627773541  18.2895306382219 1.49063627773541  18.2895306382219 1.49063627773541  C 18.2895306382219 1.49063627773541  18.2895306382219 0.0295768394448982  18.2895306382219 0.0295768394448982  Z M 16.3181534814131 4.35881556028644  C 16.3181534814131 4.35881556028644  18.3422412573879 4.35881556028644  18.3422412573879 4.35881556028644  C 18.3422412573879 4.35881556028644  18.3422412573879 2.27393299104043  18.3422412573879 2.27393299104043  C 18.3422412573879 2.27393299104043  16.3181534814131 2.27393299104043  16.3181534814131 2.27393299104043  C 16.3181534814131 2.27393299104043  16.3181534814131 4.35881556028644  16.3181534814131 4.35881556028644  Z M 19.0338045808459 4.35881556028644  C 19.0338045808459 4.35881556028644  21.0684344806538 4.35881556028644  21.0684344806538 4.35881556028644  C 21.0684344806538 4.35881556028644  21.0684344806538 2.27393299104043  21.0684344806538 2.27393299104043  C 21.0684344806538 2.27393299104043  19.0338045808459 2.27393299104043  19.0338045808459 2.27393299104043  C 19.0338045808459 2.27393299104043  19.0338045808459 4.35881556028644  19.0338045808459 4.35881556028644  Z " fill-rule="nonzero" fill="#000000" stroke="none" transform="matrix(1 0 0 1 0 6 )" />
  </g>
</svg>