<?xml version="1.0" encoding="utf-8"?>
<svg version="1.1" xmlns:xlink="http://www.w3.org/1999/xlink" width="23px" height="23px" xmlns="http://www.w3.org/2000/svg">
  <g transform="matrix(1 0 0 1 -221 -224 )">
    <path d="M 21.722226776809 2.41243990804874  C 21.722226776809 2.41395582757004  21.7222252586127 2.41547174671409  21.7222222222222 2.41698766319444  L 21.7222222222222 7.52469136689815  C 22.3490653153082 7.52469105347163  22.8573978522462 8.03251525390523  22.8580247002315 8.65935803356482  L 22.8580247002315 11.5011358113426  C 22.8577112513154 12.1278867586072  22.3495413088197 12.6358026201355  21.7227902831745 12.6358026201355  L 21.7222222222222 19.4472098854167  C 21.722223073337 19.447777965973  21.7222234988946 19.4483460470917  21.7222234988946 19.4489141282856  C 21.7222234988946 20.0766984276089  21.2136358389207 20.5857935998768  20.5858518518519 20.586419744213  L 20.0185185185185 20.586419744213  L 20.0185185185185 21.7222222222222  C 20.0185185185185 22.3537284039352  19.5102469224537 22.8580247002315  18.8838518518519 22.8580247002315  L 16.6099752997685 22.8580247002315  C 16.6092163909083 22.8580262260538  16.6084574807064 22.8580269889655  16.6076985703124 22.8580269889655  C 15.9822940420354 22.8580269889655  15.4753034997105 22.3510364466406  15.4753034997105 21.7256319183637  C 15.4753034997105 21.724495351051  15.4753052108429 21.7233587843826  15.4753086331019 21.7222222222222  L 15.4753086331019 20.586419744213  L 7.52469136689815 20.586419744213  L 7.52469136689815 21.7222222222222  C 7.52469136689815 22.3537284039352  7.01641977083333 22.8580247002315  6.39002470023148 22.8580247002315  L 4.11614814814815 22.8580247002315  C 4.11538923928792 22.8580262260538  4.11463032908607 22.8580269889655  4.11387141869198 22.8580269889655  C 3.48846689041501 22.8580269889655  2.98147634809013 22.3510364466406  2.98147634809013 21.7256319183637  C 2.98147634809013 21.724495351051  2.98147805922252 21.7233587843826  2.98148148148148 21.7222222222222  L 2.98148148148148 20.586419744213  L 2.41414814814815 20.586419744213  C 1.78945678125 20.586419744213  1.27777777777778 20.0764444444444  1.27777777777778 19.4472098854167  L 1.27777777777778 12.6358024780093  C 0.650934684691754 12.6358027914358  0.14260214775384 12.1279785910022  0.141975299768519 11.5011358113426  L 0.141975299768519 8.65935803356481  C 0.141975299768518 8.03239507060185  0.650246922453704 7.52469136689815  1.27777777777778 7.52469136689815  L 1.27777777777778 2.41698766319444  C 1.27777393631159 2.41528279635266  1.27777201557666 2.41357792572375  1.27777201557666 2.4118730545541  C 1.27777201557666 1.15979114503965  2.29162370874929 0.144164904373786  3.5437037037037 0.141975299768518  L 19.4562962962963 0.141975299768518  C 20.7084671849138 0.144478392359191  21.722226776809 1.16026651758973  21.722226776809 2.41243990804874  Z M 2.98148148148148 16.6111111111111  L 2.98148148148148 17.7469135891204  L 7.52469136689815 17.7469135891204  L 7.52469136689815 16.6111111111111  L 2.98148148148148 16.6111111111111  Z M 15.4753086331019 16.6111111111111  L 15.4753086331019 17.7469135891204  L 20.0185185185185 17.7469135891204  L 20.0185185185185 16.6111111111111  L 15.4753086331019 16.6111111111111  Z M 20.586419744213 13.7716049293981  L 20.586419744213 11.5  L 20.586419744213 2.41698766319444  C 20.586419744213 1.78661729282407  20.0792839594907 1.27777777777778  19.4562962962963 1.27777777777778  L 3.5437037037037 1.27777777777778  C 2.92014814814815 1.27777777777778  2.41358025578704 1.78661729282407  2.41358025578704 2.41698766319444  L 2.41358025578704 13.7716049293981  L 20.586419744213 13.7716049293981  Z " fill-rule="nonzero" fill="#ffffff" stroke="none" transform="matrix(1 0 0 1 221 224 )" />
  </g>
</svg>