<?xml version="1.0" encoding="utf-8"?>
<svg version="1.1" xmlns:xlink="http://www.w3.org/1999/xlink" width="22px" height="22px" xmlns="http://www.w3.org/2000/svg">
  <g transform="matrix(1 0 0 1 -222 -153 )">
    <path d="M 21.8307692307692 14.4440784313725  C 21.8307692307692 12.1374431372549  20.3591384615385 9.99369411764706  17.7936 8.56084705882353  L 16.7728 8.56084705882353  C 17.0313846153846 9.9660862745098  17.0422153846154 11.8171921568627  16.3179076923077 14.6111058823529  C 16.1554461538462 15.3358117647059  15.4676923076923 15.8865882352941  14.6878769230769 15.8865882352941  C 14.5687384615385 15.8865882352941  14.4360615384615 15.8700235294118  14.2966153846154 15.8410352941176  C 13.8448003558476 15.7278384223146  13.4568010803455 15.4337455937358  13.2203076923077 15.0252235294118  C 12.9904878152706 14.6265488668327  12.9289420858005 14.1499286238589  13.0497230769231 13.7041882352941  C 13.7401846153846 11.0538352941177  13.6278153846154 9.70243137254902  13.2961230769231 8.56222745098039  L 12.5812923076923 8.56222745098039  C 12.8371692307692 9.96884705882353  12.8439384615385 11.8130509803922  12.1236923076923 14.5904  C 11.9707076923077 15.3220078431373  11.2843076923077 15.8865882352941  10.5058461538462 15.8865882352941  C 10.3853538461538 15.8865882352941  10.2540307692308 15.8700235294118  10.1145846153846 15.8410352941176  C 9.15876923076923 15.576  8.62264615384616 14.6235294117647  8.86769230769231 13.7069490196078  C 9.55815384615385 11.0565960784314  9.44578461538462 9.70381176470588  9.11544615384616 8.56360784313725  L 8.59286153846154 8.56360784313725  C 8.85009230769231 9.9660862745098  8.86092307692308 11.8116705882353  8.13932307692308 14.5890196078431  C 7.95655384615385 15.334431372549  7.26473846153847 15.8852078431373  6.49981538461539 15.8852078431373  C 6.37932307692308 15.8852078431373  6.248 15.8686431372549  6.10855384615385 15.8396549019608  C 5.15273846153846 15.5746196078431  4.61661538461539 14.6221490196078  4.86166153846154 13.705568627451  C 5.55076923076924 11.0565960784314  5.43975384615385 9.70381176470588  5.10941538461539 8.56360784313725  L 4.19692307692308 8.56360784313725  C 1.6368 9.99921568627451  0.169230769230769 12.1415843137255  0.169230769230769 14.4440784313725  C 0.169230769230769 18.6018196078431  5.02818461538461 21.9851607843137  11 21.9851607843137  C 16.9718153846154 21.9851607843137  21.8307692307692 18.6018196078431  21.8307692307692 14.4440784313725  Z M 6.97095384615385 6.6683294117647  C 6.79495384615385 6.18657254901961  6.62978461538461 5.73932549019608  6.50929230769231 5.24652549019608  C 6.05981538461538 3.28774901960784  7.4096 1.11639215686275  7.42043076923077 1.09292549019608  C 7.50273236695014 0.975739204191314  7.54698766912313 0.835222152208769  7.54698766912313 0.69108883768805  C 7.54698766912313 0.309904069177385  7.24391888439321 0.000892759256677353  6.87006459220006 0.000892759256677353  C 6.62482498560625 0.000892759256677353  6.39876474424786 0.13613382249736  6.27913846153846 0.354415686274511  C 6.2128 0.455184313725491  4.59901538461538 3.04203921568628  5.192 5.58196078431373  C 5.33415384615384 6.16448627450981  5.52098461538461 6.67937254901961  5.70781538461538 7.17217254901961  C 6.27913846153846 8.71683137254902  6.82744615384615 10.1828078431373  5.83913846153846 13.9788862745098  C 5.82428528560179 14.0365621469663  5.81676624696326 14.0959457511597  5.81676624696326 14.1555767796569  C 5.81676624696326 14.5395549527726  6.12186772828245 14.8509321810555  6.49846153846154 14.8512941176471  C 6.80929199571432 14.8473004005636  7.07918123007998 14.6320149187722  7.15778461538461 14.3253647058824  C 8.25575384615385 10.0930823529412  7.57476923076923 8.26958431372549  6.97095384615385 6.6683294117647  Z M 10.9661538461538 6.66832941176471  C 10.7915076923077 6.18657254901961  10.6263384615385 5.73932549019608  10.5058461538462 5.24652549019608  C 10.0550153846154 3.28774901960784  11.4061538461538 1.11639215686275  11.4169846153846 1.09292549019608  C 11.490646872731 0.979785011201549  11.5299376791257 0.847002069680018  11.5299376791257 0.711201584946057  C 11.5299376791257 0.476463566689358  11.4129261458512 0.257817705788266  11.2193230769231 0.130792156862746  C 11.1083583763707 0.0556855415291614  10.9781289529554 0.0156243271659183  10.8449400160048 0.0156243271659183  C 10.6147161904069 0.0156243271659183  10.4002750576 0.134930204230195  10.2756923076923 0.332329411764707  C 10.2093538461538 0.444141176470589  8.59556923076923 3.02961568627451  9.19938461538461 5.58196078431373  C 9.34153846153846 6.16448627450981  9.52836923076923 6.67937254901961  9.7152 7.17217254901961  C 10.2865230769231 8.71683137254902  10.8348307692308 10.1828078431373  9.84652307692308 13.9788862745098  C 9.83166990098641 14.0365621469663  9.82415086234787 14.0959457511597  9.82415086234787 14.1555767796569  C 9.82415086234787 14.5395549527726  10.1292523436671 14.8509321810555  10.5058461538462 14.8512941176471  C 10.8127041710887 14.849928614405  11.0773538372535 14.6311868878277  11.1421538461538 14.3253647058824  C 12.2401230769231 10.094462745098  11.5699692307692 8.28062745098039  10.9661538461538 6.66832941176471  Z M 15.3377230769231 14.348831372549  C 16.4343384615385 10.1165490196078  15.7641846153846 8.30271372549019  15.1603692307692 6.69041568627451  C 14.9843692307692 6.20865882352941  14.8205538461538 5.76141176470588  14.6987076923077 5.26861176470588  C 14.2492307692308 3.30983529411765  15.6003692307692 1.13847843137255  15.6112 1.11639215686274  C 15.6848622573464 1.00325167786821  15.7241530637411 0.870468736346684  15.7241530637411 0.734668251612722  C 15.7241530637411 0.499930233356023  15.6071415304665 0.281284372454931  15.4135384615385 0.154258823529412  C 15.3025737609861 0.0791522081958255  15.1723443375708 0.0390909938325823  15.0391554006202 0.0390909938325823  C 14.8089315750222 0.0390909938325823  14.5944904422154 0.15839687089686  14.4699076923077 0.355796078431372  C 14.4035692307692 0.456564705882353  12.7897846153846 3.04203921568627  13.3827692307692 5.58334117647059  C 13.5249230769231 6.16586666666667  13.7117538461538 6.68075294117647  13.8985846153846 7.17355294117647  C 14.4699076923077 8.71821176470588  15.0182153846154 10.1841882352941  14.0299076923077 13.9802666666667  C 14.015054516371 14.0379425391232  14.0075354777325 14.0973261433166  14.0075354777325 14.1569571718138  C 14.0075354777325 14.5409353449295  14.3126369590517 14.8523125732124  14.6892307692308 14.8526745098039  C 14.9930521191038 14.8559651643451  15.2602303988686 14.6483822198965  15.3377230769231 14.348831372549  Z " fill-rule="nonzero" fill="#ffffff" stroke="none" transform="matrix(1 0 0 1 222 153 )" />
  </g>
</svg>