<?xml version="1.0" encoding="utf-8"?>
<svg version="1.1" xmlns:xlink="http://www.w3.org/1999/xlink" width="18px" height="18px" xmlns="http://www.w3.org/2000/svg">
  <g transform="matrix(1 0 0 1 -38 -8 )">
    <path d="M 17.9813333333333 6.04396261682243  L 17.9813333333333 6.10856074766355  L 17.1493333333333 15.6690841121495  C 17.1066666666667 16.9179813084112  16.1253333333333 17.9084859813084  14.9093333333333 17.8317757009346  L 3.09066666666666 17.8317757009346  C 1.87466666666667 17.9084859813084  0.893333333333336 16.9179813084112  0.850666666666664 15.7121495327103  L 0.0400000000000015 6.0654953271028  C 0.0400000000000015 5.2472523364486  0.488 4.49360747663551  1.192 4.10601869158879  L 7.72000000000001 0.445457943925238  C 8.53066666666666 -0.00672897196262027  9.49066666666666 -0.00672897196262027  10.3013333333333 0.445457943925238  L 16.8293333333333 4.08448598130841  C 17.5333333333333 4.47207476635514  17.9813333333333 5.22571962616823  17.9813333333333 6.04396261682243  Z M 12.8333333333333 11.3410093457944  L 12.8333346427533 16.1495327102804  L 14.9306666666667 16.1495327102804  C 15.2293333333333 16.1858691588785  15.464 15.9490093457944  15.464 15.6690841121495  L 15.464 15.6044859813084  L 16.2533333333333 6.04396261682243  C 16.2533333333333 5.87170093457944  16.1466666666667 5.69943925233645  15.976 5.61330841121495  L 9.46933333333334 1.9527476635514  C 9.17066666666667 1.78048598130841  8.82933333333333 1.78048598130841  8.552 1.9527476635514  L 2.024 5.61330841121495  C 1.85333333333333 5.69943925233645  1.74666666666667 5.85016822429907  1.74666666666667 6.04396261682243  L 2.57866666666666 15.6690841121495  C 2.57866666666666 15.9490093457944  2.81333333333333 16.1858691588785  3.112 16.1495327102804  L 5.16666666666667 16.149532707181  L 5.16666666666667 11.3410093457944  C 5.07466666666666 10.1782429906542  5.90666666666668 9.25233644859813  6.952 9.25233644859813  L 11.0266666666667 9.25233644859813  C 12.0506666666667 9.25233644859813  12.904 10.1997757009346  12.8333333333333 11.3410093457944  Z M 6.83336933647568 16.1495327102804  L 11.1666666666667 16.1495327088142  L 11.1666666666667 11.3410093457944  C 11.1973333333333 11.1041495327103  11.0693333333333 10.974953271028  11.0266666666667 11.1028037383178  L 6.952 11.1028037383178  C 6.90933333333334 10.974953271028  6.78133333333333 11.1041495327103  6.83333333333333 11.3410093457944  L 6.83336933647568 16.1495327102804  Z " fill-rule="nonzero" fill="#666666" stroke="none" transform="matrix(1 0 0 1 38 8 )" />
  </g>
</svg>