<?xml version="1.0" encoding="utf-8"?>
<svg version="1.1" xmlns:xlink="http://www.w3.org/1999/xlink" width="13px" height="23px" xmlns="http://www.w3.org/2000/svg">
  <g transform="matrix(1 0 0 1 -47 -158 )">
    <path d="M 5.50343964634146 10.5597248245779  C 8.29974817521429 10.5597248245779  10.5666041275797 8.29286887221241  10.5666041275797 5.49656034333958  C 10.5666041275797 2.70025181446675  8.29974817521429 0.433395862101293  5.50343964634146 0.433395862101293  C 2.70713111746863 0.433395862101293  0.44027516510323 2.70025181446675  0.44027516510323 5.49656034333958  C 0.44027516510323 8.29286887221241  2.70713111746863 10.5597248245779  5.50343964634146 10.5597248245779  Z M 0 21.5666041275798  L 11.0068792926829 21.5666041275798  L 11.0068792926829 17.3839899868668  C 11.0068792812849 14.3445242089984  8.54290543452873 11.8805503622423  5.50343965666036 11.8805503508443  C 5.14413638273896 11.8805503508443  4.7928751643223 11.914982483684  4.45277564211123 11.9807271086744  C 1.91586029527031 12.4711381125654  0 14.7038274748602  0 17.3839899868668  L 0 21.5666041275798  Z M 12.3277048086304 21.5666041275798  C 12.3277048086304 21.5666041275798  12.3277048086304 18.8918742284148  12.3277048086304 21.5666041275798  C 12.3277048086304 24.2413340267447  12.3277048086304 21.5666041275798  12.3277048086304 21.5666041275798  Z " fill-rule="nonzero" fill="#ffffff" stroke="none" transform="matrix(1 0 0 1 47 158 )" />
  </g>
</svg>