<?xml version="1.0" encoding="utf-8"?>
<svg version="1.1" xmlns:xlink="http://www.w3.org/1999/xlink" width="19px" height="20px" xmlns="http://www.w3.org/2000/svg">
  <g transform="matrix(1 0 0 1 -345 -57 )">
    <path d="M 17.2436180467026 10.6669672377517  C 17.2436180467026 10.6669672377517  18.5102453281926 12.0616170724377  18.5102453281926 12.0616170724377  C 18.6473057429807 12.2155094679893  18.7229252821741 12.3934475503457  18.746556388172 12.6050495942291  C 18.77018749417 12.8118425007514  18.7276515033738 13.0090171325519  18.6236746369828 13.1917643522694  C 18.6236746369828 13.1917643522694  16.7426385995461 16.5148782687106  16.7426385995461 16.5148782687106  C 16.6386617331551 16.6831980763451  16.4921488759679 16.8130447850917  16.3125524703834 16.8948001202285  C 16.132956064799 16.9813645927262  15.9439072168154 17.0054102795311  15.7454059264327 16.9765554553652  C 15.7454059264327 16.9765554553652  13.9541680917882 16.6302975653742  13.9541680917882 16.6302975653742  C 13.7273094742079 16.5822061917644  13.5099032990268 16.6206792906523  13.2972233450452 16.7360985873159  C 13.0845433910637 16.8515178839796  12.942756755076 17.0246468289751  12.8671372158826 17.2554854223024  C 12.8671372158826 17.2554854223024  12.2999906719318 19.0108205590622  12.2999906719318 19.0108205590622  C 12.238549796337 19.2128043282236  12.125120487547 19.3715058611362  11.9597027455613 19.4965434325218  C 11.7942850035757 19.6215810039074  11.6052361555921 19.6792906522392  11.3925562016105 19.6792906522392  C 11.3925562016105 19.6792906522392  7.5076023755479 19.6792906522392  7.5076023755479 19.6792906522392  C 7.29492242156637 19.6937180643222  7.10114735238321 19.6408175533513  6.9168247255992 19.5157799819657  C 6.73722832001473 19.3907424105801  6.61434656882543 19.2224226029455  6.55290569323079 19.0060114217013  C 6.55290569323079 19.0060114217013  5.98575914928007 17.2506762849414  5.98575914928007 17.2506762849414  C 5.91013961008659 17.0198376916141  5.76835297409893 16.8467087466186  5.55567302011732 16.7312894499549  C 5.34299306613579 16.6158701532913  5.12558689095465 16.5822061917644  4.89872827337437 16.6254884280132  C 4.89872827337437 16.6254884280132  3.10749043872989 16.9717463180042  3.10749043872989 16.9717463180042  C 2.91371536954674 17.0006011421701  2.71994030036358 16.9765554553652  2.54034389477917 16.8899909828675  C 2.3607474891947 16.8034265103697  2.21423463200743 16.6783889389841  2.11025776561651 16.5100691313496  C 2.11025776561651 16.5100691313496  0.205590622181889 13.1869552149084  0.205590622181889 13.1869552149084  C 0.101613755790893 13.004207995191  0.0590777649946168 12.8070333633906  0.0827088709925976 12.6002404568681  C 0.106339976990504 12.3934475503457  0.186685737383519 12.2107003306282  0.319019930972033 12.0568079350767  C 0.319019930972033 12.0568079350767  1.50057523086943 10.6717763751127  1.50057523086943 10.6717763751127  C 1.65181430925624 10.4890291553953  1.72743384844972 10.1571986774873  1.72743384844972 9.91674180943793  C 1.72743384844972 9.67628494138868  1.65181430925624 9.46468289750525  1.50057523086943 9.28193567778779  C 1.50057523086943 9.28193567778779  0.319019930972033 7.89690411782385  0.319019930972033 7.89690411782385  C 0.181959516183983 7.74301172227229  0.106339976990504 7.56507363991583  0.0921613133917453 7.36789900811543  C 0.0779826497929866 7.17072437631502  0.115792419389652 6.97354974451453  0.205590622181889 6.79080252479707  C 0.205590622181889 6.79080252479707  2.11025776561651 3.46768860835588  2.11025776561651 3.46768860835588  C 2.20005596840867 3.29936880072137  2.33239016199718 3.1743312293357  2.50726034638197 3.09738503155995  C 2.68213053076669 3.02043883378421  2.85700071515155 2.99158400961824  3.04132334193564 3.00601142170118  C 3.04132334193564 3.00601142170118  4.879823388576 3.35226931169223  4.879823388576 3.35226931169223  C 5.10668200615629 3.40036068530208  5.32408818133743 3.36188758641417  5.53676813531903 3.24646828975051  C 5.74944808930056 3.13104899308685  5.89123472528822 2.95792004809133  5.9668542644817 2.72708145476402  C 5.9668542644817 2.72708145476402  6.48673859643653 0.971746318004155  6.48673859643653 0.971746318004155  C 6.54817947203125 0.755335136759792  6.66633500202093 0.587015329125355  6.85065762880487 0.461977757739684  C 7.03025403438934 0.336940186354089  7.22875532477204 0.284039675383231  7.44143527875357 0.298467087466179  C 7.44143527875357 0.298467087466179  11.3263891048162 0.298467087466179  11.3263891048162 0.298467087466179  C 11.5390690587978 0.298467087466179  11.7281179067813 0.360985873158976  11.893535648767 0.481214307183639  C 12.0589533907526 0.606251878569234  12.1723826995427 0.764953411481808  12.2338235751374 0.966937180643148  C 12.2338235751374 0.966937180643148  12.8009701190882 2.72227231740302  12.8009701190882 2.72227231740302  C 12.8765896582817 2.95311091073033  13.0183762942694 3.12623985572585  13.2310562482509 3.2416591523895  C 13.4437362022325 3.35707844905316  13.6611423774136 3.39074241058006  13.8880009949939 3.34746017433122  C 13.8880009949939 3.34746017433122  15.6792388296383 3.00120228434025  15.6792388296383 3.00120228434025  C 15.8730138988216 2.97234746017436  16.0667889680046 2.99639314697924  16.2463853735891 3.08295761947693  C 16.4259817791736 3.16952209197469  16.5724946363608 3.29455966336036  16.6764715027518 3.4628794709948  C 16.6764715027518 3.4628794709948  18.5575075401884 6.78599338743606  18.5575075401884 6.78599338743606  C 18.6473057429807 6.96874060715353  18.6851155125774 7.16591523895393  18.6709368489786 7.36308987075434  C 18.6567581853799 7.56507363991576  18.5811386461864 7.74301172227221  18.4440782313983 7.89209498046284  C 18.4440782313983 7.89209498046284  17.2436180467026 9.27712654042678  17.2436180467026 9.27712654042678  C 17.0923789683157 9.45987376014424  17.0167594291223 9.6714758040276  17.0167594291223 9.91193267207693  C 17.0167594291223 10.1523895401263  17.0923789683157 10.4794108806733  17.2436180467026 10.6669672377517  Z M 15.8304779080253 11.9846708746618  C 15.3484033456672 11.4171926660655  15.1073660644881 10.6573489630298  15.1073660644881 9.93597835888196  C 15.1073660644881 9.21460775473406  15.3484033456672 8.57499248572291  15.8304779080253 8.02194168920952  C 15.8304779080253 8.02194168920952  16.5772208575604 7.16591523895409  16.5772208575604 7.16591523895409  C 16.5772208575604 7.16591523895409  15.3767606728646 5.02103997595433  15.3767606728646 5.02103997595433  C 15.3767606728646 5.02103997595433  14.2660986909612 5.25187856928172  14.2660986909612 5.25187856928172  C 13.5571655110227 5.40577096483329  12.8907683218805 5.29996994289157  12.2716333447343 4.92966636609564  C 11.6524983675882 4.55936278929979  11.227138459625 4.03035767959129  11.0002798420448 3.33784189960935  C 11.0002798420448 3.33784189960935  10.6363608096763 2.25097685602653  10.6363608096763 2.25097685602653  C 10.6363608096763 2.25097685602653  8.11255868909558 2.25097685602653  8.11255868909558 2.25097685602653  C 8.11255868909558 2.25097685602653  7.74863965672717 3.33784189960935  7.74863965672717 3.33784189960935  C 7.52178103914688 4.03035767959136  7.09642113118375 4.55936278929979  6.47728615403753 4.92966636609564  C 5.85815117689131 5.29996994289157  5.19175398774921 5.40577096483329  4.48282080781075 5.25187856928172  C 4.48282080781075 5.25187856928172  3.37215882590722 5.02103997595433  3.37215882590722 5.02103997595433  C 3.37215882590722 5.02103997595433  2.17169864121152 7.14186955214912  2.17169864121152 7.14186955214912  C 2.17169864121152 7.14186955214912  2.91844159074664 7.99789600240456  2.91844159074664 7.99789600240456  C 3.40051615310474 8.55094679891795  3.6462796554834 9.19537120529011  3.6462796554834 9.92636008415995  C 3.6462796554834 10.6573489630298  3.40524237430435 11.4220018034265  2.91844159074664 11.9750525999399  C 2.91844159074664 11.9750525999399  2.17169864121152 12.8310790501954  2.17169864121152 12.8310790501954  C 2.17169864121152 12.8310790501954  3.3957899319052 14.9567177637511  3.3957899319052 14.9567177637511  C 3.3957899319052 14.9567177637511  4.50645191380866 14.7258791704238  4.50645191380866 14.7258791704238  C 5.21538509374712 14.5719867748722  5.8817822828893 14.6825969341749  6.50091726003551 15.0625187856928  C 7.12005223718166 15.4376314998497  7.54541214514479 15.9762548842801  7.77227076272508 16.6687706642621  C 7.77227076272508 16.6687706642621  8.11255868909558 17.7556357078449  8.11255868909558 17.7556357078449  C 8.11255868909558 17.7556357078449  10.6363608096763 17.7556357078449  10.6363608096763 17.7556357078449  C 10.6363608096763 17.7556357078449  11.0002798420448 16.692816351067  11.0002798420448 16.692816351067  C 11.227138459625 16.000300571085  11.6524983675882 15.4664863240156  12.2716333447343 15.0865644724977  C 12.8907683218805 14.7114517583408  13.5571655110227 14.5960324616772  14.2660986909612 14.7499248572287  C 14.2660986909612 14.7499248572287  15.3767606728646 14.980763450556  15.3767606728646 14.980763450556  C 15.3767606728646 14.980763450556  16.5772208575604 12.8599338743613  16.5772208575604 12.8599338743613  C 16.5772208575604 12.8599338743613  15.8304779080253 11.9846708746618  15.8304779080253 11.9846708746618  Z M 9.43590062498065 6.07905019537119  C 10.1164764777215 6.07905019537126  10.7497901184665 6.25217914036678  11.331115326016 6.59843703035775  C 11.9124405335655 6.94469492034871  12.3756102111253 7.41599038172535  12.7158981374958 8.00751427712657  C 13.0561860638663 8.5990381725278  13.2263300270514 9.36369101292462  13.2263300270514 10.0562067929066  C 13.2263300270514 10.7487225728885  13.0561860638663 11.3931469792606  12.7158981374958 11.9846708746619  C 12.3756102111253 12.5761947700632  11.9124405335655 13.0474902314397  11.331115326016 13.3937481214307  C 10.7497901184665 13.7400060114217  10.1164764777215 13.9131349564172  9.43590062498065 13.9131349564172  C 8.75532477223971 13.9131349564172  8.00385560150498 13.7400060114217  7.4225303939555 13.3937481214307  C 6.84120518640595 13.0474902314397  6.37803550884615 12.5761947700631  6.03774758247572 11.9846708746619  C 5.69745965610521 11.3931469792606  5.52731569292003 10.7487225728885  5.52731569292003 10.0562067929066  C 5.52731569292003 9.36369101292462  5.69745965610521 8.5990381725278  6.03774758247572 8.00751427712657  C 6.37803550884615 7.41599038172527  6.84120518640595 6.94469492034864  7.4225303939555 6.59843703035775  C 8.00385560150498 6.25217914036671  8.75532477223971 6.07905019537119  9.43590062498065 6.07905019537119  Z M 9.43590062498065 11.9702434625789  C 9.95105873573587 11.970243462579  10.3953235284973 11.7826871055005  10.7639687820652 11.4027652539826  C 11.1326140356332 11.0276525398257  11.3216628836169 10.575593627893  11.3216628836169 10.0513976555456  C 11.3216628836169 9.52720168319812  11.1373402568328 8.95972347460179  10.7639687820652 8.57980162308392  C 10.3905973072977 8.20468890892706  9.95105873573587 8.01232341448766  9.43590062498065 8.01232341448766  C 8.92074251422543 8.01232341448766  8.36304841267378 8.19987977156605  7.98967693790622 8.57980162308392  C 7.61630546313866 8.95491433724086  7.43198283635465 9.5272016831982  7.43198283635465 10.0513976555456  C 7.43198283635465 10.5755936278931  7.61630546313866 11.0228434024647  7.98967693790622 11.4027652539826  C 8.35832219147424 11.7826871055004  8.92074251422543 11.9702434625789  9.43590062498065 11.9702434625789  Z " fill-rule="nonzero" fill="#333333" stroke="none" transform="matrix(1 0 0 1 345 57 )" />
  </g>
</svg>