<?xml version="1.0" encoding="utf-8"?>
<svg version="1.1" xmlns:xlink="http://www.w3.org/1999/xlink" width="27px" height="28px" xmlns="http://www.w3.org/2000/svg">
  <defs>
    <linearGradient gradientUnits="userSpaceOnUse" x1="14" y1="-2.48689957516035E-14" x2="27" y2="28" id="LinearGradient65">
      <stop id="Stop66" stop-color="#00bfbf" offset="0" />
      <stop id="Stop67" stop-color="#008080" offset="1" />
    </linearGradient>
  </defs>
  <g transform="matrix(1 0 0 1 -303 -305 )">
    <path d="M 23.9891769462617 21.9656982017544  L 23.9891769462617 22  L 6.13883042873832 22  L 0.188596577102804 27.7587019254386  L 0.203411817757009 3.13784707894737  C 0.203411817757009 1.54514727192982  1.52732496028037 0.241266666666667  3.1636489521028 0.241266666666667  L 23.9891769462617 0.241266666666667  C 25.6254686705608 0.241266666666667  26.9641647546729 1.54514727192982  27 3.13784707894737  L 27 19.0690864122807  C 26.9641647546729 20.6626344473684  25.6254686705608 21.9656982017544  23.9891769462617 21.9656982017544  Z M 21.0141245712617 6.6858336754386  L 21.0141245712617 7  L 6.13883042873832 7  L 6.13883042873832 10  L 21.0141245712617 10  L 21.0141245712617 6.6858336754386  Z M 21.0141245712617 12.4775492763158  L 21.0141245712617 13  L 6.13883042873832 13  L 6.13883042873832 15  L 21.0141245712617 15  L 21.0141245712617 12.4775492763158  Z " fill-rule="nonzero" fill="url(#LinearGradient65)" stroke="none" transform="matrix(1 0 0 1 303 305 )" />
  </g>
</svg>