<?xml version="1.0" encoding="utf-8"?>
<svg version="1.1" xmlns:xlink="http://www.w3.org/1999/xlink" width="18px" height="24px" xmlns="http://www.w3.org/2000/svg">
  <g transform="matrix(1 0 0 1 -136 -445 )">
    <path d="M 3.87085714285714 11.3742222222222  L 3.87085714285714 10  L 14.1291428571429 10  L 14.1291428571429 11.3742222222222  L 3.87085714285714 11.3742222222222  Z M 3.87085714285714 16.608  L 3.87085714285714 14.9013333333333  L 12.456 14.9013333333333  L 12.456 16.608  L 3.87085714285714 16.608  Z M 18 22.6951111111111  L 16.7897142857143 23.8328888888889  L 1.21028571428572 23.8328888888889  L 0.113142857142861 22.6951111111111  L 0.113142857142861 1.30488888888889  L 1.21028571428572 0.167111111111113  L 10.4811428571429 0.167111111111113  L 11.1942857142857 0.451555555555552  L 14.8697142857143 3.72266666666667  L 17.5028571428572 5.94133333333333  L 18 6.82311111111111  L 18 22.6951111111111  Z M 2.30742857142858 2.44266666666667  L 2.30742857142858 21.5573333333333  L 15.72 21.5573333333333  L 15.72 7.36355555555556  L 13.4434285714286 5.45777777777778  L 10.0422857142857 2.44266666666667  L 2.30742857142858 2.44266666666667  Z " fill-rule="nonzero" fill="#333333" stroke="none" transform="matrix(1 0 0 1 136 445 )" />
  </g>
</svg>