<?xml version="1.0" encoding="utf-8"?>
<svg version="1.1" xmlns:xlink="http://www.w3.org/1999/xlink" width="24px" height="24px" xmlns="http://www.w3.org/2000/svg">
  <g transform="matrix(1 0 0 1 -219 -525 )">
    <path d="M 22.3379166666667 10.3192777777778  C 22.2686388888889 4.66638888888889  17.6699722222222 0.103916666666668  12.0001111111111 0.103916666666668  C 6.33025 0.103916666666668  1.73161111111111 4.66638888888889  1.66219444444444 10.3192777777778  C 0.713222222222219 11.078  0.103972222222219 12.2428888888889  0.103972222222219 13.5517777777778  C 0.103972222222219 15.8366111111111  1.95666666666666 17.6898055555556  4.24175 17.6898055555556  C 5.23894444444444 17.6898055555556  6.15336111111111 17.3363055555556  6.86769444444444 16.7493333333333  L 4.91825 9.47369444444445  C 4.69744444444444 9.43775  4.47255555555555 9.41383333333334  4.24177777777777 9.41383333333334  C 4.08972222222222 9.41383333333334  3.94025 9.42325  3.79225 9.43955555555556  C 4.29097222222222 5.3465  7.77191666666666 2.17286111111111  12.00025 2.17286111111111  C 16.228 2.17286111111111  19.7094722222222 5.34647222222223  20.2080555555556 9.43955555555556  C 20.0606666666667 9.42336111111111  19.9106944444444 9.41383333333334  19.7586111111111 9.41383333333334  C 19.5279166666667 9.41383333333334  19.3024722222222 9.43780555555556  19.0815277777778 9.47369444444445  L 17.1326666666667 16.7459444444444  C 17.6839722222222 17.1985833333333  18.3543611111111 17.5114722222222  19.0898611111111 17.6311666666667  C 18.1138055555556 18.6798055555556  16.8725 19.4786944444444  15.46825 19.9108333333333  L 15.2970277777778 20.0818333333333  C 14.8589722222222 19.2765555555556  14.0158611111111 18.7237222222222  13.03475 18.7237222222222  C 11.6062222222222 18.7237222222222  10.4485833333333 19.8813333333333  10.4485833333333 21.3103333333333  C 10.4485833333333 22.7389722222222  11.6061666666667 23.8965555555556  13.03475 23.8965555555556  C 14.2072777777778 23.8965555555556  15.1852777777778 23.1112777777778  15.5028611111111 22.0421666666667  C 18.3570833333333 21.3424722222222  20.7481111111111 19.4635833333333  22.1215277777778 16.9454444444444  C 23.1936111111111 16.19775  23.8965 14.9576111111111  23.8965 13.5516944444444  C 23.8964444444444 12.2431388888889  23.2866388888889 11.0778611111111  22.3381111111111 10.3191666666667  Z " fill-rule="nonzero" fill="#333333" stroke="none" transform="matrix(1 0 0 1 219 525 )" />
  </g>
</svg>