<?xml version="1.0" encoding="utf-8"?>
<svg version="1.1" xmlns:xlink="http://www.w3.org/1999/xlink" width="23px" height="24px" xmlns="http://www.w3.org/2000/svg">
  <g transform="matrix(1 0 0 1 -46 -445 )">
    <path d="M 22.945318627451 1.64611111111111  C 23.0267769607843 1.17833333333333  22.8348284313726 0.704444444444444  22.4475490196078 0.421944444444444  C 22.0602696078431 0.138611111111111  21.5450245098039 0.0950000000000001  21.114056372549 0.3075  L 0.741017156862744 10.3716666666667  C 0.335134803921567 10.5727777777778  0.0673651960784302 10.9708333333333  0.0388970588235289 11.4177777777778  C 0.0101645755973283 11.8647338112017  0.224632757613306 12.2930603514436  0.602058823529411 12.5425  L 7.39128676470588 17.0313888888889  C 7.36901960784314 17.1252777777778  7.34280637254902 17.2186111111111  7.34280637254902 17.3163888888889  L 7.34280637254902 22.5672222222222  C 7.34280637254902 23.2625  7.91470588235294 23.8261111111111  8.62020833333333 23.8261111111111  C 9.32571078431372 23.8261111111111  9.89761029411764 23.2625  9.89761029411764 22.5672222222222  L 9.89761029411764 17.7522222222222  L 19.6830392156863 5.49055555555556  L 17.209693627451 19.6644444444444  L 12.7596446078431 17.4302777777778  C 12.1279901960784 17.1130555555556  11.3613235294118 17.3613888888889  11.0414093137255 17.9802777777778  C 10.7214950980392 18.5997222222222  10.9715073529412 19.3583333333333  11.5994975490196 19.6736111111111  L 17.5941544117647 22.6827777777778  C 17.776237745098 22.7744444444444  17.9752328431373 22.8197222222222  18.1742279411765 22.8197222222222  C 18.3701225490196 22.8197222222222  18.5665808823529 22.7755555555556  18.7466911764706 22.6863888888889  C 19.1095408087431 22.507109105186  19.3642402538488 22.1684440432885  19.4327450980392 21.7741666666667  L 22.945318627451 1.64611111111111  Z M 16.5036274509804 5.40166666666667  L 8.86458333333333 14.9736111111111  L 3.84460784313726 11.655  L 16.5036274509804 5.40166666666667  Z " fill-rule="nonzero" fill="#333333" stroke="none" transform="matrix(1 0 0 1 46 445 )" />
  </g>
</svg>