<?xml version="1.0" encoding="utf-8"?>
<svg version="1.1" xmlns:xlink="http://www.w3.org/1999/xlink" width="25px" height="24px" xmlns="http://www.w3.org/2000/svg">
  <g transform="matrix(1 0 0 1 -132 -525 )">
    <path d="M 24.7753231139163 9.01800317154316  C 24.84144875263 9.25680171636458  24.8294259092275 9.47769037032431  24.7572888488129 9.68663909704302  C 24.6791403666968 9.89558782376173  24.552900510971 10.0806566959983  24.3785692816351 10.2299057865117  C 24.3785692816351 10.2299057865117  19.4191463781184 15.1670657006934  19.4191463781184 15.1670657006934  C 19.4191463781184 15.1670657006934  20.6334535617674 21.9549143372408  20.6334535617674 21.9549143372408  C 20.6695220919748 22.1817729548211  20.6454764051698 22.4026616087808  20.5613165013527 22.6116103354995  C 20.4711451758341 22.8205590622183  20.3328824767057 22.9996579708343  20.1284941388639 23.1429370977271  C 19.9241058010221 23.2862162246199  19.7016831980764 23.3578557880663  19.4492034866245 23.3578557880663  C 19.2388037270815 23.3578557880663  19.0464382326419 23.310096079102  18.8721070033063 23.2145766611735  C 18.8721070033063 23.2145766611735  12.6021941689208 20.0325860514288  12.6021941689208 20.0325860514288  C 12.6021941689208 20.0325860514288  6.4585211902614 23.2145766611735  6.4585211902614 23.2145766611735  C 6.24812143071836 23.3280059699637  6.0256988277727 23.3757656789279  5.79726480312587 23.3578557880663  C 5.56883077847904 23.3399458972047  5.3584310189359 23.2623363701378  5.17808836789897 23.130997170486  C 4.99774571686203 22.9996579708343  4.85948301773372 22.8205590622183  4.77532311391637 22.5996704082585  C 4.68515178839785 22.3787817542987  4.66110610159291 22.1578931003389  4.70318605350163 21.9250645191382  C 4.70318605350163 21.9250645191382  5.91749323715059 15.1610957370728  5.91749323715059 15.1610957370728  C 5.91749323715059 15.1610957370728  0.952058911932644 10.2239358228911  0.952058911932644 10.2239358228911  C 0.79576194770065 10.0687167687573  0.693567778779614 9.8836478965206  0.633453561767396 9.66275924256087  C 0.573339344755084 9.44187058860113  0.579350766456344 9.22695189826187  0.645476405169821 9.01800317154316  C 0.711602043883299 8.80905444482445  0.831830477908018 8.62995553620846  1.0061617072437 8.48667640931565  C 1.18049293657947 8.34339728242283  1.37886985272009 8.25384782811479  1.61331529906818 8.21205808277105  C 1.61331529906818 8.21205808277105  8.44830177336926 7.20910419452126  8.44830177336926 7.20910419452126  C 8.44830177336926 7.20910419452126  11.5321611061016 1.04810173813  11.5321611061016 1.04810173813  C 11.6283438533213 0.839153011411295  11.7786293958522 0.677963993656892  11.9830177336939 0.558564721246136  C 12.1874060715358 0.445135412455941  12.3978058310791 0.385435776250704  12.6142170123234 0.385435776250704  C 12.8306281935677 0.385435776250704  13.1973249173429 0.445135412456035  13.4017132551848 0.558564721246136  C 13.6061015930266 0.671994030036331  13.7503757138561 0.833183047790734  13.8465584610759 1.04810173813  C 13.8465584610759 1.04810173813  16.9063721070032 7.20910419452126  16.9063721070032 7.20910419452126  C 16.9063721070032 7.20910419452126  23.7413585813043 8.21205808277105  23.7413585813043 8.21205808277105  C 23.9697926059512 8.22996797363264  24.1862037871955 8.31354746432012  24.3725578599337 8.45682659121294  C 24.564923354373 8.60010571810575  24.6971746318002 8.78517459034221  24.7753231139163 9.01800317154316  Z M 17.3692515779978 13.9611330493456  C 17.3692515779978 13.9611330493456  20.9761045987376 10.2299057865117  20.9761045987376 10.2299057865117  C 20.9761045987376 10.2299057865117  15.9265103697024 9.51351015204749  15.9265103697024 9.51351015204749  C 15.7341448752629 9.4956002611859  15.553802224226 9.42396069773955  15.3914938382926 9.29859146170823  C 15.2291854523594 9.173222225677  15.0969341749322 9.02397313516372  15.0007514277125 8.85681415378876  C 15.0007514277125 8.85681415378876  12.6021941689208 4.27188209321854  12.6021941689208 4.27188209321854  C 12.6021941689208 4.27188209321854  10.4681394649833 8.82696433568614  10.4681394649833 8.82696433568614  C 10.3719567177635 9.00009328068157  10.2397054403364 9.14934237119495  10.0773970544031 9.26874164360561  C 9.9150886684699 9.39411087963683  9.73474601743296 9.46575044308329  9.54238052299341 9.48366033394488  C 9.54238052299341 9.48366033394488  4.4927862939582 10.2299057865117  4.4927862939582 10.2299057865117  C 4.4927862939582 10.2299057865117  8.09963931469762 13.9611330493456  8.09963931469762 13.9611330493456  C 8.38818755635676 14.2476913031312  8.50240456868022 14.5939491931221  8.44830177336898 14.993936755698  C 8.44830177336898 14.993936755698  7.58265704839156 20.0087061969466  7.58265704839156 20.0087061969466  C 7.58265704839156 20.0087061969466  12.0852119026146 17.632660675974  12.0852119026146 17.632660675974  C 12.4699428914935 17.4416218401169  13.0049594229031 17.4416218401169  13.389690411782 17.632660675974  C 13.389690411782 17.632660675974  17.8862338443038 20.0087061969466  17.8862338443038 20.0087061969466  C 17.8862338443038 20.0087061969466  17.0205891193263 14.993936755698  17.0205891193263 14.993936755698  C 16.960474902314 14.5939491931221  17.0807033363386 14.2476913031312  17.3692515779978 13.9611330493456  Z " fill-rule="nonzero" fill="#333333" stroke="none" transform="matrix(1 0 0 1 132 525 )" />
  </g>
</svg>