<?xml version="1.0" encoding="utf-8"?>
<svg version="1.1" xmlns:xlink="http://www.w3.org/1999/xlink" width="41px" height="41px" xmlns="http://www.w3.org/2000/svg">
  <g transform="matrix(1 0 0 1 -255 -589 )">
    <path d="M 256 594  A 4 4 0 0 1 260 590 L 291 590  A 4 4 0 0 1 295 594 L 295 625  A 4 4 0 0 1 291 629 L 260 629  A 4 4 0 0 1 256 625 L 256 594  Z " fill-rule="nonzero" fill="#ffffff" stroke="none" />
    <path d="M 255.5 594  A 4.5 4.5 0 0 1 260 589.5 L 291 589.5  A 4.5 4.5 0 0 1 295.5 594 L 295.5 625  A 4.5 4.5 0 0 1 291 629.5 L 260 629.5  A 4.5 4.5 0 0 1 255.5 625 L 255.5 594  Z " stroke-width="1" stroke-dasharray="3,1" stroke="#797979" fill="none" stroke-dashoffset="0.5" />
  </g>
</svg>