<?xml version="1.0" encoding="utf-8"?>
<svg version="1.1" xmlns:xlink="http://www.w3.org/1999/xlink" width="28px" height="28px" xmlns="http://www.w3.org/2000/svg">
  <g transform="matrix(1 0 0 1 -31 -281 )">
    <path d="M 28 5.1753345770721  L 28 19.0555545042444  L 18.9933340101184 16.0268883410097  C 18.9933340101184 16.0268883410097  19.6855561924779 14.990888513216  20.4244450015392 12.9593332831976  C 21.1633338470588 10.9277780531791  21.2691116047353 9.81244490523907  21.2691116047353 9.81244490523907  L 15.4388898449171 9.76577824632945  L 15.4388898449171 7.77155637989702  L 22.5011115121596 7.72177858608787  L 22.5011115121596 6.31555662191672  L 15.4388898449171 6.31555662191672  L 15.4388898449171 3.11111268581691  L 11.9777789695776 3.11111268581691  L 11.9777789695776 6.31555662191672  L 5.39155726656731 6.31555662191672  L 5.39155726656731 7.72333415353763  L 11.9793345371691 7.67666749462801  L 11.9793345371691 9.81244490523907  L 6.69511269986466 9.81244490523907  L 6.69511269986466 11  L 17.5715563513295 11  C 17.5715563513295 10.9277780531791  17.451778594705 11.8331112360258  17.0348897249894 12.9593332831976  C 16.770379619139 13.6703907654634  16.4882182474026 14.3747567584988  16.1886675542018 15.0717773643538  C 16.1886675542018 15.0717773643538  11.0817790369055 13.2844443281152  8.39066814016441 13.2844443281152  C 5.69955724342336 13.2844443281152  2.42666858831532 14.3655552473687  2.10933527882726 17.5031102935453  C 1.79355753693064 20.6391097722721  3.63377959656809 22.3377761565824  6.22689053713145 22.9631093859714  C 8.82000144123649 23.5915537138016  11.2140012613449 22.9568871526307  13.2984455370059 21.9364428899597  C 15.3828898126668 20.9175541582801  17.4284452266666 18.6013323453712  17.4284452266666 18.6013323453712  L 27.925333338944 23.6988870657521  C 27.4971476873497 26.1859466778195  25.3389825512262 28.0024842854356  22.8153337229231 28  L 5.18466838107183 28  C 5.1831121259603 27.9999988524328  5.18155587029216 27.9999995537644  5.17999961454852 27.9999995537644  C 2.32098628072012 27.9999995537644  0.002576630418558 25.6836768909489  0 22.8246649766923  L 0 5.18466790885403  C 0 5.18311165388254  0 5.18155539835955  0 5.17999914275595  C 0 2.3209860693255  2.3163228737854 0.00257663018388043  5.17533504843982 0  L 22.815333722923 0  C 22.8168899780363 0  22.818446233701 0  22.8200024894464 0  C 25.6790158232748 0  27.9974254735763 2.31632266281551  28 5.1753345770721  Z M 14.8757787518142 17.3008881292425  L 14.8726676530896 17.3008881292425  C 14.8726676530896 17.3008881292425  11.596667899257 21.4386652070764  7.73577928833284 21.4386652070764  C 3.87333514627558 21.4386652070764  3.06289073842455 19.4724432995315  3.06289077488288 18.0584435345698  C 3.06289077488288 16.6459993370579  3.86555738123502 15.1106662589313  7.15244599883274 14.8882218636148  C 10.4362235177059 14.6657774682984  14.8757787518142 17.3008881292425  14.8757787518142 17.3008881292425  Z " fill-rule="nonzero" fill="#02a9f1" stroke="none" transform="matrix(1 0 0 1 31 281 )" />
  </g>
</svg>