<?xml version="1.0" encoding="utf-8"?>
<svg version="1.1" xmlns:xlink="http://www.w3.org/1999/xlink" width="30px" height="25px" xmlns="http://www.w3.org/2000/svg">
  <g transform="matrix(1 0 0 1 -30 -343 )">
    <path d="M 10.9659259375 15.7260073145604  L 10.9674073958333 15.7260073145604  C 10.8292874754173 15.7932951574281  10.6769046699765 15.8269533414557  10.5229629513889 15.8241758241758  C 10.1674230611099 15.8279644345513  9.8378269328435 15.6405713460782  9.66222222222222 15.3347985233516  L 9.59259260416667 15.2043956043956  L 6.88148149305556 9.58241758241758  C 6.84740743055556 9.51501830357143  6.84740743055556 9.45201466346154  6.84740739583333 9.38608059752747  C 6.84740739583333 9.1238095467033  7.05333333333333 8.92747252747253  7.32888888888889 8.92747252747253  C 7.43259260416667 8.92747252747253  7.53481482638889 8.95970697115385  7.63703704861111 9.02564103708791  L 10.8311111111111 11.1838827953297  C 11.0696296180556 11.3128205357143  11.3451851736111 11.410989010989  11.6533333333333 11.410989010989  C 11.8266666666667 11.410989010989  11.9955555555556 11.3802197802198  12.1688888888889 11.3128205013736  L 27.1422222222222 4.97142857142857  C 24.4637037152778 1.96336995192308  20.0370370486111 0  15.0192592708333 0  C 6.84740739583333 0  0.185185173611111 5.26446885302198  0.185185173611111 11.767032967033  C 0.185185173611111 15.2967032967033  2.17629628472222 18.4996336881868  5.30074072916667 20.6578754464286  C 5.55045487577268 20.8306076553099  5.70311027840988 21.1097537789727  5.71259260416667 21.410989010989  C 5.70673870659956 21.5119232056352  5.68317766636811 21.611081159016  5.64296295138889 21.7040292925824  C 5.40296295138889 22.5860805631868  4.988148125 24.0263736263736  4.98814815972222 24.0908424793956  C 4.945861358668 24.2060981785487  4.92235850567894 24.3272667006841  4.91851850694444 24.4498168612637  C 4.91851850694444 24.713553125  5.12592590277778 24.9084249313187  5.4 24.908424896978  C 5.50370371527778 24.908424896978  5.6059259375 24.8761904532967  5.67555555555556 24.8102564217033  L 8.90222222222222 23.0124542239011  C 9.14074072916667 22.8835164835165  9.41629628472222 22.7853480082418  9.69185184027778 22.7853479739011  C 9.828148125 22.7853479739011  10.0014814583333 22.8161172046703  10.1362962847222 22.8512820398352  C 11.6474073958333 23.2761904532967  13.2977777777778 23.5062270947802  14.9807407291667 23.5062270947802  C 23.1525926041667 23.5062270947802  29.8148148263889 18.2417582417582  29.8148148263889 11.7391941277473  C 29.8148148263889 9.77582417582417  29.1970370486111 7.91501830357143  28.1318518402778 6.27838828983516  L 11.0696296180556 15.6600732486264  L 10.9659259375 15.7260073145604  Z " fill-rule="nonzero" fill="#09bb07" stroke="none" transform="matrix(1 0 0 1 30 343 )" />
  </g>
</svg>