<?xml version="1.0" encoding="utf-8"?>
<svg version="1.1" xmlns:xlink="http://www.w3.org/1999/xlink" width="29px" height="30px" xmlns="http://www.w3.org/2000/svg">
  <g transform="matrix(1 0 0 1 -31 -400 )">
    <path d="M 27.8776401073009 15.9022222115385  L 27.8776401073009 15.9008547115385  C 27.8776401073009 15.9008547115385  28.2485663716814 15.8488889102564  28.4087079646018 15.9555555448718  C 28.6208613462389 16.0608546794872  28.5674808152655 16.1141880128205  28.5674808152655 16.2194871794872  C 28.3019469026549 23.811965801282  21.9250265486726 29.8646153846154  14.3271976294248 29.8646153846154  C 6.6212389380531 29.8646153846154  0.0855457334070795 23.6  0.0855457334070795 15.7435897435897  C 0.0855457334070795 8.78837605769231  5.13342775 2.94905983974359  11.9880353982301 1.78119657051282  C 13.6715627867349 1.52144157903477  15.3764419714984 2.09518207114367  16.5595988307522 3.31965810897436  L 25.1141710807522 11.7613675320513  L 22.1385486725664 14.734358974359  C 22.1385486725664 14.734358974359  21.7142418772124 15.0529914423077  21.4473392223451 14.9996581089744  C 21.1818053097345 14.9476923076923  20.9162713650443 14.6290598076923  20.9162713971239 14.6290598397436  L 14.5393510431416 8.31111112179487  C 14.490794900419 8.26028056821565  14.4235314801955 8.23152115150841  14.353203539823 8.23152115150841  C 14.2828755994505 8.23152115150841  14.2156121792271 8.26028056821565  14.1670560365044 8.31111112179487  L 6.94015338163717 15.4769230769231  C 6.8888402757304 15.5254767865548  6.85977315658705 15.5929792380186  6.85977315658705 15.6635897435897  C 6.85977315658705 15.7342002491609  6.8888402757304 15.8017027006247  6.94015338163717 15.8502564102564  L 14.2218053097345 22.9641025641026  C 14.2702732856263 23.0140674996522  14.3369416986263 23.0422706419966  14.4065840707965 23.0422706419966  C 14.4762264429666 23.0422706419966  14.5428948559666 23.0140674996522  14.5913628318584 22.9641025641026  L 21.4487079646018 16.2741880448718  C 21.4487079646018 16.2741880448718  21.7662536980089 16.0088889102564  21.8730147599558 15.9555555448718  C 22.0317876106195 15.9022222115385  22.4040826172566 15.9022222115385  22.404082585177 15.9022222115385  L 27.8776401073009 15.9022222115385  Z M 26.3898289192478 10.4854700961538  L 18.8440117887168 3.05299144230769  C 16.7183716814159 0.663931602564102  14.7515044247788 0.610598269230769  14.7515044247788 0.610598301282051  C 14.7515044247788 0.610598333333334  19.6406135586283 -1.45982903846154  23.9452743362832 2.83965810897436  L 28.5154690265487 7.40717948717949  C 28.5154690265487 7.40717948717949  28.8343834701327 7.67247862179487  28.7810029391593 7.83111112179487  C 28.6742418772124 8.14974358974359  28.5154690265487 8.46837608974359  28.5154690265487 8.46837605769231  L 26.3898289192478 10.4854700961538  Z " fill-rule="nonzero" fill="#004f9c" stroke="none" transform="matrix(1 0 0 1 31 400 )" />
  </g>
</svg>