<?xml version="1.0" encoding="utf-8"?>
<svg version="1.1" xmlns:xlink="http://www.w3.org/1999/xlink" width="20px" height="20px" xmlns="http://www.w3.org/2000/svg">
  <g transform="matrix(1 0 0 1 -330 -210 )">
    <path d="M 340 210  C 345.6 210  350 214.4  350 220  C 350 225.6  345.6 230  340 230  C 334.4 230  330 225.6  330 220  C 330 214.4  334.4 210  340 210  Z " fill-rule="nonzero" fill="#ffffff" stroke="none" fill-opacity="0" />
    <path d="M 340 210.5  C 345.32 210.5  349.5 214.68  349.5 220  C 349.5 225.32  345.32 229.5  340 229.5  C 334.68 229.5  330.5 225.32  330.5 220  C 330.5 214.68  334.68 210.5  340 210.5  Z " stroke-width="1" stroke="#cccccc" fill="none" />
  </g>
</svg>