<?xml version="1.0" encoding="utf-8"?>
<svg version="1.1" xmlns:xlink="http://www.w3.org/1999/xlink" width="8px" height="5px" xmlns="http://www.w3.org/2000/svg">
  <g transform="matrix(1 0 0 1 -342 -295 )">
    <path d="M 7.80467532467533 0.352813852813852  C 7.67584415584416 0.21861471861472  7.50545454545454 0.151515151515153  7.33506493506493 0.151515151515153  C 7.16492467532468 0.151515151515153  6.9947012987013 0.219155844155846  6.86503896103896 0.354437229437232  L 4.01038961038961 3.32683982683983  L 1.15532467532468 0.352813852813852  C 0.895584415584415 0.0822510822510836  0.474805194805194 0.0822510822510836  0.215064935064935 0.352813852813852  C -0.0446753246753246 0.623376623376624  -0.0446753246753246 1.06168831168831  0.215064935064935 1.33225108225108  L 3.53974025974026 4.79545454545454  C 3.79948051948052 5.06601731601732  4.22025974025974 5.06601731601732  4.48 4.79545454545454  L 7.80467532467533 1.33225108225108  C 8.06441558441558 1.06168831168831  8.06441558441558 0.623376623376624  7.80467532467533 0.352813852813852  Z " fill-rule="nonzero" fill="#797979" stroke="none" transform="matrix(1 0 0 1 342 295 )" />
  </g>
</svg>