<?xml version="1.0" encoding="utf-8"?>
<svg version="1.1" xmlns:xlink="http://www.w3.org/1999/xlink" width="18px" height="18px" xmlns="http://www.w3.org/2000/svg">
  <g transform="matrix(1 0 0 1 -340 -385 )">
    <path d="M 1.62 11.88  L 1.62 15.23448  L 6.2394525 10.61505  C 6.30974504873729 10.5447662543041  6.42370245126271 10.5447662543041  6.493995 10.61505  L 7.38495 11.506005  C 7.45523374569594 11.5762975487373  7.45523374569594 11.6902549512627  7.38495 11.7605475  L 2.76552 16.38  L 6.12 16.38  C 6.3188325 16.38  6.48 16.5411675  6.48 16.74  L 6.48 17.82  C 6.48 17.9194112549695  6.39941125496954 18  6.3 18  L 0.72 18  C 0.3223575 18  0 17.6776425  0 17.28  L 0 11.7  C 0 11.6005887450305  0.0805887450304572 11.52  0.18 11.52  L 1.26 11.52  C 1.4588325 11.52  1.62 11.6811675  1.62 11.88  Z M 16.38 6.12  L 16.38 2.759985  L 11.7578025 7.382205  C 11.7240456852826 7.41596355429306  11.6782605752774 7.43492905885734  11.63052 7.43492905885734  C 11.5827794247226 7.43492905885734  11.5369943147174 7.41596355429306  11.5032375 7.382205  L 10.6122825 6.49125  C 10.5785239457069 6.45749318528262  10.5595584411427 6.41170807527744  10.5595584411427 6.3639675  C 10.5595584411427 6.31622692472256  10.5785239457069 6.27044181471738  10.6122825 6.236685  L 15.2289675 1.62  L 11.88 1.62  C 11.6811675 1.62  11.52 1.4588325  11.52 1.26  L 11.52 0.18  C 11.52 0.0805887450304572  11.6005887450305 0  11.7 0  L 17.28 0  C 17.6776425 0  18 0.3223575  18 0.72  L 18 6.3  C 18 6.39941125496954  17.9194112549695 6.48  17.82 6.48  L 16.74 6.48  C 16.5411675 6.48  16.38 6.3188325  16.38 6.12  Z " fill-rule="nonzero" fill="#aaaaaa" stroke="none" transform="matrix(1 0 0 1 340 385 )" />
  </g>
</svg>