<?xml version="1.0" encoding="utf-8"?>
<svg version="1.1" xmlns:xlink="http://www.w3.org/1999/xlink" width="25px" height="25px" xmlns="http://www.w3.org/2000/svg">
  <g transform="matrix(1 0 0 1 -30 -155 )">
    <path d="M 25 12.5  C 25 19.5  19.5 25  12.5 25  C 5.5 25  0 19.5  0 12.5  C 0 5.5  5.5 0  12.5 0  C 19.5 0  25 5.5  25 12.5  Z M 20.9905133928571 11.3255580357143  C 20.9905133928571 10.8948660714286  20.8216517857143 10.4869419642857  20.5161830357143 10.1814732142857  L 19.6301339285714 9.29542410714285  C 19.0552455357143 8.72243303571429  18.1957589285714 8.53649553571429  17.3837053571429 8.8154017857143  C 17.0497767857143 8.92924107142858  16.6873883928571 8.84575892857143  16.4388392857143 8.59720982142858  C 16.1902901785714 8.3486607142857  16.1068080357143 7.98627232142857  16.2206473214286 7.65424107142857  C 16.4995535714286 6.84218749999999  16.3155133928571 5.98270089285714  15.740625 5.40781250000001  L 14.8545758928571 4.52176339285714  C 14.2417410714286 3.90892857142856  13.1754464285714 3.91082589285713  12.5645089285714 4.52176339285714  L 4.52555803571428 12.5626116071429  C 4.22008928571429 12.8680803571428  4.05122767857143 13.2741071428571  4.05122767857143 13.7066964285714  C 4.05122767857143 14.1373883928571  4.22008928571429 14.5453125  4.52555803571428 14.85078125  L 5.41160714285714 15.7368303571429  C 5.98649553571428 16.3098214285714  6.84598214285715 16.4957589285714  7.65803571428572 16.2168526785714  C 7.99196428571429 16.1030133928572  8.35245535714286 16.1864955357143  8.60100446428572 16.4350446428572  C 8.84955357142857 16.6854910714286  8.93303571428572 17.0459821428572  8.81919642857143 17.3799107142857  C 8.5421875 18.1900669642857  8.72622767857143 19.0514508928571  9.29921875 19.6244419642857  L 10.1852678571429 20.5104910714286  C 10.4907366071429 20.8159598214286  10.8967633928571 20.9848214285714  11.3293526785714 20.9848214285714  C 11.7619419642857 20.9848214285714  12.16796875 20.8159598214286  12.4734375 20.5104910714286  L 20.5161830357143 12.4696428571428  C 20.8216517857143 12.1641741071429  20.9905133928571 11.7581473214286  20.9905133928571 11.3255580357143  Z M 5.77589285714286 13.7047991071429  L 13.7066964285714 5.76830357142856  L 14.5396205357143 6.60122767857143  C 14.7103794642857 6.77198660714285  14.6420758928571 7.02812499999999  14.6155133928571 7.10212053571428  C 14.2910714285714 8.05078125  14.5301339285714 9.0810267857143  15.2397321428571 9.79062500000001  C 15.9474330357143 10.5002232142857  16.9776785714286 10.7373883928571  17.9282366071429 10.41484375  C 18.0022321428571 10.38828125  18.2583705357143 10.3199776785714  18.4291294642857 10.4907366071428  L 19.2620535714286 11.3236607142857  L 11.3274553571429 19.2582589285714  L 10.49453125 18.4253348214286  C 10.3237723214286 18.2564732142857  10.3939732142857 18.0022321428571  10.4186383928571 17.9282366071429  C 10.7449776785714 16.9795758928572  10.5059151785714 15.9474330357143  9.79631696428572 15.2378348214286  C 9.29732142857143 14.7369419642857  8.63705357142857 14.4713169642857  7.95970982142858 14.4713169642857  C 7.67700892857143 14.4713169642857  7.38861607142857 14.51875  7.10970982142857 14.6136160714286  C 7.03571428571428 14.6401785714286  6.77957589285715 14.7084821428571  6.60881696428572 14.5377232142857  L 5.77589285714286 13.7047991071429  Z M 14.9949776785714 12.0579241071429  C 14.66484375 11.7277901785714  14.1279017857143 11.7277901785714  13.7977678571429 12.0579241071429  L 11.7847098214286 14.0709821428571  C 11.4545758928571 14.4011160714286  11.4545758928571 14.9380580357143  11.7847098214286 15.2681919642857  C 11.9516741071429 15.4332589285714  12.16796875 15.5167410714286  12.3842633928571 15.5167410714286  C 12.6005580357143 15.5167410714286  12.81875 15.43515625  12.9838169642857 15.2681919642857  L 14.9949776785714 13.2551339285714  C 15.3251116071429 12.925  15.3251116071429 12.3880580357143  14.9949776785714 12.0579241071429  Z M 13.0786830357143 10.1454241071429  C 12.7485491071429 9.81529017857142  12.2116071428571 9.81529017857142  11.8814732142857 10.1454241071429  L 9.86841517857142 12.1565848214286  C 9.53828125 12.48671875  9.53828125 13.0236607142857  9.86841517857142 13.3537946428571  C 10.0353794642857 13.5188616071429  10.2516741071429 13.60234375  10.46796875 13.60234375  C 10.6861607142857 13.60234375  10.9024553571429 13.5188616071429  11.0675223214286 13.3537946428571  L 13.0786830357143 11.3426339285714  C 13.4088169642857 11.0125  13.4088169642857 10.4755580357143  13.0786830357143 10.1454241071429  Z " fill-rule="nonzero" fill="#fecf54" stroke="none" transform="matrix(1 0 0 1 30 155 )" />
  </g>
</svg>