<?xml version="1.0" encoding="utf-8"?>
<svg version="1.1" xmlns:xlink="http://www.w3.org/1999/xlink" width="15px" height="15px" xmlns="http://www.w3.org/2000/svg">
  <g transform="matrix(1 0 0 1 -15 -520 )">
    <path d="M 8.45166666503906 15  L 8.45166666503906 8.12833333007812  C 8.45166666503906 3.3375  12.4445833300781 0.51041666015625  15 0  L 15 2.82708333984375  C 13.6024999951172 3.25916667480469  11.9254166601562 5.45791666992187  11.8458333398438 7.85333333496094  L 15 7.85333333496094  L 15 10.8333333398438  C 15 13.1345833447266  13.1345833300781 15  10.8333333398438 15  L 8.45166666503906 15  Z M 0 15  L 0 8.12833333007812  C 0 3.3375  3.99291666503906 0.51041666015625  6.54833333496094 0  L 6.54833333496094 2.82708333984375  C 5.15083333007813 3.25916667480469  3.47374999511719 5.45791666992187  3.39416666015625 7.85333333496094  L 6.50833333007813 7.85333333496094  L 6.50833333007813 10.8333333398438  C 6.50833333007813 13.1345833447266  4.64291666015625 15  2.34166666992188 15  L 0 15  Z " fill-rule="nonzero" fill="#999999" stroke="none" transform="matrix(1 0 0 1 15 520 )" />
  </g>
</svg>