<?xml version="1.0" encoding="utf-8"?>
<svg version="1.1" xmlns:xlink="http://www.w3.org/1999/xlink" width="15px" height="4px" xmlns="http://www.w3.org/2000/svg">
  <g>
    <path d="M 1.90411782386535 0.225428313796263  C 2.35697825869153 0.225428313796263  2.83789199479009 0.382068787839801  3.1504859232542 0.699471853664883  C 3.46708746618576 1.0168749194899  3.62338443041779 1.40023186912283  3.62338443041779 1.85778693803942  C 3.62338443041779 2.31121988921814  3.47109508065324 2.80587401777666  3.16250876665666 3.12739920133975  C 2.85392245266008 3.45304650264078  2.48121430718366 3.61380909442226  2.03636910129249 3.61380909442226  C 1.59553150986877 3.61380909442226  1.11461777377021 3.45716862037872  0.802023845306097 3.1397655545537  C 0.489429916842046 2.82236248872862  0.329125338142515 2.43900553909569  0.329125338142515 1.9814504701791  C 0.329125338142515 1.52801751900045  0.481414687907065 1.03336339044193  0.790001001903641 0.711838206878838  C 1.09858731590025 0.390313023315749  1.47129546137667 0.225428313796263  1.90411782386535 0.225428313796263  Z M 7.62298366897107 0.225428313796263  C 8.05981364592728 0.225428313796263  8.43252179140368 0.386190905577808  8.74912333433523 0.711838206878838  C 9.06171726279932 1.03336339044186  9.22202184149882 1.52389540126244  9.22202184149882 1.97320623470309  C 9.22202184149882 2.4225170681438  9.06572487726679 2.80587401777666  8.74912333433523 3.13152131907769  C 8.43252179140368 3.45716862037872  8.05981364592725 3.6179312121602  7.62298366897107 3.6179312121602  C 7.18615369201482 3.6179312121602  6.71325518485124 3.45716862037872  6.39665364191968 3.13152131907769  C 6.08005209898813 2.8099961355146  5.9237551347561 2.42251706814373  5.9237551347561 1.97320623470309  C 5.9237551347561 1.52389540126238  6.08005209898813 1.03748550817987  6.39665364191968 0.711838206878838  C 6.70924757038376 0.390313023315749  7.18615369201489 0.225428313796263  7.62298366897107 0.225428313796263  Z M 13.2376515379221 0.225428313796263  C 13.6744815148783 0.225428313796263  14.0511972748221 0.386190905577808  14.3637912032863 0.711838206878838  C 14.6803927462178 1.03336339044186  14.8366897104499 1.52389540126244  14.8366897104499 1.97320623470309  C 14.8366897104499 2.4225170681438  14.6803927462178 2.80587401777666  14.3637912032863 3.13152131907769  C 14.0511972748222 3.45716862037872  13.6744815148783 3.6179312121602  13.2376515379221 3.6179312121602  C 12.8008215609659 3.6179312121602  12.3279230538023 3.45716862037872  12.0113215108707 3.13152131907769  C 11.6947199679392 2.8099961355146  11.5384230037072 2.42251706814373  11.5384230037072 1.97320623470309  C 11.5384230037072 1.52389540126238  11.6947199679392 1.03748550817987  12.0113215108707 0.711838206878838  C 12.3239154393348 0.390313023315749  12.8008215609659 0.225428313796263  13.2376515379221 0.225428313796263  Z " fill-rule="nonzero" fill="#333333" stroke="none" />
  </g>
</svg>