<?xml version="1.0" encoding="utf-8"?>
<svg version="1.1" xmlns:xlink="http://www.w3.org/1999/xlink" width="24px" height="24px" xmlns="http://www.w3.org/2000/svg">
  <g transform="matrix(1 0 0 1 -18 -518 )">
    <path d="M 24 12  C 24 18.72  18.72 24  12 24  C 5.28 24  0 18.72  0 12  C 0 5.27999999999997  5.28 0  12 0  C 18.72 0  24 5.27999999999997  24 12  Z M 12 19.9783653846154  L 16.2 15.6099759615385  C 17.3162790697674 14.4489182692307  17.9424418604651 12.8786057692307  17.9424418604651 11.2415865384615  C 17.9372093023256 7.82872596153845  15.2773255813953 5.06490384615381  12 5.06490384615381  C 8.71744186046512 5.06490384615381  6.05755813953488 7.82692307692309  6.05755813953488 11.2415865384615  C 6.05755813953488 12.9489182692307  6.72209302325581 14.4921875  7.8 15.6099759615385  L 12 19.9783653846154  Z M 13.8697674418605 9.30528846153845  C 14.3633720930233 9.81911057692309  14.6424418604651 10.5168269230769  14.6424418604651 11.2433894230769  C 14.6459302325581 11.9699519230769  14.3686046511628 12.6676682692307  13.8697674418605 13.1814903846154  C 13.3726744186047 13.6953125  12.6994186046512 13.9837740384615  12 13.9873798076923  C 11.2970930232558 13.9873798076923  10.6220930232558 13.6953125  10.1302325581395 13.1796875  C 9.63662790697675 12.6658653846154  9.35755813953488 11.9681490384615  9.35755813953488 11.2415865384615  C 9.35755813953488 10.5150240384615  9.63139534883721 9.81730769230774  10.1302325581395 9.30348557692309  C 10.6220930232558 8.78966346153845  11.2970930232558 8.50120192307691  12 8.49759615384619  C 12.7029069767442 8.49759615384619  13.3779069767442 8.78966346153845  13.8697674418605 9.30528846153845  Z " fill-rule="nonzero" fill="#333333" stroke="none" transform="matrix(1 0 0 1 18 518 )" />
  </g>
</svg>