<?xml version="1.0" encoding="utf-8"?>
<svg version="1.1" xmlns:xlink="http://www.w3.org/1999/xlink" width="21px" height="21px" xmlns="http://www.w3.org/2000/svg">
  <g transform="matrix(1 0 0 1 -178 -10 )">
    <path d="M 12.3624955664063 3.86624275390625  L 12.336245625 4.0024925  C 12.2474958007813 4.462491640625  12.1624959570313 4.8962408203125  12.1799959179687 5.32999  C 12.1962421260833 5.88688837464915  12.6528594370813 6.32965200506351  13.209993984375 6.328738125  L 17.5512358398438 6.291238203125  C 17.5565442389035 6.29120120496457  17.5618527507786 6.29118270571587  17.5671612787705 6.29118270571587  C 18.8291295698221 6.29118270571587  19.8521570014267 7.31421013732048  19.8521570014267 8.57617842837212  C 19.8521570014267 8.6463081745252  19.8489284308867 8.71640074248928  19.8424815429687 8.78623353515625  L 18.9774831640625 17.9324663671875  C 18.8699784076513 19.1062811691682  17.8837093469533 20.0035798663894  16.704987421875 20  L 2.43001419921875 20  C 1.1706881301777 19.998584677728  0.150146298834487 18.9780428463848  0.1487684765625 17.7187167773437  L 0.1487684765625 10.00373125  C 0.1487684765625 8.74498361328125  1.1725165625 7.72123552734375  2.43001419921875 7.72123552734375  L 3.203762734375 7.72123552734375  C 4.29876068359375 7.72123552734375  5.48250845703125 7.5037359375  5.88500771484375 7.0174868359375  C 6.61125634765625 6.1412384765625  7.17750529296875 5.0199905859375  7.57000455078125 3.6874930859375  C 7.67000435546875 3.34749373046875  7.74375421875 2.998744375  7.8175041015625 2.65249501953125  L 7.92375388671875 2.15874595703125  C 8.00750373046875 1.75374671875  8.1037535546875 1.294997578125  8.380003046875 0.888748339843751  C 8.70911068080858 0.429124696591029  9.20815570789341 0.11997777009669  9.7662504296875 0.02999994140625  C 10.2015752051924 -0.0406574876938569  10.6480691051307 0.0184692624544867  11.0499980273438 0.19999962890625  C 11.6799968554688 0.4837491015625  12.1424959765625 1.0637480078125  12.3537455859375 1.8324965625  C 12.4362454296875 2.13249599609375  12.4824953515625 2.457495390625  12.4874953320313 2.79999474609375  C 12.4962453125 3.1874940234375  12.4274954492187 3.53249337890625  12.3624955664063 3.86624275390625  Z M 3.292512578125 8.97248318359375  L 2.43001419921875 8.97248318359375  C 1.8605550164458 8.97385994440647  1.39945305610269 9.43552081726462  1.3987661328125 10.00498125  L 1.3987661328125 17.7187167773438  C 1.3987661328125 18.287465703125  1.8612652734375 18.74996484375  2.43001419921875 18.74996484375  L 16.704987421875 18.74996484375  C 17.2377556906261 18.7527293442436  17.6838126640366 18.3468772695409  17.7312355078125 17.8162166015625  L 18.5962338867188 8.66998375  C 18.624803012117 8.38013192943099  18.5284067387277 8.09185251684887  18.331234375 7.877485234375  C 18.1371474922462 7.66168141852518  17.8602268122209 7.5389087006531  17.5699858007813 7.539985859375  L 13.2287439453125 7.57748580078125  C 11.992397499708 7.58838957002412  10.9726545921905 6.61189839540772  10.9299982617188 5.376239921875  C 10.9087483007813 4.80124099609375  11.0112481054688 4.2737419921875  11.1099979101563 3.76374294921875  L 11.1362478710938 3.624993203125  C 11.1937477539063 3.33249375  11.2437476757813 3.07874421875  11.2374976757813 2.82374470703125  C 11.2360170316831 2.60078934228032  11.2057672221071 2.37895738569574  11.1474978515625 2.1637459375  C 11.08374796875 1.92874638671875  10.91874828125 1.51249716796875  10.5349990039063 1.33874748046875  C 10.3593751635326 1.25907197904461  10.164265005221 1.23256481282266  9.97375005859375 1.26249763671875  C 9.75189703491314 1.29724346362675  9.55163363706295 1.41525581771097  9.41375109375 1.59249701171875  C 9.27625134765625 1.792496640625  9.21500146484375 2.09374607421875  9.1475016015625 2.41249546875  L 9.040001796875 2.91249453125  C 8.960001953125 3.289993828125  8.877502109375 3.66874310546875  8.7687523046875 4.038742421875  C 8.328753125 5.534989609375  7.6812543359375 6.8062372265625  6.84750591796875 7.8149853515625  C 5.9825075390625 8.8599833984375  4.07251111328125 8.97248318359375  3.292512578125 8.97248318359375  Z M 4.706259921875 18.7187149023437  C 4.706259921875 19.0638922237793  4.42643841518555 19.3437137304688  4.08126109375 19.3437137304688  C 3.73608377231444 19.3437137304688  3.456262265625 19.0638922237793  3.456262265625 18.7187149023437  L 3.456262265625 9.003733125  C 3.456262265625 8.65855580356445  3.73608377231445 8.378734296875  4.08126109375 8.378734296875  C 4.42643841518555 8.378734296875  4.706259921875 8.65855580356445  4.706259921875 9.003733125  L 4.706259921875 18.7187149023437  Z " fill-rule="nonzero" fill="#000000" stroke="none" transform="matrix(1 0 0 1 178 10 )" />
  </g>
</svg>