<?xml version="1.0" encoding="utf-8"?>
<svg version="1.1" xmlns:xlink="http://www.w3.org/1999/xlink" width="20px" height="20px" xmlns="http://www.w3.org/2000/svg">
  <g transform="matrix(1 0 0 1 -288 -391 )">
    <path d="M 9.91842105263158 19.3020833333333  C 9.71131529264694 19.3020833333333  9.50009407693421 19.2919018673393  9.29385536012391 19.2733395711679  C 8.64072746782889 19.7023525858957  7.81746578738023 20  6.81578947368421 20  C 6.40526315789474 20  5.96842105263158 19.9505208333333  5.49736842105263 19.8385416666667  L 5.46578947368421 19.8307291666667  C 2.75789473684211 18.9947916666667  0.997368421052634 16.7604166666667  0.378947368421055 13.3697916666667  C -0.0789473684210526 10.8723958333333  0.239473684210524 8.65104166666666  0.252631578947366 8.55729166666668  C 0.792105263157892 4.48697916666667  4.05 0.0885416666666572  9.92368421052631 0.0651041666666667  C 12.3289473684211 0.0520833333333333  14.5815789473684 0.95312500000001  16.2447368421053 2.59114583333333  C 17.8578947368421 4.18229166666668  18.7842105263158 6.33072916666668  18.7842105263158 8.48958333333333  C 18.7842105263158 8.52709825446318  18.7798537558852 8.56362623148819  18.7716146772651 8.59866106327326  C 18.7864079610011 8.65664707602621  18.7903891353524 8.71835286182593  18.7815789473684 8.78124999999999  C 18.7763157894737 8.828125  18.1526315789474 13.46875  19.8184210526316 15.8307291666667  C 19.9131578947368 15.9661458333333  19.9315789473684 16.140625  19.8684210526316 16.2942708333333  C 19.8315789473684 16.3776041666667  18.9631578947368 18.3723958333333  17.0447368421053 19.0260416666667  C 16.6421052631579 19.1640625  16.2315789473684 19.2317708333333  15.8078947368421 19.2317708333333  C 15.0157894736842 19.2317708333333  14.1815789473684 18.9947916666667  13.3157894736842 18.5182291666667  C 13.2740017705853 18.4949974731133  13.2369890901782 18.4666259981903  13.2051101475117 18.4343719717059  C 12.2264415989667 18.9904399499929  11.1109220173556 19.3020833333333  9.91842105263158 19.3020833333333  Z M 9.96315789473684 1.02864583333333  L 9.92894736842106 1.02864583333333  C 4.63947368421053 1.04947916666667  1.70526315789474 5.01562500000001  1.21578947368421 8.69270833333334  C 1.2 8.78124999999999  0.0526315789473684 17.1380208333333  5.73947368421052 18.9088541666667  C 8.18421052631579 19.4765625  9.42105263157895 18.0729166666667  9.92105263157895 17.2526041666667  C 8.72368421052632 16.9609375  7.75789473684211 16.1328125  7.10000000000001 14.8229166666667  C 6.43947368421052 13.5078125  6.23947368421052 11.984375  6.27368421052632 11  C 6.4 7.38020833333332  8.55 5.05468750000001  8.6421052631579 4.95833333333332  C 8.78684210526316 4.8046875  9.01315789473684 4.76302083333332  9.20526315789474 4.8515625  C 9.39736842105263 4.94010416666666  9.50789473684211 5.14062499999999  9.48157894736843 5.34895833333332  C 9.30526315789473 6.70572916666667  9.42105263157895 7.76302083333334  9.58947368421053 8.125  L 11.9131578947368 8.125  L 17.7973684210526 8.01302083333333  C 17.6710526315789 6.27343749999999  16.8736842105263 4.5703125  15.5605263157895 3.27604166666667  C 14.0894736842105 1.82552083333334  12.1026315789474 1.02864583333333  9.96315789473684 1.02864583333333  Z M 11.1026315789474 17.0442708333333  C 10.9624874306936 17.4234583230706  10.7120254485722 17.8828211920118  10.3464088148827 18.3252341758874  C 13.5998484317163 18.0821760931474  16.0894736842105 15.0831047479679  16.0894736842105 11.2994791666667  C 16.0894736842105 10.4305069710977  16.0725369307642 9.65012508559402  15.8669826306365 8.95833333333333  L 11.9078947368421 8.95833333333333  L 9.45526315789474 8.95833333333333  C 9.41578947368422 8.95572916666666  9.37631578947369 8.95052083333333  9.33684210526316 8.94010416666667  C 8.66842105263158 8.77083333333334  8.44736842105263 7.90364583333333  8.41315789473684 6.96614583333333  C 7.87894736842106 7.91666666666667  7.30263157894737 9.32291666666667  7.24210526315789 11.03125  C 7.18421052631579 12.7005208333333  7.94736842105263 16.2083333333333  10.6815789473684 16.3984375  C 10.8342105263158 16.4088541666667  10.9736842105263 16.4895833333333  11.0552631578947 16.6171875  C 11.1394736842105 16.7447916666667  11.1552631578947 16.9036458333333  11.1026315789474 17.0442708333333  Z M 17.7814133404448 8.95833333333333  L 16.8718094048688 8.9583333342766  C 17.0452649046344 9.69060445792067  17.0605263157895 10.4595317027041  17.0605263157895 11.3020833333333  C 17.0605263157895 14.0281799112195  15.9012918404093 16.3962704561785  14.0924371989246 17.8341843202506  C 15.0504505074703 18.2924754610028  15.9336045909362 18.3880949650908  16.7263157894737 18.1171875  C 17.9052631578947 17.7161458333333  18.6052631578947 16.6145833333333  18.8605263157895 16.140625  C 17.4026902749457 13.7977249860367  17.6647136801687 10.0582581528329  17.7814133404448 8.95833333333333  Z M 13.9868421052632 9.94270833333334  C 12.9315789473684 9.94270833333334  12.9289473684211 11.5651041666667  13.9868421052632 11.5651041666667  C 15.0421052631579 11.5651041666667  15.0421052631579 9.94270833333334  13.9868421052632 9.94270833333334  Z M 12.928947368421 13.796875  C 13.1447368421053 13.6380208333333  13.4473684210526 13.6822916666667  13.6078947368421 13.8932291666667  C 13.7684210526316 14.1067708333333  13.7236842105263 14.40625  13.5105263157895 14.5651041666667  C 13.2157894736842 14.7838541666667  12.8894736842105 14.9166666666667  12.5368421052631 14.9661458333333  C 12.4368421052632 14.984375  12.3421052631579 14.9895833333333  12.2473684210526 14.9895833333333  C 11.7894736842105 14.9895833333333  11.3368421052632 14.8385416666667  10.9289473684211 14.5442708333333  C 10.7105263157895 14.3880208333333  10.6631578947368 14.0885416666667  10.8210526315789 13.8723958333333  C 10.978947368421 13.65625  11.2815789473684 13.609375  11.5 13.765625  C 11.7 13.9088541666667  12.0184210526316 14.0703125  12.4026315789474 14.015625  C 12.5894736842105 13.9895833333333  12.7657894736842 13.9166666666667  12.928947368421 13.796875  Z M 10.7868421052632 9.94270833333334  C 9.73157894736843 9.94270833333334  9.73157894736843 11.5651041666667  10.7868421052632 11.5651041666667  C 11.8421052631579 11.5651041666667  11.8421052631579 9.94270833333334  10.7868421052632 9.94270833333334  Z " fill-rule="nonzero" fill="#3478f6" stroke="none" transform="matrix(1 0 0 1 288 391 )" />
  </g>
</svg>