<?xml version="1.0" encoding="utf-8"?>
<svg version="1.1" xmlns:xlink="http://www.w3.org/1999/xlink" width="14px" height="12px" xmlns="http://www.w3.org/2000/svg">
  <g transform="matrix(1 0 0 1 -18 -236 )">
    <path d="M 13.7525818181818 9.31628936170213  C 13.5652363636364 9.62267234042554  13.2394181818182 9.80568510638298  12.8810181818182 9.80568510638298  L 5.41733818181818 9.80568510638298  C 5.01495272727272 9.80568510638298  4.65981090909091 9.57855319148936  4.49038545454546 9.21252765957447  C 4.32095999999999 8.84650212765957  4.37634909090909 8.42818723404255  4.63618909090909 8.11935319148936  L 9.28887272727273 2.58648510638298  C 9.51042909090908 2.32340425531915  9.84602181818181 2.19022978723404  10.1873163636364 2.22944680851064  C 10.5286109090909 2.26866382978724  10.8251054545455 2.47537021276596  10.9806836363636 2.78257021276596  L 13.79168 8.31543829787234  C 13.9545890909091 8.63571063829787  13.9399272727273 9.00990638297873  13.7525818181818 9.31628936170213  Z M 10.0740945454545 3.20497021276595  C 10.0724654545455 3.20333617021277  10.0708363636364 3.20333617021277  10.0683927272727 3.20333617021277  C 10.0488436363636 3.20333617021277  10.0398836363636 3.21395744680851  10.0358109090909 3.21967659574468  L 5.38312727272728 8.75254468085106  C 5.3766109090909 8.76071489361702  5.36520727272728 8.77460425531915  5.3766109090909 8.79993191489361  C 5.38882909090908 8.82607659574468  5.40593454545454 8.82607659574468  5.41652363636364 8.82607659574468  L 12.8802036363636 8.82607659574468  C 12.8875345454545 8.82607659574468  12.9054545454545 8.82607659574468  12.9176727272727 8.80483404255319  C 12.9307054545454 8.7835914893617  12.92256 8.76806808510638  12.9193018181818 8.76153191489362  L 10.1083054545455 3.22866382978723  C 10.1050472727273 3.22212765957447  10.0977163636364 3.20742127659574  10.0740945454545 3.20497021276595  Z M 13.6678690909091 11.4054127659574  C 13.6678690909091 11.6758468085106  13.4487563636364 11.8956255319149  13.1791418181818 11.8956255319149  L 0.966661818181815 11.8956255319149  C 0.697047272727276 11.8956255319149  0.477934545454538 11.6758468085106  0.477934545454538 11.4054127659574  C 0.477934545454538 11.1349787234043  0.697047272727276 10.9152  0.966661818181815 11  L 13.1791418181818 11  C 13.4487563636364 10.9152  13.6678690909091 11.1349787234043  13.6678690909091 11.4054127659574  Z M 8.19330909090909 2.05787234042553  C 8.19330909090909 3.1780085106383  7.28509090909091 4.08898723404255  6.16834909090909 4.08898723404255  C 5.05160727272727 4.08898723404255  4.14338909090909 3.1780085106383  4.14338909090909 2.05787234042553  C 4.14338909090909 0.937736170212765  5.05160727272727 0.0267574468085136  6.16834909090909 0.0267574468085136  C 7.28509090909091 0.0267574468085136  8.19330909090909 0.937736170212765  8.19330909090909 2.05787234042553  Z M 7.21585454545455 2.05705531914894  C 7.21585454545455 1.47778723404256  6.74667636363636 1.00636595744681  6.16834909090909 1.00636595744681  C 5.59083636363636 1.00636595744681  5.12084363636363 1.47778723404256  5.12084363636363 2.05705531914894  C 5.12084363636363 2.63632340425532  5.59083636363636 3.10774468085106  6.16834909090909 3.10774468085106  C 6.74586181818182 3.10774468085106  7.21585454545455 2.63632340425532  7.21585454545455 2.05705531914894  Z M 3.65466181818182 8.9576170212766  C 3.65466181818182 9.22805106382979  3.43554909090909 9.44701276595745  3.16593454545454 9.44701276595745  L 0.969920000000004 9.44701276595745  C 0.61152 9.44701276595745  0.295476363636362 9.2443914893617  0.144785454545457 8.9192170212766  C -0.00590545454544802 8.59322553191489  0.0437818181818247 8.22066382978723  0.274298181818186 7.94614468085106  L 2.86618181818182 4.86434042553191  C 3.06330181818182 4.62985531914894  3.36142545454546 4.51057021276596  3.66606545454545 4.54651914893617  C 3.96989090909091 4.58165106382978  4.23380363636363 4.76548085106383  4.37227636363637 5.0391829787234  L 4.99540363636363 6.26553191489362  C 5.11758545454546 6.50655319148937  5.02228363636363 6.80231489361702  4.78199272727273 6.92486808510638  C 4.54170181818182 7.04742127659574  4.24683636363637 6.95182978723405  4.12465454545455 6.7108085106383  L 3.54714181818182 5.57514893617022  L 1.11572363636363 8.46740425531915  L 3.16593454545454 8.46740425531915  C 3.43554909090909 8.46740425531915  3.65466181818182 8.6871829787234  3.65466181818182 8.9576170212766  Z " fill-rule="nonzero" fill="#aaaaaa" stroke="none" transform="matrix(1 0 0 1 18 236 )" />
  </g>
</svg>