<?xml version="1.0" encoding="utf-8"?>
<svg version="1.1" xmlns:xlink="http://www.w3.org/1999/xlink" width="16px" height="20px" xmlns="http://www.w3.org/2000/svg">
  <g transform="matrix(1 0 0 1 -554 -601 )">
    <path d="M 14.4898144042553 7.38750208661417  C 14.4898144042553 9.89818059055118  12.7857745531915 11.2174233464567  11.6579375319149 12.0906282480315  C 10.9639909361702 12.6280180905512  10.4628845531915 13.0157279330709  10.4628845531915 13.5891439173228  L 10.4638116808511 14.1102362204724  L 8.69533725531915 14.1102362204724  L 8.69533725531915 9.68974368110236  L 10.5963893191489 7.91974535433071  C 10.8671072978723 7.6675624015748  10.8652530638298 7.26012397637795  10.5931444042553 7.00965655511811  C 10.320572212766 6.76004690944882  9.88111906382979 6.76047578740157  9.6094739787234 7.01265874015748  L 8 8.51117440944882  L 6.16199185106383 6.79950411417323  C 5.89081031914894 6.54775003937008  5.45089361702128 6.54646338582677  5.17785785106383 6.79650192913386  C 4.90621276595745 7.0469693503937  4.90435853191489 7.45440777559055  5.1750765106383 7.70659072834646  L 7.30466274468085 9.68974368110236  L 7.30466274468085 14.1102362204724  L 5.537579 14.1102362204724  L 5.537579 13.5891439173228  C 5.537579 12.9779862598425  4.98548121276596 12.549961476378  4.28689904255319 12.0078539173228  C 3.115024 11.0990517716535  1.51018559574468 9.85443458661417  1.51018559574468 7.38750208661417  C 1.51018559574468 4.02334730314961  4.42179446808511 1.28664767716535  8 1.28664767716535  C 11.5786690851064 1.28664767716535  14.4898144042553 4.02334730314961  14.4898144042553 7.38750208661417  Z M 10.4665930212766 15.750712007874  C 10.4665930212766 16.2885307480315  10.0048890851064 16.7264198425197  9.43703034042553 16.7264198425197  L 6.56343323404255 16.7264198425197  C 6.01272612765957 16.7264198425197  5.56261112765957 16.3146925787402  5.53572476595745 15.7987468503937  C 5.53711544680851 15.7828782086614  5.537579 15.7670095472441  5.537579 15.750712007874  L 5.537579 15.3968838976378  L 10.4656659148936 15.3968838976378  L 10.4665930212766 15.750712007874  Z M 15.8804889148936 7.38750208661417  C 15.8804889148936 3.31397553149606  12.3453942978723 0  8 0  C 3.65460570212766 0  0.119511085106383 3.31397553149606  0.119511085106383 7.38750208661417  C 0.119511085106383 10.4548701574803  2.16890176595745 12.0443089370079  3.39315889361702 12.9938549212598  C 3.67361159574468 13.2112983661417  4.05187506382979 13.5046540551181  4.1469044893617 13.643611988189  L 4.1469044893617 14.5905846850394  C 4.13207061702128 14.6429083661417  4.12140878723404 14.6969475590551  4.12140878723404 14.7535600590551  C 4.12140878723404 14.8101725590551  4.13207061702128 14.8642117519685  4.1469044893617 14.9165354330709  L 4.1469044893617 15.6889529330709  C 4.14458668085106 15.7095392913386  4.14365957446809 15.7296967716535  4.14365957446809 15.750712007874  C 4.14365957446809 16.9979025  5.22931280851064 18.013067519685  6.56343323404255 18.013067519685  L 9.43703034042553 18.013067519685  C 10.7716142978723 18.013067519685  11.8572675319149 16.9979025  11.8572675319149 15.750712007874  L 11.8558768723404 14.9113888385827  C 11.8697836170213 14.8607807086614  11.8795183404255 14.8084570275591  11.8795183404255 14.7535600590551  C 11.8795183404255 14.6982342125984  11.8693200638298 14.6454816535433  11.8549497446809 14.5940157480315  L 11.8535590851064 13.6663427755906  C 11.9569325531915 13.5368202362205  12.2837410638298 13.2837795275591  12.5507505744681 13.077487007874  C 13.7958678085106 12.1129301377953  15.8804889148936 10.4990450590551  15.8804889148936 7.38750208661417  Z M 11.9404298723404 19.2995436417323  C 11.9404298723404 18.9444288779528  11.628918787234 18.6562198031496  11.2450926170213 18.6562198031496  L 4.75527823404255 18.6562198031496  C 4.37145206382979 18.6562198031496  4.0599409787234 18.9444288779528  4.0599409787234 19.2995436417323  C 4.0599409787234 19.6546584055118  4.37145206382979 19.942867480315  4.75527823404255 19.942867480315  L 11.2450926170213 19.942867480315  C 11.628918787234 19.942867480315  11.9404298723404 19.6546584055118  11.9404298723404 19.2995436417323  Z " fill-rule="nonzero" fill="#795548" stroke="none" fill-opacity="0.898039215686275" transform="matrix(1 0 0 1 554 601 )" />
  </g>
</svg>