<?xml version="1.0" encoding="utf-8"?>
<svg version="1.1" xmlns:xlink="http://www.w3.org/1999/xlink" width="20px" height="20px" xmlns="http://www.w3.org/2000/svg">
  <g transform="matrix(1 0 0 1 -325 -303 )">
    <path d="M 20 10.0691689354793  C 20 4.59381425332636  15.5449390429687 0.138337870958654  10.0691689257812 0.138337870958654  C 4.593398828125 0.138337870958654  0.138337851562499 4.59381425332635  0.138337851562499 10.0691689354793  C 0.138337851562499 15.5445236176323  4.59381423828125 20  10.0691689257812 20  C 15.5445236132812 20  20 15.5445236176323  20 10.0691689354793  Z M 19.1766196484375 10.0691689159481  C 19.1766196484375 15.0912905126062  15.0912905273437 19.1770350593974  10.0691689257812 19.1770350593974  C 5.04704732421875 19.1770350593974  0.961718203124999 15.0912905126062  0.961718203124999 10.0691689159481  C 0.961718203124999 5.04704731928999  5.04704732421875 0.961302772498729  10.0691689257812 0.961302772498729  C 15.0912905273437 0.961302772498729  19.1766196484375 5.04704731928999  19.1766196484375 10.0691689159481  Z M 15.34844109375 15.1490351609873  C 15.3476102539063 12.9169349483233  13.960908125 11.0097002626858  12.0034065234375 10.2378331150021  C 12.9360447070313 9.61344327186187  13.5508796679688 8.55036038227504  13.5508796679688 7.34353903579732  C 13.5508796679688 5.42093347126862  11.992189921875 3.86224372669703  10.0695843554688 3.86224372669703  C 8.1469787890625 3.86224372669703  6.58828904296875 5.42093347126862  6.58828904296875 7.34353903579732  C 6.58828904296875 8.55077581196213  7.2031240234375 9.61344327186187  8.1361776171875 10.2378331150021  C 6.17784515625 11.0097002626858  4.79155845703125 12.9169349483233  4.79155845703125 15.1490351609873  C 4.79155845703125 15.1536048875453  4.79155845703125 15.157759164885  4.79197388671875 15.1619134617559  C 4.79197388671875 15.1627443211301  4.79155845703125 15.1639906101914  4.79155845703125 15.1648214695656  C 4.79155845703125 15.4697463716116  5.03873873046875 15.7165112346518  5.34366365234375 15.7165112346518  C 5.648173125 15.7165112346518  5.77114013671875 15.4697463911428  5.77114013671875 15.1648214695656  C 5.77114013671875 15.1581746141033  5.76947841796875 15.1519431687969  5.76906298828125 15.1448808836476  C 5.77114013671875 12.8400806124609  7.7643686328125 10.8480983878437  10.0699997851562 10.8480983878437  C 12.3768772070312 10.8480983878437  14.3709365820312 12.8421577413651  14.3709365820312 15.1490351805185  C 14.3709365820312 15.1519431883282  14.3422719726562 15.7165112346518  14.800074765625 15.7165112346518  C 15.1029225390625 15.7165112346518  15.34844109375 15.4709926802041  15.34844109375 15.1685603367495  C 15.34844109375 15.1673140476882  15.3480256640625 15.1660677586269  15.3480256640625 15.1644060398785  C 15.3480256640625 15.1594208836334  15.34844109375 15.1544357469195  15.34844109375 15.1490351609873  Z M 12.7004964257812 7.34395446548442  C 12.7004964257812 8.79712522578406  11.5223396875 9.97528196291476  10.0691689257812 9.97528196291476  C 8.6159981640625 9.97528196291476  7.43784142578125 8.79712522578406  7.43784142578125 7.34395446548442  C 7.43784142578125 5.89036827549769  8.6159981640625 4.71262696805407  10.0691689257812 4.71262696805407  C 11.5227551171875 4.71262696805407  12.7004964257812 5.89078370518478  12.7004964257812 7.34395446548442  Z " fill-rule="nonzero" fill="#3478f6" stroke="none" transform="matrix(1 0 0 1 325 303 )" />
  </g>
</svg>