<?xml version="1.0" encoding="utf-8"?>
<svg version="1.1" xmlns:xlink="http://www.w3.org/1999/xlink" width="35px" height="35px" xmlns="http://www.w3.org/2000/svg">
  <g transform="matrix(1 0 0 1 -30 -290 )">
    <path d="M 35 17.5  C 35 27.3  27.3 35  17.5 35  C 7.7 35  0 27.3  0 17.5  C 0 7.69999999999999  7.7 0  17.5 0  C 27.3 0  35 7.69999999999999  35 17.5  Z M 24.3 14.8571428571428  C 24.3 11.0700474297317  21.2555362988494 8  17.5 8  C 13.7444637011506 8  10.7 11.0700474297317  10.7 14.8571428571428  L 10.7 20.8571428571428  L 9 20.8571428571428  L 9 22  L 26 22  L 26 20.8571428571428  L 24.3 20.8571428571428  L 24.3 14.8571428571428  Z M 14.95 26  L 20.05 26  L 20.05 24.2857142857143  L 14.95 24.2857142857143  L 14.95 26  Z M 12.4 20.8571428571428  L 12.4 14.8571428571428  C 12.4 12.0168212865845  14.683347775863 9.71428571428572  17.5 9.71428571428572  C 20.316652224137 9.71428571428572  22.6 12.0168212865845  22.6 14.8571428571428  L 22.6 20.8571428571428  L 12.4 20.8571428571428  Z " fill-rule="nonzero" fill="#3478f6" stroke="none" transform="matrix(1 0 0 1 30 290 )" />
  </g>
</svg>