<?xml version="1.0" encoding="utf-8"?>
<svg version="1.1" xmlns:xlink="http://www.w3.org/1999/xlink" width="35px" height="35px" xmlns="http://www.w3.org/2000/svg">
  <g transform="matrix(1 0 0 1 -30 -120 )">
    <path d="M 35 17.5  C 35 27.3  27.3 35  17.5 35  C 7.69999999999998 35  0 27.3  0 17.5  C 0 7.7  7.69999999999998 0  17.5 0  C 27.3 0  35 7.7  35 17.5  Z M 23.9710078204134 24.2892015288461  L 23.9710078204134 14.6810614850427  L 23.9710078204134 13.6134833445513  L 19.7458776779716 9.34323396207265  C 19.6777653378553 9.34323396207265  19.3967993785529 9.33199562286326  18.6895847186692 9.34323396207265  L 12.3518478407623 9.34323396207265  C 11.1852341489018 9.34323396207265  10.2392827593669 10.2992074922543  10.2392827593669 11.4783691832265  L 10.2392827593669 24.2892015288461  C 10.2392827593669 25.4683842590812  11.1852133320413 26.42433675  12.3518478407623 26.4444444444444  L 21.858442739018 26.4444444444444  C 23.0251397186693 26.42433675  23.9710078204134 25.4683842796474  23.9710078204134 24.2892015288461  Z M 13.9362976779716 21.0865092064637  L 20.2739720849484 21.0865092064637  C 20.5655161837856 21.0865092064637  20.8021498000646 21.3256078213141  20.8021498000646 21.6202667075321  C 20.8021498000646 21.9149045544872  20.5654953669251 22.1540873469551  20.2739720849484 22.1540873469551  L 13.9362976779716 22.1540873469551  C 13.6447743959948 22.1540873469551  13.4081199628553 21.9149045544872  13.4081199628553 21.6202667075321  C 13.4081199628553 21.3256078213141  13.6447743959948 21.0865092064637  13.9362976779716 21.0865092064637  Z M 13.9362976779716 17.8837537662927  L 20.2739720849484 17.8837537662927  C 20.5655161837856 17.8837537662927  20.8021498000646 18.1229365587607  20.8021498000646 18.4175744057158  C 20.8021498000646 18.7122332919338  20.5654953669251 18.9513739853098  20.2739720849484 18.9513739853098  L 13.9362976779716 18.9513739853098  C 13.6447743959948 18.9513739853098  13.4081199628553 18.7122122321047  13.4081199628553 18.4175744057158  C 13.4081199628553 18.1229155194979  13.6447743959948 17.8837537662927  13.9362976779716 17.8837537662927  Z M 19.7458776779716 12.5459262638889  L 19.7458776779716 10.410791042735  L 22.91471488146 13.6134833445513  L 20.8021498000646 13.6134833445513  C 20.2190824192507 13.6134833445513  19.7458776779716 13.135791221688  19.7458776779716 12.5459262638889  Z " fill-rule="nonzero" fill="#36acfe" stroke="none" transform="matrix(1 0 0 1 30 120 )" />
  </g>
</svg>