<?xml version="1.0" encoding="utf-8"?>
<svg version="1.1" xmlns:xlink="http://www.w3.org/1999/xlink" width="20px" height="20px" xmlns="http://www.w3.org/2000/svg">
  <g transform="matrix(1 0 0 1 -49 -430 )">
    <path d="M 20 9.9497619047619  C 20 4.49261904761905  15.5336538461538 0.0688095238095208  10.0240384615385 0.0688095238095208  C 4.51442307692308 0.0688095238095208  0.0480769230769231 4.49261904761905  0.0480769230769231 9.9497619047619  C 0.0480769230769231 15.4069047619048  4.51442307692308 19.8307142857143  10.0240384615385 19.8307142857143  C 15.5336538461538 19.8307142857143  20 15.4069047619048  20 9.9497619047619  Z M 17.7990384615385 13.2021428571429  C 17.3740384615385 14.1971428571429  16.765625 15.0911904761905  15.9901442307692 15.8590476190476  C 15.2146634615385 16.6271428571429  14.3122596153846 17.2297619047619  13.3076923076923 17.6507142857143  C 12.2685096153846 18.0861904761905  11.1637019230769 18.3069047619048  10.0240384615385 18.3069047619048  C 8.884375 18.3069047619048  7.77956730769231 18.0861904761905  6.74038461538461 17.6507142857143  C 5.7358173076923 17.2297619047619  4.83341346153845 16.6271428571429  4.05793269230768 15.8590476190476  C 3.28245192307693 15.0909523809524  2.67403846153846 14.1971428571429  2.24903846153845 13.2021428571429  C 1.80961538461538 12.1728571428571  1.58653846153846 11.0785714285714  1.58653846153846 9.9497619047619  C 1.58653846153846 8.82095238095238  1.80937500000001 7.72666666666667  2.24903846153847 6.69738095238095  C 2.67403846153846 5.70238095238095  3.28245192307693 4.80857142857143  4.0579326923077 4.04047619047619  C 4.83341346153845 3.27238095238095  5.7358173076923 2.66976190476191  6.74038461538461 2.24880952380952  C 7.77956730769231 1.81333333333333  8.884375 1.59261904761904  10.0240384615385 1.59261904761904  C 11.1637019230769 1.59261904761904  12.2685096153846 1.81333333333333  13.3076923076923 2.24880952380952  C 14.3122596153846 2.66976190476191  15.2146634615385 3.27238095238095  15.9901442307692 4.04047619047619  C 16.765625 4.80857142857143  17.3740384615385 5.70238095238095  17.7990384615385 6.69738095238095  C 18.2387019230769 7.72666666666667  18.4615384615385 8.82095238095238  18.4615384615385 9.9497619047619  C 18.4615384615385 11.0785714285714  18.2387019230769 12.1728571428571  17.7990384615385 13.2021428571429  Z M 16.4536057692308 6.65880952380953  C 16.4536057692308 8.30880952380952  15.0985576923077 9.65071428571428  13.4329326923077 9.65071428571428  C 11.7673076923077 9.65071428571428  10.4125 8.30857142857143  10.4125 6.65880952380953  L 11.9509615384615 6.65880952380953  C 11.9509615384615 7.46833333333333  12.6158653846154 8.12690476190476  13.4329326923077 8.12690476190476  C 14.2502403846154 8.12690476190476  14.9151442307692 7.46833333333333  14.9151442307692 6.65880952380953  L 16.4536057692308 6.65880952380953  Z M 12.2911057692308 15.1540476190476  C 12.2911057692308 13.9457142857143  11.25625 12.9628571428571  9.98389423076923 12.9628571428571  C 8.71177884615384 12.9628571428571  7.6766826923077 13.9459523809524  7.6766826923077 15.1540476190476  L 6.13822115384616 15.1540476190476  C 6.13822115384616 13.1054761904762  7.86346153846154 11.4390476190476  9.98389423076923 11.4390476190476  C 12.1043269230769 11.4390476190476  13.8295673076923 13.1057142857143  13.8295673076923 15.1540476190476  L 12.2911057692308 15.1540476190476  Z M 6.58798076923076 8.12714285714286  C 7.40528846153845 8.12714285714286  8.06995192307692 7.46857142857142  8.06995192307692 6.65904761904762  L 9.60841346153846 6.65904761904762  C 9.60841346153846 8.30880952380953  8.25336538461539 9.65095238095238  6.58798076923076 9.65095238095238  C 4.92235576923076 9.65095238095238  3.56730769230768 8.30880952380953  3.56730769230768 6.65904761904762  L 5.10576923076922 6.65904761904762  C 5.10576923076922 7.46857142857144  5.77067307692309 8.12714285714286  6.58798076923076 8.12714285714286  Z " fill-rule="nonzero" fill="#333333" stroke="none" transform="matrix(1 0 0 1 49 430 )" />
  </g>
</svg>