<?xml version="1.0" encoding="utf-8"?>
<svg version="1.1" xmlns:xlink="http://www.w3.org/1999/xlink" width="20px" height="20px" xmlns="http://www.w3.org/2000/svg">
  <g transform="matrix(1 0 0 1 -50 -371 )">
    <path d="M 14.608407079646 9.91592920353982  C 14.608407079646 10.4646017699115  14.1637168141593 10.9070796460177  13.6172566371681 10.9070796460177  L 6.48008849557521 10.9070796460177  C 5.93362831858407 10.9070796460177  5.48893805309735 10.462389380531  5.48893805309735 9.91592920353982  C 5.48893805309735 9.36946902654867  5.93362831858407 8.92477876106195  6.48008849557521 8.92477876106195  L 13.6172566371681 8.92477876106195  C 14.1637168141593 8.92477876106195  14.608407079646 9.36946902654867  14.608407079646 9.91592920353982  Z M 19.9601769911504 9.91592920353982  C 19.9601769911504 15.3805309734513  15.5132743362832 19.8274336283186  10.0486725663717 19.8274336283186  C 4.58407079646017 19.8274336283186  0.137168141592916 15.3805309734513  0.137168141592916 9.91592920353982  C 0.137168141592916 4.45132743362831  4.58407079646017 0.00442477876105792  10.0486725663717 0.00442477876105792  C 15.5132743362832 0.00442477876105792  19.9601769911504 4.45132743362831  19.9601769911504 9.91592920353982  Z M 17.9778761061947 9.91592920353982  C 17.9778761061947 5.54424778761063  14.4203539823009 1.98672566371682  10.0486725663717 1.98672566371682  C 5.67699115044249 1.98672566371682  2.11946902654868 5.54424778761062  2.11946902654868 9.91592920353982  C 2.11946902654868 14.287610619469  5.67699115044249 17.8451327433628  10.0486725663717 17.8451327433628  C 14.4203539823009 17.8451327433628  17.9778761061947 14.287610619469  17.9778761061947 9.91592920353982  Z " fill-rule="nonzero" fill="#333333" stroke="none" transform="matrix(1 0 0 1 50 371 )" />
  </g>
</svg>