<?xml version="1.0" encoding="utf-8"?>
<svg version="1.1" xmlns:xlink="http://www.w3.org/1999/xlink" width="20px" height="20px" xmlns="http://www.w3.org/2000/svg">
  <g transform="matrix(1 0 0 1 -328 -755 )">
    <path d="M 20 10  C 20 4.48625  15.51375 0  10 0  C 4.48575 0  0 4.48625  0 10  C 0 15.51375  4.48625 20  10 20  C 15.51375 20  20 15.51375  20 10  Z M 18.4 10  C 18.4 14.63175  14.63175 18.4  10 18.4  C 5.368 18.4  1.6 14.632  1.6 10  C 1.6 5.368  5.36825 1.6  10 1.6  C 14.63175 1.6  18.4 5.36825  18.4 10  Z M 14.006 13.08875  C 14.2402774318364 12.7144108238803  14.1269226394297 12.2210433216873  13.75275 11.9865  C 13.3784371473567 11.7517900098445  12.8847274992597 11.8649481268761  12.65 12.23925  C 11.495 14.081  10.21 14.07575  9.21975 13.86425  C 8.0825 13.62275  7.39475 12.318  7.3845 12.29925  C 7.24319582311426 12.0459920912723  6.9758953369018 11.889039704929  6.68588423584105 11.889039704929  C 6.24405643597642 11.889039704929  5.88588423584105 12.2472119050643  5.88588423584105 12.689039704929  C 5.88588423584105 12.8047862581488  5.91100070467716 12.9191544104852  5.9595 13.02425  C 6.0005 13.1055  6.992 15.02625  8.88775 15.42925  C 9.25929133190058 15.5101428283994  9.6382609815285 15.5520364443211  10.0185 15.55425  C 11.639 15.55425  12.97675 14.72925  14.006 13.08875  Z M 5.6 7.36675  C 5.6 8.0295  6.13725 8.96675  6.8 8.96675  C 7.46275 8.96675  8 8.0295  8 7.36675  C 8 6.704  7.46275 5.76675  6.8 5.76675  C 6.13725 5.76675  5.6 6.704  5.6 7.36675  Z M 14.4 7.367  C 14.4 6.70425  13.86275 5.767  13.2 5.767  C 12.53725 5.767  12 6.70425  12 7.367  C 12 8.02975  12.53725 8.967  13.2 8.967  C 13.86275 8.967  14.4 8.02975  14.4 7.367  Z " fill-rule="nonzero" fill="#999999" stroke="none" transform="matrix(1 0 0 1 328 755 )" />
  </g>
</svg>