<?xml version="1.0" encoding="utf-8"?>
<svg version="1.1" xmlns:xlink="http://www.w3.org/1999/xlink" width="14px" height="14px" viewBox="30 521  14 14" xmlns="http://www.w3.org/2000/svg">
  <path d="M 30.5 528  A 6.5 6.5 0 0 1 37 521.5 A 6.5 6.5 0 0 1 43.5 528 A 6.5 6.5 0 0 1 37 534.5 A 6.5 6.5 0 0 1 30.5 528 Z " fill-rule="nonzero" fill="#ffffff" stroke="none" />
  <path d="M 30.5 528  A 6.5 6.5 0 0 1 37 521.5 A 6.5 6.5 0 0 1 43.5 528 A 6.5 6.5 0 0 1 37 534.5 A 6.5 6.5 0 0 1 30.5 528 Z " stroke-width="1" stroke="#3478f6" fill="none" />
  <path d="M 33 528  L 36 531  L 41 524  " stroke-width="3" stroke="#3478f6" fill="none" />
</svg>