<?xml version="1.0" encoding="utf-8"?>
<svg version="1.1" xmlns:xlink="http://www.w3.org/1999/xlink" width="19px" height="10px" xmlns="http://www.w3.org/2000/svg">
  <g>
    <path d="M 0.169883621913199 4.87628914750687  L 0.0350553505535394 4.09255054089002  C 0.528526823729799 3.96284732078088  1.01660516605168 3.83038445769073  1.49659381209199 3.68964266565742  L 1.49659381209199 2.2104740278172  L 0.14831109849561 2.2104740278172  L 0.14831109849561 1.54264042640425  L 1.49659381209199 1.54264042640425  L 1.49659381209199 0.104866433279717  L 2.21657678115243 0.104866433279717  L 2.21657678115243 1.54264042640425  L 3.3356514334374 1.54264042640425  L 3.3356514334374 2.2104740278172  L 2.21657678115243 2.2104740278172  L 2.21657678115243 3.47715015611693  C 2.56443372126028 3.36676443687513  2.90959409594099 3.25637871763331  3.24936133976726 3.14323335541047  C 3.24936133976726 3.44127479736334  3.24936133976726 3.69516195161951  3.26823729775762 3.88005803134954  L 2.21657678115246 4.21949411801811  L 2.21657678115246 5.64622953921847  C 2.21657678115249 6.42812838384796  1.85703472419344 6.81907780616269  1.13795061027536 6.81907780616268  C 0.868294067556105 6.81907780616268  0.571671870564884 6.81907780616268  0.256173715583338 6.79976030529537  C 0.229208061311406 6.58174850979279  0.191456145330726 6.31406314063142  0.142917967641298 6.00498312675436  C 0.421720749080162 6.05432313266903  0.704009644500077 6.0801665193917  0.986942946352581 6.08225313022361  C 1.00657656494771 6.08493526445257  1.02636249337971 6.0862807677141  1.046170262566 6.0862807677141  C 1.29338940831767 6.0862807677141  1.49380012347998 5.88118208260645  1.49380012347998 5.62818003286059  C 1.49380012347998 5.60465592197333  1.49202955056892 5.58116675576497  1.48850411581045 5.55792096382502  L 1.48850411581045 4.45406377140695  L 0.169883621913199 4.87628914750687  Z M 1.12986091399373 7.23578389630049  L 1.13525404484816 7.23578389630049  L 1.79860913993756 7.52830605229128  C 1.4927480365322 8.23817204784471  1.14515349055203 8.92842679914543  0.757734885041206 9.59527864509413  C 0.567177594852931 9.48489292585233  0.348755795250335 9.37174756362947  0.102469486233354 9.25584255842556  C 0.506220836073468 8.61703820343971  0.850207477621229 7.94069112078151  1.12986091399373 7.23578389630049  Z M 2.67499290377521 7.62489355662788  L 2.68038603462961 7.62489355662788  L 3.30598921373833 7.34892925852336  C 3.59721827987518 7.90085785473241  3.89743589743596 8.50246002460024  4.20664206642074 9.15373576812691  L 3.5055350553506 9.46557542498503  C 3.22778881634974 8.79222253760999  2.95273914277607 8.18234143879899  2.67499290377521 7.62489355662788  Z M 3.49205222821462 3.67584445075219  L 3.48935566278745 3.66756552180907  L 3.89653704229354 3.11563692560003  C 4.18776610843036 3.29777336234901  4.47629860913997 3.47990979909798  4.76213454442238 3.66756552180907  C 4.86525333868106 3.19743067279046  4.91770021224791 2.71714358953667  4.9185353391996 2.23531081464661  L 3.75631564007947 2.23531081464661  L 3.75631564007947 1.53712114044219  L 4.93741129718989 1.53712114044219  C 4.93741129718989 1.00175040211942  4.95359068975304 0.513293594474425  4.95089412432584 0.0717507175071811  L 5.68166335509508 0.0717507175071811  C 5.68166335509508 0.493976093607087  5.68166335509508 0.982432901252095  5.66278739710473 1.53712114044219  L 7.85509508941246 1.53712114044219  C 7.797568360299 3.45231336928754  7.8389156968493 4.7493455703788  7.97913709906334 5.42821774371591  C 8.06273062730631 5.80904847510014  8.18137950610278 5.99946384079227  8.34047686630717 5.99946384079227  C 8.49957422651156 5.99946384079227  8.54811240420099 5.89183776453151  8.5858643201817 5.67106632604789  C 8.64249219415277 5.3537073832277  8.6937269372694 4.92044343520359  8.73687198410448 4.37127448197561  C 8.97686630712464 4.4623427003501  9.21146749929039 4.53961270381937  9.43797899517459 4.6030844923834  C 9.37595799034915 5.17984987542184  9.30854385466933 5.6351909672943  9.24112971898952 5.982905982906  C 9.10630144762989 6.57898886681176  8.81237581606587 6.87427066578359  8.3593528242975 6.87427066578359  C 7.82003973885898 6.87427066578359  7.45330684076074 6.42536874086692  7.25915413000284 5.52756489103356  C 7.11967210373693 4.44004325872314  7.07185653701166 3.34225841415042  7.11623616236164 2.24634938657082  L 5.6412148736872 2.24634938657082  C 5.63926474549165 2.87342767538342  5.56320860510839 3.49796274626941  5.41470337780303 4.10634875579528  C 5.8596366732898 4.39887091178606  6.29917683792223 4.69967199671999  6.72793074084587 5.00323272463496  L 6.25333522565997 5.69038382691521  C 5.88120919670736 5.39786167092443  5.52166713974834 5.12189737281991  5.17470905478287 4.86249093260165  C 4.79879341774234 5.80729720506565  4.12988267273631 6.5994837578152  3.27093386318482 7.11711924811559  C 3.11183650298043 6.91842495348033  2.92847005393134 6.70593244393986  2.73162077774628 6.48792064843729  C 3.57027722001923 6.04874957727184  4.22053367939439 5.30759415461637  4.55719557195573 4.40714984072921  C 4.18237297757595 4.12842589964361  3.82912290661372 3.88557731731162  3.49205222821462 3.67584445075219  Z M 5.08302583025833 7.57521998296906  L 5.08032926483116 7.57521998296907  L 5.70593244393988 7.29925568486455  C 6.029520295203 7.87326142492194  6.33153562304859 8.46658466584668  6.617371558331 9.07370612167662  L 5.92435424354247 9.37450720661054  C 5.68138941841182 8.75713332837227  5.40038177854201 8.1561629484588  5.08302583025833 7.57521998296906  Z M 7.41555492478003 7.38204497429589  L 7.41285835935286 7.38204497429591  L 8.01958558047122 7.0150124578169  C 8.42946352540451 7.63593212855206  8.82855520862903 8.28996751505978  9.24382628441672 8.98263790330213  L 8.56968492761852 9.39106506449682  C 8.23710852493146 8.75082789289433  7.85239852398526 8.08115452949402  7.41555492478003 7.38204497429589  Z M 14.5263979562873 1.1728482669442  C 14.3807834232189 0.888605039896536  14.2243826284417 0.609881098810976  14.0571955719557 0.339436086668551  L 14.7475163213171 0  C 14.9632415554925 0.345875253624336  15.1798656448103 0.736824675939071  15.3973885892705 1.1728482669442  L 18.9029236446211 1.1728482669442  L 18.9029236446211 1.85172044028132  L 11.3309679250639 1.85172044028132  L 11.3309679250639 4.77970164317027  C 11.3309679250639 6.98741602800643  10.9103037184218 8.63676264967778  10.0689753051377 9.7277415081843  C 9.91257451036053 9.51524899864383  9.73190462673861 9.29447756016022  9.52966221969917 9.06818683571451  C 10.2253760999149 8.19613965370424  10.5795250260195 6.75100661263023  10.5921089980131 4.73278771249252  L 10.5921089980131 1.1728482669442  L 14.5263979562873 1.1728482669442  Z M 12.5983536758445 6.47964171949411  L 11.8190462673858 6.47964171949411  L 11.8190462673858 5.83940454789164  L 17.7514902072098 5.83940454789164  L 17.7514902072098 6.47136279055099  C 17.1640828159367 7.11810309431131  16.4894203038652 7.67566225283188  15.7479420948057 8.12714857917813  C 16.7771315962175 8.52934044579619  17.8581552525345 8.77570376616428  18.9568549531649 8.85845396915507  L 18.5874254896395 9.61459614596147  C 17.3376871158887 9.46366901173581  16.1206344796418 9.10381019612807  14.9848140789101 8.54937395527803  C 13.8335841554851 9.10241568018895  12.6144288952161 9.49324198118587  11.360630144763 9.71118365029803  C 11.2427259252411 9.47193242505896  11.1131267523379 9.23890759642469  10.9723247232472 9.01299397609361  C 12.1014784998612 8.84535071627978  13.2074662333251 8.54247197254899  14.2675276752768 8.11059072129183  C 13.6133354105168 7.68249329118155  13.046478726531 7.12861793533289  12.5983536758445 6.47964171949411  Z M 11.5386034629577 3.51026587188948  L 11.5332103321034 2.87002870028701  L 12.9462106159524 2.87002870028701  L 12.9462106159524 2.05593402087868  L 13.6661935850128 2.05593402087868  L 13.6661935850128 2.87002870028701  L 16.3492761850696 2.87002870028701  L 16.3492761850696 2.04213580597345  L 17.0719557195572 2.04213580597345  L 17.0719557195572 2.87002870028701  L 18.7950610275334 2.87002870028701  L 18.7950610275334 3.5102658718895  L 17.0773488504116 3.5102658718895  L 17.0773488504116 5.37302488409499  L 16.354669315924 5.37302488409499  L 16.354669315924 5.03358879742643  L 13.6715867158672 5.03358879742643  L 13.6715867158672 5.38406345601917  L 12.9516037468067 5.38406345601917  L 12.9516037468067 3.51026587188948  L 11.5386034629577 3.51026587188948  Z M 16.7834232188476 6.47964171949413  L 16.7780300879933 6.47964171949411  L 13.3965370422935 6.47964171949411  C 13.8607325434572 6.99756616732369  14.4079020691801 7.43060871594649  15.0144762986092 7.76011606269909  C 15.6633990717316 7.42626003175758  16.2596887759814 6.99462827465191  16.7834232188476 6.47964171949413  Z M 13.6661935850129 3.51026587188948  L 13.6661935850129 4.41266912669126  L 16.3492761850696 4.41266912669126  L 16.3492761850696 3.51026587188948  L 13.6661935850129 3.51026587188948  Z " fill-rule="nonzero" fill="#555555" stroke="none" />
  </g>
</svg>