<?xml version="1.0" encoding="utf-8"?>
<svg version="1.1" xmlns:xlink="http://www.w3.org/1999/xlink" width="10px" height="10px" xmlns="http://www.w3.org/2000/svg">
  <g transform="matrix(1 0 0 1 -310 -105 )">
    <path d="M 5.06166666666667 9.17525773195876  C 2.72125 9.17525773195876  0.833333333333333 7.32371134020619  0.833333333333333 5.05154639175258  C 0.833333333333333 2.77938144329897  2.72125 0.927835051546392  5.0625 0.927835051546392  C 6.44666666666667 0.927835051546392  7.67458333333333 1.5760824742268  8.44583333333333 2.57731958762887  L 7.08333333333333 2.57731958762887  L 7.08333333333333 3.4020618556701  L 10 3.4020618556701  L 10 0.515463917525773  L 9.16666666666667 0.515463917525773  L 9.16666666666667 2.15463917525773  C 8.20799612908923 0.861546404921604  6.68303688096303 0.0992662888453381  5.0625 0.103092783505155  C 2.27125 0.103092783505155  0 2.31340206185567  0 5.05154639175258  C 0 7.78969072164949  2.27166666666667 10  5.0625 10  C 7.4525 10  9.46 8.37938144329897  9.98875 6.19422680412371  L 9.17833333333333 6.00247422680412  C 8.73875 7.81814432989691  7.065 9.17525773195876  5.06166666666667 9.17525773195876  Z " fill-rule="nonzero" fill="#999999" stroke="none" transform="matrix(1 0 0 1 310 105 )" />
  </g>
</svg>