<?xml version="1.0" encoding="utf-8"?>
<svg version="1.1" xmlns:xlink="http://www.w3.org/1999/xlink" width="110px" height="125px" xmlns="http://www.w3.org/2000/svg">
  <g>
    <path d="M 0 0  L 110 0  L 110 125  L 0 125  L 0 0  " fill-rule="nonzero" fill="#cccccc" stroke="none" />
    <path d="M 8 8  L 102 8  L 102 117  L 8 117  L 8 8  " fill-rule="nonzero" fill="#ffffff" stroke="none" />
    <path d="M 65.45 35.25  C 60.83 35.25  57.2 31.62  57.2 27  C 57.2 22.38  60.83 18.75  65.45 18.75  C 70.07 18.75  73.7 22.38  73.7 27  C 73.7 31.62  70.07 35.25  65.45 35.25  " fill-rule="nonzero" fill="#cccccc" stroke="none" />
    <path d="M 11 114  L 11 57.35  L 33 31.6  L 63.8 52.2  L 81.4 47.05  L 99 52.2  L 99 114  L 11 114  " fill-rule="nonzero" fill="#169bd5" stroke="none" />
  </g>
</svg>