<?xml version="1.0" encoding="utf-8"?>
<svg version="1.1" xmlns:xlink="http://www.w3.org/1999/xlink" width="18px" height="18px" xmlns="http://www.w3.org/2000/svg">
  <g transform="matrix(1 0 0 1 -262 -56 )">
    <path d="M 7.7483076923077 0.238153846153847  C 10.5175384615385 -0.448615384615382  13.3089230769231 1.24615384615384  13.9956923076923 4.01538461538461  C 14.1950769230769 4.824  14.1950769230769 5.67692307692308  13.9956923076923 6.49661538461539  C 13.4861538461538 8.55692307692308  9.87507692307693 12.9655384615385  9.46523076923077 13.464  C 9.34338461538462 13.608  9.16615384615385 13.6855384615385  8.97784615384616 13.6855384615385  C 8.78953846153846 13.6855384615385  8.61230769230769 13.608  8.50153846153846 13.464  C 8.09169230769231 12.9655384615385  4.46953846153846 8.55692307692308  3.97107692307693 6.49661538461539  C 3.28430769230769 3.72738461538462  4.97907692307693 0.924923076923076  7.7483076923077 0.238153846153847  Z M 5.16738461538461 6.19753846153846  C 5.48861538461538 7.5156923076923  7.704 10.4953846153846  8.97784615384616 12.0793846153846  C 10.2406153846154 10.4953846153846  12.456 7.51569230769231  12.7883076923077 6.19753846153846  C 12.8658461538462 5.88738461538461  12.8990769230769 5.57723076923077  12.8990769230769 5.256  C 12.8990769230769 3.08492307692308  11.1489230769231 1.33476923076923  8.97784615384616 1.33476923076923  C 6.81784615384615 1.33476923076923  5.05661538461539 3.096  5.05661538461539 5.256  C 5.05661538461539 5.57723076923077  5.08984615384616 5.88738461538462  5.16738461538461 6.19753846153846  Z M 17.8269230769231 5.61046153846154  L 17.8269230769231 14.3169230769231  C 17.9169230769231 14.5495384615385  17.7950769230769 14.76  17.5846153846154 14.8596923076923  L 11.9907692307692 17.8726153846154  C 11.8910769230769 17.928  11.7913846153846 17.9501538461538  11.6806153846154 17.9501538461538  C 11.5809230769231 17.9501538461538  11.4812307692308 17.928  11.3926153846154 17.8836923076923  L 5.72123076923077 14.9483076923077  L 0.991384615384617 17.3076923076923  C 0.681230769230766 17.4627692307692  0.304615384615383 17.3409230769231  0.160615384615384 17.0307692307692  C 0.116307692307697 16.9421538461539  0.0941538461538432 16.8424615384615  0.173076923076923 16.7427692307692  L 0.173076923076923 7.77046153846154  C 0.0941538461538432 7.56  0.204923076923081 7.36061538461538  0.382153846153851 7.23876923076923  L 2.20984615384616 6.09784615384615  C 2.49784615384616 5.92061538461538  2.88553846153847 6.00923076923077  3.06276923076924 6.29723076923077  C 3.24 6.58523076923077  3.15138461538462 6.97292307692308  2.86338461538461 7.15015384615385  L 1.55769230769231 8.03630769230769  L 1.55769230769231 15.5575384615385  L 5.43323076923077 13.5526153846154  C 5.75446153846154 13.4196923076923  5.96492307692308 13.5415384615385  6.14215384615385 13.6412307692308  L 11.6695384615385 16.5101538461538  L 16.4423076923077 13.8627692307692  L 16.4423076923077 6.66276923076923  L 15.8787692307692 6.93969230769231  C 15.5575384615385 7.07261538461539  15.192 6.91753846153846  15.0701538461538 6.59630769230769  C 14.9483076923077 6.29723076923077  15.0701538461538 5.95384615384615  15.3692307692308 5.80984615384616  L 17.0307692307692 5.04553846153846  C 17.3409230769231 4.90153846153846  17.7175384615384 5.04553846153846  17.8615384615385 5.35569230769231  C 17.8947692307692 5.43323076923077  17.9169230769231 5.52184615384615  17.8269230769231 5.61046153846154  Z M 6.38584615384616 5.256  C 6.38584615384616 3.82707692307692  7.54892307692307 2.664  8.97784615384616 2.664  C 10.4067692307692 2.664  11.5698461538462 3.82707692307692  11.5698461538462 5.256  C 11.5698461538462 6.68492307692308  10.4178461538462 7.848  8.97784615384616 7.848  C 7.54892307692307 7.848  6.38584615384616 6.68492307692308  6.38584615384616 5.256  Z M 7.62646153846154 5.256  C 7.62646153846154 5.99815384615385  8.23569230769231 6.60738461538461  8.97784615384616 6.60738461538461  C 9.72 6.60738461538461  10.3292307692308 5.99815384615385  10.3292307692308 5.256  C 10.3292307692308 4.50276923076923  9.73107692307692 3.90461538461539  8.97784615384616 3.90461538461539  C 8.23569230769231 3.90461538461539  7.62646153846154 4.51384615384616  7.62646153846154 5.256  Z " fill-rule="nonzero" fill="#666666" stroke="none" transform="matrix(1 0 0 1 262 56 )" />
  </g>
</svg>