<?xml version="1.0" encoding="utf-8"?>
<svg version="1.1" xmlns:xlink="http://www.w3.org/1999/xlink" width="13px" height="15px" xmlns="http://www.w3.org/2000/svg">
  <g transform="matrix(1 0 0 1 -347 -107 )">
    <path d="M 3.37328495841796 14.7521603871414  C 2.94534600326404 14.7521603871414  2.59324433130196 14.6212444776953  2.31697994253171 14.353957829243  C 2.04071555376146 14.0866711807907  1.89174946177751 13.7402895037147  1.87008166657984 13.3093579684548  C 1.87008166657984 13.3093579684548  1.37984780023264 3.2997457253929  1.37984780023264 3.2997457253929  C 1.37984780023264 3.2997457253929  0.429173285935015 3.2997457253929  0.429173285935015 3.2997457253929  C 0.328959733145807 3.2997457253929  0.239580077955433 3.26156191847113  0.161034320363891 3.18519430462761  C 0.0824885627723505 3.10882669078409  0.0445699211764341 3.01882200303993  0.0445699211764341 2.91245282661502  C 0.0445699211764341 2.80608365019012  0.0824885627723505 2.71607896244596  0.161034320363891 2.63971134860244  C 0.236871603555724 2.56334373475891  0.326251258746099 2.52515992783715  0.429173285935015 2.52515992783715  C 0.429173285935015 2.52515992783715  12.3789623374481 2.52515992783715  12.3789623374481 2.52515992783715  C 12.4791758902373 2.52515992783715  12.5685555454277 2.56061631997879  12.6443928286195 2.63425651904219  C 12.7202301118114 2.70789671810558  12.7581487534073 2.80062882062987  12.7581487534073 2.9097254118349  C 12.7581487534073 3.01063975869956  12.7229385862111 3.10064444644371  12.6498097774189 3.17973947506736  C 12.5766809686268 3.25610708891088  12.4873013134364 3.29701831061277  12.3816708118478 3.29701831061277  C 12.3816708118478 3.29701831061277  11.4282878231505 3.29701831061277  11.4282878231505 3.29701831061277  C 11.4282878231505 3.29701831061277  10.9380539568033 13.3066305536747  10.9380539568033 13.3066305536747  C 10.9190946360053 13.7321072593743  10.7728370184211 14.0812163512304  10.4911556808514 14.3485029996828  C 10.2121828176815 14.6157896481351  9.86008114571938 14.7521603871414  9.43755913936488 14.7521603871414  C 9.43755913936488 14.7521603871414  3.37328495841796 14.7521603871414  3.37328495841796 14.7521603871414  Z M 3.43287139521154 13.9748471748055  C 3.43287139521154 13.9748471748055  9.36443033057276 13.9748471748055  9.36443033057276 13.9748471748055  C 9.57569133375001 13.9748471748055  9.75445064413075 13.9039343905222  9.900708261715 13.7621088219557  C 10.0469658792993 13.6202832533892  10.1228031624911 13.443001292681  10.1309285856902 13.2302629398312  C 10.1309285856902 13.2302629398312  10.6076200800389 3.2997457253929  10.6076200800389 3.2997457253929  C 10.6076200800389 3.2997457253929  2.17613927374688 3.2997457253929  2.17613927374688 3.2997457253929  C 2.17613927374688 3.2997457253929  2.66637314009409 13.2302629398312  2.66637314009409 13.2302629398312  C 2.67991551209263 13.4375464631207  2.75846126968417 13.6148284238289  2.90471888726842 13.7593814071756  C 3.05097650485267 13.9039343905222  3.22702734083371 13.9748471748055  3.43287139521154 13.9748471748055  Z M 3.54121037119988 1.50237938528995  C 3.54121037119988 1.50237938528995  3.54391884559958 1.50237938528995  3.54391884559958 1.50237938528995  C 3.54391884559958 1.05781077612944  3.679342565585 0.640516314770184  3.95019000555583 0.384139325438355  C 4.22103744552666 0.127762336106526  4.5920984382867 0.00230125622073403  5.06337298383595 0.00230125622073403  C 5.06337298383595 0.00230125622073403  7.72309484434952 0.00230125622073403  7.72309484434952 0.00230125622073403  C 8.19978633869818 0.00230125622073403  8.57355580585793 0.130489750886647  8.84440324582876 0.384139325438355  C 9.11525068579959 0.640516314770184  9.25067440578501 1.05781077612944  9.25067440578501 1.50237938528995  C 9.25067440578501 1.50237938528995  9.25067440578501 2.96154629265729  9.25067440578501 2.96154629265729  C 9.25067440578501 2.96154629265729  8.44354903467193 2.96154629265729  8.44354903467193 2.96154629265729  C 8.44354903467193 2.96154629265729  8.44354903467193 1.54874543655209  8.44354903467193 1.54874543655209  C 8.44354903467193 1.33055225414202  8.37583717467922 1.15872512299409  8.2377049802941 1.03053662832818  C 8.10228126030868 0.902348133662259  7.91539652672881 0.836890178939242  7.68246772835389 0.836890178939242  C 7.68246772835389 0.836890178939242  5.10941704863099 0.836890178939242  5.10941704863099 0.836890178939242  C 4.87648825025608 0.836890178939242  4.6896035166762 0.902348133662259  4.55417979669079 1.03053662832818  C 4.41875607670537 1.15872512299409  4.34833574231295 1.33327966892215  4.34833574231295 1.54874543655209  C 4.34833574231295 1.54874543655209  4.34833574231295 2.96154629265729  4.34833574231295 2.96154629265729  C 4.34833574231295 2.96154629265729  3.54121037119988 2.96154629265729  3.54121037119988 2.96154629265729  C 3.54121037119988 2.96154629265729  3.54121037119988 1.50237938528995  3.54121037119988 1.50237938528995  Z M 4.4620916671007 12.6902348133662  C 4.36187811431149 12.6902348133662  4.21562049672724 12.6602332507848  4.15874253433337 12.6029575404022  C 4.1018645719395 12.5456818300196  4.069362879143 12.469314216176  4.06665440474329 12.3765821136518  C 4.06665440474329 12.3765821136518  3.84726797836691 4.94437683780879  3.84726797836691 4.94437683780879  C 3.84726797836691 4.85164473528451  3.87706119676371 4.77527712144099  3.93664763355729 4.71800141105834  C 3.99623407035087 4.6607257006757  4.07477982794241 4.63072413809432  4.17228490633191 4.63072413809432  C 4.264373035922 4.63072413809432  4.41063065350624 4.65799828589557  4.47021709029983 4.71527399627822  C 4.53251200149312 4.76982229188074  4.56230521988991 4.84346249094414  4.56230521988991 4.93073976390817  C 4.56230521988991 4.93073976390817  4.7871085950657 12.3765821136518  4.7871085950657 12.3765821136518  C 4.7871085950657 12.4665868013959  4.75731537666891 12.5402270004593  4.69772893987533 12.6002301256221  C 4.63814250308174 12.6602332507848  4.5595967454902 12.6902348133662  4.4620916671007 12.6902348133662  Z M 6.36885764449536 12.6902348133662  C 6.27135256610586 12.6902348133662  6.19009833411461 12.6602332507848  6.13051189732103 12.6002301256221  C 6.06821698612773 12.5402270004593  6.03842376773094 12.4665868013959  6.03842376773094 12.3765821136518  C 6.03842376773094 12.3765821136518  6.03842376773094 4.94437683780879  6.03842376773094 4.94437683780879  C 6.03842376773094 4.85164473528451  6.06821698612773 4.77527712144099  6.13051189732103 4.71800141105834  C 6.19280680851432 4.6607257006757  6.27135256610586 4.63072413809432  6.36885764449536 4.63072413809432  C 6.46907119728457 4.63072413809432  6.62074576366823 4.6607257006757  6.68033220046181 4.71800141105834  C 6.7426271116551 4.77527712144099  6.7724203300519 4.85164473528451  6.7724203300519 4.94437683780879  C 6.7724203300519 4.94437683780879  6.7724203300519 12.3765821136518  6.7724203300519 12.3765821136518  C 6.7724203300519 12.4665868013959  6.74262711165511 12.5402270004593  6.68033220046181 12.6002301256221  C 6.61803728926852 12.6602332507848  6.46907119728457 12.6902348133662  6.36885764449536 12.6902348133662  Z M 8.34333548188272 12.6956896429265  C 8.24312192909351 12.6956896429265  8.16457617150197 12.6656880803451  8.1076982091081 12.6056849551823  C 8.05082024671422 12.5456818300196  8.02102702831743 12.469314216176  8.02102702831743 12.3765821136518  C 8.02102702831743 12.3765821136518  8.24041345469381 4.93619459346841  8.24041345469381 4.93619459346841  C 8.24583040349322 4.84346249094413  8.27562362189002 4.76982229188074  8.3352100586836 4.7125465814981  C 8.39479649547718 4.65799828589557  8.53834563866172 4.62799672331419  8.63043376825181 4.62799672331419  C 8.73064732104101 4.62799672331419  8.81190155303226 4.65799828589557  8.87148798982585 4.71527399627822  C 8.93107442661943 4.77254970666086  8.95815917061651 4.84891732050438  8.9554506962168 4.94164942302866  C 8.9554506962168 4.94164942302866  8.73606426984043 12.382036943212  8.73606426984043 12.382036943212  C 8.73606426984043 12.4747690457363  8.70627105144364 12.5511366595798  8.64668461465006 12.6084123699625  C 8.58709817785647 12.6656880803451  8.44084056027222 12.6956896429265  8.34333548188272 12.6956896429265  Z " fill-rule="nonzero" fill="#999999" stroke="none" transform="matrix(1 0 0 1 347 107 )" />
  </g>
</svg>