<?xml version="1.0" encoding="utf-8"?>
<svg version="1.1" xmlns:xlink="http://www.w3.org/1999/xlink" width="18px" height="20px" xmlns="http://www.w3.org/2000/svg">
  <g transform="matrix(1 0 0 1 -26 -165 )">
    <path d="M 16.2 7.61904761904762  L 16.2 14.2857142857143  L 18 14.2857142857143  L 18 16  L 0 16  L 0 14.2857142857143  L 1.8 14.2857142857143  L 1.8 7.61904761904762  C 1.8 3.411163810813  5.02354980121829 0  9 0  C 12.9764501987817 0  16.2 3.411163810813  16.2 7.61904761904762  Z M 3.6 14  L 14.4 14  L 14.4 7.61904761904762  C 14.4 4.46313476287166  11.9823376490863 1.9047619047619  9 1.9047619047619  C 6.01766235091372 1.9047619047619  3.6 4.46313476287166  3.6 7.61904761904762  L 3.6 14  Z M 6.3 20  L 6.3 18.0952380952381  L 11.7 18.0952380952381  L 11.7 20  L 6.3 20  Z " fill-rule="nonzero" fill="#ffffff" stroke="none" transform="matrix(1 0 0 1 26 165 )" />
  </g>
</svg>