<?xml version="1.0" encoding="utf-8"?>
<svg version="1.1" xmlns:xlink="http://www.w3.org/1999/xlink" width="14px" height="14px" xmlns="http://www.w3.org/2000/svg">
  <g>
    <path d="M 0.369753499447775 13.6362016718283  C 0.283595165880727 13.5608131299577  0.229746207401309 13.4746547963908  0.208206624009542 13.3741367405623  C 0.183077110052488 13.273618684734  0.186667040617775 13.1731006289055  0.21179655457483 13.0725825730776  C 0.236926068531885 12.968474586684  0.290775027011303 12.8823162531171  0.366163568882467 12.8033377806806  C 0.366163568882467 12.8033377806806  6.17826115409323 6.99124019546985  6.17826115409323 6.99124019546985  C 6.17826115409323 6.99124019546985  0.366163568882467 1.08221448499623  0.366163568882467 1.08221448499623  C 0.290775027011303 1.00682594312499  0.240515999097173 0.917077678992428  0.21179655457483 0.820149553729863  C 0.186667040617775 0.719631497901644  0.186667040617775 0.619113442073099  0.21179655457483 0.518595386245206  C 0.236926068531885 0.414487399851658  0.290775027011303 0.328329066284427  0.366163568882467 0.260120385543838  C 0.441552110753631 0.177551982542261  0.531300374885967 0.12370302406266  0.628228500148919 0.0985735101056866  C 0.728746555977138 0.0734439961487134  0.829264611805378 0.0734439961487134  0.929782667633597 0.0985735101056866  C 1.03030072346182 0.12370302406266  1.12004898759417 0.177551982542261  1.19543752946536 0.260120385543838  C 1.19543752946536 0.260120385543838  7.10446323993905 6.07221797075456  7.10446323993905 6.07221797075456  C 7.10446323993905 6.07221797075456  12.9165608251498 0.260120385543838  12.9165608251498 0.260120385543838  C 12.9883594364557 0.177551982542261  13.0745177700228 0.12370302406266  13.175035825851 0.0985735101056866  C 13.2755538816792 0.0734439961487134  13.3796618680728 0.0734439961487134  13.4765899933357 0.0985735101056866  C 13.5771080491639 0.12370302406266  13.6668563132963 0.177551982542261  13.749424716298 0.260120385543838  C 13.8248132581692 0.331918996849755  13.8750722860833 0.41807733041666  13.9037917306056 0.518595386245206  C 13.9289212445627 0.619113442073099  13.9289212445627 0.723221428466646  13.9037917306056 0.820149553729863  C 13.8786622166486 0.920667609558083  13.8248132581692 1.00682594312531  13.749424716298 1.08221448499623  C 13.749424716298 1.08221448499623  7.93732713108723 6.99124019546985  7.93732713108723 6.99124019546985  C 7.93732713108723 6.99124019546985  13.749424716298 12.8033377806806  13.749424716298 12.8033377806806  C 13.8248132581692 12.8787263225515  13.8750722860833 12.968474586684  13.9002018000404 13.0725825730776  C 13.9217413834321 13.1731006289055  13.9217413834321 13.277208615299  13.9002018000404 13.3741367405623  C 13.8750722860833 13.4746547963905  13.8284031887344 13.5608131299577  13.749424716298 13.6362016718286  C 13.6740361744268 13.7187700748302  13.5842879102945 13.7690291027445  13.4837698544663 13.7941586167014  C 13.3796618680728 13.8156982000931  13.2791438122445 13.8156982000931  13.1786257564163 13.7905686861358  C 13.0745177700228 13.7654391721788  12.991949367021 13.7115902136992  12.9201507557151 13.6362016718283  C 12.9201507557151 13.6362016718283  7.10805317050434 7.82410408661758  7.10805317050434 7.82410408661758  C 7.10805317050434 7.82410408661758  1.19902746003066 13.6362016718283  1.19902746003066 13.6362016718283  C 1.1236389181595 13.7115902136992  1.03389065402714 13.7618492416135  0.936962528764193 13.7905686861358  C 0.836444472935994 13.8156982000928  0.735926417107754 13.8156982000928  0.635408361279535 13.7905686861358  C 0.531300374885987 13.7654391721788  0.44514204131896 13.7115902136992  0.369753499447775 13.6362016718283  Z " fill-rule="nonzero" fill="#555555" stroke="none" />
  </g>
</svg>