<?xml version="1.0" encoding="utf-8"?>
<svg version="1.1" xmlns:xlink="http://www.w3.org/1999/xlink" width="12px" height="10px" xmlns="http://www.w3.org/2000/svg">
  <g transform="matrix(1 0 0 1 -300 -62 )">
    <path d="M 11.906976744186 1.54658235085818  L 11.9069751546145 2.01967695621903  C 11.9072443247838 2.02639392925089  11.9073801904577 2.0331450378219  11.9073801904577 2.03992773261066  C 11.9073801904577 2.0466480603325  11.9072445161968 2.05334901275887  11.906976744186 2.06002735538312  L 11.906976744186 8.45341764914183  C 11.9013698127283 9.27081903497992  11.2356530427887 9.93345378283649  10.4144497900397 9.90740740740741  L 1.49292965390811 9.90740740740741  C 0.671726401159144 9.93345378283649  0.00600963121951281 9.27081903497992  0 8.45341764914182  L 0 2.03992390847813  L 0 1.54658235085818  C 0.00600963121951281 0.729180965020078  0.671726401159144 0.0665462171635056  1.49292965390811 0.0925925925925926  L 10.4144497900397 0.0925925925925926  C 11.2356530427887 0.0665462171635056  11.9013698127283 0.729180965020078  11.906976744186 1.54658235085818  Z M 5.24244673117826 5.17513761300813  L 1.02325581395349 2.89064569606623  L 1.02325581395349 8.45341764914182  C 0.997289660505271 8.72588477085208  1.21919524325967 8.94676301294558  1.49292965390811 8.88888888888889  L 10.4144497900397 8.88888888888889  C 10.6881842052247 8.94676301933153  10.9100897950591 8.72588477536762  10.8837209302326 8.45341764914182  L 10.8837341053935 2.89362218764245  L 6.67484625789259 5.18747123974706  C 6.45274735211672 5.30388481047794  6.20465523395065 5.36243843777774  5.95369009089002 5.35767539512195  C 5.70500361759054 5.35698923898805  5.46046175623117 5.29422854196781  5.24244673117826 5.17513761300813  Z M 1.02325581395349 1.54658235085818  L 1.02327888854399 1.75513623379272  L 5.70587010610153 4.30931647479675  C 5.85410568111917 4.39004850631551  6.03344890931239 4.39004850631551  6.18168448433003 4.30931647479675  L 10.8837209302326 1.75480482544771  L 10.8837209302326 1.54658235085818  C 10.9100897950591 1.27411522463238  10.6881842052247 1.05323698066848  10.4144497900397 1.11111111111111  L 1.49292965390811 1.11111111111111  C 1.21919524325967 1.05323698705442  0.997289660505271 1.27411522914792  1.02325581395349 1.54658235085818  Z " fill-rule="nonzero" fill="#666666" stroke="none" transform="matrix(1 0 0 1 300 62 )" />
  </g>
</svg>