<?xml version="1.0" encoding="utf-8"?>
<svg version="1.1" xmlns:xlink="http://www.w3.org/1999/xlink" width="18px" height="18px" xmlns="http://www.w3.org/2000/svg">
  <g transform="matrix(1 0 0 1 -278 -11 )">
    <path d="M 17.860431627907 15.0941304492188  C 17.8585862178569 16.6982268898414  16.5687497821682 17.998140172684  14.9770881976744 18  L 2.88334343023256 18  C 1.29168184573881 17.998140172684  0.0018454100500308 16.6982268898414  0 15.0941304492187  L 0 2.90590330078125  C 0.00184541005002974 1.30180686015864  1.29168184573881 0.0018935773160456  2.88334343023256 3.375E-05  L 8.93021581395349 3.375E-05  C 9.238467189375 3.37499999999828E-05  9.48835430232558 0.251873106020501  9.48835430232558 0.5625326953125  C 9.48835430232558 0.8731922846045  9.23846718937501 1.125031640625  8.93021581395349 1.125031640625  L 2.88334343023256 1.125031640625  C 1.90883363372093 1.125031640625  1.11627697674419 1.92378014648438  1.11627697674419 2.90590330078125  L 1.11627697674419 15.0930054492188  C 1.11627697674419 16.0762536035156  1.90883363372093 16.875002109375  2.88334343023256 16.875002109375  L 14.9759719186046 16.875002109375  C 15.951597994186 16.875002109375  16.7441546511628 16.0762536035156  16.7441546511628 15.0941304492187  L 16.7441546511628 10.2048896074219  C 16.7441546511628 9.89423001812988  16.9940417641134 9.64239066210937  17.3022931395349 9.64239066210937  C 17.6105445149564 9.64239066210937  17.860431627907 9.89423001812988  17.860431627907 10.2048896074219  L 17.860431627907 15.0941304492188  Z M 6.45542975581395 13.05000928125  C 6.43533676744186 13.05225928125  6.41636005813953 13.05225928125  6.39626706976744 13.05225928125  C 6.11141200753029 13.0526756292001  5.87233732489673 12.836021722175  5.84259369767442 12.5505102128906  C 5.82696582558139 12.4020104941406  5.48538505813953 8.87514210351563  8.00147337209302 6.06827237695313  C 9.78193515697674 4.08152610351563  12.506767255814 2.98802816015625  16.1112256046512 2.8102784765625  L 14.5116006976744 0.928157009765625  C 14.4251339893717 0.826267633361095  14.377619554657 0.69660436711381  14.377619554657 0.5625326953125  C 14.377619554657 0.251857572691561  14.6275191622443 0  14.9357859505814 0  C 15.0989400945036 0  15.2539263123028 0.0719487513571671  15.3599712034884 0.196908380859375  L 17.7264783837209 2.98015316015625  C 17.812950429483 3.08204000404187  17.86046834319 3.21170423224262  17.86046834319 3.34577747582641  C 17.86046834319 3.65643706511841  17.6105812302394 3.90827642113891  17.3023298548179 3.90827642113891  L 17.1895491627907 3.90827641992187  C 13.3819283895349 3.90827641992187  10.5722592383721 4.88477459179688  8.83868110465116 6.81077098828125  C 6.65524334302325 9.23626643554687  6.94882418023256 12.4008855117187  6.95217301744186 12.4323854414063  C 6.98341174954686 12.7409354587301  6.76142358154009 13.016943600793  6.45542975581395 13.05000928125  Z M 15.3822967325581 6.8636458828125  C 15.2768898332663 7.0052864037359  15.1114641073469 7.0886454609375  14.9357859418605 7.0886454609375  C 14.9354135756355 7.0886462120431  14.9350412087575 7.08864658759619  14.9346688417867 7.08864658759619  C 14.6264174663652 7.08864658759619  14.3765303534146 6.83680723157569  14.3765303534146 6.52614764228369  C 14.3765303534146 6.40443914355646  14.4156996344525 6.28601376458654  14.4881588895349 6.1886471484375  L 16.8546660697674 3.00827810742188  C 16.9601436242592 2.86636547391157  17.125798407226 2.78282842812763  17.301735 2.78282842812763  C 17.6102330324253 2.78282842812763  17.860320100385 3.03486930130572  17.860320100385 3.34577747460938  C 17.860320100385 3.46746742023989  17.8211939727013 3.585881129352  17.7488039302326 3.68327684179688  L 15.3822967325581 6.8636458828125  Z " fill-rule="nonzero" fill="#000000" stroke="none" transform="matrix(1 0 0 1 278 11 )" />
  </g>
</svg>