<?xml version="1.0" encoding="utf-8"?>
<svg version="1.1" xmlns:xlink="http://www.w3.org/1999/xlink" width="20px" height="20px" xmlns="http://www.w3.org/2000/svg">
  <g transform="matrix(1 0 0 1 -227 -10 )">
    <path d="M 4.46892882692308 9.99995625  C 4.46892882692308 10.517720937736  4.88220263438306 10.9374521484375  5.39200171153846 10.9374521484375  C 5.90180078869386 10.9374521484375  6.31507459615385 10.517720937736  6.31507459615385 9.99995625  C 6.31507459615385 9.48219156226405  5.90180078869386 9.0624603515625  5.39200171153846 9.0624603515625  C 4.88220263438307 9.0624603515625  4.46892882692308 9.48219156226405  4.46892882692308 9.99995625  Z M 9.07813942307692 9.99995625  C 9.07813942307692 10.517720937736  9.49141323053691 10.9374521484375  10.0012123076923 10.9374521484375  C 10.5110113848477 10.9374521484375  10.9242851923077 10.517720937736  10.9242851923077 9.99995625  C 10.9242851923077 9.48219156226405  10.5110113848477 9.0624603515625  10.0012123076923 9.0624603515625  C 9.49141323053691 9.0624603515625  9.07813942307692 9.48219156226405  9.07813942307692 9.99995625  Z M 13.6873500192308 9.99995625  C 13.6873500192308 10.517720937736  14.1006238266908 10.9374521484375  14.6104229038462 10.9374521484375  C 15.1202219810015 10.9374521484375  15.5334957884615 10.517720937736  15.5334957884615 9.99995625  C 15.5334957884615 9.48219156226405  15.1202219810015 9.0624603515625  14.6104229038462 9.0624603515625  C 14.1006238266908 9.0624603515625  13.6873500192308 9.48219156226405  13.6873500192308 9.99995625  Z M 9.87075134615385 19.9224128320313  C 9.2416973510262 19.9708807112933  8.61115187979047 19.9967301017307  7.98029807692308 19.9999125  C 7.11478615343414 20.0022574879371  6.24983091407083 19.9550997095968  5.38954017307692 19.858663125  C 3.88554675 19.7124137695312  2.78278234615385 19.5236645898438  2.02586257692308 19.2811656445312  C 1.15940482692308 19.0036668554688  0.681868461538461 18.8499175390625  0.711406788461538 18.2924199609375  C 0.739279272004569 17.9977234775232  0.951043583239112 17.7548826964959  1.23571219230769 17.6911725976563  C 1.929863 17.571173125  2.51201430769231 17.3849239453125  2.98585838461538 17.1324250390625  C 2.98216609615385 16.9499258398438  2.89601261538462 16.7836765625  2.74955173076923 16.6161773046875  C 1.97620542732021 15.7480722173489  1.35398914052341 14.752610702331  0.909559769230769 13.6724401757813  C 0.433087593036914 12.5178017215818  0.177057534027343 11.2817022644754  0.155101538461538 10.0299561132813  C 0.133638903543238 8.69407311318854  0.386826611548892 7.36833522520832  0.898482903846154 6.13747314453125  C 1.40309607692308 4.9374783984375  2.10340071153846 3.87123306640625  2.97970455769231 2.96873701171875  C 3.87184633629063 2.05587765242752  4.92803287875642 1.32519282712064  6.09107557692308 0.81624642578125  C 7.30090529556724 0.285833934850263  8.60349885802124 0.00823620969184954  9.92121265384615 0  L 9.92613571153846 0  C 11.3488987115385 0  12.6005855576923 0.25249888671875  13.7587343269231 0.75124671875  C 14.9414983846154 1.2599944921875  15.996263 1.96374140625  16.8959513653846 2.841237578125  C 17.8038983628514 3.73251155022734  18.5310376282073 4.79588476400982  19.0362497115385 5.9712238671875  C 19.5593243461538 7.16996861328125  19.8313231538462 8.4712129296875  19.8448615576923 9.838706953125  C 19.8665479960757 11.0987502101926  19.6410383504005 12.3505718959295  19.1814798269231 13.5211908398438  C 18.737054797014 14.6487810570908  18.0906475819586 15.6829178462355  17.2750266346154 16.5711775  C 16.4536048423276 17.4592347155774  15.4871656579748 18.1963410781297  14.41842375 18.74991796875  C 13.3121033182356 19.3261042757947  12.1095292084707 19.6872991396492  10.8725931153846 19.8149133007812  C 10.5722867307692 19.8574131054687  10.2313651538462 19.8936629492188  9.87075134615385 19.9224128320313  Z M 3.56554815384615 18.233670234375  C 3.5046315042761 18.2661669810622  3.44308100405565 18.2974230944554  3.38093357692308 18.3274198242188  C 3.96062334615385 18.4374193359375  4.67323561538462 18.5324189257813  5.51261655769231 18.6136685742188  C 6.54917346873602 18.7308022346204  7.59264560842716 18.7725750524968  8.63506444230769 18.7386680273438  C 9.05352415384615 18.7261680859375  9.43136865384616 18.7049181835938  9.773521 18.67741828125  C 10.1107502884615 18.6499183984375  10.4282873653846 18.6149185546875  10.7261322115385 18.5749187304687  C 11.817548639761 18.4634684265215  12.8789508598447 18.1463886036983  13.8559646730769 17.6399228320313  C 14.7987431188074 17.151562708312  15.6514596061119 16.5016097001184  16.3765690384615 15.7186812304688  C 17.0885891215563 14.9428681822538  17.652790615675 14.039688053603  18.04056175 13.054942890625  C 18.4390385882786 12.0366276071874  18.6344070715068 10.9480732092794  18.6153284615385 9.85245689453125  C 18.6012444916181 7.54710078334713  17.6741495607802 5.34452256803262  16.0430320192308 3.7412336328125  C 15.2407792404058 2.96056528807789  14.303684459525 2.33680896529708  13.2787364230769 1.9012416796875  C 12.2516857695967 1.46537325637004  11.1487674126949 1.24389359516062  10.0356736923077 1.24999453125  C 8.74952548076923 1.26374447265625  7.62214578846154 1.50374341796875  6.58215034615385 1.96374140625  C 5.56294428485573 2.40836909003462  4.63742759041866 3.04789355136417  3.85600842307692 3.8474831640625  C 3.08007092129413 4.64913394535782  2.46073751202821 5.59286175731615  2.03078563461539 6.62872099609375  C 1.5861985109018 7.69741332338979  1.36652535203685 8.84870610580987  1.38586538461538 10.0087062109375  C 1.40458904785095 11.0991472543072  1.62677040682884 12.1760886489249  2.04063175 13.1824423242188  C 2.43165189061455 14.1341274808799  2.97937475159307 15.01124232289  3.66031698076923 15.7761809765625  C 3.96554642307692 16.123679453125  4.15262251923077 16.5036777929687  4.22154528846154 16.909926015625  C 4.31631409615385 17.46492359375  4.07631515384615 17.947421484375  3.56554815384615 18.233670234375  Z " fill-rule="nonzero" fill="#000000" stroke="none" transform="matrix(1 0 0 1 227 10 )" />
  </g>
</svg>