<?xml version="1.0" encoding="utf-8"?>
<svg version="1.1" xmlns:xlink="http://www.w3.org/1999/xlink" width="21px" height="20px" xmlns="http://www.w3.org/2000/svg">
  <g transform="matrix(1 0 0 1 -327 -10 )">
    <path d="M 11.8033125 19.544  C 11.4305831032106 19.8384490604565  10.9721630363343 19.9988400261655  10.5 20  C 10.0340625 20  9.5878125 19.8466666666667  9.2098125 19.5533333333333  L 8.0915625 18.676  C 7.2515625 18.0093333333333  6.412875 17.3293333333333  5.630625 16.6746666666667  L 5.1463125 16.264  C 3.777375 15.1026666666667  2.837625 14.228  2.2745625 13.5866666666667  C 0.7021875 11.7893333333333  0 9.81066666666667  0 7.16933333333333  C 0 3.216  2.8573125 0  6.36825 0  C 8.0049375 0  9.4539375 1.1  10.5 2.20933333333333  C 11.5460625 1.1  12.9950625 0  14.6304375 0  C 18.1426875 0  21 3.216  21 7.16933333333333  C 21 9.81066666666667  20.2978125 11.7893333333333  18.7254375 13.5853333333333  C 18.1663125 14.224  17.2265625 15.1  15.8536875 16.2666666666667  L 15.385125 16.6626666666667  C 14.5884375 17.3293333333333  13.74975 18.0093333333333  12.9110625 18.6733333333333  L 11.8033125 19.544  Z M 9.998625 3.63733333333333  C 9.1231875 2.58533333333333  7.783125 1.33333333333333  6.36825 1.33333333333333  C 3.5805 1.33333333333333  1.3125 3.95066666666667  1.3125 7.16933333333333  C 1.3125 9.46  1.9123125 11.1653333333333  3.255 12.7  C 3.7734375 13.2893333333333  4.66725 14.1213333333333  5.987625 15.24  L 6.4693125 15.648  C 7.23975 16.292  8.0705625 16.964  8.9000625 17.6226666666667  L 10.0104375 18.4946666666667  C 10.3043394452371 18.7240090376965  10.7143231526965 18.7201577303022  11.004 18.4853333333333  L 12.1065 17.62  C 12.9286614774529 16.968410549391  13.7429104441964 16.3065828109777  14.5490625 15.6346666666667  L 15.0136875 15.2413333333333  C 16.3366875 14.1186666666667  17.2291875 13.2866666666667  17.7436875 12.7  C 19.0876875 11.1653333333333  19.6875 9.46  19.6875 7.16933333333333  C 19.6875 3.95066666666667  17.4181875 1.33333333333333  14.6304375 1.33333333333333  C 13.216875 1.33333333333333  11.8755 2.58533333333333  11.0000625 3.63733333333333  C 10.8717243153249 3.78048997049586  10.6899456487909 3.86208154194746  10.49934375 3.86208154194746  C 10.3087418512091 3.86208154194746  10.1269631846751 3.78048997049586  9.998625 3.63733333333333  Z " fill-rule="nonzero" fill="#000000" stroke="none" transform="matrix(1 0 0 1 327 10 )" />
  </g>
</svg>