<?xml version="1.0" encoding="utf-8"?>
<svg version="1.1" xmlns:xlink="http://www.w3.org/1999/xlink" width="20px" height="18px" xmlns="http://www.w3.org/2000/svg">
  <g transform="matrix(1 0 0 1 -319 -1676 )">
    <path d="M 0 8.0999999631734  C 0 7.60294369058555  0.407013844100054 7.19999996726524  0.909090865111765 7.19999996726524  L 4 7.19999996726524  L 4 17.9999999181631  L 0.909090865111765 17.9999999181631  C 0.407013844100054 17.9999999181631  0 17.5970561948428  0 17.099999922255  L 0 8.0999999631734  Z M 5.45454519067059 6.67259996966306  C 5.45459667921855 6.43392463861727  5.55040939075028 6.20504343001052  5.72090881414833 6.036299972556  L 11.5390903508636 0.276299998743803  C 11.698967973156 0.117566025489323  11.9524740723407 0.0995298797522111  12.1336357766467 0.23399999893612  L 12.9090902845871 0.809999996317339  C 13.349481994052 1.13730108609064  13.5478018295643 1.69471253970276  13.4118175329939 2.22299998989314  L 12.36363576552 6.29999997135709  L 18.1818173022353 6.29999997135709  C 19.1859713442587 6.29999997135709  19.9999990324588 7.1058874179977  19.9999990324588 8.0999999631734  L 19.9999990324588 9.99359995456416  C 20.0002441419698 10.2288249521768  19.9539163213119 10.4618168380417  19.8636354026921 10.6793999514462  L 17.0499991751711 17.442899920696  C 16.9096249211859 17.7801406216975  16.5775265411497 18.0001549105517  16.2090901249428 17.9999999181631  L 6.36363605578235 17.9999999181631  C 5.86155903477064 17.9999999181631  5.45454519067059 17.5970561948428  5.45454519067059 17.099999922255  L 5.45454519067059 6.67259996966306  Z " fill-rule="nonzero" fill="#ff0000" stroke="none" transform="matrix(1 0 0 1 319 1676 )" />
  </g>
</svg>