<?xml version="1.0" encoding="utf-8"?>
<svg version="1.1" xmlns:xlink="http://www.w3.org/1999/xlink" width="35px" height="35px" xmlns="http://www.w3.org/2000/svg">
  <g transform="matrix(1 0 0 1 -30 -205 )">
    <path d="M 35 17.5  C 35 27.3  27.3 35  17.5 35  C 7.69999999999998 35  0 27.3  0 17.5  C 0 7.7  7.69999999999998 0  17.5 0  C 27.3 0  35 7.7  35 17.5  Z M 25.4383847134984 26.4267321252376  C 25.5977955863596 26.4267321252376  25.7536639953794 26.3594253122518  25.8634803744615 26.2389815416456  C 26.0051789281159 26.0795706687844  26.0476884942122 25.8563954467788  25.9732967535437 25.6580174716627  L 24.832623396626 22.6185834957765  C 25.8882776213511 21.1130363631988  26.4444444444444 19.3488893702019  26.4444444444444 17.4997232450124  C 26.4444444444444 12.5756985055231  22.4414603037085 8.57271436478714  17.5174355642192 8.57271436478714  C 12.5934108247299 8.57271436478714  8.59042668399396 12.5756985055231  8.59042668399396 17.4997232450124  C 8.59042668399396 22.4237479845017  12.5934108247299 26.4267321252376  17.5174355642192 26.4267321252376  C 18.9308786369215 26.4267321252376  20.3301518542584 26.0901980603085  21.5806415902582 25.4490121050225  L 25.296686159844 26.4090198060309  C 25.3427381897818 26.4196471975549  25.3923326835608 26.4267321252376  25.4383847134984 26.4267321252376  Z " fill-rule="nonzero" fill="#ff8938" stroke="none" transform="matrix(1 0 0 1 30 205 )" />
  </g>
</svg>