<?xml version="1.0" encoding="utf-8"?>
<svg version="1.1" xmlns:xlink="http://www.w3.org/1999/xlink" width="17px" height="16px" xmlns="http://www.w3.org/2000/svg">
  <g transform="matrix(1 0 0 1 -211 -60 )">
    <path d="M 6.36338797233607 2.11494253554312  C 6.36338797233607 0.946892027190259  7.31998176081616 0  8.5 0  C 9.64824096219083 -4.1549889198503E-05  10.5911929741872 0.898259699599815  10.6351256772541 2.03402298383356  L 10.6366120276639 2.11494253554312  L 10.6366120276639 3.31034482843118  L 14.8169398965164 3.31034482843118  C 15.9651808587072 3.31030327710056  16.9081328707035 4.20860452658957  16.9520655737705 5.34436781082331  L 16.9535519067623 5.42528736253287  L 16.9535519067623 7.26436781047737  C 16.9535519067623 7.61986145655564  16.6624146701807 7.90804598277519  16.3032786885246 7.90804598277519  L 15.8387978084016 7.90804598277519  L 15.8387978084016 13.8850574644569  C 15.838839794824 15.0216529872596  14.9313346363104 15.9550416015636  13.7839344262295 15.9985287399382  L 13.7021857981557 16  L 3.29781420184426 16  C 2.14957323965344 16.0000415498892  1.20662122765711 15.1017403004002  1.16268852459016 13.9659770161664  L 1.16120219159836 13.8850574644569  L 1.16120219159836 7.90804598277519  L 0.69672131147541 7.90804598277519  C 0.358340515514155 7.90803347106063  0.0765214978988514 7.65114638526036  0.0486776014344262 7.31733332770921  L 0.0464480932377049 7.26436781047737  L 0.0464480932377049 5.42528736253287  C 0.0464480932377049 4.25723686091319  1.00304187110193 3.31034483795333  2.18306010348361 3.31034482843118  L 6.36338797233607 3.31034482843118  L 6.36338797233607 2.11494253554312  Z M 14.5382513719262 13.8850574644569  L 14.5382513719262 8  L 2.46174862807377 8  L 2.46174862807377 13.8850574644569  C 2.46169462113687 14.3201756189562  2.80204466535902 14.6810231879677  3.24059016393443 14.7108046022391  L 3.29781420184426 14.7126436712043  L 5.62690710963115 14.7126436712043  C 5.62502176406431 14.6996952614604  5.62353473770484 14.6866930829326  5.62244809323771 14.6736551712113  L 5.62021858504098 14.6206896539795  L 5.62021858504098 12.413793102653  C 5.62038011778065 12.0584126029702  5.91147000772994 11.7704045542895  6.27049173746056 11.7704045542895  C 6.60876909738427 11.7704045542895  6.89054791954758 12.027129041875  6.91853551331967 12.3608275854212  L 6.92076502151639 12.413793102653  L 6.92076502151639 14.6206896539795  C 6.92076502151639 14.6519540160428  6.91853551331967 14.6832183953476  6.91407649692623 14.7130114987905  L 10.0859235030738 14.7130114987905  C 10.0840306393877 14.6999409821017  10.0825436001527 14.686816024018  10.0814644866803 14.6736551712113  L 10.0792349784836 14.6206896539795  L 10.0792349784836 12.413793102653  C 10.0793965112233 12.0584126029702  10.3704864011726 11.7704045542895  10.7295081309032 11.7704045542895  C 11.0677854908269 11.7704045542895  11.3495643129902 12.027129041875  11.3775519067623 12.3608275854212  L 11.379781414959 12.413793102653  L 11.379781414959 14.6206896539795  C 11.379781414959 14.6519540160428  11.3775519067623 14.6832183953476  11.3730928903689 14.7130114987905  L 13.7021857981557 14.7126436712043  C 14.1417621175739 14.7126971219589  14.5063068826338 14.3757989160556  14.536393442623 13.9417011541019  L 14.5382513719262 13.8850574644569  Z M 14.8741639344262 4.59954022475062  L 14.8169398965164 4.59770115578543  L 2.18306010348361 4.59770115578543  C 1.72131383723163 4.59770115578543  1.34699452971311 4.96822412137595  1.34699452971311 5.42528736253287  L 1.34699452971311 6.62068965542093  L 15.6530054702869 6.62068965542093  L 15.6530054702869 5.42528736253287  C 15.6530594772238 4.99016920803359  15.3127094330016 4.6293216390221  14.8741639344262 4.59954022475062  Z M 9.33606557377049 2.11494253554312  C 9.33606557377049 1.65787929438619  8.96174626625197 1.28735632879568  8.5 1.28735632879568  C 8.06042368058181 1.28730287804105  7.69587891552189 1.62420108394435  7.66579235553279 2.05829884589815  L 7.66393442622951 2.11494253554312  L 7.66393442622951 3.31034482843118  L 9.33606557377049 3.31034482843118  L 9.33606557377049 2.11494253554312  Z " fill-rule="nonzero" fill="#666666" stroke="none" transform="matrix(1 0 0 1 211 60 )" />
  </g>
</svg>