<?xml version="1.0" encoding="utf-8"?>
<svg version="1.1" xmlns:xlink="http://www.w3.org/1999/xlink" width="40px" height="40px" xmlns="http://www.w3.org/2000/svg">
  <defs>
    <linearGradient gradientUnits="userSpaceOnUse" x1="20" y1="0" x2="20" y2="40" id="LinearGradient607">
      <stop id="Stop608" stop-color="#c280ff" offset="0" />
      <stop id="Stop609" stop-color="#8400ff" offset="1" />
    </linearGradient>
  </defs>
  <g transform="matrix(1 0 0 1 -135 -150 )">
    <path d="M 40 20  C 40 31.1999999999999  31.2 40  20 40  C 8.79999999999999 40  0 31.1999999999999  0 20  C 0 8.80000000000005  8.79999999999999 0  20 0  C 31.2 0  40 8.80000000000005  40 20  Z M 24.6177606177606 30.8571428571429  C 25.5344284411869 30.8560743830753  26.2772798004442 30.078954583138  26 29.12  L 26 10.88  C 26.2772798004442 9.92104541686201  25.5344284411869 9.14392561692473  24.6177606177606 9.14285714285714  L 14.2393822393822 9.14285714285714  C 13.3227144159559 9.14392561692473  12.5798630566986 9.92104541686201  13 10.88  L 13 29.12  C 12.5798630566986 30.078954583138  13.3227144159559 30.8560743830753  14.2393822393822 30.8571428571429  L 24.6177606177606 30.8571428571429  Z M 18.5983011583012 28.0342857142857  C 18.5983011583012 27.554586960147  18.9700258200633 27.1657142857143  19.4285714285714 27.1657142857143  C 19.8871170370796 27.1657142857143  20.2588416988417 27.554586960147  20.2588416988417 28.0342857142857  C 20.2588416988417 28.5139844684245  19.8871170370796 28.9028571428571  19.4285714285714 28.9028571428571  C 18.9700258200633 28.9028571428571  18.5983011583012 28.5139844684245  18.5983011583012 28.0342857142857  Z M 14 26  L 14 12.1828571428571  L 24.8262548262548 12.1828571428571  L 24.8262548262548 26  L 14 26  Z " fill-rule="nonzero" fill="url(#LinearGradient607)" stroke="none" transform="matrix(1 0 0 1 135 150 )" />
  </g>
</svg>