<?xml version="1.0" encoding="utf-8"?>
<svg version="1.1" xmlns:xlink="http://www.w3.org/1999/xlink" width="40px" height="40px" xmlns="http://www.w3.org/2000/svg">
  <defs>
    <linearGradient gradientUnits="userSpaceOnUse" x1="20" y1="0" x2="20" y2="40" id="LinearGradient276">
      <stop id="Stop277" stop-color="#8080ff" offset="0" />
      <stop id="Stop278" stop-color="#5e5bf7" offset="1" />
    </linearGradient>
  </defs>
  <g transform="matrix(1 0 0 1 -200 -150 )">
    <path d="M 40 20  C 40 31.1999999999999  31.2 40  20 40  C 8.79999999999999 40  0 31.1999999999999  0 20  C 0 8.80000000000005  8.79999999999999 0  20 0  C 31.2 0  40 8.80000000000005  40 20  Z M 26.4378285714286 30.8571428571429  C 27.5308298869298 30.8543901159946  28.416350386195 29.9303188500749  28 28.7892747252747  L 28 18.4490989010989  C 28.416350386195 17.3080547762988  27.5308298869298 16.3839835103789  26.4378285714286 16.3812307692308  L 25.4474285714286 16.3812307692308  L 25.4474285714286 14.3125274725275  C 25.4461043164363 11.4579702192376  23.2297939403694 9.14423960686002  20.4954285714286 9.14285714285714  C 17.7610632024877 9.14423960686002  15.5447528264208 11.4579702192376  15.5434285714286 14.3125274725275  L 15.5434285714286 16.3812307692308  L 14.5514285714286 16.3812307692308  C 13.4590520937486 16.3849005156227  12.5745025268272 17.3087044855695  13 18.4490989010989  L 13 28.7884395604395  C 12.5740654076863 29.9294848898089  13.4592284097779 30.8539293670639  14.5522285714286 30.8571428571429  L 26.4378285714286 30.8571428571429  Z M 18.5146285714286 23.6187692307692  C 18.5177047297994 22.4780500395536  19.4027396619484 21.5541124730245  20.4954285714286 21.5509010989011  C 21.5881174809087 21.5541124730245  22.4731524130578 22.4780500395536  22.4762285714286 23.6187692307692  C 22.4735917351708 24.7598145601386  21.5884287330793 25.6842590373935  20.4954285714286 25.6874725274725  C 19.4024284097779 25.6842590373935  18.5172654076863 24.7598145601386  18.5146285714286 23.6187692307692  Z M 17.4250285714286 14.3125274725275  C 17.4263520748937 12.5428271965524  18.8002419912841 11.1085465146065  20.4954285714286 11.1071648351648  C 22.1906151515731 11.1085465146065  23.5645050679634 12.5428271965524  23.5658285714286 14.3125274725275  L 23.5658285714286 16.3812307692308  L 17.4250285714286 16.3812307692308  L 17.4250285714286 14.3125274725275  Z " fill-rule="nonzero" fill="url(#LinearGradient276)" stroke="none" transform="matrix(1 0 0 1 200 150 )" />
  </g>
</svg>