<?xml version="1.0" encoding="utf-8"?>
<svg version="1.1" xmlns:xlink="http://www.w3.org/1999/xlink" width="40px" height="40px" xmlns="http://www.w3.org/2000/svg">
  <defs>
    <linearGradient gradientUnits="userSpaceOnUse" x1="20" y1="0" x2="20" y2="40" id="LinearGradient59">
      <stop id="Stop60" stop-color="#4dc27f" offset="0" />
      <stop id="Stop61" stop-color="#30e181" offset="1" />
    </linearGradient>
  </defs>
  <g transform="matrix(1 0 0 1 -265 -150 )">
    <path d="M 22.760073608979 19.8013706443342  C 22.3085663039931 19.8013706443342  21.85692638515 20.2205200797756  21.85692638515 20.7370083515649  C 21.85692638515 21.1562461962444  22.308433690136 21.5754398363048  22.760073608979 21.5754398363048  C 23.4378208172674 21.5754398363048  23.9216417871789 21.1562019916253  23.9216417871789 20.7370083515649  C 23.9215975825599 20.2207410586661  23.4378208172674 19.8013706443342  22.760073608979 19.8013706443342  Z M 19.7923878015972 15.4460977785452  C 20.502183447097 15.4460977785452  20.9536907520829 14.9945904735592  20.9536907520829 14.3168432652709  C 20.9536907520829 13.6072244382474  20.502183447097 13.1878097750918  19.7923878015972 13.1878097750918  C 19.114817411785 13.1878097750918  18.4695606868984 13.6072244382474  18.4695606868984 14.3168432652709  C 18.4695606868984 14.9947672920354  19.114817411785 15.4460977785452  19.7923878015972 15.4460977785452  Z M 20.1472192953162 0.0168281238074428  C 9.2116275664149 0.0168281238074428  0.34640947498383 8.88186944096697  0.34640947498383 19.8174169210447  C 0.34640947498383 30.7531412638032  9.21162761061942 39.6181825367581  20.1472192953162 39.6181825367581  C 31.0827668195985 39.6181825367581  39.9477638879343 30.7531412195985  39.9477638879343 19.8174169210447  C 39.947763932139 8.88182523634794  31.0829436380747 0.0168281238074428  20.1472192953162 0.0168281238074428  Z M 16.4048894894885 24.8341696511116  C 15.2112286694583 24.8341696511116  14.3401740874596 24.6405970496871  13.2109195741851 24.3176813793223  L 9.95258755674513 25.9632031412908  L 10.888446287071 23.1886920937621  C 8.597888823311 21.5760586567667  7.24283645292462 19.5434358965681  7.24283645292462 17.059129057112  C 7.24283645292462 12.6717635494928  11.3722672569825 9.31675576499032  16.4049336499029 9.31675576499032  C 20.8568380781351 9.31675576499032  24.8252309687891 11.9619679039931  25.5994329210447 15.7046513467732  C 25.2766940691561 15.6396703799698  24.9862688379883 15.6075777381395  24.728334134427 15.6075777381395  C 20.3407476037125 15.6075777381395  16.9536471773797 18.898179215886  16.9536471773797 22.8661742649687  C 16.9536471773797 23.5437446547809  17.0503229444421 24.156643510123  17.211581880941 24.8021212139003  C 16.9536030611698 24.8341696511116  16.6630010557307 24.8341696511116  16.4048894894885 24.8341696511116  Z M 29.8578090408806 27.9956048783941  L 30.5028447426721 30.3184760070797  L 28.0510725912368 28.9313309948629  C 27.1155674978631 29.1246825731923  26.2121550463199 29.4151519647745  25.2766941575653 29.4151519647745  C 20.9536907520829 29.4151519647745  17.5340998423484 26.4472009296784  17.5340998423484 22.7694984979063  C 17.5340998423484 19.0917518173106  20.9536907962874 16.1238450310382  25.2766941575653 16.1238450310382  C 29.3738555013166 16.1238450310382  33.0515579330887 19.0917960661343  33.0515579330887 22.7694984979063  C 33.0515579330887 24.8341696511116  31.664368716253 26.6728661729333  29.8578090408806 27.9956048783941  Z M 13.4046690382905 13.1878097750918  C 12.7270986484783 13.1878097750918  12.0175240260738 13.6072244382474  12.0175240260738 14.3168432652709  C 12.0175240260738 14.9945904735592  12.7271428530973 15.4463188016404  13.4046690382905 15.4463188016404  C 14.0499257631772 15.4463188016404  14.5659719887761 14.9945904735592  14.5659719887761 14.3168432652709  C 14.5659719887761 13.6072244382474  14.0499257189726 13.1878097750918  13.4046690382905 13.1878097750918  Z M 27.825186280682 19.8013706443342  C 27.3413653107706 19.8013706443342  26.9219506476149 20.2205200797756  26.9219506476149 20.7370083515649  C 26.9219506476149 21.1562461962444  27.3413653107706 21.5754398363048  27.825186280682 21.5754398363048  C 28.4703988009497 21.5754398363048  28.9543965893373 21.1562019916253  28.9543965893373 20.7370083515649  C 28.9543965893373 20.2207410586661  28.4703988009497 19.8013706443342  27.825186280682 19.8013706443342  Z " fill-rule="nonzero" fill="url(#LinearGradient59)" stroke="none" transform="matrix(1 0 0 1 265 150 )" />
  </g>
</svg>