<?xml version="1.0" encoding="utf-8"?>
<svg version="1.1" xmlns:xlink="http://www.w3.org/1999/xlink" width="40px" height="40px" xmlns="http://www.w3.org/2000/svg">
  <defs>
    <linearGradient gradientUnits="userSpaceOnUse" x1="20" y1="0" x2="20" y2="40" id="LinearGradient282">
      <stop id="Stop283" stop-color="#fecf54" offset="0" />
      <stop id="Stop284" stop-color="#f4b618" offset="1" />
    </linearGradient>
  </defs>
  <g transform="matrix(1 0 0 1 -70 -150 )">
    <path d="M 20.1652892561983 40  C 25.2429752066116 40  30.3206611570248 38.0533333333333  34.1818181818182 34.16  C 37.9371900826446 30.3733333333333  40 25.36  40 20.0266666666667  C 40 14.6666666666667  37.9371900826446 9.62666666666667  34.1818181818182 5.86666666666667  C 26.4595041322314 -1.92  13.8710743801653 -1.92  6.12231404958677 5.86666666666667  C 2.40107603056338 9.61133243481297  0.316229169685124 14.6988982334478  0.330578512396694 20  C 0.330578512396694 25.3333333333333  2.39338842975207 30.3733333333333  6.14876033057852 34.1333333333333  C 10.0099173553719 38.0266666666667  15.0876033057851 40  20.1652892561983 40  Z M 27.1735537190083 17.3333333333333  C 27.27054076241 17.172815128038  27.3607681592936 17.22335917907  27.4115702479339 17.3066666666667  C 27.4380165289256 17.3866666666667  27.4380165289256 17.4933333333333  27.3851239669422 17.5733333333333  L 16.7801652892562 32.8533333333333  C 16.7272727272727 32.9066666666667  16.6479338842975 32.96  16.5685950413223 32.96  L 16.3834710743801 32.96  C 16.304132231405 32.96  16.2247933884298 32.9333333333333  16.1719008264463 32.88  C 16.1190082644628 32.8266666666667  16.1190082644628 32.7466666666667  16.1190082644628 32.6666666666667  L 17.5206611570248 22.3333333333333  L 12.3107438016529 22.3333333333333  C 12.2049586776859 22.6133333333333  12.1256198347107 22.56  12.0727272727273 22.48  C 12.0462809917356 22.4  12.0462809917356 22.2933333333333  12.099173553719 22.2133333333333  L 22.201652892562 7.12  C 22.2545454545455 7.06666666666666  22.3338842975207 7.01333333333334  22.4132231404959 7.01333333333334  L 22.704132231405 7.01333333333334  C 22.7834710743802 7.01333333333334  22.8363636363637 7.04  22.8628099173554 7.09333333333332  C 22.9157024793389 7.14666666666667  22.9421487603306 7.22666666666667  22.9421487603306 7.30666666666667  L 21.8842975206612 17.3333333333333  L 27.1735537190083 17.3333333333333  Z " fill-rule="nonzero" fill="url(#LinearGradient282)" stroke="none" transform="matrix(1 0 0 1 70 150 )" />
  </g>
</svg>