<?xml version="1.0" encoding="utf-8"?>
<svg version="1.1" xmlns:xlink="http://www.w3.org/1999/xlink" width="28px" height="27px" xmlns="http://www.w3.org/2000/svg">
  <defs>
    <linearGradient gradientUnits="userSpaceOnUse" x1="28" y1="27" x2="-3.10862446895044E-15" y2="-2.39808173319034E-14" id="LinearGradient622">
      <stop id="Stop623" stop-color="#ff9900" offset="0" />
      <stop id="Stop624" stop-color="#ff7200" offset="1" />
    </linearGradient>
  </defs>
  <g transform="matrix(1 0 0 1 -130 -306 )">
    <path d="M 27.8210714285714 18.4379122340426  L 27.8210714285714 24.0878058510638  C 27.8210714285714 24.4407446808511  27.7503571428571 24.8651329787234  27.6103571428571 25.1473404255319  C 27.4696428571429 25.5002792553192  27.2592857142857 25.7828457446809  27.0478571428571 26.0650531914894  C 26.8371428571429 26.3476196808511  26.4860714285714 26.4890824468085  26.205 26.630545212766  C 25.8703715737496 26.7681754274651  25.5126141277347 26.840083134202  25.1510714285714 26.8423803191489  L 3.0925 26.8423803191489  C 2.74142857142857 26.8423803191489  2.31928571428571 26.771289893617  1.96785714285714 26.630545212766  C 1.61714285714286 26.4890824468085  1.33642857142857 26.2765292553191  1.055 26.0650531914894  C 0.773928571428571 25.7824867021277  0.563571428571429 25.5002792553191  0.422857142857143 25.1473404255319  C 0.285955130352126 24.810932060844  0.214427887672087 24.4512716496907  0.212142857142857 24.0878058510638  L 0.212142857142857 8.7624335106383  C 0.212142857142857 7.98510638297872  0.493214285714286 7.34960106382979  0.985357142857143 6.78482712765958  C 1.54714285714286 6.22005319148936  2.17964285714286 6.0075  2.95178571428571 6  L 25.0821428571429 6  C 25.8546428571429 6.0075  26.4867857142857 6.2900664893617  27.0485714285714 6.78482712765958  C 27.6110714285714 7.34960106382979  27.8217857142857 7.98546542553192  27.8217857142857 8.7624335106383  L 27.8217857142857 12.9291223404255  L 20.9360714285714 12.9291223404255  C 20.1635714285714 12.9291223404255  19.5314285714286 13.2116888297872  18.9696428571429 13.7057313829787  C 18.4071428571429 14.2712234042553  18.1964285714286 14.9070877659574  18.1964285714286 15.6833377659574  C 18.1964285714286 16.248829787234  18.3371428571429 16.6721409574468  18.5475 17.096170212766  C 18.6882142857143 17.4491090425532  18.9692857142857 17.7316755319149  19.32 18.0138829787234  C 19.6710714285714 18.2964494680851  20.2339285714286 18.4379122340426  20.9357142857143 18.4379122340426  L 27.8210714285714 18.4379122340426  Z M 21.9189285714286 1.20530585106383  L 23.6760714285714 5  L 9.90678571428571 5  C 11.0303571428571 4.02989361702128  12.0139285714286 3.46476063829787  12.9975 2.97107712765957  C 13.8407142857143 2.54704787234043  14.6839285714286 2.05228723404255  15.5264285714286 1.62933510638298  C 16.3696428571429 1.13457446808511  17.0021428571429 0.781635638297872  17.4935714285714 0.569800531914894  C 18.1964285714286 0.216861702127659  18.8282142857143 0.00502659574468138  19.39 0.00502659574468138  C 19.9525 0.00502659574468138  20.4439285714286 0.146489361702128  20.7953571428571 0.287593085106384  C 21.2171428571429 0.499428191489363  21.6382142857143 0.781635638297873  21.9189285714286 1.20530585106383  Z M 20.0228571428571 16.6721409574468  C 19.6714285714286 16.460664893617  19.6017857142857 16.1073670212766  19.6017857142857 15.6833377659574  C 19.6017857142857 15.3303989361702  19.7421428571429 14.9767420212766  20.0228571428571 14.6945345744681  C 20.3035714285714 14.4123271276596  20.5853571428571 14.2712234042553  21.0064285714286 14.2712234042553  C 21.3575 14.2712234042553  21.7092857142857 14.4123271276596  21.99 14.6945345744681  C 22.2707142857143 14.9767420212766  22.4117857142857 15.2600265957447  22.4117857142857 15.6833377659574  C 22.4082948885085 16.0563635006668  22.2563986151089 16.4124578747193  21.99 16.6721409574468  C 21.7089285714286 16.9547074468085  21.4282142857143 17.096170212766  21.0064285714286 17.096170212766  C 20.6353765178552 17.0926608187665  20.2811662410199 16.9399565864659  20.0228571428571 16.6721409574468  Z " fill-rule="nonzero" fill="url(#LinearGradient622)" stroke="none" transform="matrix(1 0 0 1 130 306 )" />
  </g>
</svg>