<?xml version="1.0" encoding="utf-8"?>
<svg version="1.1" xmlns:xlink="http://www.w3.org/1999/xlink" width="28px" height="28px" xmlns="http://www.w3.org/2000/svg">
  <defs>
    <linearGradient gradientUnits="userSpaceOnUse" x1="0" y1="13" x2="26" y2="12.9999999999999" id="LinearGradient625">
      <stop id="Stop626" stop-color="#34c9f6" offset="0" />
      <stop id="Stop627" stop-color="#05a1f6" offset="1" />
    </linearGradient>
  </defs>
  <g transform="matrix(1 0 0 1 -216 -305 )">
    <path d="M 28 14  C 28 6.33716814159292  21.73125 0.123893805309735  14 0.123893805309735  C 6.26875 0.123893805309735  0 6.33716814159292  0 14  C 0 21.6628318584071  6.26875 27.8761061946903  14 27.8761061946903  C 21.73125 27.8761061946903  28 21.6628318584071  28 14  Z M 19.84375 14.6659292035398  L 19.840625 14.6659292035398  C 19.840625 15.303982300885  19.3125 15.8274336283186  18.66875 15.8274336283186  L 13.20625 15.8274336283186  C 12.634375 15.8274336283186  12.15625 15.4185840707965  12.05625 14.8796460176991  C 12.021875 14.7681415929204  12.003125 14.6535398230088  12.003125 14.5327433628319  L 12.003125 7.17035398230088  C 12.003125 6.53230088495575  12.53125 6.00884955752212  13.175 6.00884955752212  L 13.35 6.00884955752212  C 13.99375 6.00884955752212  14.521875 6.53230088495575  14.521875 7.17035398230088  L 14.521875 13.3309734513274  L 18.671875 13.3309734513274  C 19.315625 13.3309734513274  19.84375 13.8544247787611  19.84375 14.4924778761062  L 19.84375 14.6659292035398  Z " fill-rule="nonzero" fill="url(#LinearGradient625)" stroke="none" transform="matrix(1 0 0 1 216 305 )" />
  </g>
</svg>