<?xml version="1.0" encoding="utf-8"?>
<svg version="1.1" xmlns:xlink="http://www.w3.org/1999/xlink" width="25px" height="28px" xmlns="http://www.w3.org/2000/svg">
  <defs>
    <linearGradient gradientUnits="userSpaceOnUse" x1="25" y1="28" x2="-2.77555756156289E-15" y2="-2.48689957516035E-14" id="LinearGradient294">
      <stop id="Stop295" stop-color="#518bfd" offset="0" />
      <stop id="Stop296" stop-color="#3478f6" offset="1" />
    </linearGradient>
  </defs>
  <g transform="matrix(1 0 0 1 -45 -305 )">
    <path d="M 15.6315789473684 11.333  L 24.8157894736842 11.333  L 24.8157894736842 25.249  C 24.8157894736842 26.75575  23.6438596491228 27.97025  22.1877192982456 28  L 2.79649122807018 28  C 1.34561403508772 27.97025  0.168421052631579 26.754  0.168421052631579 25.2525  L 0.168421052631579 2.7405  C 0.168421052631579 1.2425  1.34912280701754 0.0227500000000002  2.78771929824561 0  L 13.9175438596491 0  L 13.9175438596491 9.55325  C 13.9175438596491 10.535  14.6894736842105 11.333  15.6315789473684 11.333  Z M 15.6315789473684 9.55675  L 24.3368421052632 9.55675  L 15.6298245614035 0.51975  L 15.6298245614035 9.55325  C 15.6298245614035 9.5515  15.6333333333333 9.55675  15.6315789473684 9.55675  Z M 3.64912280701754 10.444  C 3.64912280701754 10.934  4.03157894736842 11.333  4.50350877192983 11.333  L 10.2087719298246 11.333  C 10.6824561403509 11.333  11.0649122807018 10.934  11.0649122807018 10.444  C 11.0649122807018 9.954  10.6824561403509 9.55675  10.2087719298246 9.55675  L 4.50350877192983 9.55675  C 4.03157894736842 9.55675  3.64912280701754 9.954  3.64912280701754 10.444  Z M 3.64912280701754 16.366  C 3.64912280701754 16.856  4.03157894736842 17.25325  4.50350877192983 17  L 20.4789473684211 17  C 20.9508771929825 17.25325  21.3350877192982 16.856  21.3350877192982 16.366  C 21.3350877192982 15.87425  20.9508771929825 15.477  20.4789473684211 15  L 4.50350877192983 15  C 4.03157894736842 15.477  3.64912280701754 15.87425  3.64912280701754 16.366  Z " fill-rule="nonzero" fill="url(#LinearGradient294)" stroke="none" transform="matrix(1 0 0 1 45 305 )" />
  </g>
</svg>