<?xml version="1.0" encoding="utf-8"?>
<svg version="1.1" xmlns:xlink="http://www.w3.org/1999/xlink" width="24px" height="24px" xmlns="http://www.w3.org/2000/svg">
  <g transform="matrix(1 0 0 1 -305 -525 )">
    <path d="M 3.70370369444445 0.148148138888889  L 20.2962963055556 0.148148138888889  C 22.1790312474011 0.148043270453372  23.7354721410639 1.61561893616097  23.8459259166667 3.49511111111111  L 23.8518518611111 3.70370369444445  L 23.8518518611111 15.5555555555556  C 23.851956744256 17.4382905081205  22.3843810745408 18.9947314182136  20.5048888888889 19.1051851944444  L 20.2962963055556 19.1111111111111  L 14.1665185277778 19.1111111111111  C 13.9060167032941 19.1110896819272  13.6527643675796 19.196895566529  13.4459259166667 19.35525925  L 13.3285925833333 19.4583703611111  L 9.28237036111111 23.5045925833333  C 9.06022179775019 23.7259882542538  8.75937521505686 23.8503039502754  8.44574162740138 23.8503039502754  C 7.79118191878447 23.8503039502754  7.26055643295693 23.3196784644478  7.26055643295693 22.6651187558309  C 7.26055643295693 22.4027164678751  7.34763824602314 22.1477331456131  7.50814813888889 21.9401481388889  L 7.60651852777778 21.82874075  L 11.65274075 17.7825185277778  C 12.2621066890883 17.1732247597046  13.0720118979613 16.8059666448881  13.9318518611111 16.7490370277778  L 14.1665185277778 16.74074075  L 20.2962963055556 16.74074075  C 20.897155364415 16.7406614825135  21.402884689724 16.2909545356868  21.4731851944444 15.6942222222222  L 21.4814814722222 15.5555555555556  L 21.4814814722222 3.70370369444445  C 21.481402206396 3.10284464500764  21.0316952746696 2.59711532325639  20.4349629722222 2.52681480555556  L 20.2962963055556 2.51851852777778  L 3.70370369444445 2.51851852777778  C 3.10284464500764 2.51859779360397  2.59711532325639 2.96830472533039  2.52681480555556 3.56503702777778  L 2.51851852777778 3.70370369444445  L 2.51851852777778 15.5555555555556  C 2.51859779360397 16.1564146049924  2.96830472533039 16.6621439267436  3.56503702777778 16.7324444444444  L 3.70370369444445 16.74074075  L 6.07407408333333 16.74074075  C 6.7281199508712 16.741466375398  7.25794438536455 17.2718789449897  7.25794438536455 17.9259252150468  C 7.25794438536455 18.526338802551  6.80895179317363 19.0319002932367  6.21274075 19.1028148055556  L 6.07407408333333 19.1111111111111  L 3.70370369444445 19.1111111111111  C 1.82096875259885 19.1112159795466  0.264527858936072 17.643640313839  0.154074083333334 15.7641481388889  L 0.148148138888889 15.5555555555556  L 0.148148138888889 3.70370369444445  C 0.148043270453371 1.82096875259885  1.61561893616097 0.264527858936072  3.49511111111111 0.154074083333334  L 3.70370369444445 0.148148138888889  Z M 6.66666666666667 8.44444444444444  L 7.85185186111111 8.44444444444444  C 8.50659301340999 8.44444443055555  9.03721849923753 8.97506991638309  9.03721849923753 9.629629625  C 9.03721849923753 10.2841893336169  8.50659301340999 10.8148148194444  7.85203330479308 10.8148148194444  L 6.66666666666667 10.8148148055556  C 6.01217782276194 10.8147146078248  5.48166291590419 10.2841184765745  5.48166291590419 9.629629625  C 5.48166291590419 8.97514077342548  6.01217782276194 8.44454464217523  6.66666666666667 8.44444444444444  Z M 11.4074074166667 8.44444444444444  L 12.5925925833333 8.44444444444444  C 13.2470814272381 8.44454464217523  13.7775963340958 8.97514077342548  13.7775963340958 9.629629625  C 13.7775963340958 10.2841184765745  13.2470814272381 10.8147146078248  12.5925925833333 10.8148148055556  L 11.4074074166667 10.8148148055556  C 10.7529185727619 10.8147146078248  10.2224036659042 10.2841184765745  10.2224036659042 9.629629625  C 10.2224036659042 8.97514077342548  10.7529185727619 8.44454464217523  11.4074074166667 8.44444444444444  Z M 16.1481481388889 8.44444444444444  L 17.3333333333333 8.44444444444444  C 17.9878221772381 8.44454464217523  18.5183370840958 8.97514077342548  18.5183370840958 9.629629625  C 18.5183370840958 10.2841184765745  17.9878221772381 10.8147146078248  17.3333333333333 10.8148148055556  L 16.1481481388889 10.8148148055556  C 15.4936592949842 10.8147146078248  14.9631443881264 10.2841184765745  14.9631443881264 9.629629625  C 14.9631443881264 8.97514077342548  15.4936592949842 8.44454464217523  16.1481481388889 8.44444444444444  Z " fill-rule="nonzero" fill="#333333" stroke="none" transform="matrix(1 0 0 1 305 525 )" />
  </g>
</svg>