<?xml version="1.0" encoding="utf-8"?>
<svg version="1.1" xmlns:xlink="http://www.w3.org/1999/xlink" width="24px" height="24px" xmlns="http://www.w3.org/2000/svg">
  <g transform="matrix(1 0 0 1 -46 -525 )">
    <path d="M 23.9833104840566 12  C 23.9833104840566 18.6138937167494  18.6216902675031 23.9755139333029  12.0077965507538 23.9755139333029  C 5.39390283400441 23.9755139333029  0.0322826174508917 18.6138937167494  0.0322826174508917 12  C 0.0322826174508917 5.38610628325064  5.39390283400441 0.0244860666971218  12.0077965507538 0.0244860666971218  C 18.6216902675031 0.0244860666971218  23.9833104840566 5.38610628325064  23.9833104840566 12  Z M 21.4169578481498 12  C 21.4169578481498 6.80346370675003  17.2043328440037 2.59083870260393  12.0077965507538 2.59083870260393  C 6.8112602575038 2.59083870260393  2.5986352533577 6.80346370675002  2.5986352533577 12  C 2.5986352533577 17.19653629325  6.8112602575038 21.4091612973961  12.0077965507538 21.4091612973961  C 17.2043328440037 21.4091612973961  21.4169578481498 17.19653629325  21.4169578481498 12  Z M 16.241939109365 13.8146895524897  L 13.8224861032435 16.2341425352216  C 12.820307773478 17.2361050820279  11.1956845196239 17.2361050820279  10.1935061898584 16.2341425352216  L 7.77405320712654 13.8146895524897  C 6.77209066032016 12.8125112227242  6.77209066032016 11.1878879688701  7.77405320712654 10.1857096391046  L 10.1935061898584 7.7662566329831  C 11.1956845196239 6.76429408617672  12.820307773478 6.76429408617672  13.8224861032435 7.7662566329831  L 16.241939109365 10.1857096391046  C 17.2439016561714 11.1878879688701  17.2439016561714 12.8125112227242  16.241939109365 13.8146895524897  Z M 14.6778732548286 12.0001995957972  C 14.6778732548286 11.7732866245328  14.5877192755094 11.5556702271509  14.4272495568753 11.3952365463682  L 12.6125600043856 9.58054699387848  C 12.4521263245526 9.42007728239999  12.2345099321839 9.3299233076226  12.0075969666514 9.3299233076226  C 11.780684001119 9.3299233076226  11.5630676087503 9.42007728239999  11.4026339289173 9.58054699387848  L 9.5879443764276 11.3952365463682  C 9.42747465779351 11.5556702271509  9.33732067847424 11.7732866245328  9.33732067847424 12.0001995957972  C 9.33732067847424 12.2271125670615  9.42747465779351 12.4447289644434  9.58794437642759 12.6051626452261  L 11.4026339289173 14.4198521743262  C 11.5630676087503 14.5803218858047  11.780684001119 14.6704758605821  12.0075969666514 14.6704758605821  C 12.2345099321839 14.6704758605821  12.4521263245526 14.5803218858047  12.6125600043856 14.4198521743262  L 14.4272495568753 12.6051626452261  C 14.5877192755094 12.4447289644434  14.6778732548286 12.2271125670615  14.6778732548286 12.0001995957972  Z " fill-rule="nonzero" fill="#333333" stroke="none" transform="matrix(1 0 0 1 46 525 )" />
  </g>
</svg>