<?xml version="1.0" encoding="utf-8"?>
<svg version="1.1" xmlns:xlink="http://www.w3.org/1999/xlink" width="26px" height="20px" xmlns="http://www.w3.org/2000/svg">
  <g transform="matrix(1 0 0 1 -303 -447 )">
    <path d="M 26 3.80952380952381  C 26 1.71428571428571  24.3285714285714 0  22.2857142857143 0  L 12.4892857142857 0  C 12.0714285714286 0  11.6535714285714 0.142857142857148  11.2821428571429 0.428571428571431  L 10.4 1.19047619047619  C 9.61071428571428 1.85714285714286  8.44999999999999 1.85714285714286  7.6142857142857 1.19047619047619  L 6.73214285714286 0.428571428571431  C 6.45357142857142 0.142857142857148  6.03571428571429 0  5.61785714285715 0  L 3.71428571428571 0  C 1.67142857142858 0  0 1.71428571428571  0 3.80952380952381  L 0 16.1904761904762  C 0 18.2857142857143  1.67142857142858 20  3.71428571428571 20  L 5.24642857142858 20  C 5.85000000000001 20  6.40714285714286 19.7142857142857  6.73214285714286 19.2380952380952  C 8.26428571428572 17.0952380952381  9.75 17.0952380952381  11.2821428571429 19.2380952380952  C 11.6535714285714 19.7142857142857  12.2107142857143 20  12.7678571428571 20  L 22.2857142857143 20  C 24.3285714285714 20  26 18.2857142857143  26 16.1904761904762  L 26 3.80952380952381  Z M 24 3.80952380952381  L 24 16.1904761904762  C 24.1428571428571 17.2380952380952  23.3071428571429 18.0952380952381  22.2857142857143 18.0952380952381  L 12.8142857142857 18.0952380952381  C 11.7 16.5238095238095  10.4 15.7142857142857  9.05357142857143 15.7142857142857  C 7.70714285714287 15.7142857142857  6.40714285714286 16.5238095238095  5.29285714285713 18.0952380952381  L 3.71428571428571 18.0952380952381  C 2.69285714285715 18.0952380952381  1.85714285714286 17.2380952380952  2 16.1904761904762  L 2 3.80952380952381  C 1.85714285714286 2.76190476190477  2.69285714285715 1.9047619047619  3.71428571428571 1.9047619047619  L 5.61785714285715 1.9047619047619  L 6.5 2.66666666666666  C 7.98571428571428 3.95238095238096  10.1678571428571 3.95238095238096  11.6535714285714 2.66666666666666  L 12.5357142857143 1.9047619047619  L 22.2857142857143 1.9047619047619  C 23.3071428571429 1.9047619047619  24.1428571428571 2.76190476190477  24 3.80952380952381  Z M 10.2142857142857 6.66666666666667  C 10.2142857142857 6.14285714285715  9.79642857142858 5.71428571428571  9.28571428571429 5.71428571428571  C 8.77499999999999 5.71428571428571  8.35714285714286 6.14285714285715  8.35714285714286 6.66666666666667  L 8.35714285714286 8.57142857142857  C 8.35714285714286 9.09523809523809  8.77499999999999 9.52380952380952  9.28571428571429 9.52380952380952  C 9.79642857142858 9.52380952380952  10.2142857142857 9.09523809523809  10.2142857142857 8.57142857142857  L 10.2142857142857 6.66666666666667  Z M 20.4285714285714 7.61904761904762  C 20.4285714285714 7.0952380952381  20.0107142857143 6.66666666666667  19.5 6.66666666666667  L 13.9285714285714 6.66666666666667  C 13.4178571428571 6.66666666666667  13 7.0952380952381  13 7.61904761904762  C 13 8.14285714285714  13.4178571428571 8.57142857142857  13.9285714285714 8.57142857142857  L 19.5 8.57142857142857  C 20.0107142857143 8.57142857142857  20.4285714285714 8.14285714285714  20.4285714285714 7.61904761904762  Z M 20.4285714285714 12.3809523809524  C 20.4285714285714 11.8571428571429  20.0107142857143 11.4285714285714  19.5 11.4285714285714  L 13.9285714285714 11.4285714285714  C 13.4178571428571 11.4285714285714  13 11.8571428571429  13 12.3809523809524  C 13 12.9047619047619  13.4178571428571 13.3333333333333  13.9285714285714 13.3333333333333  L 19.5 13.3333333333333  C 20.0107142857143 13.3333333333333  20.4285714285714 12.9047619047619  20.4285714285714 12.3809523809524  Z M 10.2142857142857 11.4285714285714  C 10.2142857142857 10.9047619047619  9.79642857142858 10.4761904761905  9.28571428571429 10.4761904761905  C 8.77499999999999 10.4761904761905  8.35714285714286 10.9047619047619  8.35714285714286 11.4285714285714  L 8.35714285714286 13.3333333333333  C 8.35714285714286 13.8571428571429  8.77499999999999 14.2857142857143  9.28571428571429 14.2857142857143  C 9.79642857142858 14.2857142857143  10.2142857142857 13.8571428571429  10.2142857142857 13.3333333333333  L 10.2142857142857 11.4285714285714  Z " fill-rule="nonzero" fill="#333333" stroke="none" transform="matrix(1 0 0 1 303 447 )" />
  </g>
</svg>