<?xml version="1.0" encoding="utf-8"?>
<svg version="1.1" xmlns:xlink="http://www.w3.org/1999/xlink" width="27px" height="18px" xmlns="http://www.w3.org/2000/svg">
  <g transform="matrix(1 0 0 1 -217 -448 )">
    <path d="M 17.6142857042411 17.8540540540541  L 17.6142857042411 15.7783783682432  L 24.8142857243304 15.7783783682432  L 24.8142857243304 17.8540540540541  L 17.6142857042411 17.8540540540541  Z M 17.5494857042411 4.60294054054054  L 22.0978285613839 2.11212972972973  C 23.620114265625 1.27874593581081  25.5671999799107 1.77275675675675  26.4466285814732 3.21742702702702  L 26.4589714386161 3.23818379391892  C 27.3219428772321 4.68077837837838  26.7881143058036 6.51360001013513  25.2658285714286 7.33245406418919  L 8.36742858147321 16.4239135236486  C 7.35325714285714 16.9687783885135  6.10457144866071 16.9449081081081  5.11508572433036 16.3606053952703  L 1.1016 13.9922594695946  C 0.817399567411988 13.8258187764111  0.578232894688637 13.5912701266719  0.4052571328125 13.309362152027  C -0.164571448660714 12.3732324121622  0.173828561383929 11.177643222973  1.16022857142857 10.6369297297297  L 2.19908572433036 10.0681945844595  C 2.72421953291447 9.78348268548623  3.34010045372735 9.72148913071463  3.91062856138393 9.89591351351351  L 6.46148571428572 10.6742918918919  L 10.2126857243304 8.61937297297297  L 4.50411429575893 4.23554594594594  C 4.35366031689024 4.12055241154679  4.22566436687688 3.97838287088397  4.12662856138393 3.81625944932432  C 3.68742857142857 3.09496214189189  3.94868569419643 2.17128648648648  4.70982856138393 1.75407567567567  L 7.03542857142857 0.48064864864865  C 7.66874238956729 0.137163292123835  8.42689090508535 0.120952845857779  9.07405715290179 0.437059459459459  L 17.5494857042411 4.60294054054054  Z M 2.18571427566964 12.2953946047297  L 6.14571429575893 14.5900540641892  C 6.47794287723214 14.783091902027  6.89760002008929 14.7913946148649  7.23908571428571 14.6108108006757  L 24.2794285613839 5.61068109121622  C 24.7854857042411 5.34291892905406  24.9634285714286 4.74408650675676  24.6754285814732 4.27290810810811  L 24.6723428671875 4.26668108108109  C 24.3761142957589 3.78927568581082  23.7219428671875 3.626335125  23.2097142957589 3.9013621722973  L 18.1162285714286 6.6412540641892  L 17.0886857142857 6.66201080067568  L 8.02285714285714 2.28648648648649  L 6.35142856138393 3.18525406418919  L 12.7131428571429 7.98317838851351  L 12.5742857142857 9.61984863851351  L 7.03234285714286 12.6005189290541  L 6.16834285714286 12.6856216216216  L 3.14434285714286 11.7795891891892  L 2.18571427566964 12.2953946047297  Z " fill-rule="nonzero" fill="#333333" stroke="none" transform="matrix(1 0 0 1 217 448 )" />
  </g>
</svg>