<?xml version="1.0" encoding="utf-8"?>
<svg version="1.1" xmlns:xlink="http://www.w3.org/1999/xlink" width="15px" height="15px" xmlns="http://www.w3.org/2000/svg">
  <g transform="matrix(1 0 0 1 -28 -755 )">
    <path d="M 12.0901442307692 6.77857142857144  C 11.9441105769231 6.92321428571428  11.7530048076923 6.99642857142857  11.5600961538462 6.99642857142857  C 11.3689903846154 6.99642857142857  11.1760817307692 6.92321428571428  11.0300480769231 6.77857142857144  C 10.7379807692308 6.48928571428571  10.7379807692308 6.01785714285714  11.0300480769231 5.72857142857143  L 12.8040865384615 3.97142857142856  L 10.4332932692308 1.62142857142857  L 8.65925480769231 3.37857142857143  C 8.3671875 3.66785714285714  7.89122596153846 3.66785714285714  7.59915865384615 3.37857142857143  C 7.30709134615385 3.08928571428571  7.30709134615385 2.61785714285715  7.59915865384615 2.32857142857142  L 9.49579326923077 0.448214285714292  C 9.7265625 0.21964285714286  10.0258413461539 0.0767857142857175  10.3377403846154 0.0464285714285779  C 10.6965144230769 0.0107142857142922  11.0498798076923 0.130357142857146  11.296875 0.376785714285721  L 14.0625 3.11428571428571  C 14.3094951923077 3.35892857142858  14.4320913461538 3.70535714285714  14.3960336538462 4.06428571428572  C 14.3653846153846 4.37321428571428  14.2211538461538 4.66964285714286  13.9903846153846 4.89821428571429  L 12.0901442307692 6.77857142857144  Z M 12.1225961538462 6.74642857142857  C 11.9765625 6.89285714285714  11.7836538461538 6.96428571428571  11.5925480769231 6.96428571428571  C 11.4014423076923 6.96428571428571  11.2085336538462 6.89107142857142  11.0625 6.74642857142857  L 7.62980769230769 3.34642857142856  C 7.33774038461538 3.05714285714285  7.33774038461538 2.58571428571429  7.62980769230769 2.29642857142858  C 7.921875 2.00714285714285  8.39783653846154 2.00714285714285  8.68990384615385 2.29642857142858  L 12.1225961538462 5.69642857142857  C 12.4146634615385 5.98571428571428  12.4146634615385 6.45714285714286  12.1225961538462 6.74642857142857  Z M 2.77824519230769 12.6928571428571  C 2.71153846153846 12.7035714285714  2.6484375 12.7089285714286  2.58713942307692 12.7089285714286  C 2.32752403846154 12.7089285714286  2.07872596153846 12.6089285714286  1.89483173076923 12.4285714285714  C 1.66586538461539 12.2035714285714  1.56670673076923 11.8767857142857  1.62800480769231 11.5571428571429  L 2.29146634615384 8.07321428571429  C 2.36538461538461 7.68392857142858  2.56550480769231 7.3125  2.85757211538462 7.02499999999999  L 7.59915865384615 2.32857142857142  C 7.89122596153846 2.03928571428571  8.3671875 2.03928571428571  8.65925480769231 2.32857142857142  C 8.95132211538462 2.61785714285715  8.95132211538462 3.08928571428571  8.65925480769231 3.37857142857143  L 3.91766826923077 8.075  C 3.83834134615385 8.15357142857144  3.78425480769231 8.25  3.76622596153846 8.34821428571429  L 3.24338942307692 11.0928571428571  L 6.01442307692308 10.575  C 6.11358173076923 10.5571428571429  6.2109375 10.5035714285714  6.29026442307692 10.425  L 11.0336538461538 5.72857142857143  C 11.3257211538462 5.43928571428572  11.8016826923077 5.43928571428572  12.09375 5.72857142857143  C 12.3858173076923 6.01785714285714  12.3858173076923 6.48928571428571  12.09375 6.77857142857144  L 7.35216346153846 11.475  C 7.06189903846154 11.7625  6.68509615384616 11.9625  6.29387019230769 12.0357142857143  L 2.77824519230769 12.6928571428571  Z M 14.9152644230769 14.1535714285714  C 14.9134615384615 14.5642857142857  14.578125 14.8964285714286  14.1634615384615 14.8964285714286  L 0.847355769230769 14.8964285714286  C 0.432692307692308 14.8964285714286  0.0973557692307709 14.5642857142857  0.0973557692307709 14.1535714285714  C 0.0973557692307709 13.7428571428572  0.432692307692308 13.4107142857143  0.847355769230769 13.4107142857143  L 14.1652644230769 13.4107142857143  C 14.5799278846154 13.4107142857143  14.9152644230769 13.7428571428572  14.9152644230769 14.1535714285714  Z " fill-rule="nonzero" fill="#999999" stroke="none" transform="matrix(1 0 0 1 28 755 )" />
  </g>
</svg>