<?xml version="1.0" encoding="utf-8"?>
<svg version="1.1" xmlns:xlink="http://www.w3.org/1999/xlink" width="25px" height="25px" xmlns="http://www.w3.org/2000/svg">
  <g transform="matrix(1 0 0 1 -318 -718 )">
    <path d="M 0.0139508928571429 12.4198008849558  C 0.0139508928571429 5.59734513274337  5.61383928571428 0.0470132743362782  12.4972098214286 0.0470132743362782  C 19.3805803571429 0.0470132743362782  24.98046875 5.59734513274337  24.98046875 12.4198008849558  C 24.98046875 19.2422566371681  19.3805803571429 24.7925884955752  12.4972098214286 24.7925884955752  C 5.61383928571428 24.7925884955752  0.0139508928571429 19.2422566371681  0.0139508928571429 12.4198008849558  Z M 1.09933035714286 12.4198008849558  C 1.09933035714286 18.6504424778761  6.21372767857142 23.716814159292  12.4972098214286 23.716814159292  C 18.7806919642857 23.716814159292  23.8950892857143 18.6504424778761  23.8950892857143 12.4198008849558  C 23.8950892857143 6.1891592920354  18.7834821428571 1.12278761061947  12.4972098214286 1.12278761061947  C 6.21093750000001 1.12278761061947  1.09933035714286 6.1891592920354  1.09933035714286 12.4198008849558  Z M 18.3091517857143 6.65652654867256  C 18.4514508928571 6.79756637168142  18.5044642857143 7.00221238938053  18.4458705357143 7.19303097345133  L 14.6456473214286 19.5160398230088  C 14.5758928571428 19.7428097345133  14.3638392857143 19.8451327433628  14.1266741071429 19.8451327433628  C 13.8839285714286 19.8451327433628  13.6662946428571 19.7317477876106  13.6021205357143 19.5022123893805  L 11.8219866071429 13.0613938053097  L 5.29854910714285 11.3108407079646  C 5.06417410714286 11.2472345132743  4.90234374999999 11.0453539823009  4.89955357142858 10.8047566371681  C 4.89676339285714 10.5641592920354  5.05301339285715 10.3567477876106  5.2845982142857 10.2848451327434  L 17.7678571428571 6.52101769911505  C 17.9603794642857 6.4629424778761  18.1668526785714 6.51548672566372  18.3091517857143 6.65652654867256  Z M 12.7901785714286 12.508296460177  L 14.1573660714286 17.4723451327434  L 17.1121651785714 7.84845132743363  L 7.39955357142857 10.7771017699115  L 12.4079241071429 12.1321902654867  C 12.5920758928571 12.1819690265487  12.7399553571429 12.3257743362832  12.7901785714286 12.508296460177  Z " fill-rule="nonzero" fill="#6799f9" stroke="none" transform="matrix(1 0 0 1 318 718 )" />
  </g>
</svg>