<?xml version="1.0" encoding="utf-8"?>
<svg version="1.1" xmlns:xlink="http://www.w3.org/1999/xlink" width="11px" height="13px" xmlns="http://www.w3.org/2000/svg">
  <g transform="matrix(1 0 0 1 -10 -421 )">
    <path d="M 2.475 8.24318181818182  L 5.5 11.1681818181818  L 8.525 8.24318181818182  C 9.32714454515883 7.46747529838109  9.77777777777778 6.41543898721281  9.77777777777778 5.3184802723431  C 9.77777777777778 3.03402971622481  7.86255142983173 1.18211663597946  5.5 1.18211663597946  C 3.13744857016827 1.18211663597946  1.22222222222222 3.03402971622481  1.22222222222222 5.3184802723431  C 1.22222222222222 6.41543898721281  1.67285545484117 7.46747529838109  2.475 8.24318181818182  Z M 9.38911111111111 9.07872727272727  L 5.5 12.8392727272727  L 1.61088888888889 9.07872727272727  C 0.579453375734951 8.08137658693762  0 6.72868610240725  0 5.318227872975  C 0 2.38107715796578  2.46243387593064 4.60547931799837E-05  5.5 4.60547931799837E-05  C 8.53756612406936 4.60547931799837E-05  11 2.38107715796578  11 5.318227872975  C 11 6.72868610240725  10.420546624265 8.08137658693762  9.38911111111111 9.07872727272727  Z M 5.5 6.5  C 6.17501469423764 6.5  6.72222222222222 5.97088197707276  6.72222222222222 5.31818181818182  C 6.72222222222222 4.66548165929088  6.17501469423764 4.13636363636364  5.5 4.13636363636364  C 4.82498530576236 4.13636363636364  4.27777777777778 4.66548165929088  4.27777777777778 5.31818181818182  C 4.27777777777778 5.97088197707276  4.82498530576236 6.5  5.5 6.5  Z M 5.5 7.68181818181818  C 4.14997061152473 7.68181818181818  3.05555555555556 6.62358213596369  3.05555555555556 5.31818181818182  C 3.05555555555556 4.01278150039994  4.14997061152473 2.95454545454545  5.5 2.95454545454545  C 6.85002938847527 2.95454545454545  7.94444444444444 4.01278150039994  7.94444444444444 5.31818181818182  C 7.94444444444444 6.62358213596369  6.85002938847527 7.68181818181818  5.5 7.68181818181818  Z " fill-rule="nonzero" fill="#3478f6" stroke="none" transform="matrix(1 0 0 1 10 421 )" />
  </g>
</svg>