<?xml version="1.0" encoding="utf-8"?>
<svg version="1.1" xmlns:xlink="http://www.w3.org/1999/xlink" width="15px" height="15px" xmlns="http://www.w3.org/2000/svg">
  <g>
    <path d="M 14.7317403065825 13.5151036970244  C 14.8724075743913 13.6521641118125  14.9409377817854 13.8180793507665  14.9409377817854 14.0128494138864  C 14.9409377817854 14.2076194770063  14.8724075743913 14.3807484220018  14.7317403065825 14.5250225428314  C 14.5946798917944 14.6692966636609  14.4215509467989 14.7414337240758  14.212353471596 14.7414337240758  C 14.0031559963931 14.7414337240758  13.8300270513977 14.6656898106402  13.6929666366095 14.5178088367899  C 13.6929666366095 14.5178088367899  11.0455365193868 11.8703787195672  11.0455365193868 11.8703787195672  C 10.1690712353471 12.5737150586114  9.16997294860226 13.0173579801623  8.05184851217308 13.2049143372408  C 6.97700631199274 13.3888638412985  5.83363390441838 13.3022993688007  4.79486023444542 12.9452209197476  C 3.73444544634805 12.5881424706943  2.82551848512173 11.9857980162309  2.06807935076648 11.1454012623986  C 1.31064021641117 10.3013976555455  0.80568079350769 9.32754733994591  0.553201082055921 8.22024346257888  C 0.322362488728572 7.1598286744815  0.351217312894505 6.01284941388639  0.639765554553662 4.96325518485122  C 0.949954914337241 3.87759242560867  1.50901713255183 2.93620378719567  2.30973850315598 2.13187556357082  C 3.11045987376014 1.33115419296661  4.05545536519389 0.772091974752016  5.14111812443645 0.461902614968437  C 6.19071235347161 0.173354373309337  7.33769161406673 0.144499549143404  8.3981064021641 0.375338142470696  C 9.50541027953113 0.627817853922465  10.4792605951307 1.132777276826  11.3232642019838 1.89021641118126  C 12.1636609558161 2.64765554553657  12.7660054102795 3.55658250676288  13.1230838593327 4.61699729486025  C 13.480162308386 5.65577096483321  13.5667267808837 6.80275022542827  13.382777276826 7.87398557258791  C 13.1988277727683 8.99211000901715  12.7551848512173 9.99120829576196  12.0482416591524 10.8676735798016  C 12.0482416591524 10.8676735798016  14.7317403065825 13.5151036970244  14.7317403065825 13.5151036970244  Z M 6.99504057709652 11.8667718665465  C 7.90757439134359 11.8667718665465  8.75518485121734 11.6359332732192  9.53787195671777 11.1742560865645  C 10.2989179440938 10.7233994589721  10.904869251578 10.1174481514878  11.3557258791704 9.35640216411184  C 11.8174030658251 8.57010820559066  12.0482416591524 7.72249774571691  12.0482416591524 6.81357078449059  C 12.0482416591524 5.90464382326428  11.8174030658251 4.96325518485128  11.3557258791704 4.18056807935085  C 10.904869251578 3.41952209197484  10.2989179440938 2.81357078449059  9.53787195671777 2.36271415689816  C 8.75518485121734 1.90103697024358  7.90396753832283 1.67019837691623  6.99504057709652 1.67019837691623  C 6.08250676284945 1.67019837691623  5.1447249774572 1.90103697024358  4.35843101893602 2.36271415689816  C 3.59738503156001 2.81357078449059  2.99143372407582 3.41952209197484  2.54057709648339 4.18056807935085  C 2.07889990982875 4.96686203787203  1.84806131650146 5.90464382326428  1.84806131650146 6.81357078449059  C 1.84806131650146 7.72249774571691  2.07889990982875 8.57371505861141  2.54057709648339 9.35640216411184  C 2.99143372407582 10.1174481514878  3.59738503156001 10.7233994589721  4.35843101893602 11.1742560865645  C 5.1447249774572 11.6359332732191  6.08250676284945 11.8667718665465  6.99504057709652 11.8667718665465  Z " fill-rule="nonzero" fill="#666666" stroke="none" />
  </g>
</svg>