<?xml version="1.0" encoding="utf-8"?>
<svg version="1.1" xmlns:xlink="http://www.w3.org/1999/xlink" width="22px" height="20px" xmlns="http://www.w3.org/2000/svg">
  <g transform="matrix(1 0 0 1 -42 -225 )">
    <path d="M 0.214170833333355 2.73002976190475  C 0.214170833333355 2.47964285714284  0.404424999999947 2.20940476190475  0.637029166666707 2.12949404761906  L 6.44102083333337 0.135416666666686  C 6.67356666666672 0.0555059523809405  6.86387916666672 0.195029761904777  7 0.445416666666688  L 7 17.3419642857143  C 6.86387916666672 17.5923511904762  6.67362500000002 17.8625892857143  6.44102083333337 17.9425  L 0.637029166666707 19.9365773809524  C 0.40448333333336 20.0164583333333  0.214170833333355 19.8769642857143  0.214170833333355 19.6265773809524  L 0.214170833333355 2.73002976190475  Z M 15 2.73002976190475  C 15.1360625 2.47964285714284  15.3263166666667 2.20940476190475  15.5589208333333 2.12949404761906  L 21.3628833333333 0.135416666666686  C 21.5954291666667 0.0555059523809405  21.7857416666667 0.195029761904777  21.7857416666667 0.445416666666688  L 21.7857416666667 17.3419642857143  C 21.7857416666667 17.5923511904762  21.5954583333333 17.8625892857143  21.3628833333333 17.9425  L 15.5589208333333 19.9365773809524  C 15.3263458333333 20.0164583333333  15.1360625 19.8769642857143  15 19.6265773809524  L 15 2.73002976190475  Z M 13.487425 2.12949404761906  L 8.51260000000002 0.135416666666686  C 8.31327499999998 0.0555059523809405  8.15015000000005 0.195029761904777  8.15015000000005 0.445416666666688  L 8.15015000000005 17.3419642857143  C 8.15015000000005 17.5923511904762  8.31322499999999 17.8625892857143  8.51260000000002 17.9425  L 13.487425 19.9365773809524  C 13.686775 20.0164583333333  13.8498499999999 19.8769642857143  13.8498499999999 19.6265773809524  L 13.8498499999999 2.73002976190475  C 13.8498499999999 2.47964285714284  13.686775 2.20940476190475  13.487425 2.12949404761906  Z " fill-rule="nonzero" fill="#ffffff" stroke="none" transform="matrix(1 0 0 1 42 225 )" />
  </g>
</svg>