<?xml version="1.0" encoding="utf-8"?>
<svg version="1.1" xmlns:xlink="http://www.w3.org/1999/xlink" width="6px" height="10px" xmlns="http://www.w3.org/2000/svg">
  <g>
    <path d="M 5.78698265534662 5.03778718633644  C 5.78698265534662 5.0949330198247  5.77498203031408 5.21398683959259  5.75098078024897 5.26398944389473  C 5.72697953018385 5.31161097180172  5.6933777800927 5.35685142331355  5.65017552997551 5.39971079842958  C 5.65017552997551 5.39971079842958  0.907528517110259 9.81660751180005  0.907528517110259 9.81660751180005  C 0.828324391895403 9.89756410924201  0.732319391634974 9.93804240796288  0.614713266315944 9.93804240796288  C 0.545109641127128 9.93804240796288  0.477906140944833 9.92137487319551  0.415502890775551 9.88565872726516  C 0.35309964060627 9.84994258133503  0.305097140476069 9.80232105342804  0.269095265378387 9.7427941435442  C 0.233093390280733 9.68326723366057  0.216292515235145 9.61421601819547  0.216292515235145 9.53564049714909  C 0.216292515235145 9.43087313575385  0.2522943903328 9.33801115633503  0.326698265534642 9.25705455889329  C 0.326698265534642 9.25705455889329  4.79333090265115 5.09969517261565  4.79333090265115 5.09969517261565  C 4.79333090265115 5.09969517261565  0.326698265534642 0.882808876454397  0.326698265534642 0.882808876454397  C 0.2522943903328 0.801852279012651  0.216292515235145 0.70899029959405  0.216292515235145 0.604222938198594  C 0.216292515235145 0.525647417152218  0.233093390280719 0.458977278082481  0.269095265378387 0.397069291803486  C 0.305097140476055 0.337542381919645  0.35309964060627 0.289920854012875  0.415502890775551 0.254204708082528  C 0.477906140944833 0.218488562152396  0.545109641127142 0.2018210273848  0.614713266315944 0.2018210273848  C 0.732319391634974 0.2018210273848  0.83072451690191 0.239918249710302  0.907528517110259 0.318493770756677  C 0.907528517110259 0.318493770756677  5.65017552997551 4.74253371331326  5.65017552997551 4.74253371331326  C 5.6933777800927 4.7853930884295  5.72697953018385 4.83063353994112  5.75098078024897 4.8782550678481  C 5.77498203031408 4.92587659575487  5.78698265534662 4.98064135284797  5.78698265534662 5.03778718633644  Z " fill-rule="nonzero" fill="#999999" stroke="none" />
  </g>
</svg>