<?xml version="1.0" encoding="utf-8"?>
<svg version="1.1" xmlns:xlink="http://www.w3.org/1999/xlink" width="17px" height="20px" xmlns="http://www.w3.org/2000/svg">
  <g transform="matrix(1 0 0 1 -321 -7 )">
    <path d="M 3.08314893617021 15.2744827586207  C 3.28710295002231 15.0962470839055  3.50103996157161 14.9479907765142  3.71785112068266 14.8247513941651  C 1.50552838282649 13.3694858626432  0.0506382978723355 10.9363773904404  0.0506382978723355 8.19034482758621  C 0.0506382978723355 3.7544827586207  3.84706382978724 0.135172413793102  8.5 0.135172413793102  C 13.1529361702128 0.135172413793102  16.9493617021277 3.75448275862068  16.9493617021277 8.19034482758621  C 16.9493617021277 10.9463122804239  15.4839252601831 13.3870872862545  13.2581083575912 14.8405095643541  C 13.4831387253425 14.9648434844136  13.7053620254765 15.1150915553277  13.9168510638298 15.2965517241379  C 14.8891063829787 16.1351724137931  15.3752340425532 17.3931034482759  15.3752340425532 19.0041379310345  C 15.3752340425532 19.4675862068966  14.9817021276596 19.8648275862069  14.4492765957447 19.8648275862069  C 13.94 19.8648275862069  13.5233191489362 19.4675862068966  13.5233191489362 18.9820689655172  C 13.5233191489362 17.8786206896552  13.2455319148936 17.0841379310345  12.6668085106383 16.5986206896552  C 11.8797446808511 15.9144827586207  10.7685957446808 16.0027586206897  10.7685957446808 16.0027586206897  C 10.7011602120839 16.0086031164154  10.6349423293923 16.0074825558871  10.5706945234844 16.0000117880799  C 9.90770812348637 16.1603071817223  9.21393655200139 16.2455172413793  8.5 16.2455172413793  C 7.78523139708801 16.2455172413793  7.09067480427062 16.1601084513956  6.42698758742864 15.9994510376123  C 6.36287416753317 16.0074234429857  6.2973522230045 16.0087463623707  6.23140425531915 16.0027586206897  C 6.20825531914893 16.0027586206897  5.09710638297872 15.9365517241379  4.33319148936171 16.5986206896552  C 3.7776170212766 17.0841379310345  3.47668085106384 17.9006896551724  3.47668085106384 18.9820689655172  C 3.47668085106384 19.4675862068966  3.05999999999999 19.8648275862069  2.55072340425533 19.8648275862069  C 2.04144680851064 19.8648275862069  1.62476595744682 19.4675862068966  1.62476595744682 18.9820689655172  C 1.62476595744682 17.3489655172414  2.11089361702128 16.1131034482759  3.08314893617021 15.2744827586207  Z M 1.90255319148936 8.19034482758621  C 1.90255319148936 11.6551724137931  4.8656170212766 14.48  8.5 14.48  C 12.1343829787234 14.48  15.0974468085106 11.6551724137931  15.0974468085106 8.19034482758621  C 15.0974468085106 4.72551724137931  12.1343829787234 1.90068965517241  8.5 1.90068965517241  C 4.8656170212766 1.90068965517241  1.90255319148936 4.72551724137931  1.90255319148936 8.19034482758621  Z M 10.6991489361702 6.24827586206897  C 11.2084255319149 6.24827586206897  11.6251063829787 6.64551724137931  11.6251063829787 7.13103448275862  L 11.6251063829787 8.01379310344828  C 11.6251063829787 8.49931034482759  11.2084255319149 8.89655172413794  10.6991489361702 8.89655172413794  C 10.1898723404255 8.89655172413794  9.77319148936169 8.49931034482759  9.77319148936169 8.01379310344828  L 9.77319148936169 7.13103448275862  C 9.77319148936169 6.64551724137931  10.1898723404255 6.24827586206897  10.6991489361702 6.24827586206897  Z M 6.30085106382979 6.24827586206897  C 6.81012765957446 6.24827586206897  7.2268085106383 6.64551724137931  7.2268085106383 7.13103448275862  L 7.2268085106383 8.01379310344828  C 7.2268085106383 8.49931034482759  6.81012765957446 8.89655172413794  6.30085106382979 8.89655172413794  C 5.79157446808511 8.89655172413794  5.37489361702128 8.49931034482759  5.37489361702128 8.01379310344828  L 5.37489361702128 7.13103448275862  C 5.37489361702128 6.64551724137931  5.79157446808511 6.24827586206897  6.30085106382979 6.24827586206897  Z " fill-rule="nonzero" fill="#666666" stroke="none" transform="matrix(1 0 0 1 321 7 )" />
  </g>
</svg>