<?xml version="1.0" encoding="utf-8"?>
<svg version="1.1" xmlns:xlink="http://www.w3.org/1999/xlink" width="20px" height="20px" xmlns="http://www.w3.org/2000/svg">
  <g transform="matrix(1 0 0 1 -225 -7 )">
    <path d="M 9.61824561403509 0.0743859649122769  C 12.3354385964912 -0.0378947368421067  14.940350877193 0.950175438596501  16.8940350877193 2.83649122807018  C 18.8477192982456 4.72280701754385  19.9480701754386 7.26035087719298  19.9480701754386 10  C 19.9480701754386 12.6498245614035  18.9150877192983 15.1424561403509  17.0287719298246 17.0287719298246  L 17.0287719298246 18.218947368421  C 17.0287719298246 19.1621052631579  16.2428070175439 19.9480701754386  15.299649122807 19.8245614035088  L 10 19.8245614035088  C 7.28280701754386 19.9480701754386  4.72280701754386 18.8701754385965  2.83649122807018 16.8940350877193  C 0.950175438596491 14.9178947368421  -0.0378947368421067 12.3354385964912  0.0743859649122769 9.61824561403508  C 0.276491228070179 4.45333333333334  4.45333333333334 0.276491228070179  9.61824561403509 0.0743859649122769  Z M 15.2322807017544 18.0701754385965  L 15.2322807017544 16.9838596491228  C 15.2322807017544 16.5347368421053  15.4119298245614 16.0856140350877  15.7487719298246 15.7487719298246  C 17.2982456140351 14.199298245614  18.1515789473684 12.1557894736842  18.1515789473684 9.97754385964912  C 18.1515789473684 7.75438596491229  17.2757894736842 5.66596491228069  15.658947368421 4.11649122807017  C 14.1094736842105 2.65684210526316  12.1108771929825 1.84842105263157  10 1.84842105263159  L 9.68561403508771 1.84842105263159  C 5.46385964912281 2.00561403508772  2.0280701754386 5.44140350877192  1.87087719298245 9.66315789473685  C 1.78105263157895 11.9087719298246  2.58947368421052 14.0421052631579  4.13894736842105 15.6364912280702  C 5.68842105263157 17.2533333333333  7.77684210526315 18.1291228070175  10 18.0701754385965  L 15.2322807017544 18.0701754385965  Z M 6.85614035087719 9.48350880539208  C 6.85614035087719 10.1036179981846  6.3534425261258 10.6063158229359  5.73333333333333 10.6063158229359  C 5.11322414054087 10.6063158229359  4.61052631578947 10.10361793126  4.61052631578947 9.48350873846757  C 4.61052631578947 8.86339954567509  5.11322414054087 8.36070172092371  5.73333333333333 8.36070172092371  C 6.3534425261258 8.36070172092371  6.85614035087719 8.8633996125996  6.85614035087719 9.48350880539208  Z M 10 10.6063157894737  C 9.37989080720753 10.6063157894737  8.87719298245614 10.1036179173995  8.87719298245614 9.48350872460705  C 8.87719298245614 8.86339953181457  9.37989080720753 8.36070170706319  10 8.36070170706319  C 10.6201091927925 8.36070170706319  11.1228070175439 8.86339957913735  11.1228070175439 9.48350877192983  C 11.1228070175439 10.1036179647223  10.6201091927925 10.6063157894737  10 10.6063157894737  Z M 13.1438596491228 9.48350877192983  C 13.1438596491228 8.86339957913735  13.6465574738742 8.36070175438596  14.2666666666667 8.36070175438596  C 14.8867758594591 8.36070175438596  15.3894736842105 8.86339957913735  15.3894736842105 9.48350877192983  C 15.3894736842105 10.1036179647223  14.8867758594591 10.6063157894737  14.2666666666667 10.6063157894737  C 13.6465574738742 10.6063157894737  13.1438596491228 10.1036179647223  13.1438596491228 9.48350877192983  Z " fill-rule="nonzero" fill="#666666" stroke="none" transform="matrix(1 0 0 1 225 7 )" />
  </g>
</svg>