<?xml version="1.0" encoding="utf-8"?>
<svg version="1.1" xmlns:xlink="http://www.w3.org/1999/xlink" width="20px" height="18px" xmlns="http://www.w3.org/2000/svg">
  <g transform="matrix(1 0 0 1 -131 -8 )">
    <path d="M 2.16326530612245 17.8744186046512  C 0.991069102399947 17.8744186046512  0.0408163265306099 16.899857036841  0.204081632653061 15.6976744186047  L 0.204081632653061 2.30232558139535  C 0.0408163265306099 1.10076279069767  0.991673469387752 0.125581395348836  2.16326530612245 0.209302325581395  L 17.8367346938776 0.209302325581395  C 19.0083265306122 0.125581395348836  19.9591836734694 1.10076279069767  19.7959183673469 2.30232558139535  L 19.7959183673469 15.6976744186047  C 19.9591836734694 16.8992372093023  19.0083265306122 17.8744186046512  17.8367346938776 17.7906976744186  L 2.16326530612245 17.7906976744186  C 2.16326530612245 17.8744186046512  2.16326530612245 17.8744186046512  2.16326530612245 17.8744186046512  Z M 18 15.6976744186047  L 18 2.30232558139535  C 18.3265306122449 2.02489882334082  18.1072415101212 1.8  17.8367346938776 2  L 2.16326530612245 2  C 1.89275848987879 1.8  1.6734693877551 2.02489882334081  2 2.30232558139535  L 2 15.6976744186047  C 1.6734693877551 15.9749581395349  1.89289795918367 16.2  2.16326530612245 16  L 17.8367346938775 16  C 18.1072415101212 16.2  18.3265306122449 15.9751011766592  18 15.6976744186047  Z M 8.5985306122449 4.75099534883721  L 13.5918367346939 7.82120930232558  C 13.7799183673469 7.9377488372093  13.9379591836735 8.09849302325581  14.0502857142857 8.29272558139535  C 14.4305702487477 8.94267891717143  14.2253584479879 9.78706328220069  13.5918367346939 10.1774511627907  L 8.5985306122449 13.2490046511628  C 8.39057206667481 13.3768537604302  8.15266335591094 13.4443829722967  7.91020324683692 13.4443829722967  C 7.17140173937836 13.4443829722967  6.57225361889263 12.8305936316952  6.57142857142857 12.0728930232558  L 6.57142857142857 5.92710697674419  C 6.57225361889263 5.1694063683048  7.17140173937836 4.55561702770325  7.91020324683692 4.55561702770325  C 8.15266335591093 4.55561702770325  8.39057206667481 4.62314623956982  8.5985306122449 4.75099534883721  Z M 8.20408163265306 11.5397581395349  L 12.3314285714286 9  L 8.20408163265306 6.46024186046512  L 8.20408163265306 11.5397581395349  Z " fill-rule="nonzero" fill="#666666" stroke="none" transform="matrix(1 0 0 1 131 8 )" />
  </g>
</svg>