<?xml version="1.0" encoding="utf-8"?>
<svg version="1.1" xmlns:xlink="http://www.w3.org/1999/xlink" width="13px" height="13px" xmlns="http://www.w3.org/2000/svg">
  <g transform="matrix(1 0 0 1 -280 -158 )">
    <path d="M 12.9197530914352 6.5  C 12.9197530914352 7.67802468634259  12.6014938321759 8.81062962962963  12.0081481481482 9.7992716099537  C 11.9211169685327 9.94427660172507  11.7643957066436 10.0329958849011  11.5952777777778 10.0329958849011  C 11.329337899 10.0329958849011  11.1137510311869 9.81740901708797  11.1137510311869 9.55146913831019  C 11.1137510311869 9.46417196890143  11.1374826872332 9.37851695259835  11.1824074074074 9.30366666666667  C 11.6907607024585 8.45695059301425  11.958499558569 7.48759721537649  11.9567901284722 6.5  C 11.9567901284722 3.48624690856481  9.51375309143518 1.04320987152778  6.5 1.04320987152778  C 3.48624690856481 1.04320987152778  1.04320987152778 3.48624690856481  1.04320987152778 6.5  C 1.04320987152778 9.51375309143518  3.48624690856481 11.9567901284722  6.5 11.9567901284722  C 7.4874579965993 11.9585380801604  8.4566905920297 11.6909129092681  9.30334568402778 11.1827283900463  C 9.37817593916536 11.1378302369637  9.46380158265275 11.1141133067293  9.55106790625 11.1141133067293  C 9.81698497958687 11.1141133067293  10.0325533599373 11.3296816870798  10.0325533599373 11.5955987604167  C 10.0325533599373 11.7647267141411  9.94381615233113 11.9214535164717  9.79879012847222 12.008469130787  C 8.80247696508963 12.6064545240211  7.66199111806324 12.9215113840411  6.5 12.9197530914352  C 2.95453086921296 12.9197530914352  0.0802469085648148 10.045469130787  0.0802469085648148 6.5  C 0.0802469085648148 2.95453086921296  2.95453086921296 0.0802469085648148  6.5 0.0802469085648148  C 10.045469130787 0.0802469085648148  12.9197530914352 2.95453085416667  12.9197530914352 6.5  Z M 6.46212346180555 3.29012346180555  C 7.63260494328704 3.29012346180556  8.58641975810185 4.22162962962963  8.58641975810185 5.37654320486111  C 8.58641975810185 6.36807407407407  7.88345679513889 7.19493826157407  6.94344444444444 7.40903703703704  L 6.94344444444444 7.94444444444444  C 6.94344444444444 8.2103593239926  6.72787784251112 8.42592592592593  6.46196296296296 8.42592592592593  C 6.1960480834148 8.42592592592593  5.98048148148148 8.2103593239926  5.98048148148148 7.94444444444444  L 5.98048148148148 6.98148148148148  C 5.98048148148148 6.71556660193332  6.1960480834148 6.5  6.46196296296296 6.5  C 7.1058642025463 6.5  7.62345679513889 5.99444444444444  7.62345679513889 5.37654320486111  C 7.62345679513889 4.75864196527778  7.1058642025463 4.25308640972222  6.46196296296296 4.25308642476852  C 6.05912346180556 4.25308642476852  5.69335801967593 4.45241975810185  5.48134568402778 4.77404938773148  C 5.42678971830028 4.85672851380894  5.38365469321784 4.94639969342312  5.35311111111111 5.04062962962963  C 5.28638915993804 5.23524227071798  5.1033865353703 5.36595994515994  4.89765394475878 5.36595994515994  C 4.63173906521062 5.36595994515994  4.4161724632773 5.15039334322662  4.4161724632773 4.88447846367846  C 4.4161724632773 4.83699961157772  4.42319508441742 4.78978185207076  4.43701235069444 4.74435801967593  C 4.49414814814815 4.56749381712963  4.57503703703704 4.3992962962963  4.67743209375 4.24425925925926  C 5.06646913078704 3.65364198032407  5.73348148148148 3.29012346180555  6.46212346180555 3.29012346180555  Z M 6.5 9.87037037037037  C 6.23408512045184 9.87037037037037  6.01851851851852 9.65480376843705  6.01851851851852 9.38888888888889  C 6.01851851851852 9.12297400934073  6.23408512045184 8.90740740740741  6.5 8.90740740740741  C 6.76591487954816 8.90740740740741  6.98148148148148 9.12297400934073  6.98148148148148 9.38888888888889  C 6.98148148148148 9.65480376843705  6.76591487954816 9.87037037037037  6.5 9.87037037037037  Z " fill-rule="nonzero" fill="#ffffff" stroke="none" fill-opacity="0.8" transform="matrix(1 0 0 1 280 158 )" />
  </g>
</svg>