<?xml version="1.0" encoding="utf-8"?>
<svg version="1.1" xmlns:xlink="http://www.w3.org/1999/xlink" width="150px" height="150px" xmlns="http://www.w3.org/2000/svg">
  <g transform="matrix(1 0 0 1 -225 -100 )">
    <path d="M 135.9375 75  C 135.9375 41.25  108.75 14.0625  75 14.0625  C 41.2500000000001 14.0625  14.0625 41.25  14.0625 75  C 14.0625 108.75  41.2500000000001 135.9375  75 135.9375  C 108.75 135.9375  135.9375 108.75  135.9375 75  Z M 101.484375 33.984375  C 109.453125 32.34375  105.703125 39.140625  105.703125 39.140625  L 79.6875 67.96875  L 79.6875 73  L 101.71875 73  C 103.828125 72.1875  105.46875 73.828125  105.46875 75.9375  C 105.46875 78.046875  103.59375 79.6875  101.484375 79  L 79.6875 79  L 79.6875 87  L 101.71875 87  C 103.828125 87.65625  105.46875 89.296875  105.46875 91.40625  C 105.46875 93.515625  103.828125 95.15625  101.71875 95  L 79 95  L 79 113.4375  L 79.6875 111.09375  C 79.6875 113.90625  77.34375 116.015625  74.7656249999999 116.015625  C 71.9531250000001 116.015625  69.8437499999999 113.671875  69.8437499999999 111.09375  L 70 113.4375  L 70 95  L 48.2812500000001 95  C 46.1718750000001 95.15625  44.53125 93.515625  44.53125 91.40625  C 44.53125 89.296875  46.1718750000001 87.65625  48.2812500000001 87  L 69.8437499999999 87  L 69.8437499999999 79  L 48.2812500000001 79  C 46.1718750000001 79.6875  44.53125 78.046875  44.53125 75.9375  C 44.53125 73.828125  46.1718750000001 72.1875  48.2812500000001 73  L 69.8437499999999 73  L 69.8437499999999 67.96875  L 44.0624999999999 39.140625  C 44.0624999999999 39.140625  41.2500000000001 31.40625  49.9218749999999 33.984375  C 52.9687500000001 34.921875  55.3125000000001 39.140625  55.3125000000001 39.140625  L 75.2343750000001 60.46875  L 95.6249999999999 39.140625  C 95.6249999999999 39.140625  97.9687499999999 34.6875  101.484375 33.984375  Z M 150 75  C 150 33.515625  116.484375 0  75 0  C 33.5156249999999 0  0 33.515625  0 75  C 0 116.484375  33.5156249999999 150  75 150  C 116.484375 150  150 116.484375  150 75  Z M 142.96875 75  C 142.96875 112.5  112.5 142.96875  75 142.96875  C 37.5 142.96875  7.03125 112.5  7.03125 75  C 7.03125 37.5  37.5 7.03125  75 7.03125  C 112.5 7.03125  142.96875 37.5  142.96875 75  Z " fill-rule="nonzero" fill="#ffffff" stroke="none" fill-opacity="0.0784313725490196" transform="matrix(1 0 0 1 225 100 )" />
  </g>
</svg>