<?xml version="1.0" encoding="utf-8"?>
<svg version="1.1" xmlns:xlink="http://www.w3.org/1999/xlink" width="16px" height="16px" xmlns="http://www.w3.org/2000/svg">
  <g transform="matrix(1 0 0 1 -45 -342 )">
    <path d="M 0.101417883807542 7.9712078500026  C 0.101417883807542 7.79168630480018  0.167762802686738 7.54191719843129  0.292647355871068 7.41703264524722  C 0.421434551342301 7.28824544977607  0.569734958248759 7.22580317318369  0.741451218877145 7.22580317318369  C 0.741451218877145 7.22580317318369  7.18081099244263 7.22580317318369  7.18081099244263 7.22580317318369  C 7.18081099244263 7.22580317318369  7.18081099244263 0.79424868419261  7.18081099244263 0.79424868419261  C 7.18081099244263 0.622532423564337  7.24325326903477 0.474232016657936  7.36813782221903 0.345444821186504  C 7.49302237540327 0.216657625715413  7.73888883948494 0.154215349123263  7.91841038468742 0.154215349123263  C 8.09793192988981 0.154215349123263  8.25013497908314 0.216657625715413  8.3750195322675 0.345444821186504  C 8.50380672773879 0.474232016657936  8.56624900433103 0.622532423564337  8.56624900433103 0.79424868419261  C 8.56624900433103 0.79424868419261  8.56624900433103 7.22580317318369  8.56624900433103 7.22580317318369  C 8.56624900433103 7.22580317318369  14.9899982087484 7.22580317318369  14.9899982087484 7.22580317318369  C 15.1695197539508 7.22580317318369  15.3217228031441 7.28824544977607  15.4466073563285 7.41703264524722  C 15.5753945517998 7.54581984071837  15.637836828392 7.79558894708725  15.637836828392 7.9712078500026  C 15.637836828392 8.15072939520496  15.5753945517998 8.29902980211136  15.4466073563285 8.42391435529584  C 15.3178201608573 8.54879890847991  15.1656171116638 8.61124118507183  14.9899982087484 8.61124118507183  C 14.9899982087484 8.61124118507183  8.56624900433103 8.61124118507183  8.56624900433103 8.61124118507183  C 8.56624900433103 8.61124118507183  8.56624900433103 15.0506009586374  8.56624900433103 15.0506009586374  C 8.56624900433103 15.2223172192657  8.50380672773879 15.3706176261721  8.3750195322675 15.4994048216432  C 8.24623233679627 15.6281920171147  8.09402928760285 15.6906342937068  7.91841038468742 15.6906342937068  C 7.73888883948494 15.6906342937068  7.49302237540337 15.6281920171147  7.36813782221903 15.4994048216432  C 7.24325326903477 15.3706176261721  7.18081099244263 15.2223172192657  7.18081099244263 15.0506009586374  C 7.18081099244263 15.0506009586374  7.18081099244263 8.61124118507183  7.18081099244263 8.61124118507183  C 7.18081099244263 8.61124118507183  0.741451218877145 8.61124118507183  0.741451218877145 8.61124118507183  C 0.569734958248759 8.61124118507183  0.421434551342372 8.54879890847991  0.292647355871068 8.42391435529584  C 0.16386016039975 8.29902980211136  0.101417883807542 8.15072939520496  0.101417883807542 7.9712078500026  Z " fill-rule="nonzero" fill="#999999" stroke="none" transform="matrix(1 0 0 1 45 342 )" />
  </g>
</svg>