<?xml version="1.0" encoding="utf-8"?>
<svg version="1.1" xmlns:xlink="http://www.w3.org/1999/xlink" width="15px" height="15px" xmlns="http://www.w3.org/2000/svg">
  <g transform="matrix(1 0 0 1 -344 -555 )">
    <path d="M 6.54833333496094 0  L 6.54833333496094 6.87166666992187  C 6.54833333496094 11.6625  2.55541666992188 14.4895833398438  0 15  L 0 12.1729166601563  C 1.39750000488281 11.7408333251953  3.07458333984375 9.54208333007813  3.15416666015625 7.14666666503906  L 0 7.14666666503906  L 0 4.16666666015625  C 0 1.86541665527344  1.86541666992188 0  4.16666666015625 0  L 6.54833333496094 0  Z M 15 0  L 15 6.87166666992187  C 15 11.6625  11.0070833349609 14.4895833398438  8.45166666503906 15  L 8.45166666503906 12.1729166601563  C 9.84916666992187 11.7408333251953  11.5262500048828 9.54208333007813  11.6058333398438 7.14666666503906  L 8.49166666992187 7.14666666503906  L 8.49166666992187 4.16666666015625  C 8.49166666992187 1.86541665527344  10.3570833398437 0  12.6583333300781 0  L 15 0  Z " fill-rule="nonzero" fill="#999999" stroke="none" transform="matrix(1 0 0 1 344 555 )" />
  </g>
</svg>