<?xml version="1.0" encoding="utf-8"?>
<svg version="1.1" xmlns:xlink="http://www.w3.org/1999/xlink" width="23px" height="20px" xmlns="http://www.w3.org/2000/svg">
  <g transform="matrix(1 0 0 1 -203 -391 )">
    <path d="M 19.0372479943435 9.77707137695333  C 19.2050113249442 10.3686844482927  19.3043163391498 10.9829161228629  19.3335268987051 11.6056221666342  C 19.3384221117056 11.6769500916068  19.3409090909091 11.7489114183728  19.3409071556679 11.8249342064597  C 19.3511942207801 12.328607966152  19.3157612898198 12.8367156429725  19.23375 13.3418367346939  C 18.6195454545455 17.140306122449  15.5563636363636 19.8954081632653  12.1664772727273 19.8954081632653  C 11.8502272727273 19.8954081632653  11.5313636363636 19.8724489795918  11.2125 19.8214285714286  C 8.52396274713965 19.4069702021526  6.46034059289223 17.4262102816414  5.77287212691502 14.6822221585655  C 5.49819259110814 14.7850614907347  5.20511242302271 14.8392857142857  4.90840909090909 14.8392857142857  C 3.59375 14.8392857142857  2.52738636363636 13.7959183673469  2.52738636363636 12.515306122449  C 2.52738636363636 12.1550325257379  2.61414006136304 11.8006391584646  2.77619394868281 11.4816708185348  C 2.17503850083159 11.1963488451188  1.59628102956856 10.6583142564325  1.06375 9.88265306122448  C 0.446931818181819 8.98724489795919  0.0967045454545466 8.08418367346938  0.0810227272727279 8.04591836734693  C 0.00522727272727392 7.84693877551021  0.0757954545454539 7.62244897959184  0.250909090909091 7.49744897959183  C 0.428636363636363 7.37244897959184  0.66909090909091 7.38265306122448  0.838977272727273 7.51785714285714  C 1.30420454545455 7.89030612244899  1.98897727272727 8.26530612244898  2.62409090909091 7.94132653061225  C 3.09977272727273 7.69897959183674  3.38465909090909 7.1326530612245  3.35068181818182 6.76020408163265  C 3.25397727272727 5.65561224489795  3.57806818181818 4.57397959183674  3.59113636363636 4.53061224489797  C 3.59375 4.5204081632653  3.59897727272727 4.51020408163266  3.60159090909091 4.50000000000001  C 3.96227272727273 3.55612244897961  4.52943181818182 2.98979591836734  5.28738636363636 2.82142857142858  C 6.27795454545455 2.59948979591838  7.29727272727272 3.13775510204082  7.92715909090909 3.57397959183674  C 8.22772727272727 2.77295918367346  8.90988636363637 1.4311224489796  10.3003409090909 0.668367346938771  C 11.5940909090909 -0.0408163265305983  13.1805681818182 -0.0790816326530473  15.0101136363636 0.556122448979597  C 15.0911363636364 0.584183673469402  16.9990909090909 1.26785714285714  17.8955681818182 3.03061224489796  C 18.2118181818182 3.65051020408164  18.7057954545455 4.39285714285714  19.1004545454545 4.83163265306121  C 19.1344318181818 4.86989795918366  19.1788636363636 4.9234693877551  19.2363636363636 4.99489795918368  C 19.9734090909091 5.89540816326532  21.0868181818182 7.02295918367347  22.2368181818182 6.42857142857143  C 22.4302272727273 6.32908163265307  22.6654545454545 6.36734693877552  22.8144318181818 6.52295918367346  C 22.9634090909091 6.67857142857143  22.9869318181818 6.91071428571428  22.8719318181818 7.09183673469388  C 22.8170454545455 7.17857142857142  21.4971590909091 9.23469387755102  19.1945454545455 9.74489795918367  C 19.1421755014678 9.75651056238506  19.0897422453263 9.76723498484361  19.0372479943435 9.77707137695333  Z M 16.0790909090909 15.0051020408163  C 14.8975100427179 15.0051020408163  13.861084511232 14.3900666770499  13.2880285661081 13.4705866110794  C 12.7114917837833 14.3744972898715  11.6841789970106 14.9770408163265  10.5146590909091 14.9770408163265  C 8.71386363636364 14.9770408163265  7.25022727272728 13.5484693877551  7.25022727272728 11.7908163265306  C 7.25022727272728 10.0331632653061  8.71386363636364 8.6045918367347  10.5146590909091 8.6045918367347  C 11.6962399573749 8.6045918367347  12.7326654889308 9.21962720059775  13.3057214344304 10.1391072656274  C 13.6910839568969 9.53492500059095  14.2778400962032 9.06538481995756  14.9738432029102 8.82042573961851  C 14.7257635278182 8.65628998890531  14.5046326040179 8.47856775902368  14.3122727272727 8.29081632653061  C 13.7163636363636 7.70153061224489  12.1429545454545 6.60714285714286  10.4440909090909 6.68877551020408  C 9.36727272727273 6.73979591836734  8.39238636363637 7.26020408163266  7.54295454545455 8.23724489795917  L 7.44886363636364 9.38775510204082  C 7.44886363636364 9.39540816326531  7.44625 9.40306122448981  7.44625 9.41071428571428  C 7.34170454545455 10.219387755102  6.67261363636363 11.0739795918367  5.78136363636364 11.5382653061225  C 5.37886363636363 11.75  4.97113636363637 11.8545918367347  4.58431818181818 11.8545918367347  C 4.33340909090909 11.8545918367347  4.09295454545454 11.8086734693877  3.86818181818182 11.719387755102  C 3.82931704051386 11.7206923525036  3.79048462024448 11.7209665806579  3.7516904435311 11.7202141674441  C 3.58211937068551 11.9530080507477  3.49443181818182 12.2268508975547  3.49443181818182 12.515306122449  C 3.49443181818182 13.2780612244898  4.12954545454545 13.8979591836735  4.91102272727273 13.8979591836735  C 5.16212061298486 13.8979591836735  5.4059814382069 13.834386070229  5.6194291839487 13.7140260778724  C 5.65957860574251 13.5248568415286  5.81698755412389 13.3719071956298  6.02443181818182 13.3418367346939  C 6.28840909090909 13.3061224489796  6.53147727272728 13.484693877551  6.57068181818182 13.7423469387755  C 6.96534090909091 16.4821428571429  8.84715909090909 18.5025510204082  11.3614772727273 18.890306122449  C 14.2140251102973 19.3302741901369  16.9725252387695 17.3815879125229  17.978795092061 14.4085516066935  C 17.443399290945 14.7839768452579  16.7871831681676 15.0051020408163  16.0790909090909 15.0051020408163  Z M 10.5146590909091 9.54846938775511  C 9.24704545454545 9.54846938775511  8.21727272727273 10.5561224489796  8.21727272727273 11.7908163265306  C 8.21727272727273 13.0280612244898  9.24965909090909 14.0331632653061  10.5146590909091 14.0331632653061  C 11.7796590909091 14.0331632653061  12.8120454545454 13.0255102040816  12.8120454545454 11.7908163265306  C 12.8146590909091 10.5561224489796  11.7822727272727 9.54846938775511  10.5146590909091 9.54846938775511  Z M 16.0790909090909 14.0612244897959  C 17.3243418221034 14.0612244897959  18.3400695886454 13.0888110305351  18.3755202384481 11.8840071798354  C 18.374143827736 11.7911360245895  18.371024554506 11.6984539348307  18.3661690053108 11.6060166269435  C 18.2556674149736 10.4704401607422  17.2705573086869 9.57653061224489  16.0790909090909 9.57653061224489  C 14.8114772727273 9.57653061224489  13.7817045454546 10.5841836734694  13.7817045454546 11.8188775510204  C 13.7817045454546 13.0561224489796  14.8140909090909 14.0612244897959  16.0790909090909 14.0612244897959  Z M 10.5460227272727 12.030612244898  L 10.5460227272727 11.0127551020408  C 10.5460227272727 10.6658163265306  10.8335227272727 10.3852040816327  11.1889772727273 10.3852040816327  C 11.5444318181818 10.3852040816327  11.8319318181818 10.6658163265306  11.8319318181818 11.0127551020408  L 11.8319318181818 12.030612244898  C 11.8319318181818 12.375  11.5444318181818 12.6581632653061  11.1889772727273 12.6581632653061  C 10.8335227272727 12.6581632653061  10.5460227272727 12.3775510204082  10.5460227272727 12.030612244898  Z M 7.86965909090909 4.73724489795918  C 7.49852272727272 4.39540816326531  6.35113636363636 3.54846938775511  5.50431818181818 3.73979591836736  C 5.08874999999999 3.83418367346939  4.75420454545454 4.1938775510204  4.51375 4.81377551020408  C 4.47977272727272 4.93622448979592  4.23931818181818 5.82142857142857  4.31249999999999 6.68367346938776  C 4.36999999999999 7.36224489795919  3.95704545454545 8.32653061224489  3.07363636363636 8.77806122448981  C 2.76522727272727 8.93622448979592  2.25556818181818 9.09948979591836  1.59954545454545 8.95408163265306  C 2.14840909090909 9.86734693877552  2.96647727272727 10.8316326530612  3.86295454545454 10.780612244898  C 3.89431818181818 10.7729591836735  3.92306818181818 10.7704081632653  3.95181818181818 10.7704081632653  C 4.04590909090909 10.7704081632653  4.12431818181818 10.7959183673469  4.17659090909091 10.8214285714286  C 4.59477272727273 11.0255102040816  5.08090909090909 10.8367346938776  5.33443181818182 10.7040816326531  C 5.93818181818182 10.390306122449  6.42431818181818 9.80102040816326  6.49488636363636 9.30102040816328  L 6.59943181818182 8.01530612244898  C 6.60727272727273 7.92091836734694  6.64386363636364 7.82908163265305  6.70659090909091 7.75510204081633  C 7.75988636363637 6.48979591836734  9.00397727272727 5.81377551020407  10.4048863636364 5.74744897959184  C 12.9557954545455 5.62755102040817  14.9264772727273 7.54846938775509  15.0075 7.63010204081634  C 15.1721590909091 7.79336734693878  15.3707954545455 7.94897959183674  15.5981818181818 8.09183673469387  C 16.7586363636364 8.8188775510204  17.8955681818182 9.06632653061224  18.9802272727273 8.82908163265307  C 19.9603409090909 8.61224489795919  20.7444318181818 8.03316326530611  21.275 7.52040816326531  C 20.3759090909091 7.39795918367347  19.4454545454545 6.75000000000001  18.4888636363636 5.58418367346938  C 18.4444318181818 5.52806122448979  18.4078409090909 5.48469387755102  18.3790909090909 5.45408163265307  C 17.8615909090909 4.87500000000001  17.3310227272727 4.03061224489796  17.0356818181818 3.4515306122449  C 16.3090909090909 2.02295918367347  14.7069318181818 1.44897959183674  14.69125 1.44387755102042  C 13.13875 0.905612244897959  11.8240909090909 0.920918367346948  10.7838636363636 1.48724489795919  C 9.27056818181818 2.31377551020408  8.76090909090909 4.08673469387755  8.68511363636364 4.38010204081632  C 8.69034090909091 4.50255102040816  8.64590909090909 4.625  8.55181818181818 4.72193877551021  C 8.36886363636363 4.91071428571429  8.06306818181818 4.91836734693878  7.86965909090909 4.73724489795918  Z M 12.2527272727273 15.2448979591837  C 12.5559090909091 15.2959183673469  12.8669318181818 15.3265306122449  13.1805681818182 15.3367346938775  C 13.6196590909091 15.3520408163265  14.0561363636364 15.3239795918367  14.4795454545455 15.2551020408163  C 14.7435227272727 15.2142857142857  14.9918181818182 15.3877551020408  15.0336363636364 15.6428571428571  C 15.0754545454545 15.9005102040816  14.8977272727273 16.1428571428571  14.6363636363636 16.1836734693877  C 14.23125 16.2525510204082  13.8182954545455 16.2857142857143  13.4053409090909 16.2857142857143  C 13.3190909090909 16.2857142857143  13.2328409090909 16.2831632653061  13.1465909090909 16.280612244898  C 12.7885227272727 16.2678571428571  12.4330681818182 16.234693877551  12.0854545454545 16.1734693877551  C 11.8240909090909 16.1301020408163  11.6463636363636 15.8852040816326  11.6934090909091 15.6275510204082  C 11.7378409090909 15.3724489795918  11.98875 15.1989795918367  12.2527272727273 15.2448979591837  Z M 11.1889772727273 10.3852040816327  C 10.8335227272727 10.3852040816327  10.5460227272727 10.6658163265306  10.5460227272727 11.0127551020408  L 10.5460227272727 12.030612244898  C 10.5460227272727 12.3775510204082  10.8335227272727 12.6581632653061  11.1889772727273 12.6581632653061  C 11.5444318181818 12.6581632653061  11.8319318181818 12.375  11.8319318181818 12.030612244898  L 11.8319318181818 11.0127551020408  C 11.8319318181818 10.6658163265306  11.5444318181818 10.3852040816327  11.1889772727273 10.3852040816327  Z M 15.0911363636364 12.030612244898  L 15.0911363636364 11.0127551020408  C 15.0911363636364 10.6658163265306  15.3786363636364 10.3852040816327  15.7340909090909 10.3852040816327  C 16.0895454545455 10.3852040816327  16.3770454545455 10.6658163265306  16.3770454545455 11.0127551020408  L 16.3770454545455 12.030612244898  C 16.3770454545455 12.375  16.0895454545455 12.6581632653061  15.7340909090909 12.6581632653061  C 15.3786363636364 12.6581632653061  15.0911363636364 12.3775510204082  15.0911363636364 12.030612244898  Z M 10.5460227272727 12.030612244898  L 10.5460227272727 11.0127551020408  C 10.5460227272727 10.6658163265306  10.8335227272727 10.3852040816327  11.1889772727273 10.3852040816327  C 11.5444318181818 10.3852040816327  11.8319318181818 10.6658163265306  11.8319318181818 11.0127551020408  L 11.8319318181818 12.030612244898  C 11.8319318181818 12.375  11.5444318181818 12.6581632653061  11.1889772727273 12.6581632653061  C 10.8335227272727 12.6581632653061  10.5460227272727 12.3775510204082  10.5460227272727 12.030612244898  Z " fill-rule="nonzero" fill="#666666" stroke="none" transform="matrix(1 0 0 1 203 391 )" />
  </g>
</svg>