<?xml version="1.0" encoding="utf-8"?>
<svg version="1.1" xmlns:xlink="http://www.w3.org/1999/xlink" width="13px" height="13px" xmlns="http://www.w3.org/2000/svg">
  <g transform="matrix(1 0 0 1 -332 -341 )">
    <path d="M 8.92753340204513 11.3663333291016  L 8.92926674381095 11.3654666708984  C 8.9287887118357 11.8131415670202  8.56574236414027 12.1758004634618  8.11806722081327 12.1758004634618  L 1.62413353285922 12.1758  C 1.17559126887731 12.1758004634483  0.81254492118408 11.8131415670149  0.812066889201342 11.3654666708984  L 0.812066889201342 4.87846667089844  C 0.812066889201342 4.4304  1.17606688268159 4.06813334179687  1.62413353285922 4.06813332910156  L 2.43533351832949 4.06813332910156  L 2.43533351832949 3.25693332910156  L 1.62413353285922 3.25693332910156  C 1.62355575670799 3.25693271182049  1.62297798026941 3.25693240317989  1.62240020378844 3.25693240317989  C 0.72637344171205 3.25693240317989  0 3.98330562505441  0 4.87933240317989  L 0 11.3663333291016  C 0 12.2622715728327  0.72559717100573 12.9878687568348  1.62066664187003 12.9878687568348  C 1.62153338655586 12.9878687568348  1.62240013110136 12.9878680615225  1.62326687467162 12.9878666708984  L 8.11546675838725 12.9878666708984  C 8.1163334201098 12.9878680612599  8.11720008280891 12.9878687564409  8.11806674564671 12.9878687564409  C 9.01313621651101 12.9878687564409  9.73873338751674 12.2622715724387  9.73873338751674 11.3672020855425  L 9.7387333875154 10.556  L 8.92753340204513 10.556  L 8.92753340204513 11.3663333291016  Z M 11.3637333584094 0.0121333291015626  L 4.87066681650615 0.0121333291015626  C 3.97377338354683 0.0121330976178039  3.24740017468267 0.738506319492325  3.24740017468267 1.6345330976178  L 3.24740017468268 8.12066667089844  C 3.24740017468268 9.01593334179688  3.97366683257267 9.74133334179688  4.87066681650615 9.74133332910156  L 11.3646000292923 9.74133332910156  C 12.2616000132258 9.74133332910156  12.9870000002328 9.01506665820313  12.9870000002328 8.12066667089844  L 12.9870000002328 1.63453332910156  C 12.9865216597277 0.738845025601628  12.2602886758376 0.0129997683926344  11.3646002606523 0.0129997683926344  Z M 12.1758000147626 1.63453332910156  L 12.1758000147626 8.12153332910157  C 12.1758000147627 8.56906854520206  11.8130014321018 8.93186713436121  11.3654667001754 8.93186713436121  L 4.87066681650615 8.93186667089844  C 4.42299166842079 8.93186692638787  4.05994511177967 8.56920822971605  4.05946683103587 8.12153332910156  L 4.05946683103587 1.63453332910156  C 4.05946683103587 1.18733332910156  4.42346682451613 0.8242  4.87066681650615 0.8242  L 11.3646000292923 0.8242  C 11.8126666921652 0.8242  12.1758000147626 1.18733332910156  12.1758000147626 1.63453332910156  Z " fill-rule="nonzero" fill="#666666" stroke="none" transform="matrix(1 0 0 1 332 341 )" />
  </g>
</svg>