<?xml version="1.0" encoding="utf-8"?>
<svg version="1.1" xmlns:xlink="http://www.w3.org/1999/xlink" width="40px" height="10px" xmlns="http://www.w3.org/2000/svg">
  <g transform="matrix(1 0 0 1 -320 -73 )">
    <path d="M 0.0797266514806714 7.69646924829158  L 0.0797266514806389 1.39236902050115  L 3.78132118451026 1.39236902050115  L 3.78132118451026 0.111047835990892  L 4.61275626423688 0.111047835990892  L 4.61275626423688 1.39236902050115  L 8.31435079726651 1.39236902050115  L 8.31435079726651 7.01594533029614  L 4.61275626423688 7.01594533029614  L 4.61275626423688 8.18906605922552  C 4.61275626423688 8.59624145785879  4.82630979498861 8.79840546697039  5.25341685649203 8.79840546697039  L 7.59396355353075 8.79840546697039  C 8.0495444191344 8.79840546697039  8.32574031890661 8.64749430523921  8.42539863325741 8.3485193621868  C 8.55597845903925 7.88422893403552  8.63335450154484 7.4065990420256  8.65603644646922 6.92482915717543  C 8.92775501794232 7.04227669051215  9.20525665036598 7.14586462864289  9.4874715261959 7.23519362186791  C 9.42169817870016 7.69714457901117  9.33140361850938 8.1552706633476  9.21697038724369 8.60763097949887  C 9.04802581624904 9.23405466970389  8.59434320425206 9.54726651480639  7.85592255125279 9.54726651480639  L 5.19077448747147 9.54726651480639  C 4.25113895216399 9.54726651480639  3.76708428246008 9.08883826879272  3.76708428246008 8.16628701594534  L 3.76708428246008 7.00455580865605  L 0.90831435079729 7.00455580865605  L 0.90831435079729 7.69646924829158  L 0.0797266514806714 7.69646924829158  Z M 0.90831435079729 2.13553530751709  L 0.908314350797257 3.84396355353075  L 3.77277904328015 3.84396355353075  L 3.77277904328015 2.13553530751709  L 0.90831435079729 2.13553530751709  Z M 0.90831435079729 4.55865603644647  L 0.908314350797257 6.26708428246013  L 3.77277904328015 6.26708428246013  L 3.77277904328015 4.55865603644647  L 0.90831435079729 4.55865603644647  Z M 7.47722095671985 3.84965831435079  L 7.47722095671985 2.14123006833713  L 4.60421412300684 2.14123006833713  L 4.60421412300684 3.84965831435079  L 7.47722095671985 3.84965831435079  Z M 4.60421412300684 6.26708428246013  L 7.47722095671985 6.26708428246013  L 7.47722095671985 4.55865603644647  L 4.60421412300684 4.55865603644647  L 4.60421412300684 6.26708428246013  Z M 11.8593394077449 8.32858769931663  C 12.2010250569477 8.11598329536828  12.6347760060745 7.80561883067579  13.1605922551253 7.39749430523919  C 13.1805239179955 7.75626423690205  13.2061503416857 8.05523917995445  13.2317767653759 8.28872437357632  C 12.4724753227031 8.78986332574032  11.8014426727411 9.27676537585421  11.2186788154898 9.74943052391801  L 10.748861047836 9.08029612756263  C 10.9863475292993 8.8419704625564  11.110680540218 8.51352409204623  11.0905466970388 8.17767653758541  L 11.0905466970388 4.24259681093395  L 9.83769931662875 4.24259681093395  L 9.83769931662875 3.52220956719818  L 11.8593394077449 3.52220956719818  L 11.8593394077449 8.32858769931663  Z M 10.247722095672 0.774487471526202  L 10.8599088838269 0.230637813211843  C 11.5859908883827 0.976651480637819  12.1127562642369 1.53189066059226  12.4402050113895 1.89066059225513  L 11.7397494305239 2.48291571753988  C 11.2773558573062 1.88383828412835  10.779101129122 1.3133176030015  10.247722095672 0.774487471526202  Z M 13.5734624145786 9.94020501138951  L 13.5734624145786 5.50398633257403  L 15.8058086560365 5.50398633257403  L 15.8058086560365 3.83257403189066  L 12.5825740318907 3.83257403189066  L 12.5825740318907 3.09225512528474  L 15.8058086560365 3.09225512528474  L 15.8058086560365 1.42653758542141  C 14.9819665907366 1.47399392558846  14.1068716780562 1.52239939255886  13.1805239179955 1.57175398633257  C 13.1292710706151 1.32403189066058  13.0694760820046 1.0763097949886  13.0011389521641 0.831435079726646  C 15.2107061503417 0.742217160212606  17.2361427486713 0.604593773728173  19.0774487471527 0.418564920273346  L 19.2568337129841 1.1503416856492  C 18.4576689445711 1.22627182991648  17.5740318906606 1.29935459377373  16.6059225512529 1.36958997722096  L 16.6059225512529 3.09225512528475  L 19.7095671981777 3.09225512528475  L 19.7095671981777 3.83257403189067  L 16.6059225512529 3.83257403189067  L 16.6059225512529 5.50398633257403  L 18.866742596811 5.50398633257403  L 18.866742596811 9.94020501138951  L 18.0865603644648 9.94020501138951  L 18.0865603644648 9.22835990888382  L 14.3536446469248 9.22835990888382  L 14.3536446469248 9.94020501138951  L 13.5734624145786 9.94020501138951  Z M 18.0865603644647 8.50512528473804  L 18.0865603644647 6.22722095671981  L 14.3536446469248 6.22722095671981  L 14.3536446469248 8.50512528473804  L 18.0865603644647 8.50512528473804  Z M 20.1480637813212 5.36446469248292  C 20.8334544265874 4.46142041754887  21.4656932605303 3.51924194471076  22.0415717539864 2.54271070615034  C 22.2549370723874 2.73737044984094  22.4782836281868 2.92079974885915  22.7107061503417 3.09225512528475  C 22.124145785877 3.95596051632499  21.5072133637054 4.89085041761581  20.8599088838269 5.89692482915718  L 20.1480637813212 5.36446469248292  Z M 20.5068337129841 0.629271070615037  L 21.0677676537586 0.119589977220958  C 21.620159453303 0.586560364464707  22.1402809415338 1.05068337129842  22.628132118451 1.5119589977221  L 22.0074031890661 2.10136674259681  C 21.5404328018224 1.6002277904328  21.0402429764617 1.10952923310556  20.5068337129841 0.629271070615037  Z M 21.5290432801823 10  L 21.5261958997722 6.07630979498863  L 28.5962414578588 6.07630979498863  L 28.5962414578588 9.98006833712985  L 27.8160592255126 9.98006833712985  L 27.8160592255126 9.43052391799545  L 22.3120728929385 9.43052391799545  L 22.3120728929385 10  L 21.5290432801823 10  Z M 25.746013667426 2.02164009111617  L 25.7431662870159 2.02164009111618  L 26.4436218678816 2.02164009111618  L 26.3923690205012 2.4117312072893  C 27.0282839787396 3.87148823082764  28.2564540622628 4.77600607441155  30.0768792710707 5.12528473804101  C 29.9088838268793 5.37870159453304  29.749430523918 5.63496583143508  29.5956719817768 5.89692482915718  C 27.8872437357631 5.36731207289296  26.7397494305239 4.50265755504937  26.1531890660592 3.30296127562643  C 25.6102885345483 4.55201214882309  24.4333712984055 5.4195140470767  22.622437357631 5.90546697038724  C 22.4838953084992 5.64953248191226  22.3298499406318 5.40229917545857  22.1611617312073 5.16514806378133  C 24.3422551252848 4.7171602126044  25.537205770691 3.66932422171602  25.746013667426 2.02164009111617  Z M 27.8160592255126 8.72722095671983  L 27.8132118451025 6.77676537585421  L 22.3120728929385 6.77676537585421  L 22.3120728929385 8.72722095671983  L 27.8160592255126 8.72722095671983  Z M 23.4738041002278 3.36560364464693  C 23.2589769522733 3.17436563609748  23.0252353760863 3.00549927289294  22.7761958997722 2.8616173120729  C 23.5305023086834 2.08817216002879  24.0719519673147 1.13278816092199  24.3479498861048 0.0882687927107051  L 25.1594533029613 0.0882687927107051  C 25.0512528473804 0.455580865603646  24.9316628701595 0.805808656036447  24.7978359908884 1.14179954441914  L 29.4817767653759 1.14179954441914  L 29.4817767653759 1.83086560364464  C 29.2217160212605 2.25227790432802  28.9455201214883 2.71640091116173  28.6531890660593 3.22323462414577  C 28.4036177473551 3.11778989215731  28.1454570720279 3.03395911935732  27.8815489749431 2.97266514806377  C 28.1406605922551 2.59111617312072  28.3798405466971 2.2124145785877  28.5933940774488 1.83371298405466  L 24.4846241457859 1.83371298405465  C 24.2132024879147 2.38468019111322  23.8736004697393 2.89934465809456  23.4738041002278 3.36560364464693  Z M 32.2807517084283 8.35421412300683  C 32.6623006833713 8.10364464692483  33.0466970387244 7.83883826879272  33.4339407744875 7.55694760820047  C 33.4538724373577 7.90432801822325  33.4766514806378 8.19191343963554  33.5022779043281 8.41116173120729  C 32.8577493290656 8.82111626845009  32.2360944060186 9.26597025008011  31.6400911161732 9.74373576309795  L 31.1702733485194 9.07460136674259  C 31.4069418637784 8.85581087986829  31.532449655755 8.54204139992685  31.5119589977221 8.22038724373577  L 31.5119589977221 4.23405466970387  L 30.3388382687927 4.23405466970387  L 30.3388382687927 3.51366742596811  L 32.2807517084283 3.51366742596811  L 32.2807517084283 8.35421412300683  Z M 30.748861047836 0.771640091116183  L 31.3411161731207 0.25056947608201  C 32.0671981776765 0.996583143507979  32.5939635535307 1.55182232346242  32.9214123006834 1.9105922551253  L 32.2408883826879 2.48006833712985  C 31.7784948094701 1.88099090371832  31.280240081286 1.31047022259149  30.748861047836 0.771640091116183  Z M 33.3940774487472 3.78701594533031  C 33.18683214806 3.62463718301513  32.9689998264277 3.47624485910837  32.742027334852 3.34282460136676  C 33.5967545879383 2.33883288554796  34.2955419263154 1.21194231514309  34.8149202733485 0  L 35.5751708428246 0.284738041002275  C 35.3986332574032 0.64350797266515  35.2192482915718 0.988041002277904  35.0398633257403 1.31548974943053  L 39.9202733485194 1.31548974943053  C 39.8405466970387 4.36408504176158  39.7731586940015 6.57270311313591  39.7181093394077 7.94134396355353  C 39.6668564920273 9.14293849658314  39.1467350037965 9.74373576309793  38.1577448747152 9.74373576309793  C 37.5522019741837 9.74373576309793  37.0083523158694 9.7266514806378  36.5261958997722 9.69248291571754  C 36.4863325740319 9.42862566438876  36.4293849658314 9.13534548215642  36.3553530751708 8.81264236902051  C 36.8881180749095 8.90095008404843  37.4269556150495 8.94759856367188  37.9669703872437 8.95216400911162  C 38.5687167805618 8.95216400911162  38.8923690205011 8.56586940015185  38.9379271070615 7.79328018223235  C 39.006264236902 6.28986332574032  39.0632118451025 4.37072892938496  39.1087699316628 2.03587699316629  L 34.6241457858771 2.03587699316629  C 34.2557990449993 2.64778091495693  33.8447565930561 3.23294551668158  33.3940774487472 3.78701594533031  Z M 33.992027334852 8.36845102505694  L 33.992027334852 3.22323462414579  L 37.6566059225513 3.22323462414579  L 37.6566059225513 7.77904328018224  L 34.7152619589977 7.77904328018224  L 34.7152619589977 8.36845102505694  L 33.992027334852 8.36845102505694  Z M 36.9362186788155 5.15375854214123  L 36.9362186788155 3.90375854214123  L 34.7152619589978 3.90375854214123  L 34.7152619589978 5.15375854214123  L 36.9362186788155 5.15375854214123  Z M 34.7152619589978 7.10706150341684  L 36.9362186788155 7.10706150341684  L 36.9362186788155 5.81435079726651  L 34.7152619589978 5.81435079726651  L 34.7152619589978 7.10706150341684  Z " fill-rule="nonzero" fill="#000000" stroke="none" transform="matrix(1 0 0 1 320 73 )" />
  </g>
</svg>