<?xml version="1.0" encoding="utf-8"?>
<svg version="1.1" xmlns:xlink="http://www.w3.org/1999/xlink" width="30px" height="30px" xmlns="http://www.w3.org/2000/svg">
  <g transform="matrix(1 0 0 1 -30 -460 )">
    <path d="M 23.7982906089744 25  L 26.8765811858974 21.1753846153846  L 26.5579487179487 20.0075213782051  L 29.213675224359 20.0075213782051  C 27.0899145512821 25.6348717948718  21.5145299358974 29.8290598397436  15.0899145192308 29.8290598397436  C 6.86153846153846 29.8290598397436  0.118290576923078 23.2458119871795  0.11829060897436 15.0174358974359  C 0.11829060897436 6.78769230769231  6.86017096153846 0.204444455128209  15.3032478525641 0.0977777884615413  C 22.0451282051282 0.0977777884615413  27.7258119551282 4.55726496794872  29.6376068269231 10.7165811858974  L 23.0010256410256 10.7165811858974  L 19.3907692307692 1.74427349358975  L 14.9846153846154 11.9911111217949  L 10.7904273397436 1.74427349358975  L 2.87931625 20.9634188141026  L 6.06564102564103 25  L 23.7982906089744 25  Z M 29.7442734935897 12.3097435897436  L 23.426324775641 12.3097435897436  L 23.214358974359 11.5658119551282  L 29.6376068269231 11.5658119551282  C 29.6376068269231 11.8844444230769  29.7442734935897 11.9897435897436  29.7442734935897 12.3097435897436  Z M 13.6020512820513 20.8567521474359  L 13.6034188141026 20.8567521474359  L 17.6389743589744 10.7165811858974  L 21.8331624038462 21.1234188141026  L 5.16307692307692 20.9100854807692  L 9.3025641025641 10.7165811858974  L 13.6020512820513 20.8567521474359  Z M 29.8495726602564 13.7429059935897  L 23.8502564102564 13.7429059935897  L 23.5316239423077 12.9989743589744  L 29.7442734935897 12.9989743589744  C 29.8495726282051 13.3709401602564  29.8495726282051 13.4776068269231  29.8495726602564 13.7429059935897  Z M 29.8495726602564 16.5558974358974  L 25.0194871794872 16.5558974358974  L 24.7008547115385 15.8133333333333  L 29.8495726602564 15.8133333333333  L 29.8495726602564 16.5558974358974  Z M 24.0635897435897 14.4854700961538  L 29.8495726602564 14.4854700961538  L 29.8495726602564 15.229401698718  L 24.3822222115385 15.229401698718  L 24.0635897435897 14.4854700961538  Z M 26.1326495833333 19.3169230769231  L 26.1340170833333 19.3169230769231  L 25.8153846153846 18.574358974359  L 29.425641025641 18.574358974359  C 29.425641025641 18.8929914423077  29.3189743589744 18.9982906089744  29.3189743589744 19.3169230769231  L 26.1326495833333 19.3169230769231  Z M 29.5309401602564 17.8304273397436  L 25.5500854807692 17.8304273397436  L 25.2314529807692 17.0878632371795  L 29.6376068269231 17.0878632371795  C 29.6376068269231 17.4064957051282  29.5309401602564 17.5117948717949  29.5309401602564 17.8304273397436  Z " fill-rule="nonzero" fill="#e50012" stroke="none" transform="matrix(1 0 0 1 30 460 )" />
  </g>
</svg>