<?xml version="1.0" encoding="utf-8"?>
<svg version="1.1" xmlns:xlink="http://www.w3.org/1999/xlink" width="30px" height="30px" xmlns="http://www.w3.org/2000/svg">
  <defs>
    <linearGradient gradientUnits="userSpaceOnUse" x1="0" y1="0" x2="30" y2="30" id="LinearGradient231">
      <stop id="Stop232" stop-color="#ffb423" offset="0" />
      <stop id="Stop233" stop-color="#ff9a23" offset="1" />
    </linearGradient>
  </defs>
  <g transform="matrix(1 0 0 1 -30 -530 )">
    <path d="M 30 15  C 30 6.70312500000001  23.296875 0  15 0  C 6.70312500000001 0  0 6.70312500000001  0 15  C 0 23.296875  6.70312500000001 30  15 30  C 23.296875 30  30 23.296875  30 15  Z M 28.59375 15  C 28.59375 22.5  22.5 28.59375  15 28.59375  C 7.5 28.59375  1.40625 22.5  1.40625 15  C 1.40625 7.5  7.5 1.40625  15 1.40625  C 22.5 1.40625  28.59375 7.5  28.59375 15  Z M 27.1875 15  C 27.1875 8.25000000000001  21.75 2.8125  15 2.8125  C 8.25000000000001 2.8125  2.8125 8.25000000000001  2.8125 15  C 2.8125 21.75  8.25000000000001 27.1875  15 27.1875  C 21.75 27.1875  27.1875 21.75  27.1875 15  Z M 20.296875 6.796875  C 21.890625 6.46875000000001  21.140625 7.82812499999999  21.140625 7.82812499999999  L 15.9375 13.59375  L 15.9375 14.4375  L 20.34375 14.4375  C 20.765625 14.4375  21.09375 14.765625  21.09375 15.1875  C 21.09375 15.609375  20.71875 15.9375  20.296875 15.9375  L 15.9375 15.9375  L 15.9375 17.53125  L 20.34375 17.53125  C 20.765625 17.53125  21.09375 17.859375  21.09375 18.28125  C 21.09375 18.703125  20.765625 19.03125  20.34375 19.03125  L 15.9375 19.03125  L 15.9375 22.6875  L 15.9375 22.21875  C 15.9375 22.78125  15.46875 23.203125  14.953125 23.203125  C 14.390625 23.203125  13.96875 22.734375  13.96875 22.21875  L 13.96875 22.6875  L 13.96875 19.03125  L 9.65625000000001 19.03125  C 9.23437499999999 19.03125  8.90625 18.703125  8.90625 18.28125  C 8.90625 17.859375  9.23437499999999 17.53125  9.65625000000001 17.53125  L 13.96875 17.53125  L 13.96875 15.9375  L 9.65625000000001 15.9375  C 9.23437499999999 15.9375  8.90625 15.609375  8.90625 15.1875  C 8.90625 14.765625  9.23437499999999 14.4375  9.65625000000001 14.4375  L 13.96875 14.4375  L 13.96875 13.59375  L 8.81250000000001 7.82812499999999  C 8.81250000000001 7.82812499999999  8.25000000000001 6.28125  9.98437500000001 6.796875  C 10.59375 6.984375  11.0625 7.82812499999999  11.0625 7.82812499999999  L 15.046875 12.09375  L 19.125 7.82812499999999  C 19.125 7.82812499999999  19.59375 6.93749999999999  20.296875 6.796875  Z " fill-rule="nonzero" fill="url(#LinearGradient231)" stroke="none" transform="matrix(1 0 0 1 30 530 )" />
  </g>
</svg>