<?xml version="1.0" encoding="utf-8"?>
<svg version="1.1" xmlns:xlink="http://www.w3.org/1999/xlink" width="13px" height="13px" viewBox="15 461.5  13 13" xmlns="http://www.w3.org/2000/svg">
  <path d="M 15.5 464.5  A 2.5 2.5 0 0 1 18 462 L 25 462  A 2.5 2.5 0 0 1 27.5 464.5 L 27.5 471.5  A 2.5 2.5 0 0 1 25 474 L 18 474  A 2.5 2.5 0 0 1 15.5 471.5 L 15.5 464.5  Z " fill-rule="nonzero" fill="#ffffff" stroke="none" />
  <path d="M 15.5 464.5  A 2.5 2.5 0 0 1 18 462 L 25 462  A 2.5 2.5 0 0 1 27.5 464.5 L 27.5 471.5  A 2.5 2.5 0 0 1 25 474 L 18 474  A 2.5 2.5 0 0 1 15.5 471.5 L 15.5 464.5  Z " stroke-width="1" stroke="#cccccc" fill="none" />
</svg>