<?xml version="1.0" encoding="utf-8"?>
<svg version="1.1" xmlns:xlink="http://www.w3.org/1999/xlink" width="18px" height="18px" xmlns="http://www.w3.org/2000/svg">
  <g transform="matrix(1 0 0 1 -341 -459 )">
    <path d="M 18 9  C 18 4.037625  13.962375 0  9 0  C 4.037175 0  0 4.037625  0 9  C 0 13.962375  4.037625 18  9 18  C 13.962375 18  18 13.962375  18 9  Z M 16.56 9  C 16.56 13.168575  13.168575 16.56  9 16.56  C 4.8312 16.56  1.44 13.1688  1.44 9  C 1.44 4.8312  4.831425 1.44  9 1.44  C 13.168575 1.44  16.56 4.831425  16.56 9  Z M 12.6054 11.779875  C 12.8162496886528 11.4429697414923  12.7142303754867 10.9989389895186  12.377475 10.78785  C 12.040593432621 10.5766110088601  11.5962547493337 10.6784533141885  11.385 11.015325  C 10.3455 12.6729  9.189 12.668175  8.297775 12.477825  C 7.27425 12.260475  6.655275 11.0862  6.64605 11.069325  C 6.51887624080283 10.8413928821451  6.27830580321162 10.7001357344361  6.01729581225695 10.7001357344361  C 5.61965079237878 10.7001357344361  5.29729581225695 11.0224907145579  5.29729581225695 11.4201357344361  C 5.29729581225695 11.5243076323339  5.31990063420944 11.6272389694367  5.36355 11.721825  C 5.40045 11.79495  6.2928 13.523625  7.998975 13.886325  C 8.33336219871053 13.9591285455595  8.67443488337565 13.996832799889  9.01665 13.998825  C 10.4751 13.998825  11.679075 13.256325  12.6054 11.779875  Z M 5.04 6.630075  C 5.04 7.22655  5.523525 8.070075  6.12 8.070075  C 6.716475 8.070075  7.2 7.22655  7.2 6.630075  C 7.2 6.0336  6.716475 5.190075  6.12 5.190075  C 5.523525 5.190075  5.04 6.0336  5.04 6.630075  Z M 12.96 6.6303  C 12.96 6.033825  12.476475 5.1903  11.88 5.1903  C 11.283525 5.1903  10.8 6.033825  10.8 6.6303  C 10.8 7.226775  11.283525 8.0703  11.88 8.0703  C 12.476475 8.0703  12.96 7.226775  12.96 6.6303  Z " fill-rule="nonzero" fill="#333333" stroke="none" transform="matrix(1 0 0 1 341 459 )" />
  </g>
</svg>