<?xml version="1.0" encoding="utf-8"?>
<svg version="1.1" xmlns:xlink="http://www.w3.org/1999/xlink" width="16px" height="16px" xmlns="http://www.w3.org/2000/svg">
  <g transform="matrix(1 0 0 1 -257 -460 )">
    <path d="M 2.66666666666667 0  L 13.3333333333333 0  C 14.8060926662154 0  16 1.19390733378455  16 2.66666666666667  L 16 13.3333333333333  C 16 14.8060926662154  14.8060926662154 16  13.3333333333333 16  L 2.66666666666667 16  C 1.19390733378455 16  0 14.8060926662154  0 13.3333333333333  L 0 2.66666666666667  C 0 1.19390733378455  1.19390733378455 0  2.66666666666667 0  Z M 10.018 8.718  C 9.94689664825901 8.66354855773536  9.85307965459704 8.64874855071382  9.76866666666667 8.67866666666667  L 9.734 8.69933333333333  L 7.28 11.198  C 6.72201410791226 11.6991801510251  5.88857358865012 11.7390137052546  5.28533333333333 11.2933333333333  L 5.24466666666666 11.2606666666667  L 4.33266666666666 10.6906666666667  L 4.248 10.6273333333333  C 4.18609224722791 10.5753621265942  4.10395298552082 10.554275629559  4.02466666666666 10.57  L 3.99266666666666 10.5833333333333  L 1.33333333333333 12.542  L 1.33333333333333 13.3333333333333  C 1.3331125216803 14.0310831757778  1.87088197562936 14.6110021274689  2.56666666666667 14.6633333333333  L 2.66666666666667 14.6666666666667  L 13.3333333333333 14.6666666666667  C 14.0310831757778 14.6668874783197  14.6110021274689 14.1291180243706  14.6633333333333 13.4333333333333  L 14.6666666666667 13.3333333333333  L 14.6666666666667 12.96  L 10.018 8.718  Z M 13.4333333333333 1.33666666666667  L 13.3333333333333 1.33333333333333  L 2.66666666666667 1.33333333333333  C 1.96891682422216 1.3331125216803  1.38899787253115 1.87088197562936  1.33666666666667 2.56666666666667  L 1.33333333333333 2.66666666666667  L 1.33333333333333 10.8866666666667  L 3.23733333333333 9.48533333333333  C 3.78970562484477 9.13261411907643  4.50236988039882 9.15700590163259  5.02933333333333 9.54666666666667  L 5.07266666666667 9.58066666666666  L 5.98066666666667 10.148  L 6.06533333333333 10.2113333333333  C 6.142 10.278  6.25866666666667 10.2866666666667  6.32666666666667 10.2553333333333  L 6.35733333333333 10.236  L 8.81133333333333 7.738  C 9.35133333333333 7.25  10.158 7.20066666666666  10.7813333333333 7.62866666666666  L 10.8833333333333 7.70466666666666  L 14.6666666666667 11.1566666666667  L 14.6666666666667 2.66666666666667  C 14.6668874783197 1.96891682422216  14.1291180243706 1.38899787253115  13.4333333333333 1.33666666666667  Z M 4.33333333333333 3.33333333333333  C 5.25380791638465 3.33333333333333  6 4.07952541694868  6 5  C 6 5.92047458305132  5.25380791638465 6.66666666666667  4.33333333333333 6.66666666666667  C 3.41285875028201 6.66666666666667  2.66666666666667 5.92047458305132  2.66666666666667 5  C 2.66666666666667 4.07952541694868  3.41285875028201 3.33333333333333  4.33333333333333 3.33333333333333  Z M 4.33333333333333 4.66666666666667  C 4.14923841672307 4.66666666666667  4 4.81590508338974  4 5  C 4 5.18409491661026  4.14923841672307 5.33333333333333  4.33333333333333 5.33333333333333  C 4.5174282499436 5.33333333333333  4.66666666666667 5.18409491661026  4.66666666666667 5  C 4.66666666666667 4.81590508338974  4.5174282499436 4.66666666666667  4.33333333333333 4.66666666666667  Z " fill-rule="nonzero" fill="#333333" stroke="none" transform="matrix(1 0 0 1 257 460 )" />
  </g>
</svg>