<?xml version="1.0" encoding="utf-8"?>
<svg version="1.1" xmlns:xlink="http://www.w3.org/1999/xlink" width="18px" height="18px" xmlns="http://www.w3.org/2000/svg">
  <g transform="matrix(1 0 0 1 -298 -459 )">
    <path d="M 9.163469390625 0.00018045394736607  C 3.81710203794643 0.00018045394736607  0.0716326473214311 3.59476691447368  0.0716326473214286 9.04222557236842  C 0.0716326473214286 14.6163609078947  3.91151018973214 17.9998195657895  9.198 17.9998195460526  C 10.618530609375 17.9998195460526  11.9876326473214 17.8052932302632  12.83106121875 17.5346165328947  C 13.4254285714286 17.3487518684211  13.6146122477679 17.0441503618421  13.6146122477679 16.7312481118421  C 13.6146122477679 16.4183458618421  13.3648163236607 16.1812330657895  13.0378775424107 16.1812330855263  C 12.9431020379464 16.1812330855263  12.8053469330357 16.1981955  12.6334285714286 16.2404210526316  C 11.5828163236607 16.4944962434211  10.687591828125 16.6633984934211  9.47351020982143 16.6633984934211  C 4.75530613392857 16.6633984934211  1.552408171875 13.8721804539474  1.552408171875 9.09311277631579  C 1.552408171875 4.51687217763158  4.58302041964286 1.32793983552632  9.14620407589286 1.32793985526316  C 13.1844489709821 1.32793985526316  16.5592652946429 3.77269174342105  16.5592653147321 8.16270676973684  C 16.5592653147321 10.7254736842105  15.6724898102679 12.4513082763158  14.260408171875 12.4513082763158  C 13.3133877723214 12.4513082763158  12.7711836763393 11.9099549013158  12.7711836763393 10.9878496184211  L 12.7711836763393 5.25311277631579  C 12.7711836763393 4.79621052631579  12.51293878125 4.51687217763158  12.082408171875 4.51687217763158  C 11.6518775625 4.51687217763158  11.3763673526786 4.79621052631579  11.3763673526786 5.25311277631579  L 11.3763673526786 6.21708270394737  L 11.2988571428571 6.21708270394737  C 10.8595102098214 5.17660150657894  9.78355102901786 4.51723308552631  8.50922449553572 4.51723308552631  C 6.27942857142857 4.51723308552631  4.71232653348215 6.3863458618421  4.71232653348215 9.06748873026315  C 4.71232653348215 11.7742556447368  6.27061224776786 13.660691743421  8.54375510491072 13.6606917236842  C 9.8698775625 13.6606917236842  10.9028571428571 12.9500751907895  11.4020816383929 11.7489924868421  L 11.4792244955357 11.7489924868421  C 11.6518775625 12.9417744473684  12.6675918482143 13.6689924868421  14.0366938861607 13.6689924868421  C 16.4387755245536 13.6689924868421  17.9283673526786 11.3516391118421  17.9283673526786 8.10351880263158  C 17.9283673526786 3.18875188815789  14.2431428571429 0.00018045394736607  9.163469390625 0.00018045394736607  Z M 11.3591020379464 9.02562406578948  C 11.3591020379464 11.0300751907895  10.3430203995536 12.3242706907895  8.77628571428571 12.3242706710526  C 7.22608163839286 12.3242706710526  6.25334693303572 11.064  6.25334693303572 9.05918796710526  C 6.25334693303572 7.08866165131579  7.23489796205357 5.82803007236842  8.78473468526786 5.82803007236842  C 10.3602857142857 5.82803007236842  11.3591020379464 7.06303758552632  11.3591020379464 9.02562406578948  Z " fill-rule="nonzero" fill="#333333" stroke="none" transform="matrix(1 0 0 1 298 459 )" />
  </g>
</svg>