<?xml version="1.0" encoding="utf-8"?>
<svg version="1.1" xmlns:xlink="http://www.w3.org/1999/xlink" width="20px" height="20px" xmlns="http://www.w3.org/2000/svg">
  <g transform="matrix(1 0 0 1 -50 -371 )">
    <path d="M 3.25090909090909 10.3258181818182  L 3.20436363636364 10.3258181818182  L 3.25090909090909 10.3258181818182  Z M 19.8210909090909 9.95345454545455  C 19.8676363636364 7.20727272727273  18.7505454545455 4.74036363636364  16.9352727272727 2.97163636363636  C 15.12 1.15636363636364  12.6530909090909 0.0858181818181817  9.95345454545454 0.0858181818181817  C 7.25381818181818 0.0858181818181817  4.74036363636364 1.20290909090909  2.97163636363636 2.97163636363636  C 1.20290909090909 4.74036363636364  0.0858181818181821 7.20727272727273  0.0858181818181821 9.95345454545454  C 0.0858181818181821 12.6530909090909  1.20290909090909 15.1665454545455  2.97163636363636 16.9352727272727  C 4.74036363636364 18.7505454545455  7.25381818181818 19.8210909090909  9.95345454545454 19.8210909090909  C 12.6996363636364 19.8210909090909  15.1665454545455 18.704  16.9352727272727 16.9352727272727  C 18.7505454545455 15.1665454545455  19.8210909090909 12.6996363636364  19.8210909090909 9.95345454545455  Z M 18.3316363636364 9.95345454545454  C 18.3316363636364 12.2807272727273  17.4007272727273 14.3752727272727  15.8647272727273 15.8647272727273  C 14.3752727272727 17.3541818181818  12.2807272727273 18.3316363636364  9.95345454545454 18.3316363636364  C 7.62618181818182 18.3316363636364  5.53163636363636 17.4007272727273  4.04218181818182 15.8647272727273  C 2.55272727272727 14.3752727272727  1.57527272727273 12.2807272727273  1.57527272727273 9.95345454545454  C 1.57527272727273 7.62618181818182  2.50618181818182 5.53163636363636  4.04218181818182 4.04218181818182  C 5.57818181818182 2.55272727272727  7.67272727272727 1.57527272727273  9.95345454545454 1.57527272727273  C 12.2341818181818 1.57527272727273  14.3287272727273 2.50618181818182  15.8181818181818 3.99563636363636  L 15.8647272727273 4.04218181818182  C 17.3541818181818 5.53163636363636  18.3316363636364 7.62618181818182  18.3316363636364 9.95345454545454  Z M 12.8392727272727 5.34545454545455  C 13.3047272727273 4.88  14.096 4.88  14.5614545454545 5.34545454545455  C 15.0269090909091 5.81090909090909  15.0269090909091 6.60218181818182  14.5614545454545 7.02109090909091  L 11.7221818181818 9.90690909090909  L 14.5614545454545 12.7927272727273  C 15.0269090909091 13.2581818181818  15.0269090909091 14.0494545454545  14.5614545454545 14.5149090909091  C 14.096 15.0269090909091  13.3047272727273 15.0269090909091  12.8392727272727 14.5149090909091  L 10 11.6756363636364  L 7.11418181818182 14.5149090909091  C 6.64872727272727 15.0269090909091  5.85745454545455 15.0269090909091  5.392 14.5149090909091  C 4.88 14.0494545454545  4.88 13.3047272727273  5.392 12.7927272727273  L 8.27781818181818 9.90690909090909  L 5.392 7.02109090909091  C 4.88 6.55563636363636  4.88 5.81090909090909  5.392 5.34545454545455  C 5.85745454545455 4.88  6.64872727272727 4.88  7.11418181818182 5.34545454545455  L 10 8.23127272727273  L 12.8392727272727 5.34545454545455  Z " fill-rule="nonzero" fill="#333333" stroke="none" transform="matrix(1 0 0 1 50 371 )" />
  </g>
</svg>