<?xml version="1.0" encoding="utf-8"?>
<svg version="1.1" xmlns:xlink="http://www.w3.org/1999/xlink" width="19px" height="19px" xmlns="http://www.w3.org/2000/svg">
  <g transform="matrix(1 0 0 1 -50 -431 )">
    <path d="M 17.4477046568627 16.2058823529412  L 17.4477046568627 9.99672426470588  C 17.4477046568627 9.58521798051823  17.7812964118908 9.2516262254902  18.1928026960784 9.2516262254902  C 18.6043089802661 9.2516262254902  18.9379007352941 9.58521798051823  18.9379007352941 9.99672426470588  L 18.9379007352941 16.2058823529412  C 18.9379007352941 17.7147058823529  17.7147058823529 18.9379007352941  16.2058823529412 19  L 2.79411764705882 19  C 1.28529411764706 18.9379007352941  0.0620992647058824 17.7147058823529  0 16.2058823529412  L 0 3.53921568627451  C 0.0620992647058824 2.03039215686274  1.28529411764706 0.807197303921569  2.79411764705882 0.807197303921569  L 9.2516262254902 0.807197303921569  C 9.66313250967785 0.807197303921569  9.99672426470588 1.14078905894961  9.99672426470588 1.55229534313725  C 9.99672426470588 1.96380162732491  9.66313250967785 2.29739338235294  9.2516262254902 2.29739338235294  L 2.79411764705882 2.29739338235294  C 2.1082781266032 2.29739338235294  1.55229534313725 2.85337616581889  1.55229534313725 3.53921568627451  L 1.55229534313725 16.2058823529412  C 1.55229534313726 16.8917218733968  2.1082781266032 17.4477046568627  2.79411764705882 17.4477046568627  L 16.2058823529412 17.4477046568627  C 16.8917218733968 17.4477046568627  17.4477046568627 16.8917218733968  17.4477046568627 16.2058823529412  Z M 16.4684129901961 3.53921568627451  L 14.3776678921569 1.31782230392157  C 14.2476112494356 1.17960543045392  14.1751948608516 0.996971421048923  14.1751948608516 0.807185661764706  C 14.1751948608516 0.395651293934715  14.50880938217 0.0620367726163546  14.92034375 0.0620367726163546  C 15.125833283083 0.0620367726163546  15.3222014616981 0.146895426523825  15.4630196078431 0.296549019607843  L 18.7354901960784 3.77366544117647  C 19.1830379901961 4.24903799019608  18.8457647058824 5.02941176470588  18.1928026960784 5.02941176470588  L 14.4526666666667 5.02941176470588  C 12.5509203431373 5.02941176470588  10.9901960784314 6.68748774509804  10.9901960784314 8.75490196078431  L 10.9901960784314 13.2254901960784  C 10.9901960784314 13.6369964802661  10.6566043234033 13.9705882352941  10.2450980392157 13.9705882352941  C 9.83359175502804 13.9705882352941  9.5 13.6369964802661  9.5 13.2254901960784  L 9.5 8.75490196078431  C 9.5 5.88403921568627  11.7069803921569 3.53921568627451  14.4526666666667 3.53921568627451  L 16.4683897058823 3.53921568627451  Z " fill-rule="nonzero" fill="#333333" stroke="none" transform="matrix(1 0 0 1 50 431 )" />
  </g>
</svg>