<?xml version="1.0" encoding="utf-8"?>
<svg version="1.1" xmlns:xlink="http://www.w3.org/1999/xlink" width="20px" height="18px" xmlns="http://www.w3.org/2000/svg">
  <g transform="matrix(1 0 0 1 -252 -106 )">
    <path d="M 20 4.43897993316832  C 19.912708539823 3.26255669554455  18.9613030752212 2.30455730940594  17.7967827654867 2.30455730940594  L 10.0295084292035 2.30455730940594  C 10.0295084292035 1.12813407178218  9.07810294247788 0.170134685643564  7.90977701327434 0.170134685643564  L 6.49789128318584 0.170134685643564  C 5.3295653539823 0.170134685643564  4.37815986725664 1.12813407178218  4.37815986725664 2.30455730940594  L 2.26603973451327 2.30455730940594  C 1.09771380530973 2.30455730940594  0.146308318584071 3.26255669554455  0.146308318584071 4.43897993316832  L 0.146308318584071 15.8123485470297  C 0.146308318584071 16.9887717846535  1.09771380530973 17.9467711707921  2.26603973451327 18  L 17.7967827654867 18  C 18.9651086946903 17.9467711707921  19.9165141814159 16.9887717846535  20 15.8123485470297  L 20 4.43897993316832  Z M 14.265165619469 10.125664240099  C 14.265165619469 12.4785107153465  12.3661602876106 14.390677470297  10.0295084292035 14.390677470297  C 7.69285657079646 14.390677470297  5.79385123893805 12.4785107153465  5.79385123893805 10.125664240099  C 5.79385123893805 7.77281776485149  7.69285657079646 5.86065100990099  10.0295084292035 5.86065100990099  C 12.3661602876106 5.86065100990099  14.265165619469 7.77281776485149  14.265165619469 10.125664240099  Z M 17.7929771460177 6.21702677227723  C 17.7929771460177 6.80332239356436  17.3210800221239 7.28232208663366  16.7350142477876 7.28232208663366  C 16.1489484734513 7.28232208663366  15.6770513495575 6.80332239356436  15.6770513495575 6.21702677227723  C 15.6770513495575 5.6307311509901  16.1527540929204 5.15173145792079  16.7350142477876 5.15173145792079  C 17.3210800221239 5.15173145792079  17.7929771460177 5.6307311509901  17.7929771460177 6.21702677227723  Z " fill-rule="nonzero" fill="#c280ff" stroke="none" transform="matrix(1 0 0 1 252 106 )" />
  </g>
</svg>