<?xml version="1.0" encoding="utf-8"?>
<svg version="1.1" xmlns:xlink="http://www.w3.org/1999/xlink" width="18px" height="18px" xmlns="http://www.w3.org/2000/svg">
  <g transform="matrix(1 0 0 1 -332 -234 )">
    <path d="M 0.638709677419352 8.41935483870968  L 1.93958415798953 8.41935380419737  C 2.21941057865825 4.97013333742221  4.97013776451783 2.21940771917843  8.41935483870968 1.9395837427206  L 8.41935483870968 0.638709677419352  C 8.41935483870968 0.318028209775667  8.67931853235632 0.058064516129029  9 0.058064516129029  C 9.32068146764368 0.058064516129029  9.58064516129032 0.318028209775667  9.58064516129032 0.638709677419352  L 9.58064499511709 1.93958405998684  C 13.0298660242199 2.21940992900228  15.7805922483553 4.97013714950054  16.0604162572794 8.41935483870968  L 17.3612903225806 8.41935483870968  C 17.6819717902243 8.41935483870968  17.941935483871 8.67931853235632  17.941935483871 9  C 17.941935483871 9.32068146764368  17.6819717902243 9.58064516129032  17.3612903225806 9.58064516129032  L 16.0604162572238 9.58064107774192  C 15.7805922808216 13.0298622354822  13.0298666625778 15.7805894213418  9.58064516129032 16.060403090067  L 9.58064516129032 17.3612903225806  C 9.58064516129032 17.6819717902243  9.32068146764368 17.941935483871  9 17.941935483871  C 8.67931853235632 17.941935483871  8.41935483870968 17.6819717902243  8.41935483870968 17.3612903225806  L 8.41935382965464 16.0604158440758  C 4.97013505697692 15.7805895732814  2.21941044094163 13.0298649650435  1.93959690993279 9.58064516129032  L 0.638709677419352 9.58064516129032  C 0.318028209775667 9.58064516129032  0.058064516129029 9.32068146764368  0.058064516129029 9  C 0.058064516129029 8.67931853235632  0.318028209775667 8.41935483870968  0.638709677419352 8.41935483870968  Z M 9 14.9225806451613  C 12.2709509699656 14.9225806451613  14.9225806451613 12.2709509699656  14.9225806451613 9  C 14.9225806451613 5.7290490300344  12.2709509699656 3.07741935483871  9 3.07741935483871  C 5.7290490300344 3.07741935483871  3.07741935483872 5.7290490300344  3.07741935483872 9  C 3.07741935483872 12.2709509699656  5.7290490300344 14.9225806451613  9 14.9225806451613  Z M 9 12.7161290322581  C 6.94763860708041 12.7161290322581  5.28387096774193 11.0523613929196  5.28387096774193 9  C 5.28387096774193 6.94763860708041  6.94763860708041 5.28387096774193  9 5.28387096774193  C 11.0523613929196 5.28387096774193  12.7161290322581 6.94763860708041  12.7161290322581 9  C 12.7161290322581 11.0523613929196  11.0523613929196 12.7161290322581  9 12.7161290322581  Z " fill-rule="nonzero" fill="#3478f6" stroke="none" transform="matrix(1 0 0 1 332 234 )" />
  </g>
</svg>