<?xml version="1.0" encoding="utf-8"?>
<svg version="1.1" xmlns:xlink="http://www.w3.org/1999/xlink" width="16px" height="16px" xmlns="http://www.w3.org/2000/svg">
  <g transform="matrix(1 0 0 1 -125 -59 )">
    <path d="M 0.318545502476196 6.3961491049882  C 0.315280026276868 5.53277080403503  0.475288360044255 4.71606160043067  0.79857050377836 3.94935500112865  C 1.11858717131312 3.18598190878007  1.56595741062193 2.51261350417568  2.13415026930611 1.93591680122237  C 2.7023431279903 1.35922009826913  3.36196932025583 0.905863152594899  4.10649789370407 0.575845964199667  C 4.85429194335163 0.249162282757879  5.65106813598921 0.0824869350835797  6.50335742401548 0.0824869350835797  C 7.35238123584242 0.0824869350835797  8.23405980966271 0.245828775804436  8.98185385931026 0.575845964199667  C 9.72964790895783 0.90252964564138  10.386008625024 1.35588659131561  10.9542014837082 1.93591680122237  C 11.5223943423924 2.51261350417568  11.9664991055019 3.18598190878007  12.289781249236 3.94935500112865  C 12.6097979167707 4.71272809347715  12.7730717267375 5.52943729708151  12.7730717267375 6.39948261194165  C 12.7730717267375 7.14285466256933  12.6522491073621 7.93289581054569  12.4106038686113 8.60626421515015  C 12.1689586298606 9.27963261975454  11.8358800575285 9.88299737833571  11.411368151615 10.4130249839402  C 11.411368151615 10.4130249839402  15.542195543773 14.6599128426828  15.542195543773 14.6599128426828  C 15.6173014963577 14.7299164887061  15.6728145917464 14.8132541625432  15.708734829939 14.9032588502874  C 15.7446550681317 14.996597044985  15.7642479253277 15.0966022535896  15.7642479253277 15.2032744761013  C 15.7642479253277 15.3432817681478  15.7315931633344 15.4766220462872  15.669549115547 15.5966282966128  C 15.6075050677597 15.7166345469384  15.5160717341783 15.8133062485895  15.4017800672016 15.8866434015661  C 15.2874884002249 15.9566470475894  15.1568693522515 15.9933156240777  15.0066574470822 15.9933156240777  C 14.8988967325041 15.9933156240777  14.8009324465241 15.9733145823568  14.7062336367434 15.9333124989149  C 14.6115348269627 15.8933104154731  14.5298979219793 15.8366407972638  14.4547919693947 15.7666371512406  C 14.4547919693947 15.7666371512406  10.3011062438413 11.5097487716375  10.3011062438413 11.5097487716375  C 9.78516100434651 11.9097696060559  9.21043719326366 12.2264527666372  8.58020028679213 12.4531312394743  C 7.94669790412127 12.6798097123115  7.20216933067303 12.7964824556835  6.50662290021481 12.7964824556835  C 5.65759908838788 12.7964824556835  4.85755741955096 12.6331406149626  4.10976336990339 12.3031234265673  C 3.36196932025582 11.9764397451256  2.70560860418961 11.5197492924979  2.13741574550544 10.9397190825911  C 1.56922288682125 10.3596888726843  1.12511812371178 9.68632046807996  0.801835979977679 8.9262808826849  C 0.481819312442913 8.16290779033633  0.318545502476196 7.26619441984826  0.318545502476196 6.3961491049882  Z M 1.3537014576652 6.48282028577887  C 1.35043598146587 7.2061912946856  1.48432050563857 7.88622671319695  1.75208955398398 8.52292654131293  C 2.01659312613007 9.15962636942898  2.38559193665485 9.71965553761478  2.85908598555833 10.199680538917  C 3.33258003446181 10.6797055402192  3.87791455975066 11.0563918259631  4.50162051382352 11.3297393961492  C 5.12206099169705 11.6030869663351  5.87312051754395 11.7397607514281  6.58499432899883 11.7397607514281  C 7.29686814045373 11.7397607514281  7.96302528511794 11.6030869663351  8.5867312391908 11.3297393961492  C 9.20717171706433 11.0563918259632  9.7557717185525 10.6797055402192  10.2260002912566 10.199680538917  C 10.6962288639608 9.71965553761478  11.0652276744856 9.15962636942898  11.332996722831 8.52292654131293  C 11.6007657711764 7.88622671319687  11.7346502953491 7.20619129468552  11.7346502953491 6.48282028577887  C 11.7346502953491 5.75611576991863  11.6007657711764 4.99274267757005  11.332996722831 4.35604284945399  C 11.0652276744856 3.72267652829138  10.6962288639608 3.16264736010559  10.2260002912566 2.67928885184998  C 9.7557717185525 2.1959303435943  9.21043719326366 1.81924405785033  8.5867312391908 1.5425629807108  C 7.96629076131727 1.26921541052487  7.29686814045373 1.13254162543186  6.58499432899883 1.13254162543186  C 5.87312051754395 1.13254162543186  5.12532646789638 1.26921541052487  4.50162051382352 1.5425629807108  C 3.88118003594998 1.81591055089674  3.33258003446181 2.1959303435943  2.85908598555833 2.67928885184998  C 2.38559193665485 3.16264736010559  2.01659312613006 3.71934302133794  1.75208955398398 4.35604284945399  C 1.4875859818379 4.98940917061661  1.3537014576652 5.75611576991863  1.3537014576652 6.48282028577887  Z " fill-rule="nonzero" fill="#999999" stroke="none" transform="matrix(1 0 0 1 125 59 )" />
  </g>
</svg>