<?xml version="1.0" encoding="utf-8"?>
<svg version="1.1" xmlns:xlink="http://www.w3.org/1999/xlink" width="180px" height="115px" xmlns="http://www.w3.org/2000/svg">
  <defs>
    <filter x="120px" y="510px" width="180px" height="115px" filterUnits="userSpaceOnUse" id="filter364">
      <feOffset dx="0" dy="0" in="SourceAlpha" result="shadowOffsetInner" />
      <feGaussianBlur stdDeviation="2.5" in="shadowOffsetInner" result="shadowGaussian" />
      <feComposite in2="shadowGaussian" operator="atop" in="SourceAlpha" result="shadowComposite" />
      <feColorMatrix type="matrix" values="0 0 0 0 0  0 0 0 0 0  0 0 0 0 0  0 0 0 0.247058823529412 0  " in="shadowComposite" />
    </filter>
    <g id="widget365">
      <path d="M 170 3.92083644510828  L 170 94.100074682599  C 170 96.2957430918596  165.013333333333 98.0209111277073  158.666666666667 98  L 11.3333333333334 98  C 4.98666666666668 98.0209111277073  0 96.2957430918596  0 94.100074682599  L 0 3.92083644510828  C 0 1.72516803584766  4.98666666666668 0  11.3333333333334 0  L 158.666666666667 0  C 165.013333333333 0  170 1.72516803584766  170 3.92083644510828  Z M 93 98  L 77 98  L 84.4925373134329 104.93913925518  L 93 98  Z " fill-rule="nonzero" fill="#ffffff" stroke="none" transform="matrix(1 0 0 1 125 515 )" />
    </g>
  </defs>
  <g transform="matrix(1 0 0 1 -120 -510 )">
    <use xlink:href="#widget365" filter="url(#filter364)" />
    <use xlink:href="#widget365" />
  </g>
</svg>