<?xml version="1.0" encoding="utf-8"?>
<svg version="1.1" xmlns:xlink="http://www.w3.org/1999/xlink" width="20px" height="20px" xmlns="http://www.w3.org/2000/svg">
  <g transform="matrix(1 0 0 1 -334 -700 )">
    <path d="M 8.33333333333333 10  C 8.33333333333333 10.9204745830513  9.07952541694868 11.6666666666667  10 11.6666666666667  C 10.9204745830513 11.6666666666667  11.6666666666667 10.9204745830513  11.6666666666667 10  C 11.6666666666667 9.07952541694868  10.9204745830513 8.33333333333333  10 8.33333333333333  C 9.07952541694868 8.33333333333333  8.33333333333333 9.07952541694868  8.33333333333333 10  Z M 19.3333333333333 9.33333333333333  L 18.6326666666667 9.33333333333333  C 18.3073333333333 5.08666666666667  14.9133333333333 1.69266666666667  10.6666666666667 1.36733333333333  L 10.6666666666667 0.666666666666667  C 10.6666666666667 0.298476833446138  10.3681898332205 0  10 0  C 9.63181016677947 0  9.33333333333333 0.298476833446138  9.33333333333333 0.666666666666667  L 9.33333333333333 1.36733333333333  C 5.08666666666667 1.69266666666667  1.69266666666667 5.08666666666667  1.36733333333333 9.33333333333333  L 0.666666666666667 9.33333333333333  C 0.298476833446138 9.33333333333333  0 9.63181016677947  0 10  C 0 10.3681898332205  0.298476833446138 10.6666666666667  0.666666666666667 10.6666666666667  L 1.36733333333333 10.6666666666667  C 1.69266666666667 14.9133333333333  5.08666666666667 18.3073333333333  9.33333333333333 18.6326666666667  L 9.33333333333333 19.3333333333333  C 9.33333333333333 19.7015231665539  9.63181016677947 20  10 20  C 10.3681898332205 20  10.6666666666667 19.7015231665539  10.6666666666667 19.3333333333333  L 10.6666666666667 18.6326666666667  C 14.9133333333333 18.3073333333333  18.3073333333333 14.9133333333333  18.6326666666667 10.6666666666667  L 19.3333333333333 10.6666666666667  C 19.7015231665539 10.6666666666667  20 10.3681898332205  20 10  C 20 9.63181016677947  19.7015231665539 9.33333333333333  19.3333333333333 9.33333333333333  Z M 17.2993333333333 10.6666666666667  C 16.9813333333333 14.1786666666667  14.1786666666667 16.9813333333333  10.6666666666667 17.2993333333333  L 10.6666666666667 16  C 10.6666666666667 15.6318101667795  10.3681898332205 15.3333333333333  10 15.3333333333333  C 9.63181016677947 15.3333333333333  9.33333333333333 15.6318101667795  9.33333333333333 16  L 9.33333333333333 17.2993333333333  C 5.82133333333333 16.9813333333333  3.01866666666667 14.1786666666667  2.70066666666667 10.6666666666667  L 4 10.6666666666667  C 4.36818983322053 10.6666666666667  4.66666666666667 10.3681898332205  4.66666666666667 10  C 4.66666666666667 9.63181016677947  4.36818983322053 9.33333333333333  4 9.33333333333333  L 2.70066666666667 9.33333333333333  C 3.01866666666667 5.82133333333333  5.82133333333333 3.01866666666667  9.33333333333333 2.70066666666667  L 9.33333333333333 4  C 9.33333333333333 4.36818983322053  9.63181016677947 4.66666666666667  10 4.66666666666667  C 10.3681898332205 4.66666666666667  10.6666666666667 4.36818983322053  10.6666666666667 4  L 10.6666666666667 2.70066666666667  C 14.1786666666667 3.01933333333333  16.9813333333333 5.82133333333333  17.2993333333333 9.33333333333333  L 16 9.33333333333333  C 15.6318101667795 9.33333333333333  15.3333333333333 9.63181016677947  15.3333333333333 10  C 15.3333333333333 10.3681898332205  15.6318101667795 10.6666666666667  16 10.6666666666667  L 17.2993333333333 10.6666666666667  Z " fill-rule="nonzero" fill="#666666" stroke="none" transform="matrix(1 0 0 1 334 700 )" />
  </g>
</svg>