<?xml version="1.0" encoding="utf-8"?>
<svg version="1.1" xmlns:xlink="http://www.w3.org/1999/xlink" width="35px" height="35px" xmlns="http://www.w3.org/2000/svg">
  <defs>
    <filter x="0px" y="433px" width="35px" height="35px" filterUnits="userSpaceOnUse" id="filter362">
      <feOffset dx="0" dy="0" in="SourceAlpha" result="shadowOffsetInner" />
      <feGaussianBlur stdDeviation="2.5" in="shadowOffsetInner" result="shadowGaussian" />
      <feComposite in2="shadowGaussian" operator="atop" in="SourceAlpha" result="shadowComposite" />
      <feColorMatrix type="matrix" values="0 0 0 0 1  0 0 0 0 1  0 0 0 0 1  0 0 0 0.149019607843137 0  " in="shadowComposite" />
    </filter>
    <g id="widget363">
      <path d="M 17.5 438  C 24.5 438  30 443.5  30 450.5  C 30 457.5  24.5 463  17.5 463  C 10.5 463  5 457.5  5 450.5  C 5 443.5  10.5 438  17.5 438  Z " fill-rule="nonzero" fill="#05b288" stroke="none" />
      <path d="M 17.5 438.5  C 24.22 438.5  29.5 443.78  29.5 450.5  C 29.5 457.22  24.22 462.5  17.5 462.5  C 10.78 462.5  5.5 457.22  5.5 450.5  C 5.5 443.78  10.78 438.5  17.5 438.5  Z " stroke-width="1" stroke="#ffffff" fill="none" />
    </g>
  </defs>
  <g transform="matrix(1 0 0 1 0 -433 )">
    <use xlink:href="#widget363" filter="url(#filter362)" />
    <use xlink:href="#widget363" />
  </g>
</svg>