<?xml version="1.0" encoding="utf-8"?>
<svg version="1.1" xmlns:xlink="http://www.w3.org/1999/xlink" width="15px" height="10px" xmlns="http://www.w3.org/2000/svg">
  <g transform="matrix(1 0 0 1 -20 -113 )">
    <path d="M 0.21290322580646 6.29907692307693  C -0.0864516129032168 6.79384615384615  0.28774193548387 7.41169230769231  0.886451612903223 7.38461538461539  L 14.4012903225806 7.38461538461539  C 14.7883870967742 7.41169230769231  15.0309677419355 7.01292307692308  14.8374193548387 6.69292307692308  L 13.7561290322581 5.38338461538462  L 13.0645161290323 4.54646153846154  L 11.7303225806452 2.92923076923077  C 11.5367741935484 2.61169230769231  11.0541935483871 2.61169230769231  10.8606451612903 2.92923076923077  L 9.62709677419355 4.42092307692308  L 7.4258064516129 1.75507692307693  L 6.71354838709678 0.891076923076928  L 6.36774193548387 0.472615384615385  C 6.0683870967742 -0.022153846153847  5.32000000000001 -0.022153846153847  5.02322580645161 0.472615384615385  L 0.21290322580646 6.29907692307693  Z M 1.38709677419355 9.09292307692308  C 1.14337885878436 9.09292307692308  0.945806451612909 9.28137675760969  0.945806451612909 9.51384615384616  C 0.945806451612909 9.74631555008262  1.14337885878436 9.93476923076923  1.38709677419355 9.93476923076923  L 11.0154838709677 9.93476923076923  C 11.2606451612903 9.93476923076923  11.4593548387097 9.74769230769231  11.4593548387097 9.51384615384616  C 11.4593548387097 9.28  11.2606451612903 9.09292307692307  11.018064516129 9.09292307692307  L 1.38709677419355 9.09292307692308  Z M 13.6658064516129 9.93476923076923  C 13.9095243670221 9.93476923076923  14.1070967741935 9.74631555008262  14.1070967741935 9.51384615384616  C 14.1070967741935 9.28137675760969  13.9095243670221 9.09292307692308  13.6658064516129 9.09292307692308  L 12.4296774193548 9.09292307692308  C 12.1859595039456 9.09292307692308  11.9883870967742 9.28137675760969  11.9883870967742 9.51384615384616  C 11.9883870967742 9.74631555008262  12.1859595039456 9.93476923076923  12.4296774193548 9.93476923076923  L 13.6658064516129 9.93476923076923  Z " fill-rule="nonzero" fill="#05b288" stroke="none" transform="matrix(1 0 0 1 20 113 )" />
  </g>
</svg>