<?xml version="1.0" encoding="utf-8"?>
<svg version="1.1" xmlns:xlink="http://www.w3.org/1999/xlink" width="21px" height="25px" xmlns="http://www.w3.org/2000/svg">
  <g>
    <path d="M 7.89933692222009 0.944708159855736  C 9.63920549470943 0.501206608501927  11.5301043252273 0.501206608501927  13.2699728977167 0.944708159855736  C 15.0460887321328 1.40618950383195  16.5926385743456 2.28719934233197  17.9096224243549 3.5937309395634  C 18.882257286059 4.56463974117582  19.6253261555597 5.66140709114544  20.1327878225357 6.89601951788688  C 20.6462906998329 8.13063194462851  20.9000215333209 9.41918374923754  20.9000215333209 10.761674931714  C 20.9000215333209 12.1041661141902  20.6462906998329 13.5425495239864  20.1327878225357 14.7771619507281  C 19.6192849452385 16.0117743774695  18.882257286059 17.1145349916467  17.915663634676 18.0734572648439  C 17.915663634676 18.0734572648439  11.5059394839428 24.4562836458141  11.5059394839428 24.4562836458141  C 11.2763734917393 24.6840276856985  10.8353651382959 24.8038929698481  10.4970573603118 24.8038929698481  C 10.1587495823278 24.8038929698481  9.87481269723404 24.6900209499059  9.63920549470943 24.4562836458141  C 9.63920549470943 24.4562836458141  3.2596873955819 18.1273966427113  3.2596873955819 18.1273966427113  C 1.94270354557262 16.8208650454799  1.05464562836452 15.2925826725717  0.589472433636477 13.524569731364  C 0.14242286987186 11.7985096396086  0.14242286987186 9.92261794266634  0.589472433636477 8.19655785091091  C 1.05464562836452 6.43453817391067  1.94270354557262 4.89426927258743  3.2596873955819 3.5937309395634  C 4.57667124559118 2.29319260653957  6.12322108780392 1.40618950383195  7.89933692222009 0.944708159855736  Z M 6.8964960089103 7.10578376514888  C 6.23800408390566 7.7770293563871  5.79095452014102 8.55615370335992  5.56138852793759 9.43716354185995  C 5.33182253573414 10.3241666445676  5.33182253573414 11.3550080882548  5.56138852793759 12.236017926755  C 5.79699573046218 13.1230210294624  6.23800408390566 13.896152112228  6.8964960089103 14.5673977034661  C 7.62748245776864 15.2985759367791  8.51554037497676 15.7660505449629  9.54858733989228 15.9758147922247  C 10.5816343048078 16.1915723036941  11.7355054761462 16.1016733405819  12.7020991275292 15.7061179028879  C 13.6686927789122 15.3105624651939  14.4419677000185 14.6812697234083  15.0340063114906 13.8182396775305  C 15.6200037126415 12.9552096316528  15.9281054390198 12.0082738868704  15.9462290699833 10.9714391789758  C 15.9462290699833 10.2822137951154  15.8133224429181 9.46712986289735  15.553550399109 8.83783712111172  C 15.2937783552998 8.2025511151185  14.9192233153889 7.64517754382249  14.4238440690551 7.15372987880888  C 13.9284648227214 6.66228221379508  13.366632262855 6.28470656872366  12.7262639688138 6.01500967938686  C 12.0858956747726 5.75130605425746  11.2703322814182 5.61346097748545  10.587675515129 5.61346097748545  C 9.90501874883977 5.61346097748545  9.23444440319283 5.74531279005005  8.58803489883048 6.00302315097186  C 7.94162539446814 6.26073351189367  7.37375162428065 6.63231589275786  6.8964960089103 7.10578376514888  Z M 12.6356458139967 12.8653106685406  C 12.6356458139967 12.8653106685406  12.6356458139967 12.8713039327482  12.6356458139967 12.8713039327482  C 12.9075002784481 12.6255801002412  13.1189426396881 12.325916889867  13.2760141080379 11.978307565833  C 13.4330855763876 11.630698241799  13.5055801002413 11.2770956535574  13.5055801002413 10.911506536901  C 13.5055801002413 10.240260945663  13.2941377390013 9.49709618393494  12.8652118062001 8.97568219788373  C 12.4423270837201 8.46026147604031  11.8986181548171 8.13662520883611  11.2401262298125 8.01076666047891  C 10.5816343048079 7.8849081121219  9.8083593837015 7.98080033944151  9.21632077222942 8.2984433424383  C 8.62428216075734 8.61608634543491  8.20139743827732 9.08356095361853  7.94162539446814 9.69487390278194  C 7.68185335065896 10.3121801161526  7.6456060887321 11.0793179347106  7.83892481900869 11.7146039407038  C 8.03224354928529 12.3438966824896  8.40679858919618 12.8473308759182  8.96863114906252 13.2249065209896  C 9.53046370892887 13.602482166061  10.2976974197141 13.7523137712482  10.9743129756822 13.6863878649658  C 11.6509285316502 13.6204619586836  12.2188023018377 13.3447718051392  12.6839754965657 12.8653106685406  C 12.6839754965657 12.8653106685406  12.6356458139967 12.8653106685406  12.6356458139967 12.8653106685406  Z " fill-rule="nonzero" fill="#ff0000" stroke="none" />
  </g>
</svg>