<?xml version="1.0" encoding="utf-8"?>
<svg version="1.1" xmlns:xlink="http://www.w3.org/1999/xlink" width="30px" height="30px" xmlns="http://www.w3.org/2000/svg">
  <defs>
    <filter x="106px" y="438px" width="30px" height="30px" filterUnits="userSpaceOnUse" id="filter366">
      <feOffset dx="0" dy="0" in="SourceAlpha" result="shadowOffsetInner" />
      <feGaussianBlur stdDeviation="2.5" in="shadowOffsetInner" result="shadowGaussian" />
      <feComposite in2="shadowGaussian" operator="atop" in="SourceAlpha" result="shadowComposite" />
      <feColorMatrix type="matrix" values="0 0 0 0 1  0 0 0 0 1  0 0 0 0 1  0 0 0 0.149019607843137 0  " in="shadowComposite" />
    </filter>
    <g id="widget367">
      <path d="M 121 443  C 126.6 443  131 447.4  131 453  C 131 458.6  126.6 463  121 463  C 115.4 463  111 458.6  111 453  C 111 447.4  115.4 443  121 443  Z " fill-rule="nonzero" fill="#05b288" stroke="none" />
      <path d="M 121 443.5  C 126.32 443.5  130.5 447.68  130.5 453  C 130.5 458.32  126.32 462.5  121 462.5  C 115.68 462.5  111.5 458.32  111.5 453  C 111.5 447.68  115.68 443.5  121 443.5  Z " stroke-width="1" stroke="#ffffff" fill="none" />
    </g>
  </defs>
  <g transform="matrix(1 0 0 1 -106 -438 )">
    <use xlink:href="#widget367" filter="url(#filter366)" />
    <use xlink:href="#widget367" />
  </g>
</svg>