<?xml version="1.0" encoding="utf-8"?>
<svg version="1.1" xmlns:xlink="http://www.w3.org/1999/xlink" width="13px" height="16px" xmlns="http://www.w3.org/2000/svg">
  <g transform="matrix(1 0 0 1 -17 -292 )">
    <path d="M 11.0869091198387 2.29998780132058  C 11.6890164151794 2.92136943435253  12.1490114296322 3.62330053833308  12.4631543663316 4.41345249144761  C 12.7810370998966 5.20360444456225  12.9381085682463 6.02827759951203  12.9381085682463 6.88747195629694  C 12.9381085682463 7.74666631308173  12.7810370998966 8.66723169535132  12.4631543663316 9.45738364846596  C 12.1452716327667 10.2475356015805  11.6890164151794 10.9533023946539  11.0906489167042 11.5670126495001  C 11.0906489167042 11.5670126495001  7.12272444244078 15.652021533321  7.12272444244078 15.652021533321  C 6.98061216155292 15.797777718847  6.70760699037363 15.8744915007028  6.49817836590732 15.8744915007028  C 6.288749741441 15.8744915007028  6.11297928876393 15.8016134079398  5.9671272110106 15.652021533321  C 5.9671272110106 15.652021533321  2.01790172107451 11.6015338513353  2.01790172107451 11.6015338513353  C 1.2026260044021 10.7653536291071  0.652875865178038 9.78725291044587  0.364911506536866 8.65572462807298  C 0.0881665384921041 7.5510461693495  0.0881665384921041 6.35047548330646  0.364911506536866 5.24579702458298  C 0.652875865178038 4.11810443130283  1.2026260044021 3.13233233445596  2.01790172107451 2.29998780132058  C 2.83317743774692 1.46764326818532  3.79056543530719 0.899961282452447  4.8900657137553 0.604613222307671  C 5.9671272110106 0.320772229441233  7.13768362990264 0.320772229441233  8.21474512715794 0.604613222307671  C 9.31424540560604 0.899961282452447  10.2716334031663 1.46380757909246  11.0869091198387 2.29998780132058  Z M 10.0135874194489 10.4661698798695  C 10.7091896364263 9.75273170861074  11.1504856665517 8.80915219178448  11.3412153066907 7.8310514731232  C 11.5319449468297 6.84911506536907  11.4384500251929 5.89402848126447  11.0644703386459 4.96962740990214  C 10.6867508552335 4.04139064944708  10.0958629504893 3.30110265453877  9.28806682754779 2.75259911426983  C 8.48027070460631 2.20025988490816  7.58645925375903 1.92409027022719  6.60289267814048 1.92409027022719  C 5.6230658993874 1.92409027022719  4.6320197300379 2.20025988490816  3.82422360709643 2.75259911426983  C 3.01642748415495 3.30493834363151  2.42553957941072 4.04522633853982  2.04782009599827 4.96962740990214  C 1.67010061258583 5.89402848126447  1.57660569094909 6.84911506536907  1.77107512795351 7.8310514731232  C 1.96180476809247 8.81298788087721  2.40684059508336 9.75656739770347  3.09870301519529 10.4661698798695  C 3.09870301519529 10.4661698798695  6.60289267814048 13.9834967779575  6.60289267814048 13.9834967779575  C 6.60289267814048 13.9834967779575  10.0135874194489 10.4661698798695  10.0135874194489 10.4661698798695  Z M 4.26925943408733 4.54770160969529  C 4.56470338645945 4.24468217136503  4.91624429181361 4.00686944761195  5.31640255641887 3.84193481662199  C 5.71656082102413 3.67700018563204  6.13167827309128 3.59261502559069  6.55427531888936 3.59261502559069  C 6.97687236468746 3.59261502559069  7.48174494152588 3.68083587472477  7.87816340926568 3.84960619480759  C 8.27458187700548 4.02221220398314  8.62238298549418 4.26386061682885  8.92904632846268 4.57838712243768  C 9.23570967143121 4.8929136280464  9.46757707709033 5.24963271367584  9.62838834230554 5.6562157575115  C 9.78919960752075 6.0589631122543  9.87147513856106 6.58061682887383  9.87147513856106 7.0217210745445  C 9.86025574796467 7.68529528759706  9.6695261078257 8.29133416425781  9.30676581187513 8.84367339361949  C 8.94026571905909 9.39601262298129  8.46157172027897 9.79875997772409  7.86320422180379 10.0519154578483  C 7.26483672332862 10.3050709379724  6.5505355220239 10.3626062743642  5.91103025802855 10.2245214670238  C 5.27152499403323 10.0902723487762  4.72177485480916 9.79108859953861  4.26925943408733 9.32313453021828  C 3.86162157575113 8.89353735182594  3.58861640457183 8.39873345885596  3.44276432681851 7.8310514731232  C 3.30065204593066 7.26720517648306  3.30065204593066 6.60746665252324  3.44276432681851 6.03978466679037  C 3.58487660770635 5.47593837015035  3.86162157575113 4.97729878808774  4.26925943408733 4.54770160969529  Z M 7.82206645628365 8.233798827866  C 7.82206645628365 8.233798827866  7.82206645628365 8.23763451695886  7.82206645628365 8.23763451695886  C 7.99035731522979 8.08037126415438  8.12125020552123 7.88858680951489  8.21848492402345 7.66611684213312  C 8.31571964252565 7.44364687475136  8.36059720491129 7.21734121827673  8.36059720491129 6.98336418361663  C 8.36059720491129 6.55376700522429  8.22970431461984 6.07814155771836  7.96417873717149 5.74443660664559  C 7.70239295658862 5.4145673446658  7.36581123869633 5.20744013365511  6.95817338036012 5.1268906627065  C 6.55053552202393 5.04634119175801  6.07184152324379 5.10771221724256  5.70534143042774 5.31100373916051  C 5.33884133761169 5.51429526107834  5.07705555702881 5.81347901031586  4.91624429181361 6.20471929778044  C 4.7554330265984 6.59979527433764  4.73299424540558 7.09076347821477  4.85266774510062 7.49734652205043  C 4.97234124479565 7.90009387679335  5.20420865045478 8.22229176058766  5.55200975894346 8.46394017343337  C 5.89981086743216 8.70558858627907  6.37476506934682 8.80148081359888  6.79362231827943 8.75928823357814  C 7.21247956721205 8.71709565355753  7.56402047256621 8.54065395528911  7.85198483120737 8.233798827866  C 7.85198483120737 8.233798827866  7.82206645628365 8.233798827866  7.82206645628365 8.233798827866  Z " fill-rule="nonzero" fill="#666666" stroke="none" transform="matrix(1 0 0 1 17 292 )" />
  </g>
</svg>