<?xml version="1.0" encoding="utf-8"?>
<svg version="1.1" xmlns:xlink="http://www.w3.org/1999/xlink" width="18px" height="18px" xmlns="http://www.w3.org/2000/svg">
  <defs>
    <linearGradient gradientUnits="userSpaceOnUse" x1="0" y1="9" x2="17.82" y2="9" id="LinearGradient607">
      <stop id="Stop608" stop-color="#3478f6" offset="0" />
      <stop id="Stop609" stop-color="#02a7f0" offset="1" />
    </linearGradient>
  </defs>
  <g transform="matrix(1 0 0 1 -9 0 )">
    <path d="M 5.31266666666667 17.5888301816038  C 4.5644444375 18.0624905660377  3.586 17.8175094198113  3.1315555625 17.0463396226415  C 2.9161230946945 16.6801897854632  2.84916645800411 16.2429322694743  2.94488889583333 15.8273207617925  L 3.91333333333333 11.6193962334906  C 3.9368318741986 11.5196053672487  3.90465373426393 11.4147272651112  3.8295555625 11.346339629717  L 0.659555562499999 8.532  C 0.00111112499999895 7.94784905660377  -0.074888875000001 6.92626415094339  0.487999999999999 6.24520755424528  C 0.758528759483964 5.91701832953767  1.1465561024365 5.71257826165457  1.56577777083333 5.67735849764151  L 5.726 5.33207547169811  C 5.81666666666667 5.32437735141509  5.89777777083333 5.26347169811321  5.93488889583333 5.17086791745283  L 7.53777777083333 1.17667925235849  C 7.87177777083333 0.344603780660377  8.80066666666667 -0.0527547099056612  9.61111110416667 0.296603766509433  C 9.99762834297185 0.463965667088428  10.303445772199 0.780355662317483  10.4617777708333 1.17667925235849  L 12.0646666666667 5.17064151650943  C 12.1017777708333 5.26347169811321  12.1828888958333 5.32460377358491  12.2735555625 5.33207547169811  L 16.4342222291667 5.6775848985849  C 17.3066666666667 5.75003772169811  17.9526666666667 6.53637735849056  17.8835555625 7.42913208254717  C 17.8510905914625 7.85516654174826  17.6560301121139 8.25126642984043  17.3402222291667 8.53245282311321  L 14.1702222291667 11.3467924528302  C 14.0964444583333 11.4122264221698  14.063111125 11.5181886863208  14.0864444375 11.619622634434  L 15.0548888958333 15.8275471627358  C 15.2553333333333 16.6981131933962  14.7348888958333 17.5752452759434  13.8853333333333 17.7851320683962  C 13.4762138745408 17.8862981220286  13.0443531195006 17.8156421153359  12.6868888958333 17.5890566037736  L 9.12488889583333 15.3339622641509  C 9.04839195892111 15.2850402775678  8.95116360357889 15.2850402775678  8.87466666666666 15.3339622641509  L 5.3124444375 17.5890566037736  Z " fill-rule="nonzero" fill="url(#LinearGradient607)" stroke="none" transform="matrix(1 0 0 1 9 0 )" />
  </g>
</svg>