<?xml version="1.0" encoding="utf-8"?>
<svg version="1.1" xmlns:xlink="http://www.w3.org/1999/xlink" width="14px" height="14px" xmlns="http://www.w3.org/2000/svg">
  <g transform="matrix(1 0 0 1 -15 -390 )">
    <path d="M 11.7522529546439 1.31143045518263  C 12.1180818018687 1.31143045518263  12.4537045974878 1.40864533391371  12.7591213415011 1.59613117146644  C 13.0645380855146 1.78361700901916  13.3095427263165 2.03707008571082  13.4907790359507 2.35301844158669  C 13.672015345585 2.66896679746259  13.7659897283584 3.0161627929306  13.7659897283584 3.39460642799074  C 13.7659897283584 3.39460642799074  13.7659897283584 11.8141093180902  13.7659897283584 11.8141093180902  C 13.7659897283584 12.1925529531503  13.6753715735412 12.5397489486183  13.4907790359507 12.8556973044942  C 13.3095427263165 13.1716456603701  13.0645380855146 13.4250987370618  12.7591213415011 13.6125845746145  C 12.4537045974878 13.8000704121672  12.1180818018687 13.8972852908983  11.7522529546439 13.8972852908983  C 11.7522529546439 13.8972852908983  2.26084029453624 13.8972852908983  2.26084029453624 13.8972852908983  C 1.89501144731144 13.8972852908983  1.55938865169239 13.8035423721219  1.25397190767902 13.6125845746145  C 0.948555163665598 13.4250987370618  0.703550522863664 13.1716456603701  0.522314213229364 12.8556973044942  C 0.341077903595063 12.5397489486183  0.24710352082174 12.1925529531503  0.24710352082174 11.8141093180902  C 0.24710352082174 11.8141093180902  0.24710352082174 3.39460642799074  0.24710352082174 3.39460642799074  C 0.24710352082174 3.0161627929306  0.337721675638916 2.66896679746259  0.522314213229364 2.35301844158669  C 0.703550522863664 2.03707008571082  0.948555163665598 1.78361700901916  1.25397190767902 1.59613117146644  C 1.55938865169239 1.40864533391371  1.89501144731144 1.31143045518263  2.26084029453624 1.31143045518263  C 2.26084029453624 1.31143045518263  2.93879834168676 1.31143045518263  2.93879834168676 1.31143045518263  C 2.93879834168676 1.31143045518263  2.93879834168676 0.610094544337248  2.93879834168676 0.610094544337248  C 2.9589357094239 0.443440466512603  3.03612895241628 0.301090108370729  3.1636656147516 0.186515429866259  C 3.29120227708687 0.0684687914071266  3.43887630715922 0.00944547217757425  3.60668770496878 0.00944547217757425  C 3.77114287482214 0.00944547217757425  3.92217313285069 0.0684687914071266  4.04970979518591 0.186515429866259  C 4.17724645752122 0.304562068325418  4.25443970051355 0.443440466512603  4.27457706825075 0.610094544337248  C 4.27457706825075 0.610094544337248  4.27457706825075 1.31143045518263  4.27457706825075 1.31143045518263  C 4.27457706825075 1.31143045518263  9.73851618092942 1.31143045518263  9.73851618092942 1.31143045518263  C 9.73851618092942 1.31143045518263  9.73851618092942 0.610094544337248  9.73851618092942 0.610094544337248  C 9.75865354866651 0.443440466512603  9.83584679165894 0.301090108370729  9.9633834539942 0.186515429866259  C 10.0909201163295 0.0684687914071266  10.2385941464018 0.00944547217757425  10.4064055442114 0.00944547217757425  C 10.5742169420209 0.00944547217757425  10.7218909720934 0.0684687914071266  10.8494276344286 0.186515429866259  C 10.9769642967638 0.304562068325418  11.0541575397562 0.443440466512603  11.0742949074934 0.610094544337248  C 11.0742949074934 0.610094544337248  11.0742949074934 1.31143045518263  11.0742949074934 1.31143045518263  C 11.0742949074934 1.31143045518263  11.7522529546439 1.31143045518263  11.7522529546439 1.31143045518263  Z M 12.4134298620134 4.16538153792975  C 12.4134298620134 4.16538153792975  12.4134298620134 3.48140542685775  12.4134298620134 3.48140542685775  C 12.4134298620134 3.29391958930503  12.3496615308458 3.04393847256806  12.2187686405544 2.90158811442619  C 12.0912319782191 2.76270971623898  11.9334892642782 2.69327051714536  11.7522529546438 2.69327051714536  C 11.7522529546438 2.69327051714536  2.26084029453619 2.69327051714536  2.26084029453619 2.69327051714536  C 2.07960398490189 2.69327051714536  1.92186127096088 2.76270971623898  1.79432460862561 2.90158811442619  C 1.6667879462903 3.04046651261337  1.59966338716657 3.29044762935037  1.59966338716657 3.48140542685775  C 1.59966338716657 3.48140542685775  1.59966338716657 4.16538153792975  1.59966338716657 4.16538153792975  C 1.59966338716657 4.16538153792975  12.4134298620134 4.16538153792975  12.4134298620134 4.16538153792975  Z M 12.4134298620134 11.7273103192231  C 12.4134298620134 11.7273103192231  12.4134298620134 5.47778240079885  12.4134298620134 5.47778240079885  C 12.4134298620134 5.47778240079885  1.59966338716657 5.47778240079885  1.59966338716657 5.47778240079885  C 1.59966338716657 5.47778240079885  1.59966338716657 11.7273103192231  1.59966338716657 11.7273103192231  C 1.59966338716657 11.9147961567759  1.6634317183342 12.1647772735129  1.79432460862561 12.2967117517907  C 1.92186127096088 12.4286462300685  2.07960398490178 12.4980854291622  2.26084029453619 12.4980854291622  C 2.26084029453619 12.4980854291622  11.7522529546438 12.4980854291622  11.7522529546438 12.4980854291622  C 11.9334892642781 12.4980854291622  12.0912319782191 12.4321181900232  12.2187686405544 12.2967117517907  C 12.3463053028897 12.1647772735129  12.4134298620134 11.9147961567759  12.4134298620134 11.7273103192231  Z M 3.61340016088113 8.33520544350063  C 3.43216385124677 8.33173348354597  3.27442113730587 8.26576624440706  3.1401720190582 8.1338317661292  C 3.00592290081054 8.00189728785137  2.93879834168676 7.83871516998138  2.93879834168676 7.65122933242866  C 2.93879834168676 7.50887897428678  2.97236062124865 7.29014549714194  3.04284140832868 7.17209885868281  C 3.11332219540871 7.05405222022367  3.21065280613824 6.96725322135666  3.3415456964297 6.90475794217245  C 3.46908235876497 6.8457346229429  3.68723717591736 6.82837482316948  3.82148629416502 6.85615050280694  C 3.95573541241269 6.88392618244437  4.06984716292316 6.94642146162861  4.16717777365268 7.04710830031432  C 4.2645083843822 7.14779513900004  4.32827671554984 7.26584177745917  4.36183899511167 7.40472017564635  C 4.39540127467356 7.54359857383357  4.38197636284882 7.7658040109331  4.32827671554984 7.90121044916563  C 4.27457706825075 8.03314492744346  4.19067136934597 8.14077568603855  4.0765596188355 8.21715880504149  C 3.96244786832504 8.29354192404447  3.75436173504119 8.33520544350063  3.61340016088113 8.33520544350063  Z M 3.7006620877421 11.1162453671995  C 3.51606955015155 11.1162453671995  3.27442113730587 11.0468061681059  3.1401720190582 10.9079277699186  C 3.00592290081054 10.7690493717314  2.93879834168676 10.6058672538615  2.93879834168676 10.414909456354  C 2.93879834168676 10.2239516588467  3.00592290081059 9.97397054210969  3.1401720190582 9.83509214392248  C 3.27442113730587 9.69621374573529  3.51606955015155 9.62677454664168  3.7006620877421 9.62677454664168  C 3.88525462533266 9.62677454664168  4.03964111131736 9.69621374573529  4.17724645752122 9.83509214392248  C 4.31149557576889 9.97397054210969  4.37862013489262 10.2239516588467  4.37862013489262 10.414909456354  C 4.37862013489262 10.6058672538615  4.31149557576878 10.7690493717314  4.17724645752122 10.9079277699186  C 4.04299733927356 11.0468061681058  3.88525462533266 11.1162453671995  3.7006620877421 11.1162453671995  Z M 6.96291566115957 8.33520544350063  C 6.78503557948141 8.33173348354597  6.62393663758426 8.26576624440706  6.48968751933664 8.1338317661292  C 6.35543840108898 8.00189728785137  6.28831384196525 7.83871516998138  6.28831384196525 7.65122933242866  C 6.28831384196525 7.50887897428678  6.32187612152709 7.29014549714194  6.39235690860712 7.17209885868281  C 6.46283769568715 7.05405222022367  6.56016830641668 6.96725322135666  6.69106119670814 6.90475794217245  C 6.81859785904346 6.8457346229429  7.0367526761958 6.82837482316948  7.17100179444346 6.85615050280694  C 7.30525091269113 6.88392618244437  7.4193626632016 6.94642146162861  7.51669327393112 7.04710830031432  C 7.61402388466064 7.14779513900004  7.67779221582828 7.26584177745917  7.71135449539017 7.40472017564635  C 7.74491677495206 7.54359857383357  7.73149186312726 7.7658040109331  7.67779221582828 7.90121044916563  C 7.62409256852919 8.03314492744346  7.54018686962441 8.14077568603855  7.42607511911394 8.21715880504149  C 7.31196336860348 8.29354192404447  7.10387723531963 8.33520544350063  6.96291566115957 8.33520544350063  Z M 7.05017758802054 11.1162453671995  C 6.86558505042999 11.1162453671995  6.62393663758426 11.0468061681059  6.48968751933664 10.9079277699186  C 6.35543840108898 10.7690493717314  6.28831384196525 10.6058672538615  6.28831384196525 10.414909456354  C 6.28831384196525 10.2239516588467  6.35543840108909 9.97397054210969  6.48968751933664 9.83509214392248  C 6.62393663758431 9.69621374573529  6.86558505042999 9.62677454664168  7.05017758802054 9.62677454664168  C 7.2347701256111 9.62677454664168  7.3891566115958 9.69621374573529  7.52676195779967 9.83509214392248  C 7.66101107604733 9.97397054210969  7.72813563517111 10.2239516588467  7.72813563517111 10.414909456354  C 7.72813563517111 10.6058672538615  7.66101107604728 10.7690493717314  7.52676195779967 10.9079277699186  C 7.392512839552 11.0468061681058  7.2347701256111 11.1162453671995  7.05017758802054 11.1162453671995  Z M 10.3191436173504 8.33867740345532  C 10.1345510797599 8.33173348354597  9.9801645937751 8.26576624440706  9.84927170348368 8.1338317661292  C 9.72173504114836 8.00189728785137  9.65461048202464 7.83871516998138  9.65461048202464 7.65122933242866  C 9.65461048202464 7.50887897428678  9.69152898954268 7.28667353718728  9.76872223253511 7.16515493877345  C 9.84255924757129 7.04363634035963  9.94324608625701 6.95336538153796  10.0674265206361 6.8978140222631  C 10.1916069550151 6.84226266298821  10.4064055442114 6.82837482316948  10.5473671183714 6.85615050280694  C 10.6849724645753 6.88392618244437  10.8057966709981 6.94642146162861  10.9031272817277 7.04710830031432  C 11.0004578924572 7.14779513900004  11.0608699956686 7.26931373741386  11.0877198193181 7.41513605551039  C 11.1145696429676 7.56095837360696  11.1011447311428 7.78316381070647  11.0474450838439 7.91162632902964  C 10.9937454365448 8.04008884735281  10.9064835096838 8.14077568603852  10.7890155312172 8.22063076499618  C 10.6715475527505 8.30048584395382  10.4567489635543 8.33867740345532  10.3191436173504 8.33867740345532  Z M 10.312431161438 11.1162453671994  C 10.1345510797599 11.1162453671995  9.9801645937751 11.0468061681059  9.84927170348368 10.9079277699186  C 9.72173504114836 10.7690493717314  9.65461048202464 10.6058672538615  9.65461048202464 10.414909456354  C 9.65461048202464 10.2690871382575  9.69152898954268 10.0538256210673  9.76872223253511 9.93577898260819  C 9.84255924757129 9.81773234414906  9.94660231421321 9.73440530523674  10.0741389765485 9.67885394596185  C 10.2016756388838 9.62330258668698  10.4198304560361 9.61288670682292  10.5507233463276 9.64413434641507  C 10.6849724645753 9.67885394596185  10.8024404430419 9.74482118510075  10.8964148258153 9.84550802378652  C 10.9937454365448 9.94619486247223  11.0541575397562 10.0642415009314  11.0810073634058 10.2031198991186  C 11.1078571870552 10.3419982973058  11.0910760472743 10.5642037344053  11.034020172019 10.6996101726378  C 10.9736080688076 10.8315446509157  10.8897023699028 10.9357034495561  10.7755906193923 11.0086146086043  C 10.6614788688819 11.0815257676527  10.453392735598 11.1162453671994  10.312431161438 11.1162453671994  Z " fill-rule="nonzero" fill="#333333" stroke="none" transform="matrix(1 0 0 1 15 390 )" />
  </g>
</svg>