<?xml version="1.0" encoding="utf-8"?>
<svg version="1.1" xmlns:xlink="http://www.w3.org/1999/xlink" width="20px" height="20px" xmlns="http://www.w3.org/2000/svg">
  <g transform="matrix(1 0 0 1 -50 -395 )">
    <path d="M 19.9797800884956 1.48899332589286  C 19.9797574336283 0.71313078125  19.3563783185841 0.0841857812500001  18.5873818362832 0  L 1.56063075221239 0  C 0.791634247787611 0.0841857812500001  0.168255132743363 0.71313078125  0.168255132743363 1.48899332589286  C 0.168255132743363 2.26483301339286  0.791634247787611 2.89377803571429  1.56063075221239 3  L 18.5874044690265 3  C 19.3564009734513 2.89377803571429  19.9797800884956 2.26483303571429  19.9797800884956 1.48899332589286  Z M 18.1397306637168 11.4531176339286  L 11.0985463274336 4.349065625  C 11.0659907079646 4.31624216517857  11.0318050221239 4.28517752232143  10.9962157079646 4.25573462053571  C 10.9804359734513 4.24264636160714  10.9637053539823 4.23127120535714  10.9474954646018 4.21898238839286  C 10.9274368584071 4.20376984375  10.9077178318584 4.18807763392857  10.8867989159292 4.17393863839286  C 10.8672383628319 4.16073616071429  10.8468628097345 4.14926964285714  10.8267589159292 4.13714073660714  C 10.8078775663717 4.12576560267857  10.7893810619469 4.11381939732143  10.7699337168142 4.10331225446429  C 10.7493996681416 4.09223404017857  10.7282543584071 4.08282328125  10.7072675221239 4.07286433035714  C 10.6870504424779 4.06322515625  10.6671955752212 4.05308345982143  10.6465030530974 4.04440361607143  C 10.626059579646 4.03586082589286  10.6052538495575 4.02900834821429  10.5845386946903 4.02153910714286  C 10.5623972566372 4.01345316964286  10.5405274778761 4.00491037946429  10.5178879646018 3.99801220982143  C 10.4971275221239 3.99168506696429  10.4760275 3.98704821428572  10.4551085840708 3.98172611607143  C 10.4320162831858 3.97583296875  10.4092861946903 3.9693459375  10.3857863716814 3.96461772321429  C 10.361562079646 3.959798125  10.337088761062 3.95692008928572  10.3126607300885 3.95337962053572  C 10.2921493362832 3.95041020089286  10.2719322345133 3.94648145089286  10.2511038716814 3.94440285714286  C 10.2055305309735 3.93990305803571  10.1598439823009 3.93745899553572  10.1141121460177 3.93743616071429  C 10.1071165265487 3.93743616071429  10.1004831637168 3.93828129464286  10.0938724115044 3.93837267857143  C 9.73089303097345 3.93321046875  9.36632887168142 4.06950662946429  9.08940230088496 4.34890575892857  L 2.04799163716814 11.4531176339286  C 1.50425834070796 12.0017513839286  1.50425834070796 12.8911826339286  2.04799163716814 13.43983921875  C 2.31986960176991 13.7141675  2.67623825221239 13.8513316517857  3.03256161504425 13.8513316517857  C 3.38888497787611 13.8513316517857  3.74525362831858 13.7141675  4.01713159292035 13.43983921875  L 8.72141960176991 8.69352578125  L 8.72141962389381 18.5072378125  C 8.72141962389381 19.2830775  9.34479873893805 19.9120225223214  10.1137726106195 19.9120225223214  C 10.8827691150442 19.9120225223214  11.5061482300885 19.2830775223214  11.5061482300885 18.5072378125  L 11.5061482079646 8.73370426339286  L 16.1706812389381 13.43983921875  C 16.4425592035398 13.7141675  16.7989052212389 13.8513316517857  17.1552059513274 13.8513316517857  C 17.5115519690265 13.8513316517857  17.8678753318584 13.7141675  18.1397306637168 13.43983921875  C 18.6835545132743 12.8911826339286  18.6835545132743 12.0017513839286  18.1397306637168 11.4531176339286  Z " fill-rule="nonzero" fill="#333333" stroke="none" transform="matrix(1 0 0 1 50 395 )" />
  </g>
</svg>