<?xml version="1.0" encoding="utf-8"?>
<svg version="1.1" xmlns:xlink="http://www.w3.org/1999/xlink" width="19px" height="20px" xmlns="http://www.w3.org/2000/svg">
  <g transform="matrix(1 0 0 1 -50 -455 )">
    <path d="M 3.72758102948113 16.3139339035088  C 3.72758102948113 16.3497047149123  3.72785614858491 16.3845554824561  3.72826886084906 16.4189125438596  L 3.72758102948113 16.3139339035088  Z M 12.6874184009434 5.33078396929825  C 12.6874184009434 4.84536432017544  12.2856536768868 4.45255835526316  11.7896554728774 4.45255835526316  C 11.2941158231132 4.45255835526316  10.8923740200472 4.84534186403509  11 5.33078396929825  L 11 16.3430846491228  C 10.9006968266509 16.8276739912281  11.302438629717 17.2213326973684  11.7979782794811 17.2213326973684  C 12.2935179292453 17.2213326973684  12.6952826533019 16.8276739912281  12.6952826533019 16.3430846491228  L 12.6874184009434 5.33078396929825  Z M 18.9391326933962 2.72267712719298  C 18.9391326485849 2.2372350877193  18.5373220601415 1.84442912280702  18.0418053313679 1.84442912280702  L 10.8968220141509 1.84768304824561  L 10.8928325742925 0.939633442982456  C 10.8928325742925 0.454191337719298  10.4910219858491 0.0613853947368421  9.99509256721698 0.0613853947368421  C 9.83166283490566 0.0613853947368421  9.67857358372641 0.104337324561403  9.54657793985849 0.179020723684211  C 9.41451351061321 0.104337324561404  9.2613554740566 0.0613853947368423  9.09776525 0.0613853947368423  C 8.60224852122641 0.0613853947368423  8.20048379716981 0.454191359649123  8.20048379716981 0.939633442982456  L 8.20470251415094 1.84891730263158  L 3.04880199646226 1.8512511622807  C 2.97646462735849 1.83284960526316  2.90061929363208 1.82302048245614  2.82241240330189 1.82302048245614  C 2.74393037146226 1.82302048245614  2.66783283962264 1.83293936403509  2.59528911438679 1.85145313596491  L 0.958171770047169 1.85219368421053  C 0.462655041273584 1.85219368421053  0.060867396226414 2.24585239035088  0.060867396226414 2.73041929824561  C 0.060867396226414 3.21586140350877  0.462632142688678 3.60866734649123  0.958171770047169 3.60866734649123  L 2 3.60821853070175  L 2 17.1587225219298  L 1.93345377948113 17.1587225219298  L 1.93345377948113 18.0918610745614  C 1.93345377948113 19.0618925219298  2.73698325 19.8483347368421  3.72803960613207 19.8483347368421  L 4.62534397995283 19.8483347368421  L 4.62534397995283 19.8549772587719  L 14.4955546108491 19.8493445833333  L 14.4955546108491 19.8483347368421  L 15.3928589846698 19.8483347368421  C 16.3711674610849 19.8483347368421  17.1661907122642 19.0818873684211  17 18.1291354385965  L 17 5.33594535087719  C 17.1791449257075 4.85052570175438  16.7774031226415 4.4577197368421  16.2818405518868 4.4577197368421  C 15.7863238231132 4.4577197368421  15.3845590990566 4.85052570175438  15.3845590990566 5.33594535087719  L 15.3910018242924 16.5053325  C 15.3594760294811 17.8280230921053  14.9743798396226 18.0704075219298  13.5986858478774 18.0704075219298  L 14.5302215224057 18  L 4.34814625825472 18  L 5.52216687853774 18.0704075219298  C 4.11698766509434 18.0704075219298  3.74528134433962 17.8177226973684  3.72826888325472 16.4189125  L 3.73932011674528 18.0989972587719  L 4 18.0989972587719  L 4 3.60736574561403  L 9.02629914740566 3.6049645614035  C 9.0525973879717 3.60723109649122  9.07919369103774 3.60862243421052  9.10608807900943 3.60862243421052  C 9.13332637146226 3.60862243421052  9.1602207370283 3.60723109649122  9.18683996108491 3.6048972368421  L 9.91814671226415 3.60456061403508  C 9.94623332783019 3.60716377192982  9.97464092688679 3.6086224122807  10.0034153962264 3.6086224122807  C 10.0325337700472 3.6086224122807  10.0612852959906 3.60714131578947  10.0897158384434 3.60449328947368  L 18.0417824551887 3.60090274122807  C 18.5372991839623 3.60090274122807  18.9391326933962 3.20809677631578  18.9391326933962 2.72267712719298  Z M 15.3816243384434 18.0923323464912  L 15.3910935306604 16.6511985526316  L 15.391918932783 18.0923323464912  L 15.3816243384434 18.0923323464912  Z M 8.20050674056604 5.33078396929825  C 8.20048379716981 4.84536432017544  7.79871905070755 4.45255835526316  7.30320234433962 4.45255835526316  C 6.80766269457547 4.45255835526316  6.40589797051887 4.84534186403509  6.40589797051887 5.33078396929825  L 6.41422077712264 16.3430846491228  C 6.41422077712264 16.8276739912281  6.81598552358491 17.2213326973684  7.31154809433962 17.2213326973684  C 7.80706482311321 17.2213326973684  8.20882954716981 16.8276739912281  8.20882954716981 16.3430846491228  L 8.20050674056604 5.33078396929825  Z " fill-rule="nonzero" fill="#333333" stroke="none" transform="matrix(1 0 0 1 50 455 )" />
  </g>
</svg>