<?xml version="1.0" encoding="utf-8"?>
<svg version="1.1" xmlns:xlink="http://www.w3.org/1999/xlink" width="18px" height="13px" xmlns="http://www.w3.org/2000/svg">
  <g transform="matrix(1 0 0 1 -341 -462 )">
    <path d="M 15.4285714285714 6.5  C 15.4285714285714 6.85898508739002  15.1407544820341 7.15  14.7857142857143 7.15  L 12.8571428571429 7.15  C 12.5021026608231 7.15  12.2142857142857 6.85898508739002  12.2142857142857 6.5  C 12.2142857142857 6.14101491260998  12.5021026608231 5.85  12.8571428571429 5.85  L 14.1428571428571 5.85  L 14.1428571428571 3.25  C 14.1428571428571 2.89101491260998  14.4306740893945 2.6  14.7857142857143 2.6  C 15.1407544820341 2.6  15.4285714285714 2.89101491260998  15.4285714285714 3.25  L 15.4285714285714 6.5  Z M 0 1.3  C 0 0.582029825219969  0.575633893074694 0  1.28571428571429 0  L 16.7142857142857 0  C 17.4243661069253 0  18 0.582029825219969  18 1.3  L 18 11.7  C 18 12.41797017478  17.4243661069253 13  16.7142857142857 13  L 1.28571428571429 13  C 0.575633893074694 13  0 12.41797017478  0 11.7  L 0 1.3  Z M 16.0714285714286 1.3  L 1.92857142857143 1.3  C 1.57353123225163 1.3  1.28571428571429 1.59101491260998  1.28571428571429 1.95  L 1.28571428571429 11.05  C 1.28571428571429 11.40898508739  1.57353123225163 11.7  1.92857142857143 11.7  L 16.0714285714286 11.7  C 16.4264687677484 11.7  16.7142857142857 11.40898508739  16.7142857142857 11.05  L 16.7142857142857 1.95  C 16.7142857142857 1.59101491260998  16.4264687677484 1.3  16.0714285714286 1.3  Z M 3.21428571428571 2.6  L 4.5 2.6  C 4.85504019631979 2.6  5.14285714285714 2.89101491260998  5.14285714285714 3.25  C 5.14285714285714 3.60898508739002  4.85504019631979 3.9  4.5 3.9  L 3.21428571428571 3.9  C 2.85924551796592 3.9  2.57142857142857 3.60898508739002  2.57142857142857 3.25  C 2.57142857142857 2.89101491260998  2.85924551796592 2.6  3.21428571428571 2.6  Z M 7.07142857142857 2.6  L 8.35714285714286 2.6  C 8.71218305346265 2.6  9 2.89101491260998  9 3.25  C 9 3.60898508739002  8.71218305346265 3.9  8.35714285714286 3.9  L 7.07142857142857 3.9  C 6.71638837510878 3.9  6.42857142857143 3.60898508739002  6.42857142857143 3.25  C 6.42857142857143 2.89101491260998  6.71638837510878 2.6  7.07142857142857 2.6  Z M 10.9285714285714 2.6  L 12.2142857142857 2.6  C 12.5693259106055 2.6  12.8571428571429 2.89101491260998  12.8571428571429 3.25  C 12.8571428571429 3.60898508739002  12.5693259106055 3.9  12.2142857142857 3.9  L 10.9285714285714 3.9  C 10.5735312322516 3.9  10.2857142857143 3.60898508739002  10.2857142857143 3.25  C 10.2857142857143 2.89101491260998  10.5735312322516 2.6  10.9285714285714 2.6  Z M 3.21428571428571 5.85  L 3.85714285714286 5.85  C 4.21218305346265 5.85  4.5 6.14101491260998  4.5 6.5  C 4.5 6.85898508739002  4.21218305346265 7.15  3.85714285714286 7.15  L 3.21428571428571 7.15  C 2.85924551796592 7.15  2.57142857142857 6.85898508739002  2.57142857142857 6.5  C 2.57142857142857 6.14101491260998  2.85924551796592 5.85  3.21428571428571 5.85  Z M 6.42857142857143 5.85  L 7.07142857142857 5.85  C 7.42646876774837 5.85  7.71428571428571 6.14101491260998  7.71428571428571 6.5  C 7.71428571428571 6.85898508739002  7.42646876774837 7.15  7.07142857142857 7.15  L 6.42857142857143 7.15  C 6.07353123225163 7.15  5.78571428571429 6.85898508739002  5.78571428571429 6.5  C 5.78571428571429 6.14101491260998  6.07353123225163 5.85  6.42857142857143 5.85  Z M 9.64285714285714 5.85  L 10.2857142857143 5.85  C 10.6407544820341 5.85  10.9285714285714 6.14101491260998  10.9285714285714 6.5  C 10.9285714285714 6.85898508739002  10.6407544820341 7.15  10.2857142857143 7.15  L 9.64285714285714 7.15  C 9.28781694653735 7.15  9 6.85898508739002  9 6.5  C 9 6.14101491260998  9.28781694653735 5.85  9.64285714285714 5.85  Z M 3.21428571428571 9.1  L 3.85714285714286 9.1  C 4.21218305346265 9.1  4.5 9.39101491260998  4.5 9.75  C 4.5 10.10898508739  4.21218305346265 10.4  3.85714285714286 10.4  L 3.21428571428571 10.4  C 2.85924551796592 10.4  2.57142857142857 10.10898508739  2.57142857142857 9.75  C 2.57142857142857 9.39101491260998  2.85924551796592 9.1  3.21428571428571 9.1  Z M 6.42857142857143 9.1  L 11.5714285714286 9.1  C 11.9264687677484 9.1  12.2142857142857 9.39101491260998  12.2142857142857 9.75  C 12.2142857142857 10.10898508739  11.9264687677484 10.4  11.5714285714286 10.4  L 6.42857142857143 10.4  C 6.07353123225163 10.4  5.78571428571429 10.10898508739  5.78571428571429 9.75  C 5.78571428571429 9.39101491260998  6.07353123225163 9.1  6.42857142857143 9.1  Z M 14.1428571428571 9.1  L 14.7857142857143 9.1  C 15.1407544820341 9.1  15.4285714285714 9.39101491260998  15.4285714285714 9.75  C 15.4285714285714 10.10898508739  15.1407544820341 10.4  14.7857142857143 10.4  L 14.1428571428571 10.4  C 13.7878169465373 10.4  13.5 10.10898508739  13.5 9.75  C 13.5 9.39101491260998  13.7878169465373 9.1  14.1428571428571 9.1  Z " fill-rule="nonzero" fill="#333333" stroke="none" transform="matrix(1 0 0 1 341 462 )" />
  </g>
</svg>