<?xml version="1.0" encoding="utf-8"?>
<svg version="1.1" xmlns:xlink="http://www.w3.org/1999/xlink" width="35px" height="35px" xmlns="http://www.w3.org/2000/svg">
  <g transform="matrix(1 0 0 1 -170 -7 )">
    <path d="M 17.641265170061 34.8109901557374  C 15.2891426636805 34.8039897911351  12.9090186988908 34.3629668211888  10.8439111412054 33.4669201520913  C 8.77880358352011 32.570873482994  6.95170842231382 31.3388093129852  5.37662638679105 29.7567269128602  C 3.80154435126844 28.1816448773374  2.56247981665724 26.3545497161311  1.66643314756 24.2894421584458  C 0.770386478462592 22.2243346007606  0.32236314391389 20.0122193864265  0.32236314391389 17.6670972446483  C 0.32236314391389 15.3219751028702  0.770386478462592 12.9348507734779  1.66643314756 10.8697432157926  C 2.56247981665724 8.80463565810721  3.79454398666605 6.97754049690093  5.36962602218882 5.40245846137832  C 6.94470805771143 3.82737642585571  8.76480285431549 2.58831189124451  10.8299104120008 1.6922652221471  C 12.895017969686 0.796218553049857  15.1071331840201 0.348195218500996  17.4522553257984 0.348195218500996  C 19.7973774675765 0.348195218500996  22.1845017969687 0.796218553049857  24.2566097192563 1.6922652221471  C 26.328717641544 2.58831189124451  28.1558128027503 3.82037606125332  29.7238944736707 5.40245846137832  C 31.2989765091933 6.97754049690093  32.5310406792021 8.80463565810721  33.4340877129018 10.8697432157926  C 34.3371347466014 12.9348507734779  34.7851580811503 15.32197510287  34.7851580811503 17.6670972446483  C 34.7851580811503 20.0122193864264  34.3371347466014 22.2243346007606  33.4340877129018 24.2894421584458  C 32.5310406792021 26.3545497161311  31.2989765091933 28.1816448773374  29.7238944736707 29.7567269128602  C 28.1488124381479 31.3318089483828  26.328717641544 32.570873482994  24.2636100838587 33.4669201520913  C 22.1985025261734 34.3629668211887  19.9863873118394 34.8109901557374  17.641265170061 34.8109901557374  Z M 17.466256055003 32.5988749414034  C 19.5243632480859 32.6058753060058  21.6384733579875 32.2138548882756  23.4515677899892 31.4368144174177  C 25.2646622219907 30.65977394656  26.8537449867181 29.5887181624044  28.218816084171 28.2236470649515  C 29.5838871816242 26.8585759674987  30.6549429657796 25.2694932027711  31.4249830720351 23.4633991353718  C 32.1950231782906 21.6573050679726  32.5800432314184 19.5501953226734  32.5800432314184 17.485087764988  C 32.5800432314184 15.4199802073027  32.1950231782907 13.4878795770615  31.4179827074327 11.6817855096622  C 30.640942236575 9.87569144226295  29.5698864524194 8.28660867753572  28.1978149903642 6.91453721548037  C 26.8257435283088 5.54246575342502  25.2366607635815 4.4714099692696  23.4375670607846 3.70136986301411  C 21.6384733579875 2.93132975675862  19.5243632480859 2.5463097036308  17.4522553257984 2.5463097036308  C 15.387147768113 2.5463097036308  13.4550471378718 2.93132975675846  11.6489530704726 3.70136986301411  C 9.8428590030733 4.4714099692696  8.2607766029483 5.54246575342518  6.89570550549533 6.91453721548037  C 5.53063440804222 8.28660867753572  4.46657898848919 9.87569144226295  3.6965388822337 11.6817855096622  C 2.92649877597821 13.4878795770615  2.54147872285039 15.4199802073027  2.54147872285039 17.485087764988  C 2.54147872285039 19.5501953226734  2.92649877597805 21.6573050679726  3.6965388822337 23.4633991353718  C 4.46657898848919 25.2694932027711  5.53063440804222 26.8585759674985  6.90270587009757 28.2236470649515  C 8.27477733215292 29.5887181624046  9.85685973227792 30.65977394656  11.655953435075 31.4368144174177  C 13.4550471378718 32.2138548882756  15.3941481327154 32.5988749414034  17.466256055003 32.5988749414034  Z M 13.2450361998025 28.0346372206887  C 13.0210245325279 28.0416375852909  12.8390150528674 27.9646335746656  12.6850070316164 27.8176259180166  C 12.5309990103653 27.6706182613678  12.4539949997398 27.4886087817074  12.4539949997398 27.2715974790356  C 12.4539949997398 27.0755872701705  12.5309990103653 26.9075785197148  12.6850070316164 26.7605708630658  C 12.8390150528675 26.6135632064171  13.0210245325279 26.5365591957916  13.2240351059953 26.5365591957916  C 13.2240351059953 26.5365591957916  16.6962159487475 26.5365591957916  16.6962159487475 26.5365591957916  C 16.6962159487475 26.5365591957916  16.6962159487475 24.2964425230482  16.6962159487475 24.2964425230482  C 15.5691572477736 24.1914370540133  14.5751054742437 23.8624199177043  13.7140606281579 23.3023907495183  C 12.8530157820721 22.7423615813324  12.1809807802492 21.8323141830306  11.7049559872912 20.9222667847284  C 11.2289311943333 20.0122193864264  10.983918433252 18.9971665190896  10.983918433252 17.8771081827179  C 10.983918433252 17.8771081827179  10.983918433252 15.8400020834418  10.983918433252 15.8400020834418  C 10.983918433252 15.6369915099746  11.0609224438775 15.4619823949164  11.2079301005263 15.32197510287  C 11.3549377571752 15.1819678108235  11.5299468722332 15.104963800198  11.7399578103028 15.104963800198  C 11.9359680191679 15.104963800198  12.1039767696237 15.1749674462211  12.2579847908748 15.32197510287  C 12.411992812126 15.4619823949164  12.4889968227513 15.6369915099746  12.4889968227513 15.8400020834418  C 12.4889968227513 15.8400020834418  12.4889968227513 17.8771081827179  12.4889968227513 17.8771081827179  C 12.4889968227513 18.836158133236  12.6920073962187 19.6832022501172  13.105028907756 20.4182405333612  C 13.518050419293 21.1532788166054  14.0920803166835 21.8953174644513  14.841119329132 22.3013386113861  C 15.5901583415806 22.7073597583208  16.4582035522686 22.9103703317882  17.4452549611961 22.9103703317882  C 18.4463070993284 22.9103703317882  19.4963617896769 22.7073597583208  20.2454008021255 22.3013386113861  C 20.994439814574 21.8953174644515  21.5684697119646 21.1532788166052  21.9814912235015 20.4182405333612  C 22.3945127350386 19.6832022501173  22.5975233085061 18.8361581332362  22.5975233085061 17.8771081827179  C 22.5975233085061 17.8771081827179  22.5975233085061 15.8400020834418  22.5975233085061 15.8400020834418  C 22.5975233085061 15.6369915099746  22.6745273191315 15.4619823949164  22.8215349757804 15.32197510287  C 22.9685426324292 15.1819678108235  23.1435517474872 15.104963800198  23.3535626855568 15.104963800198  C 23.5495728944219 15.104963800198  23.7175816448776 15.1749674462211  23.8645893015264 15.32197510287  C 24.0115969581753 15.4619823949164  24.0886009688008 15.6369915099746  24.0886009688008 15.8400020834418  C 24.0886009688008 15.8400020834418  24.0886009688008 17.8771081827179  24.0886009688008 17.8771081827179  C 24.0886009688008 18.9971665190896  23.8505885723218 20.0052190218241  23.3815641439661 20.9082660555238  C 22.9055393510081 21.8113130892234  22.2405047137874 22.7213604875254  21.3794598677018 23.2883900203137  C 20.518415021616 23.8554195531017  19.5243632480861 24.1844366894109  18.3973045471122 24.2894421584458  C 18.3973045471122 24.2894421584458  18.3973045471122 26.5295588311893  18.3973045471122 26.5295588311893  C 18.3973045471122 26.5295588311893  21.8694853898645 26.5295588311893  21.8694853898645 26.5295588311893  C 22.0724959633318 26.5295588311893  22.2475050783899 26.6065628418148  22.4015130996411 26.7535704984636  C 22.5485207562899 26.9005781551124  22.6255247669154 27.0755872701705  22.6255247669154 27.2645971144332  C 22.6255247669154 27.4676076879006  22.5485207562899 27.6496171675608  22.3945127350387 27.803625188812  C 22.2405047137875 27.9576332100632  22.0654955987295 28.0346372206887  21.8764857544667 28.0346372206887  C 21.8764857544667 28.0346372206887  13.2450361998025 28.0346372206887  13.2450361998025 28.0346372206887  Z M 17.6202640762541 20.9642689723424  C 16.7802203239754 20.9642689723424  15.9191754778896 20.6702536590449  15.3941481327154 20.0822230324498  C 14.8691207875411 19.4941924058547  14.6101072972553 18.7661544872129  14.6101072972553 17.9051096411273  C 14.6101072972553 17.9051096411273  14.6101072972553 10.2957133184022  14.6101072972553 10.2957133184022  C 14.6101072972553 9.42766810771425  14.8691207875411 8.70663055367502  15.3941481327154 8.12560029168217  C 15.9191754778896 7.54457002968948  16.7802203239754 7.25055471639178  17.6202640762541 7.25055471639178  C 18.4743085577375 7.25055471639178  19.1603442887653 7.54457002968948  19.6783712693371 8.12560029168217  C 20.1963982499091 8.70663055367502  20.455411740195 9.42766810771425  20.455411740195 10.2957133184022  C 20.455411740195 10.2957133184022  20.455411740195 17.9051096411273  20.455411740195 17.9051096411273  C 20.455411740195 18.7731548518155  20.1963982499091 19.4941924058547  19.6783712693371 20.0822230324498  C 19.1603442887653 20.6702536590449  18.4743085577375 20.9642689723424  17.6202640762541 20.9642689723424  Z " fill-rule="nonzero" fill="#3478f6" stroke="none" transform="matrix(1 0 0 1 170 7 )" />
  </g>
</svg>