<?xml version="1.0" encoding="utf-8"?>
<svg version="1.1" xmlns:xlink="http://www.w3.org/1999/xlink" width="26px" height="25px" xmlns="http://www.w3.org/2000/svg">
  <g transform="matrix(1 0 0 1 -221 -640 )">
    <path d="M 13.0245283018868 1.93289704952804E-05  C 20.2021181957547 0.0122834799074099  25.9999919976415 5.81935536127955  25.9999919976415 13.0000113197576  C 25.9999919976415 17.7309046309425  23.4705124292453 21.8731190650792  19.6931562688679 24.1481176535023  C 19.0247604410378 24.5497683514038  18.1816005849057 24.0469384695934  18.2091948938679 23.2712314133987  C 18.2214590448114 22.9400995527242  18.3992891108491 22.6396280387317  18.6813644292453 22.4679300175958  C 19.4509394410377 22.0049585956701  20.162259735849 21.4500061030382  20.8061272617924 20.8061386080946  C 21.8209851391509 19.7912807312712  22.6150884221698 18.6108569394408  23.1731069528302 17.2955275486249  C 23.7464556415094 15.9372736601901  24.0377290731132 14.4901047387833  24.0377290731132 13.0000113197576  C 24.0377290731132 11.509917900732  23.7464556721698 10.0627489793252  23.1700409150943 8.70449509089042  C 22.6150884221698 7.3891657000745  21.8179191014151 6.20874190824406  20.8030612240566 5.19388406208103  C 19.7882033466981 4.17902618525764  18.6077795542453 3.38492290265748  17.2924501933962 2.8269043722913  C 15.9372623419812 2.25355568391436  14.4900934198113 1.96228228312455  13 1.96228228312455  C 11.5099065801887 1.96228228312455  10.0627376580188 2.25355568391436  8.70448376886793 2.82997041002554  C 7.38915437735852 3.38492290265748  6.20873058490565 4.18209222299186  5.19387273820757 5.19695009981527  C 4.17901486084907 6.21180797663865  3.38491157783017 7.39223176846912  2.82689304716985 8.70756112862463  C 2.25354435849056 10.0627489793252  1.96227092688685 11.509917900732  1.96227092688685 13.0000113197576  C 1.96227092688685 14.4901047387833  2.25354432783024 15.9372736601901  2.82995908490568 17.2955275486249  C 3.38491157783017 18.6108569394408  4.1820808985849 19.7912807312712  5.19693877594341 20.8061386080946  C 5.8408063018868 21.4500061336985  6.55212662735846 22.0049586263304  7.32170160849057 22.4679300175958  C 7.60377689622646 22.6365620009975  7.78160699292448 22.9400995527242  7.7938711132075 23.2712314133987  C 7.82146542216981 24.0530705450619  6.97217349056609 24.5497683514038  6.30377769339623 24.1450516464285  C 2.52642153301883 21.870053027345  0 17.7309046309425  0 13.0000113197576  C 0 5.81322328581109  5.8316081886793 -0.0122448219664477  13.0245283018868 1.93289704952804E-05  Z M 10.5471713136792 13.2452941792453  C 10.5471713136792 11.893172365566  11.6478781863208 10.7924654929245  13 10.7924654929245  C 14.3521218136792 10.7924654929245  15.4528286863208 11.893172365566  15.4528286863208 13.2452941792453  C 15.4528286863208 14.5974159929245  14.3521218136792 15.698122865566  13 15.698122865566  C 11.6478781863208 15.698122865566  10.5471713136792 14.5974159929245  10.5471713136792 13.2452941792453  Z M 17.415091610849 13.2452941792453  C 17.415091610849 10.8077956509434  15.4374984976415 8.83020256839623  13 8.83020256839623  C 10.5625015023585 8.83020256839623  8.584908389151 10.8077956816038  8.584908389151 13.2452941792453  C 8.584908389151 15.6827926768868  10.5625015023585 17.6603857900944  13 17.6603858207547  C 15.4374984976415 17.6603858514151  17.415091610849 15.6827927075472  17.415091610849 13.2452941792453  Z M 13.0766508820755 4.4151109268868  C 17.7676857358491 4.47336561320756  21.5266456698114 8.2568538490566  21.554240009434 12.9478887028302  C 21.5695701981132 15.6582644056604  20.3278256816038 18.0804327146226  18.3808929150944 19.6655732429246  C 18.2245250825472 19.7943467358491  17.9853742924529 19.729960004717  17.9117894174528 19.5398657877359  C 17.749289509434 19.1290169764151  17.5407990660377 18.7426964669811  17.2863181179246 18.3870363042453  C 17.1974030849057 18.2613288490566  17.2157992806603 18.0896308278302  17.329242615566 17.9884516438679  C 17.4396199127359 17.8903384976415  17.5469311721698 17.7891593136792  17.6542424316037 17.6849140919811  C 18.9051850613208 16.4339714622642  19.5950431226415 14.7721800212264  19.5950431226415 13.0030773514151  C 19.5950431226415 11.2339746816038  18.9051850613208 9.57218324056603  17.6542424316037 8.32124061084906  C 16.4032998018868 7.07029798113209  14.741508360849 6.38043991981132  12.9724056910377 6.38043991981132  C 11.2033030212265 6.38043991981132  9.54151158018863 7.07029798113209  8.29056891981134 8.32124061084906  C 7.03962629009436 9.57218324056603  6.34976822877354 11.2339746816038  6.34976822877354 13.0030773514151  C 6.34976822877354 14.7721800212264  7.03962629009436 16.4339714622642  8.29056891981134 17.6849140919811  C 8.40094621698108 17.7952913891509  8.51438955188678 17.9026026485849  8.63396496226414 18.0037818325472  C 8.75967241745286 18.114159129717  8.78420071933965 18.3011873089623  8.68608757311324 18.4360928773585  C 8.44693678301883 18.7794888891509  8.24764445283017 19.1474132028302  8.09434262735851 19.5398657877359  L 8.09127658962268 19.5429318254717  C 8.01155966981128 19.7514222688679  7.75094661556602 19.8158090306604  7.57924862499999 19.6778373938679  C 5.62924982075469 18.1049610165094  4.38443926650939 15.698122865566  4.38443926650939 13.0000113136792  C 4.38443926650939 8.22312746462265  8.28750291273582 4.35685624056603  13.0766508820755 4.4151109268868  Z " fill-rule="nonzero" fill="#666666" stroke="none" transform="matrix(1 0 0 1 221 640 )" />
  </g>
</svg>