<?xml version="1.0" encoding="utf-8"?>
<svg version="1.1" xmlns:xlink="http://www.w3.org/1999/xlink" width="26px" height="23px" xmlns="http://www.w3.org/2000/svg">
  <g transform="matrix(1 0 0 1 -34 -641 )">
    <path d="M 25.8395061828704 3.61111111111109  L 25.8395061828704 12.5762962962963  L 25.8395061828704 19.0185185185186  C 25.8395061828704 20.9685185185185  24.2586419953703 22.5493827060186  22.3086419652777 22.5493827060186  L 3.69135803472227 22.5493827060186  C 1.74135803472223 22.5493827060186  0.160493847222256 20.9685185185185  0.160493817129577 19.0185185185186  L 0.160493817129577 3.61111111111109  C 0.160493817129577 1.66111111111115  1.74135800462966 0.080246923611071  3.69135803472227 0  L 22.3086419652777 0  C 24.2586419652778 0.080246923611071  25.8395061527777 1.66111111111115  25.8395061828704 3.61111111111109  Z M 18.7777777777778 9.06790122453708  C 20.755061738426 9.06790122453708  22.5994567800926 9.57281481481482  23.9135802569444 10.3306666666667  L 23.9135802569444 3.61111111111109  C 23.9135802569444 2.72472818482379  23.1950249216577 2.00617284953705  22.3086419953704 2.00617284953705  C 22.3086419953704 2.00617284953705  22.3086419652777 2.00617284953705  22.3086419652777 2  L 3.69135803472227 2  C 3.69135803472227 2.00617284953705  3.69135800462959 2.00617284953705  3.69135800462959 2.00617284953705  C 2.8049750783423 2.00617284953705  2.08641974305556 2.72472818482379  2.08641974305556 3.61111111111109  L 2 3.61111111111109  L 2 13.9774074074074  C 2.51148921467166 13.914284138573  2.9406395289277 13.8826342997911  3.37037037037032 13.8827160393519  C 5.38379514965447 13.879774369179  7.33492365798577 14.5806773256429  8.88622222222227 15.8641728495371  C 10.4430123356482 11.8078518518519  14.3513580347222 9.06790122453708  18.7777777777778 9.06790122453708  Z M 23.9135802569444 12.8054814814815  C 23.7530864398149 12.5551111111112  23.2777037037037 12.1538765532408  22.6000987754629 11.8149135902778  C 21.5694074074074 11.2994074074074  20.2536790023148 10.9938271504629  18.7777777777778 10.9938271504629  C 15.1133827060186 10.9938271504629  11.8826419652778 13.2888888888889  10.6397777777778 16.672098775463  C 10.5576049282407 16.8961481481482  10.4170123356481 17.2835802569444  10.2186419652778 17.8331111111112  C 9.98753085416672 18.4741234467593  9.18185185185189 18.6789135902778  8.67276544212962 18.226  C 8.17812347685185 17.7856049282408  7.81348148148152 17.4716790023149  7.58525925925926 17.2887160393519  C 6.39068718824967 16.3282434849066  4.9031790469744 15.8058994106228  3.37037037037032 15.8086419652778  C 2.93511111111116 15.8086419652778  2.50595062731486 15.849728375  2.08641974305556 15.9306172939815  L 2.08641974305556 19.0185185185186  C 2.08641974305556 19.9049014448059  2.8049750783423 20.6234567800926  3.69135800462959 20.6234567800926  L 22.3086419652777 20.6234567800926  C 23.1950249216577 20.6234567800926  23.9135802569444 19.9049014448059  23.9135802569444 19.0185185185186  L 23.9135802569444 12.8051604837963  Z M 7.22222222222217 10.3518518518518  C 5.62673294493322 10.3518518518518  4.33333333333337 9.058452240252  4.33333333333337 7.46296296296293  C 4.33333333333337 5.86747368567399  5.62673294493322 4.57407407407413  7.22222222222217 4.57407407407413  C 8.81771149951123 4.57407407407413  10.1111111111111 5.86747368567399  10.1111111111111 7.46296296296293  C 10.1111111111111 9.058452240252  8.81771149951123 10.3518518518518  7.22222222222217 10.3518518518518  Z M 7.22222222222217 8.42592592592598  C 7.75405198131853 8.42592592592598  8.18518518518522 7.99479272205929  8.18518518518522 7.46296296296293  C 8.18518518518522 6.93113320386669  7.75405198131853 6.5  7.22222222222217 6.5  C 6.69039246312593 6.5  6.25925925925924 6.93113320386669  6.25925925925924 7.46296296296293  C 6.25925925925924 7.99479272205929  6.69039246312593 8.42592592592598  7.22222222222217 8.42592592592598  Z " fill-rule="nonzero" fill="#666666" stroke="none" transform="matrix(1 0 0 1 34 641 )" />
  </g>
</svg>