<?xml version="1.0" encoding="utf-8"?>
<svg version="1.1" xmlns:xlink="http://www.w3.org/1999/xlink" width="55px" height="55px" xmlns="http://www.w3.org/2000/svg">
  <g transform="matrix(1 0 0 1 -207 -525 )">
    <path d="M 55 27.5  C 55 12.3136160714286  42.6863839285714 0  27.5 0  C 12.3136160714286 0  0 12.3136160714286  0 27.5  C 0 42.6863839285714  12.3136160714286 55  27.5 55  C 42.6863839285714 55  55 42.6863839285714  55 27.5  Z M 39.8504464285714 31.4715401785714  C 41.1824776785714 35.7745535714286  40.7466517857143 37.5546875  40.4213169642857 37.5915178571429  C 39.7154017857143 37.6774553571429  37.6651785714286 34.3565848214286  37.6651785714286 34.3565848214286  C 37.6651785714286 36.2779017857142  36.6707589285714 38.7885044642857  34.5284598214286 40.60546875  C 35.5658482142857 40.9246651785714  37.8984375 41.7840401785714  37.3459821428571 42.7170758928571  C 36.8978794642857 43.4720982142857  29.6361607142857 43.2020089285714  27.5368303571429 42.9626116071429  C 25.4375 43.1958705357142  18.17578125 43.4720982142857  17.7276785714286 42.7170758928571  C 17.1690848214286 41.7840401785714  19.5016741071429 40.9246651785714  20.5390625 40.60546875  C 18.390625 38.7946428571429  17.40234375 36.2840401785714  17.40234375 34.3565848214286  C 17.40234375 34.3565848214286  15.3521205357143 37.6774553571429  14.6462053571429 37.5915178571429  C 14.3147321428571 37.5485491071429  13.8850446428571 35.7745535714286  15.2232142857142 31.4715401785714  C 15.85546875 29.4458705357143  16.5736607142857 27.7578125  17.6908482142857 24.9771205357143  C 17.5005580357142 17.8013392857142  20.4715401785714 11.7795758928571  27.5368303571429 11.7795758928571  C 34.5284598214286 11.7795758928571  37.5608258928571 17.6785714285714  37.3828125 24.9771205357143  C 38.4938616071429 27.7516741071429  39.2181919642857 29.4458705357143  39.8504464285714 31.4715401785714  Z " fill-rule="nonzero" fill="#ec6964" stroke="none" transform="matrix(1 0 0 1 207 525 )" />
  </g>
</svg>