<?xml version="1.0" encoding="utf-8"?>
<svg version="1.1" xmlns:xlink="http://www.w3.org/1999/xlink" width="18px" height="18px" xmlns="http://www.w3.org/2000/svg">
  <g transform="matrix(1 0 0 1 -331 -51 )">
    <path d="M 15.5989562173486 10.0962422763797  C 16.2073923996924 10.199805881885  16.7122649765308 10.488920947254  17.1135739478639 10.9506420217986  C 17.514882919197 11.4123630963431  17.7220101302076 11.956072025246  17.7349555808958 12.5774536582779  C 17.7349555808958 12.5774536582779  17.7349555808958 15.1665437959108  17.7349555808958 15.1665437959108  C 17.7349555808958 15.5376467156382  17.6572828767668 15.8958041846774  17.5062526187383 16.2323859025697  C 17.3552223607097 16.5689676204619  17.1394648492402 16.8623978360604  16.8632952345594 17.1126765493648  C 16.3799984088679 17.5528218727624  15.8060834283593 17.7772096846907  15.1458654432629 17.7772096846907  C 15.1458654432629 17.7772096846907  14.8135988756 17.7772096846907  14.8135988756 17.7772096846907  C 12.3712238457662 17.4751491686334  9.99789121960274 16.6595857752791  7.91367365880825 15.3348346548569  C 5.88555305099578 14.0359744358111  4.21990506245195 12.3746415974966  2.92104484340608 10.3422058394547  C 1.59629372298392 8.27093372934844  0.77210002917077 5.90623140364366  0.457094062425426 3.45954122358057  C 0.400997109443404 3.08843830385317  0.431203161049098 2.72165053435517  0.539081916783812 2.36349306531597  C 0.651275822747891 2.0053355962767  0.828196982152826 1.68169932907263  1.07847569545735 1.40121456416234  C 1.32875440876184 1.11641464902279  1.62218462436025 0.900657137553367  1.96739664271132 0.749626879524726  C 2.31260866106236 0.598596621496154  2.67076613010159 0.520923917367168  3.04618420005836 0.520923917367168  C 3.04618420005836 0.520923917367168  5.63527433769129 0.520923917367168  5.63527433769129 0.520923917367168  C 6.26960142141135 0.507978466679037  6.83057095123181 0.702160227001468  7.32249807738209 1.1120994987934  C 7.81442520353233 1.51772362035592  8.11217056936011 2.03985679811183  8.22436447532419 2.67418388183191  C 8.23730992601236 2.82521413986049  8.27183112784749 3.01939590018292  8.32792808082954 3.25241401256994  C 8.40991593518789 3.64077753321487  8.52210984115201 4.020510753401  8.66019464849242 4.3916136731284  C 8.81122490652102 4.80586809514973  8.80690975629159 5.21580736694159  8.63861889734545 5.62574663873345  C 8.47464318862871 6.03137076029598  8.1898432734891 6.33343127635312  7.78853430215597 6.52761303667562  C 7.78853430215597 6.52761303667562  7.43469198334614 6.77789174998018  7.43469198334614 6.77789174998018  C 7.90504335834945 7.61934604471089  8.5868370945928 8.38312763531255  9.27294598106554 9.0649213715559  C 9.95473971730885 9.74671510779924  10.7185213079106 10.4328239942719  11.5599756026413 10.9031753692752  C 11.5599756026413 10.9031753692752  11.745527062505 10.5104966984009  11.745527062505 10.5104966984009  C 11.9397088228274 10.1091877270678  12.2417693388846 9.82870296215756  12.6560237609059 9.66041210321146  C 13.0702781829272 9.49643639449469  13.4845326049484 9.48780609403595  13.8987870269697 9.63883635206453  C 14.2569444960089 9.77692115940497  14.6323625659657 9.89343021559841  15.0164109363813 9.9926786708744  C 15.0164109363813 9.9926786708744  15.1415502930335 10.0142544220213  15.1415502930335 10.0142544220213  C 15.3486775040441 10.0703513750033  15.4997077620728 10.0962422763797  15.5989562173486 10.0962422763797  Z M 16.0391015407462 15.2744225516456  C 16.0391015407462 15.2744225516456  16.0175257895993 12.5774536582779  16.0175257895993 12.5774536582779  C 16.0175257895993 12.3703264472672  15.9571136863879 12.1847749874035  15.8319743297356 12.0164841284574  C 15.7068349730834 11.8525084197407  15.5428592643666 11.7489448142353  15.335732053356 11.7057933119415  C 15.335732053356 11.7057933119415  14.6323625659657 11.5806539552892  14.6323625659657 11.5806539552892  C 14.1749566416506 11.4684600493251  13.7261810177942 11.3390055424435  13.2860356943966 11.1879752844149  C 13.2860356943966 11.1879752844149  12.746641915723 12.3875870481848  12.746641915723 12.3875870481848  C 12.6517086106765 12.6076597098836  12.4877329019598 12.7630051181416  12.2590299398022 12.8536232729587  C 12.0303269776446 12.9442414277759  11.8059391657164 12.9399262775465  11.5858665040176 12.8449929725  C 10.2611153835955 12.2236113394681  8.97088546500839 11.3907873451961  7.93524940995521 10.3508361399136  C 6.89961335490207 9.30656978440172  6.07110451085952 8.01633986581462  5.44972287782763 6.69158874539239  C 5.35478957278104 6.47151608369363  5.34184412209291 6.2471282717654  5.4195168262219 6.01842530960785  C 5.49287438012152 5.78972234745029  5.64390463815009 5.63006178896292  5.86397729984889 5.530813333687  C 5.86397729984889 5.530813333687  7.06358906361877 4.96984380386657  7.06358906361877 4.96984380386657  C 6.89961335490203 4.54264393115711  6.76584369779099 4.09818345753013  6.67091039274444 3.64509268344434  C 6.61481343976238 3.41207457105738  6.57166193746849 3.17474130844103  6.54577103609216 2.94172319605407  C 6.50261953379827 2.73459598504344  6.39905592829299 2.57062027632667  6.23508021957622 2.44548091967442  C 6.07110451085945 2.32034156302218  5.88123790076638 2.25992945981079  5.67842583998512 2.25992945981079  C 5.67842583998512 2.25992945981079  3.08933570235218 2.25992945981079  3.08933570235218 2.25992945981079  C 2.8261115383595 2.25992945981079  2.6103540268901 2.35917791508671  2.44637831817337 2.56198997586794  C 2.2824026094566 2.76048688641984  2.21336020578638 2.99350499880679  2.2392511071627 3.25672916279948  C 2.50247527115539 5.45314062955808  3.22742050969263 7.58482484287583  4.41408682277438 9.43170914105397  C 5.5748622344798 11.2527025378558  7.05927391338934 12.7457445172241  8.86732185950301 13.9065199289296  C 10.7185213079105 15.1061316926995  12.8502055212283 15.8483375321543  15.0423018377575 16.1245071468351  C 15.3055260017502 16.1503980482114  15.5342289639078 16.0813556445412  15.737041024689 15.9173799358245  C 15.9355379352409 15.7534042271077  16.0391015407462 15.5376467156383  16.0391015407462 15.2744225516456  Z " fill-rule="nonzero" fill="#333333" stroke="none" transform="matrix(1 0 0 1 331 51 )" />
  </g>
</svg>