<?xml version="1.0" encoding="utf-8"?>
<svg version="1.1" xmlns:xlink="http://www.w3.org/1999/xlink" width="16px" height="16px" xmlns="http://www.w3.org/2000/svg">
  <g>
    <path d="M 12.1364446609309 5.29506529896907  C 12.4660782226405 5.29348994773661  12.7957084384378 5.29129063099914  13.1253334995764 5.28846736082474  L 13.3075557182051 5.28670789690722  C 15.0573333878481 5.27395187628866  16.2542222144649 6.68019243298969  15.9475555655329 8.38421993814433  L 14.9853333920119 13.7325085979381  C 14.7764445082587 14.8963848865979  13.6537779065163 15.8262543092783  12.4617779754501 15.8271340206186  L 3.55466738638513 15.8350515463918  C 3.06612299801744 15.8343409243129  2.66943661325196 15.444099648326  2.66577854195659 14.9606048041237  L 2.64888966793328 7.0435189072165  C 2.64883501678602 6.56276716482766  3.03874026209214 6.17100509878313  3.52444515896623 6.16379381443299  L 3.59022294682894 6.16247422680412  C 3.69911183636519 6.16159449484536  3.83600070344885 6.16159449484536  3.99911179818274 6.16247422680412  C 5.91466724990542 6.17830927835051  7.55911159230655 4.37487284536082  7.55555605084551 2.63785567010309  C 7.55244494685876 0.849374577319588  8.38444489874387 0.024192432989691  9.77333369342389 0.00747767010309253  C 11.0702225142576 -0.00791752577319618  11.9942224608224 1.23645360824742  12.0097780015894 3.08211684536082  C 12.0142224388324 3.63062544329897  11.878666905005 4.59216494845361  11.7075558107337 5.29726459793814  C 11.8364446991134 5.29726459793814  11.9800002324782 5.29638486597938  12.1364446609309 5.29550515463917  Z M 1.32133418220634 6.15807560824742  C 1.56444527231379 6.15807560824742  1.7675563855678 6.35557389690722  1.7675563855678 6.59881787628866  L 1.77777859330998 15.3943092783505  C 1.77777998245796 15.3947580268079  1.77778067703317 15.3952067771078  1.77778067703317 15.3956555276712  C 1.77778067703317 15.6383419727927  1.57899511745388 15.8350782080836  1.33378070270986 15.8350782080836  C 1.33215034613422 15.8350782080836  1.33052000192419 15.8350693207181  1.32888974426939 15.8350515463918  L 0.448445336852507 15.8350515463918  C 0.44711172894203 15.8350634283563  0.44577807374748 15.8350693694288  0.444444411797606 15.8350693694288  C 0.198984541014271 15.8350693694288  0 15.6381362040466  0 15.3952068333463  L 0.000889821068151152 6.59881787628866  C 0.000886079189452974 6.59808211728845  0.000884208241216772 6.59734635013341  0.000884208241216772 6.59661058181332  C 0.000884208241216772 6.35440999923656  0.199271795623117 6.15806763335971  0.443995286782596 6.15806763335971  C 0.444886052636975 6.15806763335971  0.445776816466149 6.1580702916677  0.446667566121983 6.15807560824742  L 1.32133418220634 6.15807560824742  Z " fill-rule="nonzero" fill="#ff5252" stroke="none" />
  </g>
</svg>