<?xml version="1.0" encoding="utf-8"?>
<svg version="1.1" xmlns:xlink="http://www.w3.org/1999/xlink" width="20px" height="15px" xmlns="http://www.w3.org/2000/svg">
  <g transform="matrix(1 0 0 1 -325 -310 )">
    <path d="M 18.9646692351832 0.753635031560034  C 19.2532174768424 1.01062330928766  19.4040495122552 1.34200293056811  19.4040495122552 1.75453674481519  C 19.4040495122552 2.16707055906221  19.2597753914256 2.49845018034266  18.9646692351832 2.76220130748426  C 18.9646692351832 2.76220130748426  8.09820477088289 13.9682427862941  8.09820477088289 13.9682427862941  C 7.84900401672262 14.2522824616773  7.53422411673093 14.387539449955  7.15386507090743 14.387539449955  C 6.77350602508392 14.387539449955  6.45872612509224 14.2455196122634  6.20952537093196 13.9682427862941  C 6.20952537093196 13.9682427862941  1.17304697106316 8.77437443642936  1.17304697106316 8.77437443642936  C 0.897614558570219 8.51738615870168  0.759898352323799 8.19276938683515  0.759898352323799 7.80052412082966  C 0.759898352323799 7.40827885482428  0.884498729403938 6.90782799819665  1.1402573981472 6.62378832281341  C 1.38945815230748 6.33974864743028  1.70423805229906 6.20449165915247  2.08459709812267 6.20449165915247  C 2.45839822936287 6.20449165915247  2.78629395852094 6.33298579801636  3.06172637101388 6.59673692515796  C 3.06172637101388 6.59673692515796  7.15386507090733 11.0196404418396  7.15386507090733 11.0196404418396  C 7.15386507090733 11.0196404418396  17.0759898352323 0.753635031560034  17.0759898352323 0.753635031560034  C 17.3251905893926 0.469595356176846  17.6399704893842 0.33433836789909  18.0203295352078 0.33433836789909  C 18.4006885810311 0.33433836789909  18.715468481023 0.47635820559071  18.9646692351832 0.753635031560034  Z " fill-rule="nonzero" fill="#3478f6" stroke="none" transform="matrix(1 0 0 1 325 310 )" />
  </g>
</svg>