<?xml version="1.0" encoding="utf-8"?>
<svg version="1.1" xmlns:xlink="http://www.w3.org/1999/xlink" width="45px" height="24px" xmlns="http://www.w3.org/2000/svg">
  <g>
    <path d="M 11.25 0  L 33.75 0  C 40.05 0  45 5.28  45 12  C 45 18.72  40.05 24  33.75 24  L 11.25 24  C 4.95 24  0 18.72  0 12  C 0 5.28  4.95 0  11.25 0  Z M 11.2 8.79999999999996  C 9.40799999999998 8.79999999999996  8.00000000000001 10.208  8.00000000000001 12  C 8.00000000000001 13.792  9.40799999999998 15.2  11.2 15.2  L 17.6 15.2  C 19.392 15.2  20.8 13.792  20.8 12  C 20.8 10.208  19.392 8.79999999999996  17.6 8.79999999999996  L 11.2 8.79999999999996  Z " fill-rule="nonzero" fill="#cccccc" stroke="none" />
  </g>
</svg>