<?xml version="1.0" encoding="utf-8"?>
<svg version="1.1" xmlns:xlink="http://www.w3.org/1999/xlink" width="14px" height="14px" xmlns="http://www.w3.org/2000/svg">
  <g transform="matrix(1 0 0 1 -18 -520 )">
    <path d="M 2.26002981147541 12.110743274  L 5.94718330327869 12.110743274  C 6.22373718762926 12.110743274  6.44792843121884 12.3295539277434  6.44792843121884 12.599470548  C 6.44792843121884 12.8693871682566  6.22373718762926 13.088197822  5.94718327343195 13.088197822  L 2.26002981147541 13.088197822  C 1.03520716393443 13.088197822  0.0417287643442621 12.122146918  0.0417287643442621 10.92965237  L 0.0417287643442621 2.209454548  C 0.0417287643442622 1.01696  1.03520714959016 0.050909096  2.26002981147541 0.050909096  L 9.78289121106558 0.050909096  C 11.0077138586066 0.050909096  12.0011922581967 1.01696  12.0011922438525 2.209454548  L 12.0011922438525 5.72926837  C 12.0011922510246 5.99926770774215  11.777001007435 6.21807836148558  11.5004470932377 6.21807836148558  C 11.2238931790404 6.21807836148558  10.9997019354508 5.99926770774215  10.9997019354508 5.72935108748557  L 10.999701942623 2.209454548  C 10.999701942623 1.557818178  10.4555588790984 1.028363644  9.78289121106558 1.02836363  L 2.26002981147541 1.02836363  C 1.58736214344262 1.02836363  1.04321907991803 1.55749237  1.04321907991803 2.209454548  L 1.04321907991803 10.92965237  C 1.04321907991803 11.58128874  1.58736214344262 12.110743274  2.26002981147541 12.110743274  Z M 3.25684650877583 3.73656437  C 2.98029259457852 3.73656437  2.75610135098894 3.51775371625658  2.75610135098894 3.247837096  C 2.75610135098894 2.97792047574342  2.98029259457852 2.759109822  3.25684650877583 2.759109822  L 8.75302533401639 2.759109822  C 9.02957923329033 2.759109822  9.25377047687991 2.97792047574342  9.25377047687991 3.247837096  C 9.25377047687991 3.51775371625658  9.02957923329033 3.73656437  8.75302531909302 3.73656437  L 3.25651267418033 3.73656437  Z M 3.25684649385246 6.408273452  C 2.98029257965515 6.408273452  2.75610133606557 6.18946279825658  2.75610133606557 5.919546178  C 2.75610133606557 5.64962955774342  2.98029257965515 5.430818904  3.25684649385246 5.430818904  L 8.75302533401639 5.430818904  C 9.0295792482137 5.430818904  9.25377049180328 5.64962955774342  9.25377049180328 5.919546178  C 9.25377049180328 6.18946279825658  9.0295792482137 6.408273452  8.75302533401639 6.408273452  L 3.25651267418033 6.408273452  Z M 5.31791355532787 9.079005096  L 3.25684649385246 9.079005096  C 2.98029257965515 9.079005096  2.75610133606557 8.86019444225657  2.75610133606557 8.590277822  C 2.75610133606557 8.32036120174342  2.98029257965515 8.101550548  3.25684649385246 8.101550548  L 5.31791355532787 8.101550548  C 5.59446746952518 8.101550548  5.81865871311475 8.32036120174342  5.81865871311475 8.590277822  C 5.81865871311475 8.86019444225657  5.59446746952518 9.079005096  5.31791355532787 9.079005096  Z M 13.9644471004098 10.413230548  C 13.9644471004098 12.391598548  12.3159940491803 13.994624  10.2829687008197 13.994624  C 8.24994336680328 13.994624  6.60149031557377 12.391598548  6.60149031557377 10.41355637  C 6.60149031557377 8.435514192  8.24994336680328 6.83248874  10.2829687008197 6.832488726  C 12.3159940348361 6.832488726  13.9644470860656 8.435514178  13.9644471004098 10.413230548  Z M 7.46944858811475 10.413230548  C 7.46944858811475 11.923072  8.72865573770492 13.147496726  10.2829687008197 13.147496726  C 11.8372816639344 13.147496726  13.0964888135246 11.923072  13.0964888278689 10.41355637  C 13.0964888422131 8.90404074  11.8372816782787 7.679616  10.2829687008197 7.679616  C 8.72865573770492 7.679616  7.46944858811475 8.904040726  7.46944858811475 10.413230548  Z M 9.62198509426229 10.967773096  L 11.5385037192623 9.10539637  C 11.619858957269 9.02633832342015  11.7299885991775 8.98195283530568  11.8447928432377 8.98195283530568  C 12.0845415695528 8.98195283530568  12.2788963132114 9.17164306511647  12.2788963132114 9.405637822  C 12.2788963132114 9.51832543881557  12.2329009269125 9.62637059962933  12.1510819672131 9.705879274  L 9.93445007581967 11.859537452  C 9.76753987477127 12.0215563950213  9.49871810548403 12.0241584114499  9.32854843647541 11.865402178  L 8.10405960860656 10.724061096  C 8.0183473916491 10.6441437560506  7.9698593889098 10.5334853920079  7.9698593889098 10.417792  C 7.9698593889098 10.1838639846686  8.16415869740637 9.99422785957596  8.40383904098361 9.99422785957596  C 8.51550565673338 9.99422785957596  8.62287501518021 10.0362383923498  8.70361847336066 10.111522904  L 9.6216512602459 10.967447274  Z " fill-rule="nonzero" fill="#aaaaaa" stroke="none" transform="matrix(1 0 0 1 18 520 )" />
  </g>
</svg>