<?xml version="1.0" encoding="utf-8"?>
<svg version="1.1" xmlns:xlink="http://www.w3.org/1999/xlink" width="14px" height="13px" xmlns="http://www.w3.org/2000/svg">
  <g transform="matrix(1 0 0 1 -18 -426 )">
    <path d="M 4.725 11.090625  C 4.725 10.8096354166667  4.49338235294118 10.5828125  4.20857843137255 10.5828125  L 1.5218137254902 10.5828125  C 1.26960784313725 10.5828125  1.06372549019608 10.354296875  1.06372549019608 10.075  L 1.06372549019608 1.57083333333333  C 1.06372549019608 1.29153645833333  1.26960784313725 1.06302083333333  1.5218137254902 1  L 12.0218137254902 1  C 12.2740196078431 1.06302083333333  12.4799019607843 1.29153645833333  12.4799019607843 1.57083333333333  L 12.4799019607843 2.66940104166667  C 12.4799019607843 2.950390625  12.7098039215686 3.17721354166667  12.9946078431373 3.17721354166667  C 13.2794117647059 3.17721354166667  13.5093137254902 2.950390625  13.5093137254902 2.66940104166667  L 13.5093137254902 1.57083333333333  C 13.5093137254902 0.731250000000001  12.8419117647059 0.0473958333333345  12.0218137254902 0  L 1.5218137254902 0  C 0.70171568627451 0.0473958333333345  0.0343137254901968 0.731250000000001  0.0343137254901968 1.57083333333333  L 0.0343137254901968 10.075  C 0.0343137254901968 10.9145833333333  0.70171568627451 11.5984375  1.5218137254902 11.5984375  L 4.21029411764706 11.5984375  C 4.49509803921569 11.5984375  4.725 11.3716145833333  4.725 11.090625  Z M 13.7254901960784 8.29427083333333  C 13.9262254901961 8.09622395833333  13.9262254901961 7.774609375  13.7254901960784 7.5765625  C 13.5247549019608 7.378515625  13.1987745098039 7.378515625  12.9980392156863 7.5765625  L 8.80490196078432 11.7118489583333  L 6.72720588235294 9.66197916666667  C 6.52647058823529 9.46393229166667  6.20049019607843 9.46393229166667  5.99975490196078 9.66197916666667  C 5.79901960784314 9.86002604166667  5.79901960784314 10.181640625  5.99975490196078 10.3796875  L 8.44117647058824 12.7901041666667  C 8.53725490196079 12.8848958333333  8.66936274509804 12.9390625  8.80490196078432 12.9390625  C 8.94044117647059 12.9390625  9.07254901960784 12.8848958333333  9.16862745098039 12.7901041666667  L 13.7254901960784 8.29427083333333  Z M 6.64828431372549 4.58723958333333  C 6.71691176470588 4.38411458333333  6.90906862745098 4.23854166666667  7.13725490196078 4.23854166666667  C 7.36544117647059 4.23854166666667  7.5593137254902 4.38411458333333  7.62622549019608 4.58723958333333  L 7.72058823529412 4.58723958333333  L 9.47916666666667 2.85221354166667  C 9.67990196078432 2.65416666666667  9.67990196078432 2.33255208333333  9.47916666666667 2.13450520833333  C 9.27843137254902 1.93645833333333  8.95245098039216 1.93645833333333  8.75171568627451 2.13450520833333  L 7.1389705882353 3.72565104166667  L 5.52622549019608 2.13450520833333  C 5.32549019607843 1.93645833333333  4.99950980392157 1.93645833333333  4.79877450980392 2.13450520833333  C 4.59803921568628 2.33255208333333  4.59803921568628 2.65416666666667  4.79877450980392 2.85221354166667  L 6.55392156862745 4.58723958333333  L 6.64828431372549 4.58723958333333  Z M 6.62254901960784 7.32942708333333  L 6.62254901960784 8.78515625  C 6.62254901960784 9.06614583333333  6.85245098039216 9.29296875  7.13725490196078 9.29296875  C 7.42205882352941 9.29296875  7.65196078431373 9.06614583333333  7.65196078431373 8.78515625  L 7.65196078431373 7.32942708333333  L 6.62254901960784 7.32942708333333  Z M 6.62254901960784 6.31380208333333  L 6.62254901960784 5.60286458333333  L 7.65196078431373 5.60286458333333  L 7.65196078431373 6.31380208333333  L 6.62254901960784 6.31380208333333  Z M 7.62622549019608 4.58723958333333  C 7.5593137254902 4.38411458333333  7.36544117647059 4.23854166666667  7.13725490196078 4.23854166666667  C 6.90906862745098 4.23854166666667  6.71519607843137 4.38411458333333  6.64828431372549 4.58723958333333  L 7.62622549019608 4.58723958333333  Z M 6.62254901960784 4.74635416666667  C 6.62254901960784 4.717578125  6.62598039215686 4.68880208333333  6.62941176470588 4.66171875  L 6.55392156862745 4.58723958333333  L 4.40416666666667 4.58723958333333  C 4.11936274509804 4.58723958333333  3.88946078431373 4.8140625  3.88946078431373 5.09505208333333  C 3.88946078431373 5.37604166666667  4.11936274509804 5.60286458333333  4.40416666666667 5.60286458333333  L 6.62254901960784 5.60286458333333  L 6.62254901960784 4.74635416666667  Z M 7.64509803921569 4.66171875  C 7.65024509803921 4.68880208333333  7.65196078431373 4.717578125  7.65196078431373 4.74635416666667  L 7.65196078431373 5.60286458333333  L 9.8703431372549 5.60286458333333  C 10.1551470588235 5.60286458333333  10.3850490196078 5.37604166666667  10.3850490196078 5.09505208333333  C 10.3850490196078 4.8140625  10.1551470588235 4.58723958333333  9.8703431372549 4.58723958333333  L 7.72058823529412 4.58723958333333  L 7.64509803921569 4.66171875  Z M 6.62941176470588 4.66171875  C 6.63455882352941 4.636328125  6.63970588235294 4.6109375  6.64828431372549 4.58723958333333  L 6.55392156862745 4.58723958333333  L 6.62941176470588 4.66171875  Z M 7.62622549019608 4.58723958333333  C 7.63480392156863 4.6109375  7.63995098039216 4.636328125  7.64509803921569 4.66171875  L 7.72058823529412 4.58723958333333  L 7.62622549019608 4.58723958333333  Z M 7.65196078431373 5.60286458333333  L 7.65196078431373 4.74635416666667  C 7.65196078431373 4.717578125  7.65024509803921 4.69049479166667  7.64509803921569 4.66171875  L 7.50098039215686 4.80390625  C 7.39975490196079 4.90377604166667  7.26936274509804 4.95286458333333  7.13725490196078 4.95286458333333  C 7.00514705882353 4.95286458333333  6.87303921568627 4.90377604166667  6.77352941176471 4.80390625  L 6.62941176470588 4.66171875  C 6.62426470588235 4.68880208333333  6.62254901960784 4.717578125  6.62254901960784 4.74635416666667  L 6.62254901960784 5.60286458333333  L 7.65196078431373 5.60286458333333  Z M 7.62622549019608 4.58723958333333  L 6.64828431372549 4.58723958333333  C 6.63970588235294 4.6109375  6.63455882352941 4.636328125  6.62941176470588 4.66171875  L 6.7735294117647 4.80390625  C 6.87475490196078 4.90377604166667  7.00514705882353 4.95286458333333  7.13725490196078 4.95286458333333  C 7.26936274509804 4.95286458333333  7.40147058823529 4.90377604166667  7.50098039215686 4.80390625  L 7.64509803921568 4.66171875  C 7.63995098039216 4.636328125  7.63480392156863 4.6109375  7.62622549019608 4.58723958333333  Z M 7.65196078431373 7.32942708333333  L 9.8703431372549 7.32942708333333  C 10.1551470588235 7.32942708333333  10.3850490196078 7.10260416666667  10.3850490196078 6.82161458333333  C 10.3850490196078 6.540625  10.1551470588235 6.31380208333333  9.8703431372549 6.31380208333333  L 7.65196078431373 6.31380208333333  L 7.65196078431373 7.32942708333333  Z M 6.62254901960784 6.31380208333333  L 4.40416666666667 6.31380208333333  C 4.11936274509804 6.31380208333333  3.88946078431372 6.540625  3.88946078431372 6.82161458333333  C 3.88946078431372 7.10260416666667  4.11936274509804 7.32942708333333  4.40416666666667 7.32942708333333  L 6.62254901960784 7.32942708333333  L 6.62254901960784 6.31380208333333  Z M 6.62254901960784 7.32942708333333  L 6.62254901960784 6.31380208333333  L 7.65196078431373 6.31380208333333  L 7.65196078431373 7.32942708333333  L 6.62254901960784 7.32942708333333  Z " fill-rule="nonzero" fill="#aaaaaa" stroke="none" transform="matrix(1 0 0 1 18 426 )" />
  </g>
</svg>