<?xml version="1.0" encoding="utf-8"?>
<svg version="1.1" xmlns:xlink="http://www.w3.org/1999/xlink" width="14px" height="14px" xmlns="http://www.w3.org/2000/svg">
  <g transform="matrix(1 0 0 1 -18 -140 )">
    <path d="M 13.9816727272727 7.02300225225225  C 13.9816727272727 10.852490990991  10.8596727272727 13.9568490990991  7.00865454545455 13.9568490990991  C 3.15747727272727 13.9568490990991  0.0356363636363638 10.8525067567568  0.0356363636363638 7.02300225225225  C 0.0356363636363638 3.19349774774775  3.15746136363636 0.0892342342342342  7.00865454545455 0.0892342342342342  C 10.8596727272727 0.0892342342342342  13.9816727272727 3.19351351351351  13.9816727272727 7.02300225225225  Z M 12.8557068181818 7.01969144144144  C 12.8557068181818 3.78767792792793  10.2207636363636 1.16777027027027  6.97095 1.16777027027027  C 3.72057954545455 1.16777027027027  1.08603409090909 3.78767792792793  1.08603409090909 7.01969144144144  C 1.08603409090909 10.2515945945946  3.72057954545455 12.8716126126126  6.97095 12.8716126126126  C 10.2207795454545 12.8716126126126  12.8557068181818 10.2515788288288  12.8557068181818 7.01969144144144  Z M 10.361575 5.6321463963964  C 10.3615590909091 5.78408108108108  10.2998318181818 5.92152702702703  10.2000818181818 6.02100900900901  L 6.88114318181818 9.32959684684685  C 6.78075681818182 9.42931531531532  6.64271363636364 9.4908018018018  6.48938181818182 9.4908018018018  C 6.33665454545454 9.4908018018018  6.19800681818182 9.42868468468468  6.09793863636364 9.32928153153153  L 3.89285909090909 7.12853828828829  C 3.79283863636364 7.02921396396397  3.73111136363636 6.89197297297297  3.73111136363636 6.74038513513514  C 3.73111136363636 6.43610585585586  3.97916590909091 6.18992342342342  4.28427045454545 6.18992342342342  C 4.43734772727273 6.18992342342342  4.575725 6.25172522522523  4.67606363636364 6.35152252252252  L 6.48938181818182 8.16166891891892  L 9.41697272727273 5.2435518018018  C 9.51712045454545 5.14383333333333  9.65600681818182 5.08239414414414  9.80865454545454 5.08239414414414  C 10.1138704545455 5.08239414414414  10.361575 5.32857657657658  10.361575 5.6321463963964  Z " fill-rule="nonzero" fill="#03b615" stroke="none" transform="matrix(1 0 0 1 18 140 )" />
  </g>
</svg>