<?xml version="1.0" encoding="utf-8"?>
<svg version="1.1" xmlns:xlink="http://www.w3.org/1999/xlink" width="23px" height="22px" xmlns="http://www.w3.org/2000/svg">
  <g transform="matrix(1 0 0 1 -80 -175 )">
    <path d="M 22.2259615384617 7.88783868935096  C 22.7419871794871 7.97101449275368  23 8.18357487922711  23 8.52551984877127  C 23 8.72883847931107  22.8802083333333 8.95064062171804  22.640625 9.1909262759925  L 17.6231971153846 14.0982986767485  L 18.8118990384617 21.0296156269691  C 18.8211137820513 21.0943079185045  18.8257211538461 21.1867254778408  18.8257211538461 21.3068683049779  C 18.8257211538461 21.5009451795841  18.77734375 21.664986347406  18.6805889423077 21.7989918084434  C 18.5838341346154 21.9329972694811  18.4433092948719 22  18.2590144230769 22  C 18.0839342948719 22  17.8996394230769 21.9445494643982  17.7061298076923 21.8336483931946  L 11.5 18.5620667926905  L 5.29387019230774 21.8336483931946  C 5.09114583333326 21.9445494643982  4.90685096153834 22  4.74098557692298 22  C 4.54747596153834 22  4.40234375 21.9329972694811  4.30558894230774 21.7989918084434  C 4.20883413461536 21.664986347406  4.16045673076928 21.5009451795841  4.16045673076928 21.3068683049779  C 4.16045673076928 21.2514177693762  4.16967147435901 21.1590002100398  4.18810096153834 21.0296156269691  L 5.37680288461536 14.0982986767485  L 0.345552884615358 9.1909262759925  C 0.115184294871824 8.94139886578449  0 8.71959672337744  0 8.52551984877127  C 0 8.18357487922711  0.258012820512704 7.97101449275368  0.774038461538339 7.88783868935096  L 7.71274038461536 6.8758664146188  L 10.8227163461539 0.568367989918102  C 10.997796474359 0.189455996639396  11.2235576923077 0  11.5 0  C 11.7764423076923 0  12.002203525641 0.189455996639396  12.1772836538461 0.568367989918102  L 15.2872596153846 6.8758664146188  L 22.2259615384617 7.88783868935096  Z " fill-rule="nonzero" fill="#ff9900" stroke="none" transform="matrix(1 0 0 1 80 175 )" />
  </g>
</svg>