<?xml version="1.0" encoding="utf-8"?>
<svg version="1.1" xmlns:xlink="http://www.w3.org/1999/xlink" width="13px" height="15px" xmlns="http://www.w3.org/2000/svg">
  <g transform="matrix(1 0 0 1 -36 -160 )">
    <path d="M 0.12037037037037 14.6091968994141  C 0.0820365601851849 14.8250314920543  0.261757299210922 15  0.483454065972221 15  L 12.5165459340278 15  C 12.7382427007891 15  12.9179634398148 14.8250314920543  12.8796296296296 14.6091968994141  L 12.8796296296296 5.41438155761719  C 12.9178942548137 5.20596402822979  12.7498410159692 5.03427289792477  12.5360146828704 5.02416465820312  C 9.18839339467593 4.8690158203125  7.90506163657408 2.70298964355469  7.7037037037037 2.50954211425781  L 7.7037037037037 0.390803100585937  C 7.79687960879629 0.174968507945736  7.61715886977055 0  7.39546210300925 0  L 0.483454065972221 0  C 0.261757299210922 0  0.0820365601851849 0.174968507945736  0.12037037037037 0.390803100585937  L 0.12037037037037 14.6091968994141  Z M 8.68361087268518 13.7509932861328  L 7.7037037037037 13.7509932861328  L 7.7037037037037 4.99837166015625  L 8.8670586724537 5.53084088378906  C 9.00103455118446 5.59776366733133  9.08527073894604 5.73205588071147  9.02777777777778 5.87865563964844  L 9.02777777777778 13.3601901855469  C 9.08502837847223 13.5760247781871  8.90530763944648 13.7509932861328  8.68361087268518 13.7509932861328  Z M 11.2579013414352 11.2529798730469  L 10.3518518518519 11.2529798730469  L 10.3518518518519 6.252849609375  L 11.4042180266204 6.64365270996094  C 11.5582761969304 6.70217537134725  11.6597046867351 6.84668809868485  11.5555555555556 7.00768579101562  L 11.5555555555556 10.8621767724609  C 11.6593188472222 11.0780113651011  11.4795981081965 11.2529798730469  11.2579013414352 11.2529798730469  Z M 1.44444444444444 3.75  L 1.44444444444444 2.5382661328125  L 6.5 2.5382661328125  L 6.5 3.75  L 1.44444444444444 3.75  Z M 1.44444444444444 7.5  L 5.2801925613426 7.5  L 5.2801925613426 8.77450661132812  L 1.44444444444444 8.77450661132812  L 1.44444444444444 7.5  Z M 6.5 5.00481990234375  L 6.5 6.27492997558594  L 1.44444444444444 6.27492997558594  L 1.44444444444444 5.00481990234375  L 6.5 5.00481990234375  Z " fill-rule="nonzero" fill="#ffffff" stroke="none" transform="matrix(1 0 0 1 36 160 )" />
  </g>
</svg>