<?xml version="1.0" encoding="utf-8"?>
<svg version="1.1" xmlns:xlink="http://www.w3.org/1999/xlink" width="160px" height="40px" xmlns="http://www.w3.org/2000/svg">
  <g transform="matrix(1 0 0 1 -20 -100 )">
    <path d="M 20.5 105  A 4.5 4.5 0 0 1 25 100.5 L 175 100.5  A 4.5 4.5 0 0 1 179.5 105 L 179.5 135  A 4.5 4.5 0 0 1 175 139.5 L 25 139.5  A 4.5 4.5 0 0 1 20.5 135 L 20.5 105  Z " fill-rule="nonzero" fill="#ffffff" stroke="none" />
    <path d="M 20.5 105  A 4.5 4.5 0 0 1 25 100.5 L 175 100.5  A 4.5 4.5 0 0 1 179.5 105 L 179.5 135  A 4.5 4.5 0 0 1 175 139.5 L 25 139.5  A 4.5 4.5 0 0 1 20.5 135 L 20.5 105  Z " stroke-width="1" stroke="#e4e4e4" fill="none" />
  </g>
</svg>