<?xml version="1.0" encoding="utf-8"?>
<svg version="1.1" xmlns:xlink="http://www.w3.org/1999/xlink" width="20px" height="20px" xmlns="http://www.w3.org/2000/svg">
  <g transform="matrix(1 0 0 1 -30 -563 )">
    <path d="M 19.8575279245283 10  C 19.8575279245283 15.4339622641509  15.4339622641509 19.8575279245283  10 19.8575279245283  C 4.56603773584906 19.8575279245283  0.142472075471698 15.4339622641509  0.142472075471698 10  C 0.142472075471698 4.56603773584905  4.56603773584906 0.142472075471698  10 0.142472075471698  C 15.4339622641509 0.142472075471698  19.8575279245283 4.56603773584906  19.8575279245283 10  Z M 18.8717751179245 10  C 18.8717751179245 5.10820176886793  14.8917982311321 1.12822488207547  10 1.12822488207547  C 5.10820176886793 1.12822488207547  1.12822488207547 5.10820176886793  1.12822488207547 10  C 1.12822488207547 14.8917982311321  5.10820176886793 18.8717751179245  10 18.8717751179245  C 14.8917982311321 18.8717751179245  18.8717751179245 14.8917982311321  18.8717751179245 10  Z M 6.66076242924528 14.0415864386792  C 6.54986523584905 14.1401617216981  6.42664613207547 14.1894493632075  6.30342702830189 14.1894493632075  C 6.1802079245283 14.1894493632075  6.05698882075472 14.1401617216981  5.95841356132075 14.0415864386792  C 5.76126299528302 13.8444358726415  5.76126299528302 13.5363881367925  5.95841356132075 13.3392375707547  L 13.3515594811321 5.9460916509434  C 13.5487100471698 5.74894108490566  13.8567577830189 5.74894108490566  14.0539083490566 5.9460916509434  C 14.2510589150943 6.14324221698113  14.2510589150943 6.45128995283019  14.0539083490566 6.64844051886792  L 6.66076242924528 14.0415864386792  Z M 14.0539083490566 14.0415864386792  C 13.9430111556604 14.1401617216981  13.8197920518868 14.1894493632075  13.6965729716981 14.1894493632075  C 13.5733538679245 14.1894493632075  13.4501347641509 14.1401617216981  13.3515594811321 14.0415864386792  L 5.95841356132076 6.64844051886792  C 5.76126299528302 6.45128995283019  5.76126299528302 6.14324221698113  5.95841356132076 5.9460916509434  C 6.15556412735849 5.74894108490566  6.46361186320755 5.74894108490566  6.66076242924528 5.9460916509434  L 14.0539083490566 13.3392375707547  C 14.2510589150943 13.5363881367925  14.2510589150943 13.8444358726415  14.0539083490566 14.0415864386792  Z " fill-rule="nonzero" fill="#666666" stroke="none" transform="matrix(1 0 0 1 30 563 )" />
  </g>
</svg>