<?xml version="1.0" encoding="utf-8"?>
<svg version="1.1" xmlns:xlink="http://www.w3.org/1999/xlink" width="60px" height="60px" xmlns="http://www.w3.org/2000/svg">
  <defs>
    <linearGradient gradientUnits="userSpaceOnUse" x1="0" y1="25" x2="49.5" y2="25" id="LinearGradient336">
      <stop id="Stop337" stop-color="#3478f6" offset="0" />
      <stop id="Stop338" stop-color="#02a7f0" offset="1" />
    </linearGradient>
    <filter x="-5px" y="-5px" width="60px" height="60px" filterUnits="userSpaceOnUse" id="filter339">
      <feOffset dx="0" dy="0" in="SourceAlpha" result="shadowOffsetInner" />
      <feGaussianBlur stdDeviation="2.5" in="shadowOffsetInner" result="shadowGaussian" />
      <feComposite in2="shadowGaussian" operator="atop" in="SourceAlpha" result="shadowComposite" />
      <feColorMatrix type="matrix" values="0 0 0 0 0  0 0 0 0 0  0 0 0 0 0  0 0 0 0.247058823529412 0  " in="shadowComposite" />
    </filter>
    <g id="widget340">
      <path d="M 25 1  C 38.44 1  49 11.56  49 25  C 49 38.44  38.44 49  25 49  C 11.56 49  1 38.44  1 25  C 1 11.56  11.56 1  25 1  Z " fill-rule="nonzero" fill="url(#LinearGradient336)" stroke="none" />
      <path d="M 25 1  C 38.44 1  49 11.56  49 25  C 49 38.44  38.44 49  25 49  C 11.56 49  1 38.44  1 25  C 1 11.56  11.56 1  25 1  Z " stroke-width="2" stroke="#ffffff" fill="none" />
    </g>
  </defs>
  <g transform="matrix(1 0 0 1 5 5 )">
    <use xlink:href="#widget340" filter="url(#filter339)" />
    <use xlink:href="#widget340" />
  </g>
</svg>