<?xml version="1.0" encoding="utf-8"?>
<svg version="1.1" xmlns:xlink="http://www.w3.org/1999/xlink" width="13px" height="15px" xmlns="http://www.w3.org/2000/svg">
  <g transform="matrix(1 0 0 1 -15 -140 )">
    <path d="M 2.925 9.51136363636363  L 6.5 12.8863636363636  L 10.075 9.51136363636363  C 11.022989007915 8.61631765197819  11.5555555555556 7.40242960063016  11.5555555555556 6.13670800654973  C 11.5555555555556 3.50080351872094  9.29210623525568 1.36398073382245  6.5 1.36398073382245  C 3.70789376474432 1.36398073382245  1.44444444444444 3.50080351872094  1.44444444444444 6.13670800654973  C 1.44444444444444 7.40242960063016  1.97701099208502 8.61631765197819  2.925 9.51136363636363  Z M 11.0962222222222 10.4754545454545  L 6.5 14.8145454545455  L 1.90377777777778 10.4754545454545  C 0.684808534959487 9.32466529262033  0 7.76386857970067  0 6.13641677650961  C 0 2.74739672072974  2.91014912609984 5.31401459769043E-05  6.5 5.31401459769043E-05  C 10.0898508739002 5.31401459769043E-05  13 2.74739672072974  13 6.13641677650961  C 13 7.76386857970067  12.3151914650405 9.32466529262033  11.0962222222222 10.4754545454545  Z M 6.5 7.5  C 7.29774463864448 7.5  7.94444444444444 6.88947920431472  7.94444444444444 6.13636363636364  C 7.94444444444444 5.38324806841255  7.29774463864448 4.77272727272727  6.5 4.77272727272727  C 5.70225536135552 4.77272727272727  5.05555555555556 5.38324806841255  5.05555555555556 6.13636363636364  C 5.05555555555556 6.88947920431472  5.70225536135552 7.5  6.5 7.5  Z M 6.5 8.86363636363636  C 4.90451072271104 8.86363636363636  3.61111111111111 7.6425947722658  3.61111111111111 6.13636363636364  C 3.61111111111111 4.63013250046147  4.90451072271104 3.40909090909091  6.5 3.40909090909091  C 8.09548927728896 3.40909090909091  9.38888888888889 4.63013250046147  9.38888888888889 6.13636363636364  C 9.38888888888889 7.6425947722658  8.09548927728896 8.86363636363636  6.5 8.86363636363636  Z " fill-rule="nonzero" fill="#ffffff" stroke="none" transform="matrix(1 0 0 1 15 140 )" />
  </g>
</svg>