<?xml version="1.0" encoding="utf-8"?>
<svg version="1.1" xmlns:xlink="http://www.w3.org/1999/xlink" width="14px" height="14px" viewBox="30 735.5  14 14" xmlns="http://www.w3.org/2000/svg">
  <path d="M 30.5 742.5  A 6.5 6.5 0 0 1 37 736 A 6.5 6.5 0 0 1 43.5 742.5 A 6.5 6.5 0 0 1 37 749 A 6.5 6.5 0 0 1 30.5 742.5 Z " fill-rule="nonzero" fill="#ffffff" stroke="none" />
  <path d="M 30.5 742.5  A 6.5 6.5 0 0 1 37 736 A 6.5 6.5 0 0 1 43.5 742.5 A 6.5 6.5 0 0 1 37 749 A 6.5 6.5 0 0 1 30.5 742.5 Z " stroke-width="1" stroke="#797979" fill="none" />
</svg>