<?xml version="1.0" encoding="utf-8"?>
<svg version="1.1" xmlns:xlink="http://www.w3.org/1999/xlink" width="17px" height="20px" xmlns="http://www.w3.org/2000/svg">
  <g transform="matrix(1 0 0 1 -343 -59 )">
    <path d="M 5.91077830439815 11.0613524023437  L 5.90993902777778 11.0605192773438  L 11.823603849537 15.0753371875  C 12.37826261971 14.4950814512658  13.1487027106232 14.1664827823036  13.9545250513115 14.1664827823036  C 15.5768773297101 14.1664827823036  16.8920537064041 15.4719887444631  16.8920537064041 17.0824119619911  C 16.8920537064041 18.6928351795191  15.5768773297101 19.9983411416786  13.9545250513115 19.9983411416786  C 12.3321727729129 19.9983411416786  11.0169963962189 18.6928351795191  11.0169963962189 17.0824119619911  C 11.0169963962189 16.9128515598801  11.0318957261568 16.7436142767449  11.0615249965278 16.5766241601563  L 5.08155594444444 12.5159844921875  C 4.53418984998197 13.0391931137496  3.80386819919936 13.3314936196267  3.04398173501033 13.3314936196267  C 1.42162945661173 13.3314936196267  0.106453079917737 12.0259876574672  0.106453079917737 10.4155644399392  C 0.106453079917737 8.80514122241114  1.42162945661173 7.49963526025167  3.04398173501033 7.49963526025167  C 3.68631469590163 7.49963526025167  4.31094305625801 7.70862569457977  4.82221411689815 8.094602734375  L 11.097614619213 3.59657369140625  C 11.0437296145669 3.37369843790129  11.0165052195696 3.1452938636784  11.0165052195696 2.91608996007326  C 11.0165052195696 1.30566674254524  12.3316815962636 0.000160780385761768  13.9540338746622 0.000160780385761768  C 15.5763861530608 0.000160780385761768  16.8915625297548 1.30566674254524  16.8915625297548 2.91608996007326  C 16.8915625297548 4.52651317760128  15.5763861530608 5.83201913976076  13.9540338746622 5.83201913976076  C 13.2078981445133 5.83201913976076  12.4897219550378 5.55017646888454  11.9453014583333 5.0437076953125  L 5.81425950578704 9.44176201171875  C 6.00040728739412 9.96163616947837  6.03388051531192 10.523318650601  5.91077830439815 11.0613524023437  Z M 13.9554103622685 4.1680958203125  C 14.6507041966441 4.1680958203125  15.2143512158565 3.60859326447669  15.2143512158565 2.91841188476563  C 15.2143512158565 2.22823050505456  14.6507041966441 1.66872794921875  13.9554103622685 1.66872794921875  C 13.2601165278929 1.66872794921875  12.6964695086806 2.22823050505456  12.6964695086806 2.91841188476563  C 12.6964695086806 3.60859326447669  13.2601165278929 4.1680958203125  13.9554103622685 4.1680958203125  Z M 13.9554103622685 18.3311804101563  C 14.6507041966441 18.3311804101563  15.2143512158565 17.7716778543204  15.2143512158565 17.0814964746094  C 15.2143512158565 16.3913150948983  14.6507041966441 15.8318125390625  13.9554103622685 15.8318125390625  C 13.2601165278929 15.8318125390625  12.6964695086806 16.3913150948983  12.6964695086806 17.0814964746094  C 12.6964695086806 17.7716778543204  13.2601165278929 18.3311804101563  13.9554103622685 18.3311804101563  Z M 3.04458963773148 11.6661994140625  C 3.73988346667372 11.6661994140625  4.30353048148148 11.1066968625989  4.30353048148148 10.4165154882813  C 4.30353048148148 9.72633411396359  3.73988346667372 9.1668315625  3.04458963773148 9.1668315625  C 2.34929580878924 9.1668315625  1.78564879398148 9.72633411396359  1.78564879398148 10.4165154882813  C 1.78564879398148 11.1066968625989  2.34929580878924 11.6661994140625  3.04458963773148 11.6661994140625  Z " fill-rule="nonzero" fill="#ffffff" stroke="none" transform="matrix(1 0 0 1 343 59 )" />
  </g>
</svg>