<?xml version="1.0" encoding="utf-8"?>
<svg version="1.1" xmlns:xlink="http://www.w3.org/1999/xlink" width="12px" height="12px" xmlns="http://www.w3.org/2000/svg">
  <g transform="matrix(1 0 0 1 -66 -234 )">
    <path d="M 1.5544 11.7737739130435  C 1.452 11.8939826086957  1.292 11.9607652173913  1.1256 11.9607652173913  C 0.9656 11.9607652173913  0.812 11.8939826086957  0.7032 11.780452173913  C 0.46 11.5333565217391  0.4536 11.1326608695652  0.6904 10.8788869565217  L 1.5032 10.0040347826087  L 0.3192 9.02233043478261  C 0.1912 8.91547826086956  0.108 8.76187826086957  0.0952 8.59492173913043  C 0.0824 8.4279652173913  0.1208 8.26100869565217  0.2232 8.12744347826087  C 0.3384 7.97384347826087  0.5176 7.88702608695652  0.7032 7.88702608695652  C 0.8376 7.88702608695652  0.9784 7.93377391304348  1.0808 8.02726956521739  L 2.3608 9.08911304347826  L 3.3144 8.06066086956521  L 3.3272 8.04730434782609  L 3.4808 7.89370434782609  L 3.3592 7.70671304347826  C 2.6552 6.63819130434783  2.3928 5.34260869565217  2.6168 4.06706086956522  C 3.0264 1.74302608695652  4.9656 0.053426086956521  7.2248 0.053426086956521  C 7.5064 0.053426086956521  7.7944 0.0801391304347819  8.076 0.133565217391304  C 10.6168 0.621078260869565  12.3064 3.17885217391304  11.8392 5.83012173913043  C 11.4296 8.15415652173913  9.4904 9.84375652173913  7.2312 9.84375652173913  C 6.9496 9.84375652173913  6.6616 9.81704347826087  6.38 9.76361739130435  C 5.6952 9.63005217391304  5.068 9.35624347826087  4.5048 8.93551304347826  L 4.3256 8.80194782608696  L 3.308 9.89718260869565  L 4.364 10.7720347826087  C 4.6264 10.9924173913043  4.6712 11.3931130434783  4.46 11.6669217391304  C 4.3448 11.8205217391304  4.1656 11.9073391304348  3.98 11.9073391304348  C 3.8456 11.9073391304348  3.7048 11.8605913043478  3.6024 11.7670956521739  L 2.4504 10.8121043478261  L 1.5544 11.7737739130435  Z M 7.8648 1.32229565217391  C 7.6536 1.28222608695652  7.436 1.26219130434783  7.2248 1.26219130434783  C 5.5288 1.26219130434783  4.0696 2.53106086956522  3.7624 4.27408695652174  C 3.5896 5.23575652173913  3.7944 6.21746086956522  4.3256 7.02553043478261  C 4.8632 7.8336  5.6632 8.37453913043478  6.5848 8.55485217391304  C 6.796 8.59492173913043  7.0072 8.61495652173913  7.2248 8.61495652173913  C 8.9208 8.61495652173913  10.38 7.34608695652174  10.6872 5.60306086956522  C 10.86 4.64139130434782  10.6552 3.6663652173913  10.124 2.85161739130435  C 9.5864 2.04354782608696  8.7864 1.50260869565217  7.8648 1.32229565217391  Z " fill-rule="nonzero" fill="#84c1f9" stroke="none" transform="matrix(1 0 0 1 66 234 )" />
  </g>
</svg>