<?xml version="1.0" encoding="utf-8"?>
<svg version="1.1" xmlns:xlink="http://www.w3.org/1999/xlink" width="18px" height="18px" xmlns="http://www.w3.org/2000/svg">
  <g transform="matrix(1 0 0 1 -331 -276 )">
    <path d="M 7.4308875 14.9950125  C 7.64806875 14.8205625  7.72558125 14.7607125  7.861575 14.67196875  C 7.98883125 14.58894375  8.11813125 14.5181625  8.2647375 14.45865  C 8.4906375 14.3669625  8.73375 14.31249375  9 14.31249375  C 13.0799625 14.31249375  16.3125 11.43913125  16.3125 8.00000625  C 16.3125 4.56088125  13.0799625 1.6875  9 1.6875  C 4.9200375 1.6875  1.6875 4.5608625  1.6875 8.00000625  C 1.6875 10.4046375  3.27511875 12.60058125  5.77723125 13.66618125  C 6.44675625 13.95133125  6.8348625 14.55391875  6.89844375 15.2111625  C 6.90418125 15.2704875  6.907425 15.328425  6.90834375 15.38533125  C 7.064925 15.28258125  7.21565625 15.167925  7.43090625 14.9950125  Z M 5.00000625 18  C 3.50000625 18  5.71119375 15.4722375  5.1160125 15.21875625  C 2.0898375 13.9299375  0 11.1819  0 8.00000625  C 0 3.58171875  4.02943125 0  9 0  C 13.97056875 0  18 3.58171875  18 8.00000625  C 18 12.418275  13.97056875 15.99999375  9 15.99999375  C 8.7474375 15.99999375  8.38655625 16.49491875  7.5 17.00000625  C 6.6315 17.49481875  5.74228125 18  5.00000625 18  Z M 6.675 7.2375  L 11.325 7.2375  C 12.45 7.2375  12.45 5.55  11.325 5.55  L 6.675 5.55  C 5.55 5.55  5.55 7.2375  6.675 7.2375  Z M 6.675 10.6875  L 10.05 10.6875  C 11.175 10.6875  11.175 9  10.05 9  L 6.675 9  C 5.55 9  5.55 10.6875  6.675 10.6875  Z " fill-rule="nonzero" fill="#ffffff" stroke="none" transform="matrix(1 0 0 1 331 276 )" />
  </g>
</svg>