<?xml version="1.0" encoding="utf-8"?>
<svg version="1.1" xmlns:xlink="http://www.w3.org/1999/xlink" width="18px" height="18px" xmlns="http://www.w3.org/2000/svg">
  <g transform="matrix(1 0 0 1 -307 -58 )">
    <path d="M 17.678088367899 16.2181244364292  C 17.8468890892696 16.3825969341749  17.9291253381425 16.5816952209198  17.9291253381425 16.8154192966637  C 17.9291253381425 17.0491433724076  17.8468890892696 17.2568981064022  17.678088367899 17.4300270513977  C 17.5136158701533 17.6031559963931  17.3058611361587 17.6897204688909  17.0548241659152 17.6897204688909  C 16.8037871956717 17.6897204688909  16.5960324616772 17.5988277727683  16.4315599639314 17.4213706041479  C 16.4315599639314 17.4213706041479  13.2546438232642 14.2444544634806  13.2546438232642 14.2444544634806  C 12.2028854824166 15.0884580703336  11.0039675383227 15.6208295761947  9.6622182146077 15.8458972046889  C 8.37240757439129 16.0666366095582  7.00036068530205 15.9627592425609  5.75383228133451 15.5342651036971  C 4.48133453561766 15.1057709648332  3.39062218214608 14.3829576194771  2.48169522091978 13.3744815148783  C 1.57276825969341 12.3616771866547  0.966816952209228 11.1930568079351  0.663841298467105 9.86429215509465  C 0.386834986474287 8.5917944093778  0.421460775473406 7.21541929666366  0.767718665464395 5.95590622182146  C 1.13994589720469 4.6531109107304  1.8108205590622 3.5234445446348  2.77168620378718 2.55825067628498  C 3.73255184851216 1.59738503155993  4.86654643823267 0.926510369702419  6.16934174932373 0.554283137962125  C 7.42885482416593 0.208025247971204  8.80522993688007 0.173399458972085  10.0777276825969 0.450405770964835  C 11.4064923354374 0.753381424706959  12.5751127141569 1.35933273219121  13.5879170423805 2.26825969341751  C 14.5963931469793 3.17718665464388  15.3192064923355 4.26789900811545  15.7477006311993 5.54039675383231  C 16.1761947700631 6.78692515779985  16.2800721370604 8.16330027051392  16.0593327321912 9.44878268710549  C 15.8385933273219 10.7905320108206  15.3062218214608 11.9894499549144  14.4578899909829 13.0412082957619  C 14.4578899909829 13.0412082957619  17.678088367899 16.2181244364292  17.678088367899 16.2181244364292  Z M 8.39404869251582 14.2401262398557  C 9.4890892696123 14.2401262398558  10.5062218214608 13.963119927863  11.4454463480613 13.4091073038774  C 12.3587015329126 12.8680793507665  13.0858431018936 12.1409377817854  13.6268710550045 11.2276825969342  C 14.1808836789901 10.2841298467088  14.4578899909829 9.26699729486029  14.4578899909829 8.17628494138871  C 14.4578899909829 7.08557258791714  14.1808836789901 5.95590622182153  13.6268710550045 5.01668169522102  C 13.0858431018936 4.10342651036981  12.3587015329126 3.37628494138871  11.4454463480613 2.8352569882778  C 10.5062218214608 2.2812443642923  9.4847610459874 2.00423805229948  8.39404869251582 2.00423805229948  C 7.29900811541934 2.00423805229948  6.17366997294864 2.2812443642923  5.23011722272322 2.8352569882778  C 4.31686203787201 3.37628494138871  3.58972046889098 4.10342651036981  3.04869251578007 5.01668169522102  C 2.4946798917945 5.96023444544644  2.21767357980175 7.08557258791714  2.21767357980175 8.17628494138871  C 2.21767357980175 9.26699729486029  2.4946798917945 10.2884580703337  3.04869251578007 11.2276825969342  C 3.58972046889098 12.1409377817854  4.31686203787201 12.8680793507665  5.23011722272322 13.4091073038774  C 6.17366997294864 13.9631199278629  7.29900811541934 14.2401262398557  8.39404869251582 14.2401262398557  Z " fill-rule="nonzero" fill="#ffffff" stroke="none" transform="matrix(1 0 0 1 307 58 )" />
  </g>
</svg>