<?xml version="1.0" encoding="utf-8"?>
<svg version="1.1" xmlns:xlink="http://www.w3.org/1999/xlink" width="46px" height="46px" xmlns="http://www.w3.org/2000/svg">
  <defs>
    <filter x="317px" y="520px" width="46px" height="46px" filterUnits="userSpaceOnUse" id="filter475">
      <feOffset dx="0" dy="0" in="SourceAlpha" result="shadowOffsetInner" />
      <feGaussianBlur stdDeviation="5" in="shadowOffsetInner" result="shadowGaussian" />
      <feComposite in2="shadowGaussian" operator="atop" in="SourceAlpha" result="shadowComposite" />
      <feColorMatrix type="matrix" values="0 0 0 0 0  0 0 0 0 0  0 0 0 0 0  0 0 0 0.313725490196078 0  " in="shadowComposite" />
    </filter>
    <g id="widget476">
      <path d="M 19.7217225740128 8.60448111082474  C 20.2573771117908 8.60192116507199  20.7930262124613 8.59834727537359  21.3286669368117 8.59375946134021  L 21.6247780420833 8.59090033247423  C 24.4681667552532 8.57017179896907  26.4131110985055 10.8553127036082  25.9147777939909 13.6243573994845  L 24.3511667620193 22.3153264716495  C 24.0117223259204 24.2066254407216  22.187389098089 25.7176632525773  20.2503892101064 25.7190927835052  L 5.77633450287584 25.7319587628866  C 4.98244987177834 25.7308040020084  4.33783449653444 25.0966619285298  4.33189013067946 24.310982806701  L 4.30444571039158 11.4457182242268  C 4.30435690227728 10.664496642845  4.93795292589972 10.0278832855226  5.72722338332012 10.0161649484536  L 5.83411228859703 10.0140206185567  C 6.01105673409343 10.0125910541237  6.23350114310438 10.0125910541237  6.49855667204695 10.0140206185567  C 9.6113342810963 10.0397525773196  12.2835563374981 7.10916837371134  12.2777785826239 4.28651546391753  C 12.2727230386455 1.38023368814433  13.6247229604588 0.0393127036082479  15.8816672518138 0.0121512139175254  C 17.9891115856687 -0.0128659793814438  19.4906114988363 2.00923711340206  19.5158892525828 5.00843987371134  C 19.5231114631027 5.89976634536082  19.3028337206331 7.46226804123711  19.0247781924423 8.60805497164948  C 19.2342226360592 8.60805497164948  19.467500377777 8.60662540721649  19.7217225740127 8.60519587628866  Z M 2.1471680460853 10.0068728634021  C 2.54222356750991 10.0068728634021  2.87227912654767 10.3278075824742  3 10.7230790489691  L 3 25.0157525773196  C 2.88889247149418 25.0164817935629  2.88889360017889 25.0172110128001  2.88889360017889 25.0179402324657  C 2.88889360017889 25.4123057057881  2.56586706586256 25.7320020881358  2.16739364190352 25.7320020881358  C 2.1647443124681 25.7320020881358  2.1620950031268 25.731987646167  2.15944583443777 25.7319587628866  L 0.728723672385323 25.7319587628866  C 0.726556559530798 25.7319780710789  0.724389369839655 25.7319877253218  0.722222169171109 25.7319877253218  C 0.32334987914819 25.7319877253218  0 25.4119713315757  0 25.0172111041878  C 0 25.0167249281854  0 25.0162387523098  0 25.0157525773196  L 0 10.7230790489691  C 0.00143987868286108 10.7218834405937  0.00143683839197725 10.7206878189668  0.00143683839197725 10.7194921954466  C 0.00143683839197725 10.3259162487594  0.323816667887566 10.0068599042095  0.721492341021718 10.0068599042095  C 0.722939835535085 10.0068599042095  0.724387326757492 10.00686422396  0.725834794948222 10.0068728634021  L 2.1471680460853 10.0068728634021  Z " fill-rule="nonzero" fill="#ffffff" stroke="none" transform="matrix(1 0 0 1 327 530 )" />
    </g>
  </defs>
  <g transform="matrix(1 0 0 1 -317 -520 )">
    <use xlink:href="#widget476" filter="url(#filter475)" />
    <use xlink:href="#widget476" />
  </g>
</svg>