<?xml version="1.0" encoding="utf-8"?>
<svg version="1.1" xmlns:xlink="http://www.w3.org/1999/xlink" width="46px" height="45px" xmlns="http://www.w3.org/2000/svg">
  <defs>
    <filter x="317px" y="455px" width="46px" height="45px" filterUnits="userSpaceOnUse" id="filter267">
      <feOffset dx="0" dy="0" in="SourceAlpha" result="shadowOffsetInner" />
      <feGaussianBlur stdDeviation="5" in="shadowOffsetInner" result="shadowGaussian" />
      <feComposite in2="shadowGaussian" operator="atop" in="SourceAlpha" result="shadowComposite" />
      <feColorMatrix type="matrix" values="0 0 0 0 0  0 0 0 0 0  0 0 0 0 0  0 0 0 0.313725490196078 0  " in="shadowComposite" />
    </filter>
    <g id="widget268">
      <path d="M 12.9377227234513 21.8733944954128  L 6.34062537831858 24.6960244552752  C 5.29264898672566 25.1443424885321  4.37106785619469 24.4758409690367  4.47414750221239 23.3437308772936  L 5.12453097345133 16.2073394495413  L 0.396365772123894 10.8159021502294  C -0.35341592920354 9.96085627866973  0.00368141592920313 8.87889908256881  1.10933334292035 8.62813454701835  L 8.10893214380531 7.04036697247706  L 11.7842123893805 0.885626920871561  C 12.3677168141593 -0.0917431192660539  13.5083421924779 -0.0911314793577971  14.0912330287611 0.885626920871561  L 17.7665132743363 7.04036697247706  L 24.7661121039823 8.62813454701835  C 25.8778997146018 8.88012230504587  26.2288613761062 9.96085625  25.4790796460177 10.8159021502294  L 20.7509144446903 16.2073394495413  L 21.4049793606195 23.3461773795872  C 21.5086725663717 24.4788990825688  20.5864778761062 25.1467889908257  19.5385014845133 24.6978593176606  L 12.9377227234513 21.8733944954128  Z " fill-rule="nonzero" fill="#fecf54" stroke="none" transform="matrix(1 0 0 1 327 465 )" />
    </g>
  </defs>
  <g transform="matrix(1 0 0 1 -317 -455 )">
    <use xlink:href="#widget268" filter="url(#filter267)" />
    <use xlink:href="#widget268" />
  </g>
</svg>