<?xml version="1.0" encoding="utf-8"?>
<svg version="1.1" xmlns:xlink="http://www.w3.org/1999/xlink" width="45px" height="46px" xmlns="http://www.w3.org/2000/svg">
  <defs>
    <filter x="318px" y="650px" width="45px" height="46px" filterUnits="userSpaceOnUse" id="filter605">
      <feOffset dx="0" dy="0" in="SourceAlpha" result="shadowOffsetInner" />
      <feGaussianBlur stdDeviation="5" in="shadowOffsetInner" result="shadowGaussian" />
      <feComposite in2="shadowGaussian" operator="atop" in="SourceAlpha" result="shadowComposite" />
      <feColorMatrix type="matrix" values="0 0 0 0 0  0 0 0 0 0  0 0 0 0 0  0 0 0 0.313725490196078 0  " in="shadowComposite" />
    </filter>
    <g id="widget606">
      <path d="M 13.8660860655738 15.819362  L 13.881506147541 21.256924  C 13.8428574923695 21.5375852944392  13.9359289455813 21.8204217030594  14.1329918032787 22.021168  L 14.1407274590164 22.027434  C 14.3120030876035 22.2090382976212  14.5487857158995 22.3119636689977  14.7964651639344 22.312472  C 15.0818903688525 22.312472  15.3256659836066 22.171552  15.4938524590164 21.96636  L 24.5754354508197 11.902488  C 24.7587243329156 11.7168388968047  24.8543065038447 11.460020858319  24.8377305327869 11.197732  C 24.8545096420912 10.9354123207428  24.758896807442 10.6785118924517  24.5754354508197 10.492976  L 15.4429303278689 0.372736  C 15.0790578373676 0.00937103635178754  14.4953274085341 0.00937103635178754  14.1314549180328 0.372736  C 13.9353589481436 0.574038084511572  13.8429383838988 0.856633051857737  13.881506147541 1.137006  L 13.881506147541 6.5871  C 6.29964139344262 6.5871  0.152663934426228 12.798318  0.152663934426228 20.462884  C 0.152141734605805 22.3647027403891  0.53985091394257 24.2460014885215  1.29134221311475 25.988144  C 2.37448770491803 20.209176  7.83329918032787 15.819362  13.8660860655738 15.819362  Z " fill-rule="nonzero" fill="#ffffff" stroke="none" transform="matrix(1 0 0 1 328 660 )" />
    </g>
  </defs>
  <g transform="matrix(1 0 0 1 -318 -650 )">
    <use xlink:href="#widget606" filter="url(#filter605)" />
    <use xlink:href="#widget606" />
  </g>
</svg>