<?xml version="1.0" encoding="utf-8"?>
<svg version="1.1" xmlns:xlink="http://www.w3.org/1999/xlink" width="12px" height="15px" xmlns="http://www.w3.org/2000/svg">
  <g transform="matrix(1 0 0 1 -24 -598 )">
    <path d="M 0.0575581395348763 6.24158653846155  C 0.0575581395348763 7.94891826923072  0.722093023255809 9.4921875  1.80000000000001 10.6099759615385  L 6 14.9783653846154  L 10.2 10.6099759615385  C 11.3162790697675 9.44891826923072  11.9424418604651 7.87860576923072  11.9424418604651 6.24158653846155  C 11.9372093023256 2.82872596153845  9.27732558139536 0.0649038461538112  6 0.0649038461538112  C 2.7174418604651 0.0649038461538112  0.0575581395348763 2.82692307692309  0.0575581395348763 6.24158653846155  Z M 4.13023255813954 4.30348557692309  C 4.62209302325584 3.78966346153845  5.2970930232558 3.50120192307691  6 3.49759615384619  C 6.7029069767442 3.49759615384619  7.37790697674416 3.78966346153845  7.86976744186046 4.30528846153845  C 8.36337209302326 4.81911057692309  8.64244186046511 5.51682692307691  8.64244186046511 6.24338942307691  C 8.64593023255816 6.96995192307691  8.3686046511628 7.66766826923072  7.86976744186046 8.18149038461536  C 7.37267441860467 8.6953125  6.69941860465116 8.98377403846155  6 8.98737980769226  C 5.2970930232558 8.98737980769226  4.62209302325584 8.6953125  4.13023255813954 8.1796875  C 3.63662790697674 7.66586538461536  3.35755813953489 6.96814903846155  3.35755813953489 6.24158653846155  C 3.35755813953489 5.51502403846155  3.6313953488372 4.81730769230774  4.13023255813954 4.30348557692309  Z " fill-rule="nonzero" fill="#84c1f9" stroke="none" transform="matrix(1 0 0 1 24 598 )" />
  </g>
</svg>