<?xml version="1.0" encoding="utf-8"?>
<svg version="1.1" xmlns:xlink="http://www.w3.org/1999/xlink" width="22px" height="11px" xmlns="http://www.w3.org/2000/svg">
  <g transform="matrix(1 0 0 1 -7 -2 )">
    <path d="M 0.724570841556064 10.9611750906377  C 0.542104836311535 10.7293985924504  0.331805033656847 10.4610258050757  0.0998567219053417 10.1896033269354  C 2.69767781352225 9.27672922442596  4.24399989186565 7.96536219520867  4.73882295693551 6.25550223928344  L 0.316341812873441 6.25550223928344  L 0.316341812873441 5.44123480486246  L 4.9058257413966 5.44123480486246  C 4.9058257413966 5.28570057581575  4.92747425049342 4.60561953508211  4.92747425049342 3.39184261036469  L 0.959611797464257 3.39184261036469  L 0.959611797464257 2.5775751759437  L 3.58217404233464 2.5775751759437  C 2.96364521099729 1.90359351674131  2.4255251277338 1.35769886969503  1.9863696574843 0.949040307101736  L 2.60489848882164 0.390946896992966  C 3.22342732015899 0.939891234804885  3.79865913330274 1.46748773725741  4.31203806331272 1.96763702281938  L 3.61619312805821 2.57757517594372  L 6.2109215755184 2.57757517594372  C 6.76965928649315 1.79685433994457  7.26448235156304 1.06391199260683  7.69539077072803 0.378748133930491  L 8.59844286448055 0.872798037961213  C 8.09743451109728 1.50103433567928  7.63663053175096 2.07132650885052  7.21603092644155 2.57757517594372  L 9.96539158173607 2.57757517594372  L 9.96539158173607 3.39184261036471  L 5.85217485334275 3.39184261036471  C 5.85217485334275 4.44500248809273  5.84598956502937 5.12813321959199  5.83361898840262 5.44123480486248  L 10.6024762780136 5.44123480486248  L 10.6024762780136 6.25550223928346  L 5.98825119623696 6.25550223928346  C 6.83975922071136 8.05278666382315  8.4427797752607 9.28587829672287  10.7973128598848 9.95477713798254  C 10.4880484442162 10.2597462145447  10.2313589792111 10.5433674557475  9.99322537914627 10.8239390061847  C 7.76033629801845 9.96392621027938  6.24184801708528 8.67390701642141  5.43776053634671 6.9538814246108  C 4.84603462103397 8.62511196417148  3.2749713894371 9.96087651951377  0.724570841556064 10.9611750906377  Z M 11.1467816495905 3.91943911281725  L 11.6879943770107 3.3064512689273  C 12.2106512394907 3.66326508850503  12.8539212240816 4.15121561100449  13.6147116866265 4.76420345489444  C 13.3456516449948 5.06917253145661  13.1322591981834 5.29789933887823  12.9714417020356 5.4625826402218  C 12.2106512394907 4.77741878154546  11.602431222009 4.26303760574394  11.1467816495905 3.91943911281725  Z M 11.3632667405585 10.5433674557475  C 11.8065457363503 9.32145802232176  12.2415776810576 7.93893154190661  12.6683625746803 6.39578801450203  C 12.977626990349 6.52387502665815  13.2528723202942 6.64281296651739  13.5281176502393 6.74955214331416  C 13.1301974354123 8.00602473875028  12.7178448811873 9.37838558328003  12.2910599875646 10.8666346769034  L 11.3632667405585 10.5433674557475  Z M 11.5488253899597 1.11982298997654  L 12.1024086940067 0.531232672211555  C 12.7601773277069 1.01539196244597  13.388068638528 1.53781715465255  13.9827363412722 2.09572403497547  C 13.738417452894 2.33969929622521  13.5188397177692 2.55622734058434  13.3301884242113 2.74835785881851  C 12.9405152604688 2.34173242340229  12.346727582385 1.79888746712165  11.5488253899597 1.11982298997654  Z M 13.8311967775946 10.2963425037321  L 13.8311967775946 9.48207506931116  L 17.4990727474251 9.48207506931116  L 17.4990727474251 6.43238430368949  L 14.6723959882134 6.43238430368949  L 14.6723959882134 5.61811686926851  L 17.4990727474251 5.61811686926851  L 17.4990727474251 3.02283002772448  L 14.3538536400746 3.02283002772448  L 14.3538536400746 2.20856259330347  L 17.8083371630938 2.20856259330347  C 17.4882132217065 1.70324527645514  17.140285975392 1.21558216567754  16.7661160822903 0.747760716570703  L 17.4836095266417 0.299456174024309  C 17.8998363167572 0.766866011821035  18.2841676565868 1.26098375700603  18.6340731529291 1.77855619535082  L 17.9567840826147 2.20856259330347  L 21.6030115433484 2.20856259330347  L 21.6030115433484 3.02283002772448  L 18.3866616203942 3.02283002772448  L 18.3866616203942 5.61811686926851  L 21.2133383796059 5.61811686926851  L 21.2133383796059 6.43238430368949  L 18.3866616203942 6.43238430368949  L 18.3866616203942 9.48207506931116  L 21.9215538914871 9.48207506931116  L 21.9215538914871 10.2963425037321  L 13.8311967775946 10.2963425037321  Z " fill-rule="nonzero" fill="#ffffff" stroke="none" transform="matrix(1 0 0 1 7 2 )" />
  </g>
</svg>