<?xml version="1.0" encoding="utf-8"?>
<svg version="1.1" xmlns:xlink="http://www.w3.org/1999/xlink" width="32px" height="11px" xmlns="http://www.w3.org/2000/svg">
  <g transform="matrix(1 0 0 1 -2 -2 )">
    <path d="M 0.528975413582001 8.49256771166561  L 0.525933644091059 2.92078268287482  L 1.43846449136278 2.92078268287482  L 1.43846449136278 4.38768394113885  L 7.8261804222649 4.38768394113885  L 7.8261804222649 1.64296225207934  L 0.130503610273306 1.64296225207934  L 0.130503610273306 0.850042653017705  L 8.73871126953662 0.850042653017705  L 8.73871126953662 5.82408829174664  L 7.84138926971944 5.82408829174664  L 7.84138926971944 5.16840477713798  L 1.45367333881732 5.16840477713798  L 1.45367333881732 8.28823843036897  C 1.45367333881732 8.94697163574325  1.7639338268897 9.27633823843038  2.38445480303448 9.27633823843038  L 7.65584133077417 9.27633823843038  C 8.26419522895535 9.27633823843038  8.64137464582766 9.05371081254  8.76912896444569 8.61150565152485  C 8.92064089498454 8.0395495193352  9.01740165018824 7.45440954121799  9.05809706608173 6.86403284282362  C 9.35406966211951 6.99296269634089  9.65906227186597 7.0999880978079  9.97062791335352 7.18425037321394  C 9.89685199549283 7.78335101555439  9.79022866263941 8.37792418417453  9.65124211680838 8.96526978033697  C 9.43426255979042 9.77852065116942  8.83503397008202 10.1851460865856  7.8535563476831 10.1851460865856  L 2.16544739968931 10.1851460865856  C 1.07446607561779 10.1851460865856  0.528975413582001 9.62095329494564  0.528975413582001 8.49256771166561  Z M 11.0595813910977 10.7035935167413  C 10.8740334521525 10.4504691831947  10.6671931267709 10.1912454681169  10.4390604149529 9.91982298997654  C 12.9941467873138 9.00694888746713  14.5150315327667 7.6955818582498  15.0017146513116 5.98572190232461  L 10.6519842793164 5.98572190232461  L 10.6519842793164 5.17145446790361  L 15.1659702038205 5.17145446790361  C 15.1659702038205 5.0159202388569  15.1872625902569 4.33583919812328  15.1872625902569 3.12206227340584  L 11.2846723334247 3.12206227340584  L 11.2846723334247 2.30779483898485  L 13.8640928617128 2.30779483898485  C 13.2557389635317 1.63381317978248  12.7264710721141 1.08791853273618  12.2945398044055 0.679259970142885  L 12.9028937025866 0.121166560034131  C 13.5112476007678 0.670110897846033  14.0770167260763 1.19770740029857  14.5819504615666 1.69785668586054  L 13.8975523261128 2.30779483898487  L 16.4495969289828 2.30779483898487  C 16.9991432836731 1.52707400298574  17.485826402218 0.794131655648013  17.9096462846175 0.108967796971656  L 18.797842975962 0.603017701002361  C 18.3050763184352 1.23125399872043  17.8518526642903 1.80154617189169  17.4381720135271 2.30779483898487  L 20.1423050909423 2.30779483898487  L 20.1423050909423 3.12206227340585  L 16.0967516680377 3.12206227340585  C 16.0967516680377 4.1731890239568  16.0906681290559 4.85631975545604  16.0785010510923 5.17145446790362  L 20.768909606069 5.17145446790362  L 20.768909606069 5.98572190232463  L 16.2305895256375 5.98572190232463  C 17.0680900588002 7.78300632686432  18.6447405782531 9.01609795976401  20.960541083996 9.68499680102371  C 20.6563641349054 9.98996587758587  20.4038972671602 10.2735871187887  20.1696810163605 10.5541586692259  C 17.9735234439265 9.69414587332056  16.4800146238918 8.40412667946259  15.6891545562563 6.68410108765195  C 15.1132461993115 8.3471991185043  13.5700551442586 9.68702992820077  11.0595813910977 10.7035935167413  Z M 21.3042610364684 3.64965877585839  L 21.8365706973769 3.03667093196844  C 22.35062974134 3.39348475154618  22.9833177954483 3.88143527404564  23.7315930902112 4.49442311793559  C 23.4669591445024 4.79939219449775  23.2570770496299 5.02811900191938  23.0989050361027 5.19280230326297  C 22.35062974134 4.50763844458663  21.7524150747952 3.99325726878511  21.3042610364684 3.64965877585839  Z M 21.5171849008317 10.2766368095543  C 21.9531718611949 9.05269424895146  22.381047436249 7.6701677685363  22.800811625994 6.1290573683088  C 23.1049885750846 6.25714438046492  23.3757060597752 6.37608232032416  23.6464235444658 6.48282149712094  C 23.2550492033026 7.73929409255707  22.8494799378485 9.11165493708681  22.4297157481035 10.5999040307102  L 21.5171849008317 10.2766368095543  Z M 21.6996910702861 0.853092343783328  L 22.2441678091582 0.264502026018344  C 22.89111600646 0.748661316252746  23.5086783693108 1.27108650845933  24.093563659629 1.82899338878224  C 23.8532638698474 2.07296865003198  23.6372982359931 2.28949669439111  23.4517502970478 2.48162721262528  C 23.0684873411937 2.07500177720908  22.4844675989398 1.5321568209284  21.6996910702861 0.853092343783328  Z M 23.9445169545745 10.0479100021327  L 23.9445169545745 9.21534442311794  L 27.5520555707888 9.21534442311794  L 27.5520555707888 6.16565365749628  L 24.7718782561009 6.16565365749628  L 24.7718782561009 5.35138622307528  L 27.5520555707888 5.35138622307528  L 27.5520555707888 2.77439752612498  L 24.4585759985376 2.77439752612498  L 24.4585759985376 1.96013009170398  L 27.8562325198794 1.96013009170397  C 27.5421197653853 1.45529541701137  27.199885254344 0.96860667236711  26.8311562014441 0.502377905736836  L 27.5520555707888 0.0296758370654749  C 27.9614353401145 0.497085674862201  28.3394443462154 0.991203420047214  28.6835938214058 1.50877585839198  L 28.0174463028974 1.93878225634466  L 31.6036925326753 1.93878225634466  L 31.6036925326753 2.77439752612498  L 28.4402522621333 2.77439752612498  L 28.4402522621333 5.36968436766902  L 31.2204295768211 5.36968436766902  L 31.2204295768211 6.18395180209  L 28.4402522621333 6.18395180209  L 28.4402522621333 9.23364256771167  L 31.901785942784 9.23364256771167  L 31.901785942784 10.0479100021327  L 23.9445169545745 10.0479100021327  Z " fill-rule="nonzero" fill="#ffffff" stroke="none" transform="matrix(1 0 0 1 2 2 )" />
  </g>
</svg>