<?xml version="1.0" encoding="utf-8"?>
<svg version="1.1" xmlns:xlink="http://www.w3.org/1999/xlink" width="15px" height="13px" xmlns="http://www.w3.org/2000/svg">
  <g transform="matrix(1 0 0 1 -332 -88 )">
    <path d="M 0 5.84999997340301  C 0 5.49101488764512  0.305260383075041 5.19999997635823  0.681818148833823 5.19999997635823  L 2.72727259533529 5.19999997635823  L 2.72727259533529 12.9999999408956  L 0.681818148833823 12.9999999408956  C 0.305260383075041 12.9999999408956  0 12.7089850296087  0 12.3499999438508  L 0 5.84999997340301  Z M 4.09090889300294 4.81909997808999  C 4.09094750941391 4.64672335011247  4.16280704306271 4.4814202550076  4.29068161061125 4.35954998017933  L 8.65431776314772 0.199549999092747  C 8.774225979867 0.0849087961867336  8.96435555425549 0.0718826909321524  9.10022683248504 0.168999999231642  L 9.68181771344029 0.584999997340301  C 10.012111495539 0.821384117732131  10.1608513721732 1.22395905645199  10.0588631497454 1.6054999927006  L 9.27272682414 4.54999997931345  L 13.6363629766765 4.54999997931345  C 14.389478508194 4.54999997931345  14.9999992743441 5.13202980188723  14.9999992743441 5.84999997340301  L 14.9999992743441 7.21759996718523  C 15.0001831064774 7.38748468768324  14.9654372409839 7.55575660525237  14.897726552019 7.71289996493335  L 12.7874993813784 12.5976499427249  C 12.6822186908894 12.841212671226  12.4331449058623 13.0001118798429  12.1568175937071 12.9999999408956  L 4.77272704183676 12.9999999408956  C 4.39616927607798 12.9999999408956  4.09090889300294 12.7089850296087  4.09090889300294 12.3499999438508  L 4.09090889300294 4.81909997808999  Z " fill-rule="nonzero" fill="#ff0000" stroke="none" transform="matrix(1 0 0 1 332 88 )" />
  </g>
</svg>