<?xml version="1.0" encoding="utf-8"?>
<svg version="1.1" xmlns:xlink="http://www.w3.org/1999/xlink" width="12px" height="16px" xmlns="http://www.w3.org/2000/svg">
  <g transform="matrix(1 0 0 1 -313 -60 )">
    <path d="M 2.58057142857142 7.58281481481481  L 2.58057142857142 6.44503703703704  L 9.41942857142858 6.44503703703704  L 9.41942857142858 7.58281481481481  L 2.58057142857142 7.58281481481481  Z M 2.58057142857142 11.072  L 2.58057142857142 9.93422222222222  L 8.30400000000001 9.93422222222222  L 8.30400000000001 11.072  L 2.58057142857142 11.072  Z M 12 15.1300740740741  L 11.1931428571429 15.8885925925926  L 0.806857142857146 15.8885925925926  L 0 15.1300740740741  L 0 0.869925925925928  L 0.806857142857146 0.111407407407409  L 6.98742857142858 0.111407407407409  L 7.46285714285714 0.301037037037039  L 9.91314285714287 2.48177777777778  L 11.6685714285714 3.96088888888889  L 12 4.54874074074074  L 12 15.1300740740741  Z M 1.53828571428572 1.62844444444444  L 1.53828571428572 14.3715555555556  L 10.48 14.3715555555556  L 10.48 4.90903703703704  L 8.96228571428571 3.63851851851852  L 6.69485714285715 1.62844444444444  L 1.53828571428572 1.62844444444444  Z " fill-rule="nonzero" fill="#000000" stroke="none" transform="matrix(1 0 0 1 313 60 )" />
  </g>
</svg>