<?xml version="1.0" encoding="utf-8"?>
<svg version="1.1" xmlns:xlink="http://www.w3.org/1999/xlink" width="20px" height="18px" xmlns="http://www.w3.org/2000/svg">
  <g transform="matrix(1 0 0 1 -328 -106 )">
    <path d="M 5.39294117647059 13.3181298701299  C 2.38117647058824 13.7828571428571  0.0875294117647092 15.9054545454545  0 18  L 18.1967058823529 18  C 18.1364705882353 16.4926753246753  16.1232941176471 15.2827012987013  13.6489411764706 15.2827012987013  C 13.1943529411765 15.2827012987013  12.7548235294118 15.3238441558442  12.3407058823529 15.3995844155844  C 11.6498823529412 14.6141298701299  10.5967058823529 13.9848311688312  9.33364705882353 13.6089350649351  C 9.5670588235294 11.5302857142857  10.1882352941176 9.65828571428572  11.2056470588235 8.02659740259741  L 7.57364705882353 8.58296103896104  C 6.55717647058823 9.93412987012988  5.82494117647058 11.5424415584416  5.39388235294117 13.3181298701299  Z M 19.7552941176471 2.44987012987013  C 19.7007058823529 2.20675324675325  19.4004705882353 2.03376623376623  18.9138823529412 1.93090909090909  C 17.3195294117647 0.908883116883112  15.2310588235294 0.923844155844155  13.2668235294118 1.58493506493506  C 12.608 1.80654545454546  11.9171764705882 2.06555844155844  11.2705882352941 2.38348051948053  C 10.64 1.77942857142858  9.84094117647058 1.30535064935065  8.91199999999999 0.913558441558445  C 6.87341176470588 0.0532987012987033  4.68235294117647 -0.0822857142857086  2.95435294117647 1.03511688311688  C 2.96564705882353 1.04446753246754  2.97882352941177 1.05288311688312  2.99011764705883 1.06316883116883  C 2.94474258389356 1.06774521664627  2.90032157751035 1.07909358877793  2.85835294117648 1.09683116883117  C 2.81129411764705 1.12862337662337  2.76141176470588 1.15854545454546  2.71435294117647 1.1922077922078  C 2.59105894206107 1.30461173826169  2.54381609839346 1.47743835980326  2.59294117647058 1.63636363636364  C 2.56935899535764 1.67156930740194  2.55186322253098 1.71044214669651  2.54117647058824 1.75137662337663  C 2.37270588235294 2.4134025974026  4.09223529411765 3.43916883116883  6.59764705882353 4.25922077922079  C 4.77003876160716 4.99511485466535  3.32714293434865 6.44486982895861  2.60705882352941 8.26877922077922  C 2.42070588235294 8.61662337662338  2.4884705882353 9.0130909090909  2.4884705882353 8.7624935064935  C 2.4884705882353 9.04394805194805  2.82258823529411 9.14587012987013  3.11058823529412 9.14587012987013  C 3.35623529411765 9.14587012987013  3.30541176470588 9.08415584415585  3.45788235294118 8.99438961038961  C 4.37896592856491 8.16813124858003  5.50001915455756 7.59336347053295  6.71152941176471 7.32623376623376  C 10.272 6.53516883116884  14.1129411764706 8.28935064935065  15.0465882352941 11.7771428571429  C 15.0494117647059 11.7771428571429  15.1058823529412 11.9108571428571  15.2178823529412 12.2886233766234  C 15.4051764705882 12.6850909090909  15.5256470588235 12.8075844155844  15.9115294117647 12.8075844155844  C 16.0574117647059 12.8075844155844  16.2945882352941 12.5738181818182  16.3727058823529 12.3559480519481  C 16.5969634751609 11.348658501123  16.5947139059567 10.3046121480784  16.3661176470588 9.29828571428572  C 16.0093854370585 7.72491533751597  15.1237002039974 6.31926359953941  13.8550588235294 5.31303896103896  L 13.8738823529412 5.3092987012987  C 17.3054117647059 4.54067532467532  19.9388235294118 3.26057142857142  19.7562352941176 2.44987012987013  Z " fill-rule="nonzero" fill="#facd91" stroke="none" transform="matrix(1 0 0 1 328 106 )" />
  </g>
</svg>