<?xml version="1.0" encoding="utf-8"?>
<svg version="1.1" xmlns:xlink="http://www.w3.org/1999/xlink" width="14px" height="16px" xmlns="http://www.w3.org/2000/svg">
  <g transform="matrix(1 0 0 1 -341 -49 )">
    <path d="M 14 1.36296296296297  C 13.9900709281915 0.664765942483754  13.4210597705882 0.098765425925933  12.7191489361702 0  L 1.2808510638298 0  C 0.578940229411842 0.098765425925933  0.00992907180852853 0.664765942483754  0 1.36296296296297  L 0 14.637037037037  C 0.00992907180852853 15.3352340575162  0.578940229411842 15.9012345740741  1.2808510638298 16  L 12.7191489361702 16  C 13.4210597705882 15.9012345740741  13.9900709281915 15.3352340575162  14 14.637037037037  L 14 1.36296296296297  Z M 1.2808510638298 14.637037037037  L 1.2808510638298 1.36296296296297  L 12.7191489361702 1.36296296296297  L 12.7191489361702 14.637037037037  L 1.2808510638298 14.637037037037  Z M 3.69999999999999 5.09999999999999  L 9.30000000000001 5.09999999999999  C 9.30092817517595 5.09999715169886  9.30185635848483 5.09999572754295  9.30278454295518 5.09999572754295  C 9.64642838393843 5.09999572754295  9.925006759101 5.29102089908299  9.925006759101 5.52666239004294  C 9.925006759101 5.75062714313802  9.67246866720154 5.93647158359201  9.34666666666669 5.95226666249999  L 9.30000000000001 5.9533333375  L 3.69999999999999 5.9533333375  C 3.69907173307229 5.9533361863643  3.69814345800961 5.9533376108018  3.69721518178471 5.9533376108018  C 3.35357134080147 5.9533376108018  3.0749929656389 5.76231243926175  3.0749929656389 5.5266709483018  C 3.0749929656389 5.30270612235726  3.32753121660875 5.11686164746762  3.65333333333331 5.1010666625  L 3.69999999999999 5.09999999999999  Z M 3.07777778385417 9.029629625  L 9.92222221614583 9.029629625  L 9.92222221614583 9.50370370833333  C 9.92222221614583 9.76552758717773  9.64364384098326 9.97777777777777  9.30000000000001 9.97777777777777  L 3.69999999999999 9.97777777777777  C 3.35635615901674 9.97777777777777  3.07777778385417 9.76552758717773  3.07777778385417 9.50370370833333  L 3.07777778385417 9.029629625  Z " fill-rule="nonzero" fill="#000000" stroke="none" transform="matrix(1 0 0 1 341 49 )" />
  </g>
</svg>