<?xml version="1.0" encoding="utf-8"?>
<svg version="1.1" xmlns:xlink="http://www.w3.org/1999/xlink" width="14px" height="14px" xmlns="http://www.w3.org/2000/svg">
  <g transform="matrix(1 0 0 1 -155 -59 )">
    <path d="M 0.278727314666672 5.59663046686468  C 0.275870022992259 4.84117445353065  0.415877315038723 4.12655390037684  0.698749190806065 3.45568562598757  C 0.978763774898977 2.78773417018256  1.37021273429419 2.19853681615372  1.86738148564284 1.69392720106958  C 2.36455023699151 1.18931758598549  2.94172315522385 0.792630258520537  3.59318565699106 0.503865218674709  C 4.24750545043267 0.218016997413145  4.94468461899056 0.0721760681981323  5.69043774601355 0.0721760681981323  C 6.43333358136212 0.0721760681981323  7.20480233345487 0.215100178828881  7.85912212689648 0.503865218674709  C 8.5134419203381 0.789713439936207  9.08775754689604 1.18640076740116  9.58492629824469 1.69392720106958  C 10.0820950495934 2.19853681615372  10.4706867173141 2.78773417018256  10.7535585930815 3.45568562598757  C 11.0335731771744 4.12363708179251  11.1764377608953 4.83825763494632  11.1764377608953 5.59954728544894  C 11.1764377608953 6.24999782974817  11.0707179689418 6.94128383422748  10.8592783850349 7.53048118825638  C 10.647838801128 8.11967854228523  10.3563950503374 8.64762270604374  9.98494713266315 9.11139686094768  C 9.98494713266315 9.11139686094768  13.5994211008014 12.8274237373475  13.5994211008014 12.8274237373475  C 13.665138809313 12.8886769276178  13.7137127677781 12.9615973922253  13.7451429761967 13.0403514940015  C 13.7765731846153 13.1220224143619  13.7937169346618 13.2095269718909  13.7937169346618 13.3028651665886  C 13.7937169346618 13.4253715471293  13.7651440179176 13.5420442905013  13.7108554761037 13.6470497595362  C 13.6565669342897 13.7520552285711  13.576562767406 13.8366429675158  13.4765575588014 13.9008129763704  C 13.3765523501968 13.9620661666407  13.2622606832201 13.994151171068  13.1308252661969 13.994151171068  C 13.0365346409411 13.994151171068  12.9508158907086 13.9766502595622  12.8679544321505 13.9416484365505  C 12.7850929735924 13.906646613539  12.7136606817319 13.8570606976058  12.6479429732203 13.7958075073355  C 12.6479429732203 13.7958075073355  9.01346796336117 10.0710301751828  9.01346796336117 10.0710301751828  C 8.56201587880319 10.4210484052989  8.0591325441057 10.6981461708076  7.50767525094311 10.89648983454  C 6.95336066610611 11.0948334982725  6.3018981643389 11.1969221487231  5.69329503768796 11.1969221487231  C 4.95039920233939 11.1969221487231  4.25036274210709 11.0539980380922  3.59604294866546 10.7652329982464  C 2.94172315522384 10.4793847769849  2.36740752866591 10.0797806309357  1.87023877731726 9.57225419726722  C 1.37307002596859 9.06472776359881  0.984478358247811 8.47553040956997  0.70160648248047 7.81049577234929  C 0.421591898387549 7.14254431654428  0.278727314666672 6.35792011736723  0.278727314666672 5.59663046686468  Z M 1.18448877545705 5.67246775005651  C 1.18163148378263 6.3054173828499  1.29878044243375 6.90044837404733  1.53307835973599 7.45756072364881  C 1.76451898536381 8.01467307325036  2.08739294457299 8.50469859541293  2.50170023736354 8.92472047155239  C 2.91600753015408 9.34474234769178  3.39317523978182 9.67434284771775  3.93891794959558 9.91352197163051  C 4.48180336773492 10.1527010955432  5.13898045285095 10.2722906574996  5.76187003787398 10.2722906574996  C 6.38475962289701 10.2722906574996  6.9676471244782 10.1527010955432  7.51338983429195 9.91352197163051  C 8.05627525243129 9.67434284771782  8.53630025373344 9.34474234769178  8.94775025484957 8.92472047155239  C 9.3592002559657 8.50469859541293  9.68207421517488 8.01467307325036  9.91637213247712 7.45756072364881  C 10.1506700497794 6.90044837404726  10.2678190084305 6.30541738284983  10.2678190084305 5.67246775005651  C 10.2678190084305 5.0366012986788  10.1506700497794 4.36864984287379  9.91637213247712 3.81153749327225  C 9.68207421517488 3.25734196225496  9.3592002559657 2.76731644009239  8.94775025484957 2.34437774536874  C 8.53630025373344 1.92143905064502  8.0591325441057 1.59183855061904  7.51338983429195 1.34974260812195  C 6.97050441615261 1.11056348420926  6.38475962289701 0.990973922252882  5.76187003787398 0.990973922252882  C 5.13898045285095 0.990973922252882  4.48466065940933 1.11056348420926  3.93891794959558 1.34974260812195  C 3.39603253145624 1.58892173203464  2.91600753015408 1.92143905064502  2.50170023736354 2.34437774536874  C 2.08739294457299 2.76731644009239  1.7645189853638 3.2544251436707  1.53307835973599 3.81153749327225  C 1.30163773410816 4.36573302428953  1.18448877545705 5.0366012986788  1.18448877545705 5.67246775005651  Z " fill-rule="nonzero" fill="#999999" stroke="none" transform="matrix(1 0 0 1 155 59 )" />
  </g>
</svg>