<?xml version="1.0" encoding="utf-8"?>
<svg version="1.1" xmlns:xlink="http://www.w3.org/1999/xlink" width="20px" height="19px" xmlns="http://www.w3.org/2000/svg">
  <defs>
    <linearGradient gradientUnits="userSpaceOnUse" x1="10" y1="0" x2="10" y2="19" id="LinearGradient377">
      <stop id="Stop378" stop-color="#4e73df" offset="0" />
      <stop id="Stop379" stop-color="#0896e3" offset="1" />
    </linearGradient>
  </defs>
  <g transform="matrix(1 0 0 1 -28 -495 )">
    <path d="M 16.4324403669725 1.66644615384615  C 16.474356391305 1.65571395941823  16.5089944857498 1.62639897405484  16.5263853211009 1.58693846153846  L 17.2121834862385 0.183861538461536  C 17.2345845275959 0.132703517099025  17.2853065180103 0.0996281839648822  17.3413577981651 0.0996281839648822  C 17.39740907832 0.0996281839648822  17.4481310687343 0.132703517099025  17.4705321100917 0.183861538461536  L 18.1657247706422 1.58693846153846  C 18.1859149467356 1.62992740984177  18.226562089303 1.65984095391307  18.2737614678899 1.66644615384615  L 19.8191559633028 1.88158461538461  C 19.8907352835129 1.88925172188127  19.9450006194504 1.94940655644634  19.9450006194504 2.0210873815737  C 19.9450006194504 2.06055523699156  19.9283054527386 2.09819794643048  19.8990091743119 2.12478461538462  L 18.7857614678899 3.21450769230769  C 18.7512374727919 3.24684246771713  18.7353522185575 3.2942920276009  18.7434862385321 3.34078461538462  L 19.0112293577982 4.87013846153846  C 19.0129793569189 4.87902839924877  19.0138605263637 4.88806619322458  19.0138605263637 4.89712527951269  C 19.0138605263637 4.97461507825819  18.9507696434041 5.03743297182039  18.872943095171 5.03743297182039  C 18.8490116176921 5.03743297182039  18.8254743814335 5.03136460766326  18.8045504587156 5.01980000000001  L 17.4188623853211 4.30423076923077  C 17.3777100443522 4.28261090236193  17.3284917905102 4.28261090236193  17.2873394495413 4.30423076923077  L 15.9110458715596 5.00576923076923  C 15.8901219488417 5.01733383843249  15.8665847125831 5.02340220258962  15.8426532351042 5.02340220258962  C 15.7648266868712 5.02340220258962  15.7017358039115 4.96058430902741  15.7017358039115 4.88309451028193  C 15.7017358039115 4.87403542399382  15.7026169733563 4.864997630018  15.7043669724771 4.85610769230769  L 15.9627155963303 3.32207692307692  C 15.9708496163049 3.2755843352932  15.9549643620705 3.22813477540943  15.9204403669725 3.1958  L 14.7977981651376 2.13881538461538  C 14.7690262420374 2.11226324501899  14.7526731006067 2.0749711178961  14.7526731006067 2.03591101911177  C 14.7526731006067 1.95913860735113  14.8146437019517 1.89662186276714  14.891743119266 1.89561538461538  L 16.4324403669725 1.66644615384615  Z M 0.132990825688076 9.26176923076923  C 0.132990825688076 8.8689076923077  0.3302752293578 8.67247692307692  0.724844036697248 8.67247692307692  L 3.49622018348624 8.67247692307692  C 3.89078899082568 8.67247692307692  4.08807339449541 8.8689076923077  4.08807339449541 9.26176923076923  L 4.08807339449541 18.3583846153846  C 4.08807339449541 18.7512461538462  3.89078899082568 18.9476769230769  3.49622018348624 18.9476769230769  L 0.724844036697248 18.9476769230769  C 0.3302752293578 18.9476769230769  0.132990825688076 18.7512461538462  0.132990825688076 18.3583846153846  L 0.132990825688076 9.26176923076923  Z M 11.7211009174312 1.83481538461539  C 11.1286566770064 1.70752220242628  10.5193192193263 1.96140319500074  10.194495412844 2.47087692307693  C 9.72477064220184 3.21450769230769  9.72477064220184 4.44453846153846  9.35368807339449 5.30976923076923  C 8.64929564515865 7.05710192867367  7.09748434062899 8.32528064267008  5.23889908256881 8.67247692307692  L 5.23889908256881 18.9617076923077  L 15.2346422018349 18.9617076923077  C 15.8829359216282 18.9540010401141  16.4522150674166 18.5307784874734  16.6438165137615 17.9140769230769  L 18.6260550458715 11.5534615384615  C 18.6909493800471 11.3428116217588  18.7239404701284 11.1237058838842  18.7239404701284 10.9033691027128  C 18.7239404701284 9.67932453343222  17.7275656962983 8.68692374054167  16.4982018348624 8.68650769230769  L 11.5707889908257 8.68650769230769  C 11.5707889908257 8.68650769230769  13.9522935779817 5.51087692307692  13.1584587155963 3.135  C 12.9934024129835 2.44857523585061  12.4231374402262 1.93273308073911  11.7211009174312 1.83481538461539  Z " fill-rule="nonzero" fill="url(#LinearGradient377)" stroke="none" transform="matrix(1 0 0 1 28 495 )" />
  </g>
</svg>