<?xml version="1.0" encoding="utf-8"?>
<svg version="1.1" xmlns:xlink="http://www.w3.org/1999/xlink" width="19px" height="20px" xmlns="http://www.w3.org/2000/svg">
  <g transform="matrix(1 0 0 1 -103 -105 )">
    <path d="M 10.1065761096312 11.9704761914062  L 10.1056268493852 11.9714285742188  C 9.61201249487704 11.9714285742188  9.19433878483606 12.54  9.19433880430328 13.2190476171875  C 9.19433880430328 13.894285703125  9.61201249487704 14.4657142773437  10.1056268493852 14.4657142773437  C 10.5992412038935 14.4657142773437  11.0178641547131 13.89619046875  11.0178641741803 13.218095234375  C 11.0178641741803 12.54  10.6001904836066 11.9704761914062  10.1065761096312 11.9704761914062  Z M 15.4091334866803 3.558095234375  C 15.2407539587171 3.39247779618026  15.0010981755274 3.32209519405383  14.7702825870902 3.37047619140625  C 14.5385963809361 3.42089841060608  14.3471265592494 3.58371893907266  14.259581567623 3.8047619140625  C 14.0650336306051 4.32642948133933  13.8846083485894 4.85328943586206  13.7185042981557 5.3847619140625  C 13.4849867254098 4.9428571484375  13.2229914231557 4.51809525390625  12.9306198319672 4.11333333984375  C 11.8551100758197 2.61523810546875  10.3790132745902 1.34380953125  8.28874630122951 0.111428574218753  C 8.08239738520527 -0.00929220128139896  7.82966405393047 -0.0189348062163397  7.61477283094263 0.0857142773437491  C 7.4017691730008 0.192591535484894  7.25736030497019 0.400593177363247  7.23127245081967 0.638095234374996  C 6.94079938012295 3.24  6.40541763319672 5.87619046875  4.57714598155739 7.73333333984375  L 4.33413582581968 7.2609523828125  C 4.12055267930328 6.85142857421875  3.92120841700819 6.46666666015625  3.79305855635247 6.1371428515625  C 3.68896454837064 5.86449879329866  3.4280900970221 5.68447826238288  3.13708545291575 5.68447826238288  C 2.87322376384322 5.68447826238288  2.63161756337736 5.83283233382224  2.51155971618853 6.06857142578125  L 2.36442467008196 6.35428572265625  C 1.46642622950821 8.09333333984375  0.239984386270486 10.4771428515625  0.054879008196727 12.4933333398438  C -0.329570632172127 16.7666666796875  3.55479470184427 19.4514285742187  7.59388914446721 19.898095234375  C 8.48049648155737 19.99619046875  9.37185011987704 20.018095234375  10.2632037387295 19.9676190429687  C 13.4394223114754 19.7790476171875  17.2981576772541 18.1514285742188  18.5976924231557 14.1466666601563  C 19.4396846260246 11.5476190429688  19.1112412038934 7.2171428515625  15.4091334866803 3.5571428515625  Z M 7.13160031967213 15.1504761914063  C 7.13160031967213 15.4885714257813  6.85536613319672 15.76380953125  6.51553160758196 15.76380953125  C 6.51489779274941 15.7638115030313  6.51426397525068 15.7638124889237  6.51363015737113 15.7638124889237  C 6.17569762341665 15.7638124889237  5.90145677272662 15.4895187257238  5.90041217520492 15.1504761914063  L 5.90041217520492 13.7590476171875  L 4.6312536987705 13.778095234375  L 4.6312536987705 15.1847619140625  C 4.6312536987705 15.521904765625  4.35596877254098 15.7971428710938  4.01613426639344 15.7971428515625  C 4.01518281868022 15.7971472948872  4.01423136194857 15.7971495165586  4.01327990392802 15.7971495165586  C 3.67571635165113 15.7971495165586  3.40162955255884 15.5234322377585  3.40006557377049 15.1847619140625  L 3.40006557377049 11.4209523828125  C 3.40006557377049 11.0828571484375  3.67535049999999 10.8085714257813  4.01613426639344 10.8085714257813  C 4.35596877254098 10.8085714257813  4.6312536987705 11.0828571484375  4.6312536987705 11.4209523828125  L 4.6312536987705 12.5523809570312  L 5.90041217520492 12.5333333398437  L 5.90041217520492 11.3876190429688  C 5.90041217520492 11.0495238085938  6.17569710143442 10.774285703125  6.51553160758196 10.7742857226563  C 6.85536611372951 10.7742857226563  7.13065103995902 11.0495238085938  7.13065105942624 11.3876190429688  L 7.13065105942624 15.1504761914063  Z M 12.2490522991803 13.21619046875  C 12.2471537786885 14.5790476171875  11.2865042981557 15.6885714257812  10.1056268493852 15.6885714257812  C 8.92474940061475 15.6885714257812  7.96504918032787 14.5790476171875  7.96504918032787 13.21619046875  C 7.96504918032787 11.8523809375  8.92474942008197 10.7428571289062  10.1056268493852 10.7428571484375  C 11.2865042786885 10.7428571679687  12.2490522991803 11.8523809570313  12.2490522991803 13.21619046875  Z M 16.115381727459 11.9247619140625  C 16.0026658849664 12.0412069309223  15.8471419782134 12.1059633839758  15.6853676731557 12.10380953125  L 14.9031787684426 12.10380953125  L 14.9031787684426 15.1171428515625  C 14.9031787684426 15.4552380859375  14.6278938422131 15.7295238085938  14.2880593360656 15.7295238085938  C 14.2871078818937 15.7295282519788  14.286156418703 15.7295304736803  14.2852049542236 15.7295304736803  C 13.9476413943162 15.7295304736803  13.6735545920332 15.4558131829639  13.6719906239754 15.1171428515625  L 13.6719906239754 12.10380953125  L 12.8907509795082 12.10380953125  C 12.7282902790644 12.1051921682508  12.572173646437 12.0406165720386  12.4578891444672 11.9247619140625  C 12.3435228146022 11.8082668985939  12.2782553184887 11.6520645705992  12.2756315471311 11.4885714257812  C 12.2756315471311 11.1504761914063  12.5509164733607 10.87619046875  12.8907509795082 10.87619046875  L 15.6825199118852 10.87619046875  C 16.0223544180328 10.87619046875  16.2976393442623 11.1504761914062  16.2976393442623 11.4885714257812  C 16.2961075590589 11.6522921974416  16.2306753993883 11.8088885920209  16.115381727459 11.9247619140625  Z " fill-rule="nonzero" fill="#ec808d" stroke="none" transform="matrix(1 0 0 1 103 105 )" />
  </g>
</svg>