<?xml version="1.0" encoding="utf-8"?>
<svg version="1.1" xmlns:xlink="http://www.w3.org/1999/xlink" width="20px" height="20px" xmlns="http://www.w3.org/2000/svg">
  <g transform="matrix(1 0 0 1 -178 -105 )">
    <path d="M 16.715316091954 10.8036494252874  L 19.7998563218391 16.0480172413793  C 19.7998563218391 16.0480172413793  17.843908045977 16.4394252873563  15.8594827586207 16.8461494252874  C 14.5360632183908 18.3140804597701  13.218908045977 19.778908045977  13.218908045977 19.778908045977  L 10.3829310344828 14.956091954023  C 10.2221551724138 14.9659195402299  10.0632183908046 14.9800862068966  9.89997126436782 14.9800862068966  C 9.73672413793104 14.9800862068966  9.57778735632184 14.9659195402299  9.41701149425287 14.956091954023  L 6.58103448275862 19.778908045977  C 6.58103448275862 19.778908045977  5.26385057471264 18.3140804597701  3.94045977011494 16.8461494252874  C 1.95603448275862 16.4394252873563  8.6206896551319E-05 16.0480172413793  8.6206896551319E-05 16.0480172413793  L 3.08462643678161 10.8036494252874  C 2.58807471264368 9.81086206896552  2.30109195402299 8.6991091954023  2.30109195402299 7.51899425287357  C 2.30109195402299 3.39867816091954  5.70353448275862 0.0585344827586233  9.89997126436782 0.0585344827586233  C 14.096408045977 0.0585344827586233  17.4988218390805 3.39867816091954  17.4988218390805 7.51899425287357  C 17.4988218390805 8.6991091954023  17.211867816092 9.81086206896552  16.715316091954 10.8036494252874  Z M 14.2287643678161 7.45367816091954  C 14.2287643678161 5.07123563218391  12.2907183908046 3.13988505747126  9.89997126436782 3.13988505747126  C 7.5092816091954 3.13988505747126  5.57120689655173 5.07123563218391  5.57120689655173 7.45367816091954  C 5.57120689655173 9.83620689655172  7.5092816091954 11.7675574712644  9.89997126436782 11.7675574712644  C 12.2907183908046 11.7675574712644  14.2287643678161 9.83620689655172  14.2287643678161 7.45367816091954  Z M 12.6216954022989 6.82658045977011  L 11.2898563218391 7.96505747126437  C 11.2532183908046 7.99554597701149  11.2409770114943 8.04422413793103  11.2470977011494 8.08692528735632  L 11.6502873563218 9.7916091954023  C 11.6747701149425 9.90117816091954  11.5586494252874 9.98640804597701  11.4609482758621 9.92551724137931  L 9.95801724137931 9.01232758620689  C 9.91525862068965 8.98790229885057  9.86637931034482 8.98790229885057  9.82974137931034 9.01232758620689  L 8.32683908045977 9.92551724137931  C 8.22905172413793 9.9803448275862  8.11298850574712 9.89511494252873  8.13747126436781 9.79160919540229  L 8.54066091954023 8.08692528735632  C 8.55290229885057 8.04422413793103  8.53454022988505 7.99554597701149  8.49790229885057 7.96505747126437  L 7.17830459770115 6.82658045977011  C 7.09270114942529 6.7535632183908  7.14158045977011 6.61956896551724  7.25158045977011 6.60744252873563  L 9.00491379310345 6.46738505747126  C 9.05379310344827 6.46132183908046  9.09051724137931 6.43698275862069  9.10882183908046 6.38830459770115  L 9.78695402298851 4.77491379310345  C 9.82362068965517 4.67132183908046  9.97020114942529 4.67132183908046  10.0129885057471 4.77491379310345  L 10.6911206896552 6.38830459770115  C 10.7094827586207 6.43083333333333  10.7522413793103 6.46132183908046  10.7950287356322 6.46738505747126  L 12.5483620689655 6.60744252873563  C 12.6583620689655 6.61350574712644  12.7072413793103 6.7535632183908  12.6216954022989 6.82658045977011  Z " fill-rule="nonzero" fill="#81d3f8" stroke="none" transform="matrix(1 0 0 1 178 105 )" />
  </g>
</svg>