<?xml version="1.0" encoding="utf-8"?>
<svg version="1.1" xmlns:xlink="http://www.w3.org/1999/xlink" width="4px" height="6px" xmlns="http://www.w3.org/2000/svg">
  <g transform="matrix(1 0 0 1 -310 -101 )">
    <path d="M 3.85798843689775 3.02267231180187  C 3.85798843689775 3.05695981189482  3.84998802020938 3.12839210375556  3.83398718683265 3.15839366633684  C 3.8179863534559 3.18696658308103  3.79558518672847 3.21411085398813  3.76678368665034 3.23982647905775  C 3.76678368665034 3.23982647905775  0.605019011406839 5.88996450708003  0.605019011406839 5.88996450708003  C 0.552216261263602 5.93853846554521  0.488212927756649 5.96282544477773  0.409808844210629 5.96282544477773  C 0.363406427418085 5.96282544477773  0.318604093963222 5.9528249239173  0.277001927183701 5.93139523635909  C 0.23539976040418 5.90996554880102  0.203398093650712 5.88139263205682  0.179396843585591 5.84567648612652  C 0.155395593520489 5.80996034019634  0.144195010156764 5.76852961091728  0.144195010156764 5.72138429828945  C 0.144195010156764 5.65852388145231  0.168196260221866 5.60280669380102  0.217798843689761 5.55423273533597  C 0.217798843689761 5.55423273533597  3.19555393510077 3.05981710356939  3.19555393510077 3.05981710356939  C 3.19555393510077 3.05981710356939  0.217798843689761 0.529685325872639  0.217798843689761 0.529685325872639  C 0.168196260221866 0.481111367407591  0.144195010156764 0.42539417975643  0.144195010156764 0.362533762919156  C 0.144195010156764 0.315388450291331  0.155395593520479 0.275386366849489  0.179396843585591 0.238241575082092  C 0.203398093650703 0.202525429151787  0.23539976040418 0.173952512407725  0.277001927183701 0.152522824849517  C 0.318604093963222 0.131093137291438  0.363406427418095 0.12109261643088  0.409808844210629 0.12109261643088  C 0.488212927756649 0.12109261643088  0.553816344601273 0.143950949826181  0.605019011406839 0.191096262454006  C 0.605019011406839 0.191096262454006  3.76678368665034 2.84552022798796  3.76678368665034 2.84552022798796  C 3.79558518672847 2.8712358530577  3.8179863534559 2.89838012396467  3.83398718683265 2.92695304070886  C 3.84998802020938 2.95552595745292  3.85798843689775 2.98838481170878  3.85798843689775 3.02267231180187  Z " fill-rule="nonzero" fill="#ffffff" stroke="none" transform="matrix(1 0 0 1 310 101 )" />
  </g>
</svg>