<?xml version="1.0" encoding="utf-8"?>
<svg version="1.1" xmlns:xlink="http://www.w3.org/1999/xlink" width="175px" height="55px" xmlns="http://www.w3.org/2000/svg">
  <g transform="matrix(1 0 0 1 -100 -140 )">
    <path d="M 1 55  L 1 44.6120689655173  C 1 44.6120689655173  15.0862068965517 46.9827586206897  19.3519619500595 41.25  C 29.613574428562 27.4593939618174  42.2413793103448 7.33333333333334  42.2413793103448 7.33333333333334  C 43.281807372176 5.17241379310346  48.799405469679 0  54.2063020214031 0  L 120.533590963139 0  C 125.940487514863 0  131.458085612366 4.52586206896552  132.758620689655 7.33333333333334  C 132.758620689655 7.33333333333334  146.881203655979 29.5771052242121  155.127824019025 41.25  C 158.873365041617 46.551724137931  174 44.6120689655173  174 44.6120689655173  L 174 55  L 1 55  Z " fill-rule="nonzero" fill="#ffffff" stroke="none" transform="matrix(1 0 0 1 100 140 )" />
  </g>
</svg>