<?xml version="1.0" encoding="utf-8"?>
<svg version="1.1" xmlns:xlink="http://www.w3.org/1999/xlink" width="55px" height="55px" xmlns="http://www.w3.org/2000/svg">
  <g transform="matrix(1 0 0 1 -20 -525 )">
    <path d="M 55 27.5  C 55 42.9  42.9 55  27.5 55  C 12.1 55  0 42.9  0 27.5  C 0 12.1  12.1 0  27.5 0  C 42.9 0  55 12.1  55 27.5  Z M 32.32861328125 18.664928057554  C 31.29833984375 17.51948441247  30.01904296875 16.6223021582733  28.49072265625 15.973381294964  C 26.96240234375 15.3244604316546  25.3388671875 15  23.6201171875 15  C 21.6962890625 15  19.92138671875 15.400659472422  18.29541015625 16.2019784172662  C 16.66943359375 17.0032973621103  15.38037109375 18.1020383693045  14.42822265625 19.4982014388489  C 13.47607421875 20.8943645083932  13 22.4232613908872  13 24.0848920863309  C 13 26.9067146282973  14.416015625 29.315587529976  17.248046875 31.3115107913669  L 16.193359375 34.526618705036  L 19.8994140625 32.6535971223021  C 19.9873046875 32.6732613908872  20.2314453125 32.7248800959233  20.6318359375 32.80845323741  C 21.0322265625 32.8920263788968  21.29833984375 32.9436450839328  21.43017578125 32.963309352518  C 21.56201171875 32.9829736211032  21.779296875 33.017386091127  22.08203125 33.0665467625898  C 22.384765625 33.1157074340526  22.6533203125 33.1476618705035  22.8876953125 33.1624100719424  C 23.1220703125 33.1771582733812  23.3662109375 33.1845323741006  23.6201171875 33.1845323741006  C 23.9423828125 33.1845323741006  24.2744140625 33.1697841726618  24.6162109375 33.1402877697842  C 24.3916015625 32.4127098321343  24.279296875 31.6654676258993  24.279296875 30.8985611510791  C 24.279296875 29.3647482014388  24.67724609375 27.9513788968825  25.47314453125 26.6584532374101  C 26.26904296875 25.3655275779377  27.3603515625 24.3405275779377  28.7470703125 23.58345323741  C 30.1337890625 22.8263788968825  31.65234375 22.4478417266187  33.302734375 22.4478417266187  C 33.68359375 22.4478417266187  34.025390625 22.4675059952039  34.328125 22.5068345323741  C 34.025390625 21.0910071942446  33.35888671875 19.8103717026379  32.32861328125 18.664928057554  Z M 41.74755859375 26.8944244604317  C 40.91259765625 25.6998201438848  39.8017578125 24.7559352517985  38.4150390625 24.0627697841727  C 37.0283203125 23.3696043165468  35.548828125 23.0230215827338  33.9765625 23.0230215827338  C 32.326171875 23.0230215827338  30.8076171875 23.3696043165468  29.4208984375 24.0627697841727  C 28.0341796875 24.7559352517985  26.94287109375 25.6973621103118  26.14697265625 26.8870503597122  C 25.35107421875 28.0767386091127  24.953125 29.3745803357314  24.953125 30.7805755395684  C 24.953125 32.1865707434052  25.35107421875 33.4844124700239  26.14697265625 34.6741007194244  C 26.94287109375 35.8637889688249  28.0341796875 36.8052158273381  29.4208984375 37.498381294964  C 30.8076171875 38.19154676259  32.326171875 38.5381294964029  33.9765625 38.5381294964029  C 34.640625 38.5381294964029  35.705078125 38.3562350119903  37.169921875 37.9924460431654  L 40.0849609375 39.5999999999999  L 39.279296875 36.9305755395683  C 40.421875 36.075179856115  41.32763671875 35.1239208633094  41.99658203125 34.076798561151  C 42.66552734375 33.0296762589928  43 31.9309352517986  43 30.7805755395684  C 43 29.3844124700239  42.58251953125 28.0890287769785  41.74755859375 26.8944244604317  Z M 28.56396484375 21.8505395683453  C 28.32470703125 22.0914268585132  28.0048828125 22.2118705035972  27.6044921875 22.2118705035972  C 27.1845703125 22.2118705035972  26.8134765625 22.0865107913669  26.4912109375 21.8357913669065  C 26.1689453125 21.585071942446  26.0078125 21.2679856115108  26.0078125 20.8845323741007  C 26.0078125 20.491247002398  26.1689453125 20.1692446043165  26.4912109375 19.9185251798561  C 26.8134765625 19.6678057553956  27.1845703125 19.5424460431655  27.6044921875 19.5424460431655  C 28.0048828125 19.5424460431655  28.32470703125 19.6653477218225  28.56396484375 19.9111510791366  C 28.80322265625 20.1569544364509  28.9228515625 20.4814148681055  28.9228515625 20.8845323741007  C 28.9228515625 21.287649880096  28.80322265625 21.6096522781775  28.56396484375 21.8505395683453  Z M 21.1298828125 21.8505395683453  C 20.8857421875 22.0914268585132  20.5634765625 22.2118705035972  20.1630859375 22.2118705035972  C 19.7431640625 22.2118705035972  19.3720703125 22.0865107913669  19.0498046875 21.8357913669065  C 18.7275390625 21.585071942446  18.56640625 21.2679856115108  18.56640625 20.8845323741007  C 18.56640625 20.491247002398  18.7275390625 20.1692446043165  19.0498046875 19.9185251798561  C 19.3720703125 19.6678057553956  19.7431640625 19.5424460431655  20.1630859375 19.5424460431655  C 20.5634765625 19.5424460431655  20.8857421875 19.6653477218225  21.1298828125 19.9111510791366  C 21.3740234375 20.1569544364509  21.49609375 20.4814148681055  21.49609375 20.8845323741007  C 21.49609375 21.287649880096  21.3740234375 21.6096522781775  21.1298828125 21.8505395683453  Z M 37.84375 29.1140287769784  C 37.58984375 29.3303357314148  37.2724609375 29.4384892086331  36.8916015625 29.4384892086331  C 36.6279296875 29.4384892086331  36.38623046875 29.3278776978417  36.16650390625 29.106654676259  C 35.94677734375 28.8854316546763  35.8369140625 28.6371702637889  35.8369140625 28.3618705035971  C 35.8369140625 28.0964028776978  35.94677734375 27.8530575539569  36.16650390625 27.631834532374  C 36.38623046875 27.4106115107913  36.6279296875 27.3  36.8916015625 27.3  C 37.2724609375 27.3  37.58984375 27.4081534772182  37.84375 27.6244604316546  C 38.09765625 27.8407673860911  38.224609375 28.0865707434052  38.224609375 28.3618705035971  C 38.224609375 28.6470023980814  38.09765625 28.8977218225419  37.84375 29.1140287769784  Z M 32.00634765625 29.1140287769784  C 31.75732421875 29.3303357314148  31.4375 29.4384892086331  31.046875 29.4384892086331  C 30.783203125 29.4384892086331  30.54150390625 29.3278776978417  30.32177734375 29.106654676259  C 30.10205078125 28.8854316546763  29.9921875 28.6371702637889  29.9921875 28.3618705035971  C 29.9921875 28.0964028776978  30.10205078125 27.8530575539569  30.32177734375 27.631834532374  C 30.54150390625 27.4106115107913  30.783203125 27.3  31.046875 27.3  C 31.4375 27.3  31.75732421875 27.4081534772182  32.00634765625 27.6244604316546  C 32.25537109375 27.8407673860911  32.3798828125 28.0865707434052  32.3798828125 28.3618705035971  C 32.3798828125 28.6470023980814  32.25537109375 28.8977218225419  32.00634765625 29.1140287769784  Z " fill-rule="nonzero" fill="#68c76d" stroke="none" transform="matrix(1 0 0 1 20 525 )" />
  </g>
</svg>