<?xml version="1.0" encoding="utf-8"?>
<svg version="1.1" xmlns:xlink="http://www.w3.org/1999/xlink" width="55px" height="55px" xmlns="http://www.w3.org/2000/svg">
  <g transform="matrix(1 0 0 1 -113 -525 )">
    <path d="M 55 27.5  C 55 42.9  42.9 55  27.5 55  C 12.1 55  0 42.9  0 27.5  C 0 12.1  12.1 0  27.5 0  C 42.9 0  55 12.1  55 27.5  Z M 38.565009765625 38.630634765625  C 38.96875 38.227509765625  39.342490234375 37.8043750000001  39.6925 37.366240234375  C 40.54375 36.295615234375  41.2312597656251 35.14  41.746240234375 33.925  C 41.745009765625 33.925  27.511240234375 34.002490234375  27.055 33.926259765625  L 34.609990234375 41.453125  C 34.8971300945946 41.3092875399773  35.1803571016432 41.1577681249896  35.459365234375 40.99873046875  C 36.566259765625 40.363134765625  37.613740234375 39.578125  38.565009765625 38.630634765625  Z M 42.4825 31.88875  C 42.817509765625 30.65564453125  43 29.365  43 28.02625  C 43 27.453759765625  42.963115234375 26.89  42.89875 26.335615234375  C 42.743125 24.9787304687501  42.405625 23.676865234375  41.90939453125 22.45498046875  C 41.90939453125 22.45498046875  31.89625 32.5375  31.52189453125 32  L 42.204384765625 32  C 42.306124783463 32.5036497744743  42.3988704406563 32.1974708899505  42.4825 31.88875  Z M 27.978759765625 43  C 28.55125 43  29.1168847656249 42.964375  29.671240234375 42.899365234375  C 31.035009765625 42.745  32.33875 42.409375  33.5650000000001 41.914990234375  C 33.566875 41.914990234375  23.448759765625 31.9375  24 31.5625  L 24 42.206259765625  C 23.482509765625 42.308740234375  23.790625 42.401259765625  24.1 42.484375  C 25.336884765625 42.8200000000001  26.635 43  27.978759765625 43  Z M 13 27.98125  C 13 28.553125  13.035625 29.116240234375  13.100634765625 29.670009765625  C 13.254384765625 31.0287402343751  13.594375 32.329375  14.0912499999999 33.549384765625  C 14.0912499999999 33.549384765625  24.102490234375 23.4662499999999  24.4762597656249 24  L 13.793740234375 24  C 13.6906152343749 23.498740234375  13.599384765625 23.806884765625  13.514365234375 24.1168750000001  C 13.181259765625 25.34875  13 26.64314453125  13 27.98125  Z M 37.323115234375 16.211259765625  C 36.248740234375 15.3618847656249  35.086884765625 14.678125  33.870009765625 14.164375  C 33.870009765625 14.164375  33.945625 28.348134765625  33.870009765625 28.800009765625  L 41.425 21.274375  C 41.283115234375 20.99125  41.131884765625 20.708125  40.9712500000001 20.430009765625  C 40.33 19.324990234375  39.5425 18.279384765625  38.593134765625 17.335615234375  C 38.187490234375 16.931875  37.761865234375 16.557490234375  37.323115234375 16.211259765625  Z M 28.021240234375 13  C 27.446875 13  26.8825000000001 13.035625  26.3256249999999 13.099990234375  C 24.963759765625 13.253740234375  23.6581445312499 13.593759765625  22.43001953125 14.0856250000001  C 22.43001953125 14.0856250000001  32.549365234375 24.064375  32 24.435625  L 32 13.793125  C 32.519365234375 13.691259765625  32.209990234375 13.598125  31.9 13.511875  C 30.664990234375 13.181875  29.365 13  28.021240234375 13  Z M 18.66689453125 39.7181640625  C 19.741240234375 40.5694140625  20.900634765625 41.2500390625  22.12 41.76314453125  C 22.12 41.762529296875  22.042509765625 27.57876953125  22.11560546875 27.1237890625  L 14.565009765625 34.650654296875  C 14.704990234375 34.9387890625  14.859384765625 35.218134765625  15.018759765625 35.49689453125  C 15.656875 36.6037890625  16.446865234375 37.64939453125  17.396875 38.593779296875  C 17.801875 38.9981640625  18.228115234375 39.3694140625  18.66689453125 39.7181640625  Z M 17.3624804687501 17.424384765625  C 16.953115234375 17.83  16.58125 18.255625  16.234375 18.690625  C 15.38125 19.760634765625  14.6956152343751 20.92  14.178759765625 22.1325097656249  C 14.178759765625 22.1325097656249  28.41625 22.057509765625  28.871875 22.129990234375  L 21.318759765625 14.603125  C 21.030009765625 14.7468847656251  20.746240234375 14.8975  20.47 15.05751953125  C 19.357509765625 15.694375  18.30935546875 16.4812597656251  17.3624804687501 17.424384765625  Z " fill-rule="nonzero" fill="#83cc61" stroke="none" transform="matrix(1 0 0 1 113 525 )" />
  </g>
</svg>