<?xml version="1.0" encoding="utf-8"?>
<svg version="1.1" xmlns:xlink="http://www.w3.org/1999/xlink" width="55px" height="55px" xmlns="http://www.w3.org/2000/svg">
  <g transform="matrix(1 0 0 1 -300 -525 )">
    <path d="M 26.4659901804878 32.2005617463415  L 35.2222079268292 25  L 20.2087883853659 25  L 30.3442177902439 25.8531822195122  L 19.7243271365853 34  L 35.7066691756097 34  L 26.4659901804878 32.2005617463415  Z M 54.9467302195122 27.500194404878  C 54.9467302731707 12.3271095414634  42.6462547902439 0.0268292682926585  27.4731699268293 0.0268292682926585  C 12.3002802731708 0.0268292682926585  0 12.3271095414634  0 27.500194404878  C 0 42.6730840585366  12.3002802731708 54.9731691219512  27.4731699268293 54.9731691219512  C 42.6462547902439 54.9731691219512  54.9467302195122 42.6730840585366  54.9467302195122 27.500194404878  Z M 36.1911304243903 29.9213295512195  L 38.1281947414634 40.5765496292684  C 38.1281947414634 41.544886604878  38.1281947414634 41.544886604878  37.1594674 41.544886604878  L 27.8405172341463 35.6189220146342  L 18.7557949512195 41.544886604878  C 17.7872628195122 41.544886604878  17.8608493853659 41.544886604878  17.8608493853659 40.9095435609756  L 18.7557949512195 29.9213296048781  L 11.5599251121952 23.2758951512195  L 11.5599251121952 24  L 22.5885433560976 24  L 27.4733651365854 13.4549166292683  L 28.3878296926829 13.4549166292683  L 33.2851436097561 23.1160346195122  L 43.0340970292683 23.1160346195122  C 43.3868051073171 23.1160346195122  43.3868051073171 23.018049302439  43.3868051073171 23.3707573804878  L 36.1911304243903 29.9213295512195  Z " fill-rule="nonzero" fill="#f6c95b" stroke="none" transform="matrix(1 0 0 1 300 525 )" />
  </g>
</svg>