<?xml version="1.0" encoding="utf-8"?>
<svg version="1.1" xmlns:xlink="http://www.w3.org/1999/xlink" width="26px" height="26px" xmlns="http://www.w3.org/2000/svg">
  <g transform="matrix(1 0 0 1 -128 -640 )">
    <path d="M 7 2.46405227696079  C 6.88235295877382 1.15011993753552  7.94750557969235 0.084967330882364  9.26143791911761 0  L 23.5359477230393 0  C 24.8498800500213 0.0849673484796654  25.9150326515204 1.15011994997872  26 2.46405227696079  L 26 16.7385620808823  C 25.9150326691176 18.0524944203076  24.8498800624645 19.1176470412262  23.5359477230393 19  L 9.26143791911761 19  C 7.94750556724921 19.1176470588235  6.88235294117646 18.0524944327508  7 16.7385620808823  L 7 2.46405227696079  Z M 23.5359477230393 2.12418301715684  L 9.26143791911761 2.12418301715684  C 9.07373330483756 2.12418301715684  8.9215686450483 2.27634766268068  9 2.46405227696079  L 9 16.7385620808823  C 8.92156862745094 16.9262667076056  9.07373329239431 17.078431372549  9.26143791911761 17.078431372549  C 9.26143791911761 17.078431372549  9.26143791911761 17.078431372549  9.26143791911761 17  L 23.5359477230393 17  C 23.7236523373193 17.0784313549517  23.8758169828432 16.9262666951625  23.8758169828432 16.7385620808823  L 23.8758169828432 2.46405227696079  C 23.8758169652458 2.27634767512382  23.7236523248762 2.1241830347542  23.5359477230393 2.12418301715684  Z M 17.0784313725491 23.5359477230392  L 17.0784313725491 21.156862745098  C 17.0784313725491 20.5937488825255  17.5349253531137 20.1372549019608  18.0980392156863 20.1372549019608  C 18.6611530782588 20.1372549019608  19.1176470588235 20.5937488825255  19.1176470588235 21.156862745098  L 19.1176470588235 23.5359477230392  C 19.1176470412262 24.8498800624645  18.0524944203077 25.9150326691176  16.7385620808824 26  L 2.46405227696073 26  C 1.15011994997872 25.9150326515203  0.0849673484796085 24.8498800500213  0 23.5359477230392  L 0 9.26143791911767  C 0.084967330882364 7.9475055796924  1.15011993753546 6.88235295877377  2.46405227696073 6.88235294117646  L 4.84313725490199 6.88235294117646  C 5.40625111747454 6.88235294117646  5.86274509803923 7.33884692174115  5.86274509803923 7.9019607843137  C 5.86274509803923 8.46507464688631  5.40625111747454 8.92156862745099  4.84313725490199 8.92156862745099  L 2.46405227696073 8.92156862745099  C 2.27634766268068 8.9215686450483  2.12418301715684 9.0737333048375  2.12418301715684 9.26143791911767  L 2.12418301715684 23.5359477230392  C 2.1241830347542 23.7236523248762  2.27634767512382 23.8758169652458  2.46405227696073 23.8758169828432  L 16.7385620808824 23.8758169828432  C 16.9262666951624 23.8758169828432  17.0784313549517 23.7236523373193  17.0784313725491 23.5359477230392  Z " fill-rule="nonzero" fill="#666666" stroke="none" transform="matrix(1 0 0 1 128 640 )" />
  </g>
</svg>