<?xml version="1.0" encoding="utf-8"?>
<svg version="1.1" xmlns:xlink="http://www.w3.org/1999/xlink" width="16px" height="16px" xmlns="http://www.w3.org/2000/svg">
  <g transform="matrix(1 0 0 1 -329 -237 )">
    <path d="M 8.03070421355687 15.6633321384184  C 6.97966907998682 15.6601947201094  5.90980943656177 15.4625373666321  4.98427103535823 15.0609478230587  C 4.05873263415469 14.6593582794857  3.2398664554629 14.1071726570729  2.53394733590085 13.3981161192014  C 1.82802821633891 12.6921969996395  1.27270517561681 11.8733308209477  0.871115632043825 10.947792419744  C 0.46952608847073 10.0191166002313  0.268731316684239 9.03082983284469  0.268731316684239 7.97979469927441  C 0.268731316684239 6.92875956570424  0.46952608847073 5.85889992227942  0.871115632043825 4.93336152107577  C 1.27270517561681 4.00782311987246  1.82489079802974 3.18895694118032  2.5308099175918 2.48303782161838  C 3.23672903715374 1.77711870205644  4.05245779753648 1.22179566133411  4.9779961987399 0.820206117761245  C 5.90353459994344 0.418616574188263  6.89495878563935 0.217821802401545  7.94599391920951 0.217821802401545  C 8.99702905277957 0.217821802401545  10.0668886962046 0.418616574188263  10.9955645157173 0.820206117761245  C 11.9242403352299 1.22179566133411  12.7431065139218 1.77398128374728  13.4458882151746 2.48303782161838  C 14.1518073347366 3.18895694118032  14.7039929571496 4.00782311987223  15.1087199190317 4.93336152107577  C 15.513446880914 5.86203734058859  15.7142416527005 6.92875956570424  15.7142416527005 7.97979469927441  C 15.7142416527005 9.03082983284469  15.513446880914 10.0222540185405  15.1087199190317 10.947792419744  C 14.7039929571496 11.8733308209473  14.1518073347366 12.6921969996395  13.4458882151746 13.3981161192014  C 12.7399690956127 14.1040352387637  11.9242403352299 14.6593582794857  10.9987019340264 15.0609478230587  C 10.0731635328229 15.4625373666319  9.08173934712704 15.6633321384184  8.03070421355687 15.6633321384184  Z M 5.37644832400383 11.0544646422559  C 5.51449472960701 11.0576020605653  5.63685404366447 11.0074033676182  5.73725142955766 10.9038685634159  C 5.73725142955766 10.9038685634159  7.95226875582773 8.68257640052752  7.95226875582773 8.68257640052752  C 7.95226875582773 8.68257640052752  10.2519963764453 10.9038685634159  10.2519963764453 10.9038685634159  C 10.3492563440293 11.0074033676182  10.4684782397776 11.057602060565  10.6127994819991 11.057602060565  C 10.7508458876024 11.057602060565  10.8669303650414 11.0105407859277  10.9610529143164 10.9132808183432  C 11.0551754635914 10.8160208507591  11.1022367382288 10.7030737916294  11.1022367382288 10.5681648043352  C 11.1022367382288 10.4207061438042  11.0551754635914 10.301484248056  10.9579154960072 10.2167739537089  C 10.9579154960072 10.2167739537089  8.73034849650048 7.98920695420202  8.73034849650048 7.98920695420202  C 8.73034849650048 7.98920695420202  10.9673277509347 5.68320449696591  10.9673277509347 5.68320449696591  C 11.0645877185189 5.57966969276356  11.1116489931563 5.46044779701538  11.1116489931563 5.3224013914122  C 11.1116489931563 5.19062982242713  11.0645877185189 5.07454534498811  10.9704651692439 4.98042279571314  C 10.876342619969 4.88630024643817  10.7602581425299 4.8392389718008  10.6222117369267 4.8392389718008  C 10.4904401679418 4.8392389718008  10.3743556905026 4.88943766474733  10.2770957229186 4.99297246894992  C 10.2770957229186 4.99297246894992  7.9554061741369 7.22053946845676  7.9554061741369 7.22053946845676  C 7.9554061741369 7.22053946845676  5.72783917463016 4.99924730556825  5.72783917463016 4.99924730556825  C 5.62430437042781 4.90198733798411  5.50821989298868 4.85492606334674  5.37644832400383 4.85492606334674  C 5.23840191840054 4.85492606334674  5.12231744096152 4.90198733798411  5.02819489168655 4.99297246894992  C 4.93407234241158 5.08395759991572  4.8870110677741 5.19690465904557  4.8870110677741 5.3286762280303  C 4.8870110677741 5.46044779701538  4.93407234241158 5.57966969276356  5.03133230999572 5.68006707865675  C 5.03133230999572 5.68006707865675  7.26831156442995 7.90763407816348  7.26831156442995 7.90763407816348  C 7.26831156442995 7.90763407816348  5.03133230999572 10.2136365353997  5.03133230999572 10.2136365353997  C 4.93407234241158 10.3171713396019  4.8870110677741 10.433255817041  4.8870110677741 10.565027386026  C 4.8870110677741 10.6967989550108  4.93407234241158 10.8128834324499  5.02819489168655 10.910143400034  C 5.12231744096141 11.0074033676182  5.23840191840054 11.0544646422559  5.37644832400383 11.0544646422559  Z " fill-rule="nonzero" fill="#cccccc" stroke="none" transform="matrix(1 0 0 1 329 237 )" />
  </g>
</svg>