<?xml version="1.0" encoding="utf-8"?>
<svg version="1.1" xmlns:xlink="http://www.w3.org/1999/xlink" width="11px" height="12px" xmlns="http://www.w3.org/2000/svg">
  <g transform="matrix(1 0 0 1 -6 -5 )">
    <path d="M 1.87009671227228 2.16594901558171  C 1.20678067060094 2.85637305228387  0.756456018457074 3.65775809488449  0.525208224112959 4.56393964305594  C 0.293960429768818 5.47628569155521  0.293960429768818 6.53657974791921  0.525208224112959 7.44276129609086  C 0.762541486729305 8.35510734458993  1.20678067060094 9.15032788686312  1.87009671227228 9.84075192356509  C 2.60643837321017 10.5928209635442  3.50100220922568 11.0736519891047  4.54161728377427 11.289409500574  C 5.58223235832291 11.5113315123711  6.7445567983158 11.4188640074557  7.71823172187008 11.0120069858275  C 8.69190664542436 10.6051499641994  9.47084658426776 9.95787742979136  10.0672224749447 9.07018938260275  C 10.6575128973495 8.18250133541434  10.9678717792324 7.20851028363813  10.9861281840491 6.14205172694652  C 10.9861281840491 5.43313418926151  10.8522478820604 4.59476214469441  10.5905727463552 3.94748961028634  C 10.32889761065 3.29405257555046  9.95159857777268 2.72075404507456  9.45259017945111 2.21526501820342  C 8.95358178112957 1.70977599133208  8.38763323181365 1.3214124706872  7.74257359495895 1.04400995594077  C 7.09751395810425 0.772771941521959  6.27597574135533 0.630988433985034  5.58831782659512 0.630988433985034  C 4.90065991183493 0.630988433985034  4.22517293361915 0.766607441194343  3.57402782849225 1.03168095528534  C 2.92288272336534 1.29675446937634  2.35084870577721 1.6789534896938  1.87009671227228 2.16594901558171  Z " fill-rule="nonzero" fill="#ffffff" stroke="none" fill-opacity="0.996078431372549" transform="matrix(1 0 0 1 6 5 )" />
  </g>
</svg>