<?xml version="1.0" encoding="utf-8"?>
<svg version="1.1" xmlns:xlink="http://www.w3.org/1999/xlink" width="16px" height="16px" xmlns="http://www.w3.org/2000/svg">
  <g transform="matrix(1 0 0 1 -30 -197 )">
    <path d="M 7.88506161707252 0.15317102494743  C 9.27778779681394 0.15317102494743  10.570483919447 0.503276224827186  11.7631499849715 1.20348662458673  C 12.9327321911632 1.88061316501356  13.8560865644726 2.80396753832283  14.5332131048994 3.97354974451461  C 15.2334235046589 5.16621581003913  15.5835287045387 6.55509467989189  15.5835287045387 7.94782085963337  C 15.5835287045387 9.34054703937491  15.2334235046589 10.6332431620079  14.5332131048994 11.8259092275324  C 13.8560865644726 12.9954914337242  12.9327321911632 13.9188458070335  11.7631499849715 14.5959723474603  C 10.570483919447 15.2961827472199  9.27778779681394 15.6462879470996  7.88506161707252 15.6462879470996  C 6.49233543733105 15.6462879470996  5.10345656747826 15.2961827472199  3.91079050195379 14.5959723474603  C 2.74120829576204 13.9188458070335  1.81785392245274 12.9954914337242  1.14072738202594 11.8259092275324  C 0.44051698226643 10.6332431620079  0.0904117823865818 9.34054703937491  0.0904117823865818 7.94782085963337  C 0.0904117823865818 6.55894198978064  0.44051698226643 5.16621581003913  1.14072738202594 3.97354974451461  C 1.81785392245274 2.80396753832286  2.74120829576204 1.88061316501356  3.91079050195379 1.20348662458673  C 5.10345656747826 0.503276224827186  6.49233543733105 0.15317102494743  7.88506161707252 0.15317102494743  Z M 7.88890892696127 14.0958220619177  C 8.99693417493236 14.0958220619177  10.0280132251278 13.8188157499249  10.9898406973249 13.2648031259393  C 11.9131950706343 12.7107905019537  12.6518785692816 11.9721070033063  13.2058911932672 11.048752629997  C 13.7599038172528 10.0869251577999  14.0369101292456 9.05584610760446  14.0369101292456 7.94782085963337  C 14.0369101292456 6.83979561166222  13.7599038172528 5.70868650435826  13.2058911932672 4.75070634204991  C 12.6518785692816 3.82735196874064  11.9131950706343 3.08866847009319  10.9898406973249 2.53465584610764  C 10.0280132251278 1.98064322212203  8.99693417493236 1.70363691012929  7.88890892696127 1.70363691012929  C 6.78088367899018 1.70363691012929  5.64977457168631 1.9806432221221  4.69179440937787 2.53465584610764  C 3.76844003606857 3.08866847009325  3.02975653742117 3.82735196874064  2.47574391343563 4.75070634204991  C 1.92173128945002 5.7125338142471  1.64472497745719 6.83979561166222  1.64472497745719 7.94782085963337  C 1.64472497745719 9.05584610760446  1.92173128945002 10.0907724676887  2.47574391343563 11.048752629997  C 3.02975653742117 11.9721070033063  3.76844003606857 12.7107905019537  4.69179440937787 13.2648031259393  C 5.65362188157505 13.8188157499249  6.78088367899018 14.0958220619177  7.88890892696127 14.0958220619177  Z M 9.96645626690715 5.38551247370006  C 10.1203486624587 5.23162007814847  10.3011722272318 5.15852119026152  10.516621581004 5.15852119026152  C 10.7320709347761 5.15852119026152  10.9128944995492 5.2316200781485  11.0629395852119 5.38166516381128  C 11.209137360986 5.52786293958525  11.2822362488729 5.7125338142471  11.2822362488729 5.92798316801924  C 11.2822362488729 6.14343252179139  11.2091373609859 6.32425608656446  11.0629395852119 6.47430117222727  C 11.0629395852119 6.47430117222727  7.1271415689811 10.429335737902  7.1271415689811 10.429335737902  C 6.98094379320713 10.575533513676  6.79627291854534 10.6524797114518  6.5808235647731 10.6524797114518  C 6.36537421100093 10.6524797114518  6.18455064622788 10.5793808235648  6.03450556056505 10.429335737902  C 6.03450556056505 10.429335737902  4.22626991283438 8.60186354072739  4.22626991283438 8.60186354072739  C 4.10315599639313 8.51722272317402  4.01466786895101 8.39795611662163  3.95695822061916 8.25175834084766  C 3.90309588217606 8.1055605650737  3.88770664262089 7.85933273219119  3.91848512173128 7.71313495641722  C 3.94926360084155 7.56693718064325  4.01851517883976 7.43612864442445  4.13008716561465 7.32455665764955  C 4.24165915238949 7.21298467087472  4.37246768860835 7.14373309287651  4.52636008415987 7.11295461376618  C 4.68025247971145 7.08217613465592  4.83029756537417 7.09756537421108  4.96880072137058 7.15912233243168  C 5.11115118725575 7.22067929065227  5.2227231740307 7.3130147279832  5.31121130147282 7.43612864442445  C 5.31121130147282 7.43612864442445  6.58467087466185 8.7865344153893  6.58467087466185 8.7865344153893  C 6.58467087466185 8.7865344153893  9.96645626690715 5.38551247370006  9.96645626690715 5.38551247370006  Z " fill-rule="nonzero" fill="#3478f6" stroke="none" transform="matrix(1 0 0 1 30 197 )" />
  </g>
</svg>