<?xml version="1.0" encoding="utf-8"?>
<svg version="1.1" xmlns:xlink="http://www.w3.org/1999/xlink" width="10px" height="6px" xmlns="http://www.w3.org/2000/svg">
  <g transform="matrix(1 0 0 1 -335 -760 )">
    <path d="M 5.03479223868296 5.9298400958387  C 4.92526272449714 5.92984009583847  4.82049536310179 5.877337361321  4.72287123089251 5.77733215271655  C 4.72287123089251 5.77733215271655  0.315498823103412 0.844575238294055  0.315498823103412 0.844575238294055  C 0.277401600777856 0.804573154852051  0.246447607638358 0.759570810979994  0.225017920080182 0.709568206677659  C 0.20358823252206 0.659565602375551  0.19406392694063 0.604562737642937  0.19406392694063 0.544559612480043  C 0.19406392694063 0.467055575811401  0.210731461708065 0.397051929788404  0.246447607638304 0.332048544195231  C 0.282163753568544 0.267045158602286  0.329785281475422 0.217042554299951  0.389312191359154 0.179540601073313  C 0.448839101242833 0.142038647846675  0.51550924031257 0.124537736340699  0.589322608568366 0.124537736340699  C 0.705995351940406 0.124537736340699  0.801238407754324 0.164539819782476  0.87505177601012 0.247044116881398  C 0.87505177601012 0.247044116881398  5.35147539926432 5.1798010313039  5.35147539926432 5.1798010313039  C 5.35147539926432 5.1798010313039  4.78001706438076 5.1798010313039  4.78001706438076 5.1798010313039  C 4.78001706438076 5.1798010313039  9.25167853484427 0.247044116881398  9.25167853484427 0.247044116881398  C 9.33263513228607 0.164539819782476  9.42787818809999 0.124537736340699  9.53740770228603 0.124537736340699  C 9.61598322333246 0.124537736340699  9.68265336240219 0.142038647846448  9.73979919589056 0.179540601073313  C 9.79694502937892 0.217042554300178  9.8445665572859 0.267045158602514  9.88266377961141 0.332048544195231  C 9.91837992554164 0.397051929788404  9.93742853670445 0.46955570602654  9.93742853670445 0.544559612480043  C 9.93742853670445 0.654565341945045  9.89695023798352 0.752070420334803  9.81599364054167 0.837074847648637  C 9.81599364054167 0.837074847648637  5.40862123275257 5.77733215271678  5.40862123275257 5.77733215271678  C 5.36576185763633 5.82733475701889  5.31814032972934 5.86483671024575  5.26337557263641 5.88983801239692  C 5.20861081554336 5.917339444763  5.09431914856669 5.9298400958387  5.03479223868296 5.9298400958387  Z " fill-rule="nonzero" fill="#999999" stroke="none" transform="matrix(1 0 0 1 335 760 )" />
  </g>
</svg>