<?xml version="1.0" encoding="utf-8"?>
<svg version="1.1" xmlns:xlink="http://www.w3.org/1999/xlink" width="14px" height="14px" xmlns="http://www.w3.org/2000/svg">
  <g transform="matrix(1 0 0 1 -346 -169 )">
    <path d="M 6.98898360655738 5.95050491803279  L 1.27661639344262 0.238137704918033  C 1.13969062924242 0.105890376834207  0.956764695610448 0.0319756002719612  0.766401829780158 0.0319756002719612  C 0.360789423347051 0.0319756002719612  0.0319756002719612 0.360789423347051  0.0319756002719612 0.766401829780158  C 0.0319756002719612 0.956764695610448  0.105890376834207 1.13969062924242  0.238137704918033 1.27661639344262  L 5.94977049180328 6.98898360655738  L 0.238137704918033 12.7013508196721  C 0.100265830347323 12.8391252582891  0.0228020216309509 13.0260459876081  0.0228020216309509 13.2209573770492  C 0.0228020216309509 13.6266519623712  0.351682463858272 13.9555324045986  0.757377049180328 13.9555324045986  C 0.952108483563348 13.9555324045986  1.13887181128549 13.8782111705889  1.27661639344262 13.7405639344262  L 6.98898360655738 8.02746229508197  L 12.7013508196721 13.7405639344262  C 12.8391590469173 13.8783721616714  13.0260671130725 13.9557920175898  13.2209573770492 13.9557920175898  C 13.6267953426672 13.9557920175898  13.9557920175898 13.6267953426672  13.9557920175898 13.2209573770492  C 13.9557920175898 13.0260671130725  13.8783721616714 12.8391590469173  13.7405639344262 12.7013508196721  L 8.02746229508197 6.98898360655738  L 13.7405639344262 1.27661639344262  C 13.8782111705889 1.13887181128549  13.9555324045986 0.952108483563346  13.9555324045986 0.757377049180328  C 13.9555324045986 0.351682463858272  13.6266519623712 0.0228020216309508  13.2209573770492 0.0228020216309508  C 13.0260459876081 0.0228020216309508  12.8391252582891 0.100265830347324  12.7013508196721 0.238137704918033  L 6.98898360655738 5.94977049180328  Z " fill-rule="nonzero" fill="#000000" stroke="none" transform="matrix(1 0 0 1 346 169 )" />
  </g>
</svg>