<?xml version="1.0" encoding="utf-8"?>
<svg version="1.1" xmlns:xlink="http://www.w3.org/1999/xlink" width="18px" height="18px" xmlns="http://www.w3.org/2000/svg">
  <g transform="matrix(1 0 0 1 -342 -58 )">
    <path d="M 16.5294044117647 15.3529411764706  L 16.5294044117647 9.47058088235294  C 16.5294044117647 9.08073282364885  16.8454387060018 8.76469852941176  17.2352867647059 8.76469852941176  C 17.62513482341 8.76469852941176  17.9411691176471 9.08073282364885  17.9411691176471 9.47058088235294  L 17.9411691176471 15.3529411764706  C 17.9411691176471 16.7823529411765  16.7823529411765 17.9411691176471  15.3529411764706 18  L 2.64705882352941 18  C 1.21764705882353 17.9411691176471  0.0588308823529412 16.7823529411765  0 15.3529411764706  L 0 3.35294117647059  C 0.0588308823529412 1.92352941176471  1.21764705882353 0.764713235294118  2.64705882352941 0.764713235294118  L 8.76469852941177 0.764713235294118  C 9.15454658811585 0.764713235294118  9.47058088235294 1.0807475295312  9.47058088235294 1.47059558823529  C 9.47058088235294 1.86044364693938  9.15454658811586 2.17647794117647  8.76469852941177 2.17647794117647  L 2.64705882352941 2.17647794117647  C 1.99731611993987 2.17647794117647  1.47059558823529 2.70319847288105  1.47059558823529 3.35294117647059  L 1.47059558823529 15.3529411764706  C 1.47059558823529 16.0026838800601  1.99731611993987 16.5294044117647  2.64705882352941 16.5294044117647  L 15.3529411764706 16.5294044117647  C 16.0026838800601 16.5294044117647  16.5294044117647 16.0026838800601  16.5294044117647 15.3529411764706  Z M 15.6016544117647 3.35294117647059  L 13.6209485294118 1.24846323529412  C 13.4977369731496 1.11752093411424  13.4291319734384 0.944499240993716  13.4291319734384 0.764702205882353  C 13.4291319734384 0.374827541622361  13.74518783574 0.058771679320757  14.1350625 0.058771679320757  C 14.3297367944997 0.058771679320757  14.5157698058193 0.139164088285729  14.6491764705882 0.280941176470588  L 17.7494117647059 3.57505147058824  C 18.1734044117647 4.02540441176471  17.8538823529412 4.76470588235294  17.2352867647059 4.76470588235294  L 13.692 4.76470588235294  C 11.8903455882353 4.76470588235294  10.4117647058824 6.33551470588235  10.4117647058824 8.29411764705882  L 10.4117647058824 12.5294117647059  C 10.4117647058824 12.91925982341  10.0957304116453 13.2352941176471  9.70588235294118 13.2352941176471  C 9.31603429423709 13.2352941176471  9 12.91925982341  9 12.5294117647059  L 9 8.29411764705882  C 9 5.57435294117647  11.0908235294118 3.35294117647059  13.692 3.35294117647059  L 15.6016323529412 3.35294117647059  Z " fill-rule="nonzero" fill="#ffffff" stroke="none" transform="matrix(1 0 0 1 342 58 )" />
  </g>
</svg>