<?xml version="1.0" encoding="utf-8"?>
<svg version="1.1" xmlns:xlink="http://www.w3.org/1999/xlink" width="11px" height="18px" xmlns="http://www.w3.org/2000/svg">
  <g>
    <path d="M 0.136045032107404 9.19954164279494  C 0.136045032107404 9.09667914251608  0.153188782153876 8.87809632942222  0.191762219758601 8.79237757918963  C 0.230335657363213 8.70665882895705  0.28605284501441 8.62522601623616  0.363199720223662 8.5480791410269  C 0.363199720223662 8.5480791410269  8.84078411822065 0.584807244425463  8.84078411822065 0.584807244425463  C 8.98222005610421 0.443371306541593  9.14937161905769 0.374796306355677  9.35509661961581 0.374796306355677  C 9.48796068247614 0.374796306355677  9.60796693280167 0.404797868936981  9.71511537059237 0.469086931611599  C 9.82226380838301 0.533375994285819  9.91226849612715 0.619094744518804  9.97655755880149 0.726243182309332  C 10.0451325589876 0.833391620099832  10.075134121569 0.95768380793703  10.075134121569 1.0991197458209  C 10.075134121569 1.28770099633235  10.0065591213829 1.45485255928583  9.86512318349921 1.60057443468096  C 9.86512318349921 1.60057443468096  1.88899347436265 9.19096976777124  1.88899347436265 9.19096976777124  C 1.88899347436265 9.19096976777124  9.86512318349921 16.674216663071  9.86512318349921 16.674216663071  C 10.0065591213829 16.8199385384665  10.075134121569 16.9870901014196  10.075134121569 17.1756713519314  C 10.075134121569 17.3171072898149  10.0408466214759 17.4371135401404  9.97655755880149 17.5485479154426  C 9.91226849612704 17.6556963532335  9.82226380838301 17.7414151034657  9.71511537059237 17.8057041661407  C 9.60796693280167 17.869993228815  9.48796068247614 17.8999947913962  9.35509661961581 17.8999947913962  C 9.15365755656936 17.8999947913962  8.98222005610432 17.8271338536987  8.84078411822065 17.6814119783035  C 8.84078411822065 17.6814119783035  0.363199720223662 9.73099789423628  0.363199720223662 9.73099789423628  C 0.28605284501441 9.65385101902706  0.230335657363327 9.57241820630614  0.191762219758601 9.48669945607395  C 0.15318878215399 9.40098070584139  0.136045032107404 9.3024041430738  0.136045032107404 9.19954164279494  Z " fill-rule="nonzero" fill="#ffffff" stroke="none" />
  </g>
</svg>