<?xml version="1.0" encoding="utf-8"?>
<svg version="1.1" xmlns:xlink="http://www.w3.org/1999/xlink" width="20px" height="20px" xmlns="http://www.w3.org/2000/svg">
  <g transform="matrix(1 0 0 1 -262 -19 )">
    <path d="M 14.8150470258621 11.5047021982759  L 10.6018808836207 7.29153605603448  L 10.5015673922414 7.19122256465517  L 10.4012539224138 7.09090909482759  L 10.2006269612069 7.09090909482759  L 10.1003134698276 7.09090909482759  L 9.7993730387931 7.09090909482759  L 9.69905956896552 7.19122256465517  C 9.69905956896552 7.19122256465517  9.59874609913793 7.19122256465517  9.59874607758621 7.29153605603448  L 5.58620689655173 11.5047021982759  C 5.28526646551724 11.8056426293103  5.28526646551724 12.3072100431034  5.58620689655173 12.6081504741379  C 5.78683385775862 12.7084639439655  5.98746081896552 12.8087774353448  6.18808778017242 12.8087774353448  C 6.38871474137931 12.8087774353448  6.58934170258621 12.7084639655172  6.78996864224138 12.6081504741379  L 10.2006269612069 8.99686519396552  L 13.6112852586207 12.6081504741379  C 13.8119122198276 12.8087774353448  14.0125391810345 12.8087774353448  14.2131661422414 12.8087774353448  C 14.4137931034483 12.8087774353448  14.6144200646552 12.7084639655172  14.8150470258621 12.6081504741379  C 15.1159874568966 12.3072100431034  15.1159874568966 11.8056426293103  14.8150470258621 11.5047021982759  Z M 19.830721012931 10  C 19.830721012931 4.58307209051724  15.4169279094828 0.169278987068965  10 0.169278987068966  C 4.58307209051724 0.169278987068966  0.169278987068965 4.58307209051724  0.169278987068965 10  C 0.169278987068965 15.4169279094828  4.58307209051724 19.830721012931  10 19.830721012931  C 15.4169279094828 19.830721012931  19.830721012931 15.4169279094828  19.830721012931 10  Z M 18.2257053232759 10  C 18.2257053232759 14.5141065732759  14.5141065732759 18.2257053232759  10 18.2257053232759  C 5.48589342672414 18.2257053232759  1.77429467672414 14.5141065732759  1.77429467672414 10  C 1.77429467672414 5.48589342672414  5.48589342672414 1.77429467672414  10 1.77429467672414  C 14.5141065732759 1.77429467672414  18.2257053232759 5.48589342672414  18.2257053232759 10  Z " fill-rule="nonzero" fill="#ffffff" stroke="none" transform="matrix(1 0 0 1 262 19 )" />
  </g>
</svg>