<?xml version="1.0" encoding="utf-8"?>
<svg version="1.1" xmlns:xlink="http://www.w3.org/1999/xlink" width="15px" height="15px" xmlns="http://www.w3.org/2000/svg">
  <g transform="matrix(1 0 0 1 -27 -21 )">
    <path d="M 14.2308385933273 13.3965284039676  C 14.429215509468 13.3965284039676  14.5987376014427 13.4686654643824  14.7430117222723 13.6129395852119  C 14.8872858431019 13.7572137060415  14.9594229035167 14.0169071235347  14.9594229035167 14.2152840396754  C 14.9594229035167 14.4100541027953  14.8872858431019 14.5831830477908  14.7430117222723 14.7274571686204  C 14.5987376014427 14.8717312894499  14.429215509468 14.9438683498648  14.2308385933273 14.9438683498648  C 14.2308385933273 14.9438683498648  1.15960324616773 14.9438683498648  1.15960324616773 14.9438683498648  C 0.964833183047801 14.9438683498648  0.791704238052318 14.8717312894499  0.64743011722274 14.7274571686204  C 0.503155996393161 14.5831830477908  0.431018935978358 14.4136609558161  0.431018935978358 14.2152840396754  C 0.431018935978358 14.0205139765555  0.503155996393161 13.7572137060415  0.64743011722274 13.6129395852119  C 0.791704238052318 13.4686654643824  0.961226330027074 13.3965284039676  1.15960324616773 13.3965284039676  C 1.15960324616773 13.3965284039676  14.2308385933273 13.3965284039676  14.2308385933273 13.3965284039676  Z M 2.59513074842201 12.0547790802525  C 2.4003606853021 12.0511722272318  2.23083859332735 11.979035166817  2.09377817853925 11.8347610459874  C 1.95671776375116 11.6904869251579  1.88458070333635 11.5209648331831  1.88458070333635 11.3225879170424  C 1.88458070333635 11.3225879170424  1.88458070333635 8.27479711451764  1.88458070333635 8.27479711451764  C 1.88458070333635 8.06559963931471  1.9531109107304 7.89247069431929  2.09377817853925 7.75541027953113  C 2.09377817853925 7.75541027953113  7.09648331830479 2.66253381424707  7.09648331830479 2.66253381424707  C 7.09648331830479 2.66253381424707  9.21009918845809 0.621055004508605  9.21009918845809 0.621055004508605  C 9.34715960324618 0.473174030658299  9.52028854824169 0.397430117222768  9.72948602344459 0.397430117222768  C 9.93868349864749 0.397430117222768  10.1118124436429 0.473174030658299  10.2488728584311 0.621055004508605  C 10.2488728584311 0.621055004508605  13.2966636609559 3.71934174932375  13.2966636609559 3.71934174932375  C 13.433724075744 3.85640216411184  13.5058611361588 4.02953110910738  13.5058611361588 4.23151487826874  C 13.5058611361588 4.4334986474301  13.4373309287647 4.60302073940488  13.2966636609559 4.74368800721373  C 13.2966636609559 4.74368800721373  11.2551848512174 6.84287646528406  11.2551848512174 6.84287646528406  C 11.2551848512174 6.84287646528406  6.18034265103705 11.8455816050496  6.18034265103705 11.8455816050496  C 6.04328223624896 11.9826420198377  5.87015329125344 12.0547790802525  5.66095581605055 12.0547790802525  C 5.66095581605055 12.0547790802525  2.59513074842201 12.0547790802525  2.59513074842201 12.0547790802525  Z M 3.32010820559063 10.6156447249775  C 3.32010820559063 10.6156447249775  3.32371505861136 10.6156447249775  3.32371505861136 10.6156447249775  C 3.32371505861136 10.6156447249775  5.36519386834985 10.6156447249775  5.36519386834985 10.6156447249775  C 5.36519386834985 10.6156447249775  9.72948602344454 6.25135256988284  9.72948602344454 6.25135256988284  C 9.72948602344454 6.25135256988284  7.68800721370604 4.20987376014432  7.68800721370604 4.20987376014432  C 7.68800721370604 4.20987376014432  3.32010820559063 8.57416591523901  3.32010820559063 8.57416591523901  C 3.32010820559063 8.57416591523901  3.32010820559063 10.6156447249775  3.32010820559063 10.6156447249775  Z M 9.6393146979261 2.16478809738504  C 9.6393146979261 2.16478809738504  8.61857529305684 3.18552750225433  8.61857529305684 3.18552750225433  C 8.61857529305684 3.18552750225433  10.7502254283138 5.31717763751129  10.7502254283138 5.31717763751129  C 10.7502254283138 5.31717763751129  11.7709648331831 4.296438232642  11.7709648331831 4.296438232642  C 11.7709648331831 4.296438232642  9.6393146979261 2.16478809738504  9.6393146979261 2.16478809738504  Z " fill-rule="nonzero" fill="#666666" stroke="none" transform="matrix(1 0 0 1 27 21 )" />
  </g>
</svg>