<?xml version="1.0" encoding="utf-8"?>
<svg version="1.1" xmlns:xlink="http://www.w3.org/1999/xlink" width="18px" height="22px" xmlns="http://www.w3.org/2000/svg">
  <g transform="matrix(1 0 0 1 -329 -330 )">
    <path d="M 18 9.00007793888077  C 18 11.3870072502276  17.0518035669792 13.6761757625098  15.364 15.364  L 9 21.728  L 2.636 15.364  C 0.948196433020828 13.6761757625098  0 11.3870072502277  0 9.00007793888077  C 0 4.02951519040363  4.02943725152286 7.79388807701231E-05  9 7.79388807701231E-05  C 13.9705627484771 7.79388807701231E-05  18 4.02951519040363  18 9.00007793888077  Z M 9 13  C 11.2091389993232 13  13 11.2091389993232  13 9  C 13 6.79086100067683  11.2091389993232 5  9 5  C 6.79086100067683 5  5 6.79086100067683  5 9  C 5 11.2091389993232  6.79086100067683 13  9 13  Z M 9 11  C 7.89543050033841 11  7 10.1045694996616  7 9  C 7 7.89543050033841  7.89543050033841 7  9 7  C 10.1045694996616 7  11 7.89543050033841  11 9  C 11 10.1045694996616  10.1045694996616 11  9 11  Z " fill-rule="nonzero" fill="#333333" stroke="none" transform="matrix(1 0 0 1 329 330 )" />
  </g>
</svg>