<?xml version="1.0" encoding="utf-8"?>
<svg version="1.1" xmlns:xlink="http://www.w3.org/1999/xlink" width="16px" height="16px" xmlns="http://www.w3.org/2000/svg">
  <g transform="matrix(1 0 0 1 -345 -1235 )">
    <path d="M 3.37953796039604 15.0174239417476  C 3.37953796039604 15.0157669902913  12.470495049505 15.0078964271845  12.470495049505 15.0078964466019  C 13.2013201386139 15.0074822135922  13.9127128712871 14.4213333398058  14.0407128712871 13.7154692621359  L 15.052462039604 8.14187702912621  C 15.2518547722772 7.04538512621359  14.5159603960396 6.18998058252427  13.381702970297 6.19826537864078  L 13.1785082574257 6.19992233009709  C 12.8297150951218 6.20272216272102  12.4809183079684 6.20506952399899  12.1321188118812 6.20696440776699  C 11.7575593255203 6.20989767670054  11.3829819220044 6.20989767670054  11.0084224356436 6.20696440776699  L 10.3946138613861 6.19867961165049  L 10.6223102376238 5.63945631067961  C 10.8250825148515 5.14154044660194  11.0532013267327 3.78034951456311  11.048132019802 3.15360518446602  C 11.0358811881188 1.73524920388349  10.4271419207921 0.923339805825242  9.6760396039604 0.932038834951455  C 8.75300330693069 0.942809067961164  8.30056766336634 1.38770227184466  8.30310231683168 2.70166990291262  C 8.30732673267327 4.88926860194175  6.28044885148515 7.09219417475728  3.84506930693069 7.07272491262136  C 3.70890454962921 7.07159049640677  3.57273242066782 7.07159049640677  3.43656766336634 7.07272491262136  L 3.36686469306931 7.07355339805825  C 3.36306271287129 7.07355339805825  3.37953796039604 15.0174239417476  3.37953796039604 15.0174239417476  Z M 12.1278943960396 5.3784854368932  C 12.4757090317845 5.37672415885902  12.8235203241788 5.37437679617003  13.1713267326733 5.3714433592233  L 13.3749439009901 5.36978640776699  C 15.0385214653465 5.35777345631068  16.175735980198 6.68085436893204  15.8842508316832 8.28727508737864  L 14.8725016435644 13.8604530679612  C 14.6726864554455 14.9606731262136  13.6115115445545 15.8351326796117  12.4713399405941 15.8363753980583  L 3.38376237623762 15.8438317087379  C 2.91747128757545 15.8461261143964  2.53744538741209 15.4775580844368  2.53465346534653 15.020323631068  L 2.51775578217822 7.07521034951456  C 2.51658269891052 6.61939885462376  2.89147450837126 6.24845298516561  3.35630362376238 6.24548867961165  L 3.4289637029703 6.24466019417476  C 3.5459801980198 6.24341747572815  3.68876568316832 6.24341747572815  3.85140594059406 6.24466019417476  C 5.79548514851485 6.25998704854369  7.46117491089109 4.44976052427184  7.45821782178218 2.70332685436893  C 7.45483827722772 0.932453067961165  8.2819801980198 0.12012945631068  9.66547855445545 0.10355986407767  C 10.9560396039604 0.0886472427184465  11.8769637029703 1.31728155339806  11.8921716237624 3.14656310679612  C 11.8972409306931 3.69957281553398  11.7565676633663 4.677178  11.5812541188119 5.3805566407767  C 11.7400923960396 5.3805566407767  11.9234323366337 5.37972815533981  12.1274719405941 5.3784854368932  Z M 1.30069966336634 7.14563106796117  L 0.844884495049505 7.14563106796117  L 0.844884495049505 15.016181223301  L 1.30957095049505 15.016181223301  C 1.54287936148721 15.016181223301  1.7320131980198 15.2016425581533  1.7320131980198 15.4304207087379  C 1.7320131980198 15.6591988593224  1.54287936148721 15.8446601941748  1.30957095049505 15.8446601941748  L 0.531432336633664 15.8446601941748  C 0.530587236502506 15.8446641666224  0.529742127874092 15.8446661528548  0.528897018033199 15.8446661528548  C 0.23712240943783 15.8446661528548  0.000462734055752275 15.6129695573591  0 15.3268608349515  L 0 6.83495145631068  C 0 6.54788349514563  0.239102316831683 6.31715209708738  0.53016500990099 6.31715209708738  L 1.30069966336634 6.31715209708738  C 1.5340080743585 6.31715209708738  1.72314191089109 6.50261343193972  1.72314191089109 6.73139158252427  C 1.72314191089109 6.96016973310882  1.5340080743585 7.14563106796117  1.30069966336634 7.14563106796117  Z " fill-rule="nonzero" fill="#666666" stroke="none" transform="matrix(1 0 0 1 345 1235 )" />
  </g>
</svg>