<?xml version="1.0" encoding="utf-8"?>
<svg version="1.1" xmlns:xlink="http://www.w3.org/1999/xlink" width="16px" height="16px" xmlns="http://www.w3.org/2000/svg">
  <g transform="matrix(1 0 0 1 -25 -407 )">
    <path d="M 7.25 12.5  L 8.75 12.5  L 8.5865 6  L 7.4135 6  L 7.25 12.5  Z M 8 5  C 8.205 5  8.382 4.927  8.529 4.7815  C 8.6765 4.636  8.75 4.4585  8.75 4.25  C 8.75 4.0375  8.6765 3.8595  8.529 3.7155  C 8.38919170266273 3.57489403488048  8.19826263659351 3.49711480286173  8 3.5  C 7.795 3.5  7.618 3.572  7.471 3.7155  C 7.32549976331556 3.85469714114276  7.24528762548881 4.04869437041153  7.25 4.25  C 7.25 4.4585  7.3235 4.636  7.471 4.7815  C 7.618 4.927  7.7945 5  8 5  Z M 15.5 8  C 15.5 3.858  12.142 0.5  8 0.5  C 3.858 0.5  0.5 3.858  0.5 8  C 0.5 12.142  3.858 15.5  8 15.5  C 12.142 15.5  15.5 12.142  15.5 8  Z M 1.5 8  C 1.5 4.41  4.41 1.5  8 1.5  C 11.59 1.5  14.5 4.41  14.5 8  C 14.5 11.59  11.59 14.5  8 14.5  C 4.41 14.5  1.5 11.59  1.5 8  Z " fill-rule="nonzero" fill="#ff0000" stroke="none" transform="matrix(1 0 0 1 25 407 )" />
  </g>
</svg>