<?xml version="1.0" encoding="utf-8"?>
<svg version="1.1" xmlns:xlink="http://www.w3.org/1999/xlink" width="22px" height="20px" xmlns="http://www.w3.org/2000/svg">
  <defs>
    <linearGradient gradientUnits="userSpaceOnUse" x1="0" y1="10" x2="21.78" y2="10" id="LinearGradient650">
      <stop id="Stop651" stop-color="#3478f6" offset="0" />
      <stop id="Stop652" stop-color="#02a7f0" offset="1" />
    </linearGradient>
  </defs>
  <g transform="matrix(1 0 0 1 -204 -11 )">
    <path d="M 17.0977862876106 16.1772079411765  C 21.7537140154867 12.05631875  23.4838078628319 7.50330843137255  20.3583477345133 2.94485553921569  C 20.1323985597345 2.65283705882353  19.9250522588496 2.41017803921569  19.7145432389381 2.18675620098039  C 17.1190538384956 -0.567943946078431  14.277667590708 -0.294033970588235  11.6822280066372 1.78430593137255  C 11.4511985110619 1.96930365196078  11.2331437345133 2.16134911764706  11.0278893561947 2.35652973039216  C 10.8226349535398 2.16134911764706  10.6045552809735 1.96930365196078  10.3735257853982 1.78430593137255  C 7.77808620132743 -0.294033970588235  4.93669995353982 -0.567943946078431  2.34121057743363 2.18673112745098  C 2.13070155752212 2.41015299019608  1.92335525663717 2.65281198529412  1.71919661946903 2.91503419117647  C -1.42805404646018 7.50330843137255  0.302039776548673 12.05631875  4.95799242477876 16.1772079411765  C 5.98792519911504 17.0887781372549  7.08888268584071 17.9088025490196  8.18984017256637 18.6258693137255  C 8.57537077654867 18.8769806372549  8.93380640929203 19.0975432352941  9.25618182743363 19.2859770588235  C 9.45147482964602 19.4001208578431  9.59270241814159 19.4789254656863  9.67097401327434 19.5207355392157  C 9.78948961946903 19.592216495098  9.90773129646018 19.646767745098  10.0246032787611 19.6866967401961  C 10.1090509358407 19.7264000245098  10.2075192610619 19.7624665441176  10.3219507035398 19.7942442156863  C 10.9395567522124 19.9657734068627  11.8546347300885 19.8410203431373  12.410953329646 19.5058875735294  C 12.4630762942478 19.4789003921569  12.6043038584071 19.4001208578431  12.7995968849558 19.2859770588235  C 13.1219723030973 19.0975432598039  13.480383039823 18.8769806372549  13.865938539823 18.6258693137255  C 14.9668960265487 17.9088025490196  16.0678534889381 17.0887781372549  17.0977862876106 16.1772079411765  Z " fill-rule="nonzero" fill="url(#LinearGradient650)" stroke="none" transform="matrix(1 0 0 1 204 11 )" />
  </g>
</svg>