<?xml version="1.0" encoding="utf-8"?>
<svg version="1.1" xmlns:xlink="http://www.w3.org/1999/xlink" width="16px" height="16px" xmlns="http://www.w3.org/2000/svg">
  <g transform="matrix(1 0 0 1 -116 -472 )">
    <path d="M 8.04937757174863 15.9735986249286  C 6.97412156883176 15.9703984582535  5.8860648992136 15.7687879577064  4.94201572998601 15.3591666232617  C 3.99796656075843 14.9495452888173  3.16272305849277 14.3863159539559  2.44268555653951 13.6630782853274  C 1.72264805458632 12.9430407833742  1.15621855304977 12.1077972811085  0.746597218605311 11.1637481118808  C 0.336975884160784 10.2164987759778  0.13216521693852 9.20844627324346  0.13216521693852 8.13639043700183  C 0.13216521693852 7.06433460076019  0.336975884160784 5.97307776446687  0.746597218605311 5.02902859523921  C 1.15621855304977 4.08497942601185  1.71944788791094 3.2497359237459  2.4394853898642 2.52969842179271  C 3.1595228918174 1.80966091983923  3.99156622740775 1.24323141830275  4.93561539663533 0.833610083858366  C 5.87966456586291 0.423988749413693  6.89091723527272 0.219178082191502  7.96297307151428 0.219178082191502  C 9.0350289077557 0.219178082191502  10.1262857440493 0.423988749413693  11.0735350799522 0.833610083858366  C 12.0207844158552 1.24323141830275  12.8560279181208 1.80646075316385  13.5728652533987 2.52969842179271  C 14.292902755352 3.2497359237459  14.8561320902131 4.08497942601156  15.268953591333 5.02902859523921  C 15.6817750924528 5.97627793114225  15.8865857596751 7.06433460076019  15.8865857596751 8.13639043700183  C 15.8865857596751 9.20844627324346  15.6817750924528 10.2196989426532  15.268953591333 11.1637481118808  C 14.8561320902131 12.1077972811082  14.292902755352 12.9430407833742  13.5728652533987 13.6630782853274  C 12.8528277514455 14.3831157872805  12.0207844158552 14.9495452888173  11.0767352466276 15.3591666232617  C 10.1294859107246 15.7687879577061  9.12143340799019 15.9735986249286  8.04937757174863 15.9735986249286  Z M 7.96937340486496 14.9623459555188  C 8.91022240741709 14.9655461221942  9.87667274337211 14.7863367883745  10.7055159122872 14.4311182874109  C 11.5343590812022 14.0758997864474  12.2607969165062 13.5862742851191  12.8848294181989 12.9622417834264  C 13.5088619198918 12.3382092817337  13.99848742122 11.6117714464295  14.3505057555082 10.78612844419  C 14.7025240897964 9.96048544195015  14.8785332569406 8.99723527267051  14.8785332569406 8.05318610344315  C 14.8785332569406 7.10913693421549  14.7025240897964 6.22589093181945  14.3473055888328 5.40024792957993  C 13.9920870878693 4.57460492734011  13.502461586541 3.84816709203617  12.8752289181729 3.22093442366779  C 12.2479962498048 2.5937017552997  11.5215584145008 2.10407625397173  10.6991155789365 1.75205791968328  C 9.87667274337218 1.40003958539484  8.91022240741717 1.22403041825106  7.96297307151428 1.22403041825106  C 7.0189239022867 1.22403041825106  6.13567789989072 1.40003958539513  5.31003489765106 1.75205791968328  C 4.48439189541139 2.10407625397173  3.76115422678282 2.5937017552997  3.13712172508996 3.22093442366779  C 2.51308922339718 3.84816709203617  2.02666388874437 4.57460492733982  1.67464555445615 5.40024792957993  C 1.32262722016792 6.22589093181945  1.1466180530237 7.10913693421549  1.1466180530237 8.05318610344315  C 1.1466180530237 8.99723527267051  1.32262722016785 9.96048544195015  1.67464555445615 10.78612844419  C 2.02666388874437 11.6117714464295  2.51308922339718 12.3382092817337  3.14032189176534 12.9622417834264  C 3.7675545601335 13.5862742851191  4.4875920620867 14.0758997864471  5.31323506432644 14.4311182874109  C 6.13567789989072 14.7863367883745  7.022124068962 14.9623459555188  7.96937340486496 14.9623459555188  Z M 4.41398822855364 8.13959060367721  C 4.41398822855364 7.98598260326078  4.46199072868389 7.78117193603859  4.55479556226899 7.68836710245349  C 4.64760039585402 7.59556226886838  4.77240689619262 7.54755976873828  4.92921506328465 7.54755976873828  C 4.92921506328465 7.54755976873828  7.46054690348472 7.54755976873828  7.46054690348472 7.54755976873828  C 7.46054690348472 7.54755976873828  7.46054690348472 5.00982759518753  7.46054690348472 5.00982759518753  C 7.46054690348472 4.85941976144619  7.50854940361496 4.73461326110788  7.60135423719999 4.63860826084739  C 7.6941590707851 4.54260326058691  7.81256523777301 4.49460076045682  7.95337257148822 4.49460076045682  C 8.10378040522955 4.49460076045682  8.30539090577644 4.54260326058691  8.40139590603692 4.63540809417202  C 8.49740090629741 4.72821292775683  8.54220323975227 4.85301942809572  8.54220323975227 5.00982759518753  C 8.54220323975227 5.00982759518753  8.54220323975227 7.54755976873828  8.54220323975227 7.54755976873828  C 8.54220323975227 7.54755976873828  11.089535913329 7.54755976873828  11.089535913329 7.54755976873828  C 11.236743580395 7.54755976873828  11.3551497473828 7.59556226886838  11.4479545809679 7.68836710245349  C 11.540759414553 7.78117193603859  11.5887619146832 7.98598260326107  11.5887619146832 8.13639043700212  C 11.5887619146832 8.27719777071732  11.540759414553 8.39240377103008  11.4479545809679 8.48520860461518  C 11.3551497473828 8.57801343820029  11.2335434137196 8.62281577165501  11.089535913329 8.62281577165501  C 11.089535913329 8.62281577165501  8.54220323975227 8.62281577165501  8.54220323975227 8.62281577165501  C 8.54220323975227 8.62281577165501  8.54220323975227 11.1701484452319  8.54220323975227 11.1701484452319  C 8.54220323975227 11.3205562789732  8.49420073962203 11.4421626126365  8.40139590603692 11.5381676128967  C 8.30859107245189 11.6341726131568  8.10378040522955 11.6789749466119  7.95337257148822 11.6789749466119  C 7.81256523777294 11.6789749466119  7.6941590707851 11.6309724464818  7.60135423719999 11.5349674462213  C 7.50854940361496 11.4389624459608  7.46054690348472 11.3173561122976  7.46054690348472 11.173348611907  C 7.46054690348472 11.173348611907  7.46054690348472 8.62601593833038  7.46054690348472 8.62601593833038  C 7.46054690348472 8.62601593833038  4.92921506328465 8.62601593833038  4.92921506328465 8.62601593833038  C 4.77880722954331 8.62601593833038  4.65400072920478 8.58121360487537  4.5579957289443 8.48840877129027  C 4.46199072868389 8.39880410438054  4.41398822855364 8.2803979373927  4.41398822855364 8.13959060367721  Z " fill-rule="nonzero" fill="#ffffff" stroke="none" transform="matrix(1 0 0 1 116 472 )" />
  </g>
</svg>