<?xml version="1.0" encoding="utf-8"?>
<svg version="1.1" xmlns:xlink="http://www.w3.org/1999/xlink" width="20px" height="20px" xmlns="http://www.w3.org/2000/svg">
  <g transform="matrix(1 0 0 1 -325 -563 )">
    <path d="M 18.9744514577698 17.8620378719568  C 19.238954012624 17.8620378719568  19.4649834685903 17.9582206191765  19.6573489630298 18.1505861136159  C 19.8497144574692 18.3429516080553  19.9458972046889 18.6892094980463  19.9458972046889 18.9537120529005  C 19.9458972046889 19.2134054703937  19.8497144574692 19.444244063721  19.6573489630298 19.6366095581605  C 19.4649834685903 19.8289750525999  19.238954012624 19.9251577998197  18.9744514577698 19.9251577998197  C 18.9744514577698 19.9251577998197  1.54613766155698 19.9251577998197  1.54613766155698 19.9251577998197  C 1.28644424406374 19.9251577998197  1.05560565073642 19.8289750525999  0.863240156296987 19.6366095581605  C 0.670874661857548 19.444244063721  0.57469191463781 19.2182146077547  0.57469191463781 18.9537120529005  C 0.57469191463781 18.6940186354073  0.670874661857548 18.3429516080553  0.863240156296987 18.1505861136159  C 1.05560565073642 17.9582206191765  1.28163510670277 17.8620378719568  1.54613766155698 17.8620378719568  C 1.54613766155698 17.8620378719568  18.9744514577698 17.8620378719568  18.9744514577698 17.8620378719568  Z M 3.46017433122934 16.07303877367  C 3.20048091373614 16.0682296363091  2.9744514577698 15.9720468890893  2.79170423805234 15.7796813946499  C 2.60895701833488 15.5873159002105  2.51277427111514 15.3612864442441  2.51277427111514 15.0967838893899  C 2.51277427111514 15.0967838893899  2.51277427111514 11.0330628193569  2.51277427111514 11.0330628193569  C 2.51277427111514 10.7541328524196  2.60414788097387 10.5232942590924  2.79170423805234 10.3405470393748  C 2.79170423805234 10.3405470393748  9.46197775773972 3.55004508566276  9.46197775773972 3.55004508566276  C 9.46197775773972 3.55004508566276  12.2801322512775 0.828073339344807  12.2801322512775 0.828073339344807  C 12.4628794709949 0.630898707544399  12.6937180643223 0.529906822963691  12.9726480312595 0.529906822963691  C 13.2515779981967 0.529906822963691  13.4824165915239 0.630898707544399  13.6651638112414 0.828073339344807  C 13.6651638112414 0.828073339344807  17.7288848812745 4.95912233243166  17.7288848812745 4.95912233243166  C 17.911632100992 5.14186955214912  18.0078148482117 5.37270814547651  18.0078148482117 5.64201983769165  C 18.0078148482117 5.9113315299068  17.916441238353 6.13736098587318  17.7288848812745 6.32491734295165  C 17.7288848812745 6.32491734295165  15.0069131349565 9.12383528704542  15.0069131349565 9.12383528704542  C 15.0069131349565 9.12383528704542  8.2404568680494 15.7941088067328  8.2404568680494 15.7941088067328  C 8.05770964833194 15.9768560264503  7.82687105500459 16.07303877367  7.54794108806739 16.07303877367  C 7.54794108806739 16.07303877367  3.46017433122934 16.07303877367  3.46017433122934 16.07303877367  Z M 4.4268109407875 14.1541929666367  C 4.4268109407875 14.1541929666367  4.43162007814847 14.1541929666367  4.43162007814847 14.1541929666367  C 4.43162007814847 14.1541929666367  7.15359182446646 14.1541929666367  7.15359182446646 14.1541929666367  C 7.15359182446646 14.1541929666367  12.9726480312594 8.33513675984379  12.9726480312594 8.33513675984379  C 12.9726480312594 8.33513675984379  10.2506762849414 5.61316501352576  10.2506762849414 5.61316501352576  C 10.2506762849414 5.61316501352576  4.4268109407875 11.4322212203187  4.4268109407875 11.4322212203187  C 4.4268109407875 11.4322212203187  4.4268109407875 14.1541929666367  4.4268109407875 14.1541929666367  Z M 12.8524195972348 2.88638412984672  C 12.8524195972348 2.88638412984672  11.4914337240758 4.24737000300578  11.4914337240758 4.24737000300578  C 11.4914337240758 4.24737000300578  14.3336339044184 7.08957018334839  14.3336339044184 7.08957018334839  C 14.3336339044184 7.08957018334839  15.6946197775774 5.72858431018934  15.6946197775774 5.72858431018934  C 15.6946197775774 5.72858431018934  12.8524195972348 2.88638412984672  12.8524195972348 2.88638412984672  Z " fill-rule="nonzero" fill="#3478f6" stroke="none" transform="matrix(1 0 0 1 325 563 )" />
  </g>
</svg>