<?xml version="1.0" encoding="utf-8"?>
<svg version="1.1" xmlns:xlink="http://www.w3.org/1999/xlink" width="22px" height="22px" xmlns="http://www.w3.org/2000/svg">
  <defs>
    <linearGradient gradientUnits="userSpaceOnUse" x1="0" y1="11" x2="21.78" y2="11" id="LinearGradient684">
      <stop id="Stop685" stop-color="#3478f6" offset="0" />
      <stop id="Stop686" stop-color="#02a7f0" offset="1" />
    </linearGradient>
  </defs>
  <g transform="matrix(1 0 0 1 -338 -756 )">
    <path d="M 11.0410499321349 21.9678233241316  C 9.59587662347612 21.9634230949534  8.12913356394178 21.6862086567015  6.85220431211186 21.1229793218397  C 5.57958901045703 20.5597499869786  4.45364801475567 19.7853096515446  3.48300922535794 18.7908578571799  C 2.5123704359602 17.8008062919943  1.74880125496735 16.652346476379  1.19661563255444 15.354278868691  C 0.64443001014152 14.0518110318243  0.368337198935037 12.6657388405646  0.368337198935037 11.1916620657323  C 0.368337198935037 9.7175852909001  0.64443001014152 8.21710714099678  1.19661563255444 6.91903953330875  C 1.74880125496735 5.62097192562112  2.50805648578511 4.47251211000545  3.47869527518285 3.48246054481981  C 4.44933406458058 2.49240897963417  5.57096111010689 1.71356841502111  6.84357641176167 1.15033908016008  C 8.11619171341645 0.587109745299058  9.47939996874839 0.305495077868145  10.9245732774073 0.305495077868145  C 12.3697465860661 0.305495077868145  13.8408035957755 0.587109745299058  15.1177328476054 1.15033908016008  C 16.3946620994354 1.71356841502111  17.5206030951368 2.48800875045552  18.4869279343594 3.48246054481981  C 19.4575667237571 4.47251211000545  20.2168219545748 5.62097192562072  20.7733215271629 6.91903953330875  C 21.3298210997509 8.22150737017542  21.6059139109574 9.7175852909001  21.6059139109574 11.1916620657323  C 21.6059139109574 12.6657388405646  21.3298210997509 14.056211261003  20.7733215271629 15.354278868691  C 20.2168219545748 16.6523464763786  19.4575667237571 17.8008062919943  18.4869279343594 18.7908578571799  C 17.5162891449616 19.780909422366  16.3946620994353 20.5597499869786  15.1220467977805 21.1229793218397  C 13.8494314961258 21.6862086567011  12.4862232407938 21.9678233241316  11.0410499321349 21.9678233241316  Z M 9.77706253083029 16.375132038128  C 9.91079498625849 16.3795322673058  10.0315855911613 16.3487306630557  10.1437482957139 16.2827272253764  C 10.2559110002666 16.2167237876975  10.3551318542939 16.1199187457681  10.4370969076208 15.9923120995886  C 10.4370969076208 15.9923120995886  15.7561974735204 7.56587322256404  15.7561974735204 7.56587322256404  C 15.8036509254465 7.48666909734922  15.8511043773726 7.40306474295576  15.8899299289485 7.30625970102636  C 15.9287554805244 7.2138548882756  15.9460112812248 7.12145007552524  15.9460112812248 7.02904526277449  C 15.9460112812248 6.84423563727298  15.8769880784232 6.69462784520063  15.7346277226449 6.5758216573784  C 15.5922673668665 6.46141569873442  15.441279110738 6.40421271941283  15.273035053909 6.40421271941283  C 15.0400817444536 6.40421271941283  14.8502679367491 6.53181936559235  14.6949657304454 6.7782321995941  C 14.6949657304454 6.7782321995941  9.74255092942945 14.7206458669728  9.74255092942945 14.7206458669728  C 9.74255092942945 14.7206458669728  7.25771562857125 11.6052836085218  7.25771562857125 11.6052836085218  C 7.15849477454395 11.4776769623423  7.06358787069169 11.2752664201266  6.96868096683953 11.2268638991619  C 6.87377406298728 11.1784613781976  6.76592530860974 11.1520600031257  6.64944865388201 11.1520600031257  C 6.47257669670288 11.1520600031257  6.32158844057436 11.3324693994486  6.19648388549645 11.4644762748068  C 6.07137933041854 11.6008833793436  6.00667007779198 11.7636918589519  6.00667007779198 11.948501484453  C 6.00667007779198 12.0409062972037  6.02392587849236 12.1333111099545  6.0584374798932 12.2213156935266  C 6.092949081294 12.3093202770983  6.14471648339523 12.3973248606704  6.20511178584663 12.4853294442429  C 6.20511178584663 12.4853294442429  9.06957470211371 15.9879118704108  9.06957470211371 15.9879118704108  C 9.17310950631616 16.1243189749476  9.28527221086879 16.2211240168766  9.39743491542137 16.2827272253772  C 9.509597619974 16.3443304338778  9.63470217505191 16.375132038128  9.77706253083029 16.375132038128  Z " fill-rule="nonzero" fill="url(#LinearGradient684)" stroke="none" transform="matrix(1 0 0 1 338 756 )" />
  </g>
</svg>