<?xml version="1.0" encoding="utf-8"?>
<svg version="1.1" xmlns:xlink="http://www.w3.org/1999/xlink" width="14px" height="14px" xmlns="http://www.w3.org/2000/svg">
  <g transform="matrix(1 0 0 1 -18 -235 )">
    <path d="M 6.05665454545455 0.336491228070177  L 0.35890909090909 4.6558596491228  L 6.05665454545454 0.336491228070177  C 6.57974783492664 -0.0600675981823798  7.3086904029019 -0.0843078828048108  7.85883636363636 0.276561403508773  L 7.94334545454546 0.336491228070177  L 13.6451636363636 4.65880701754386  C 13.8523575902807 4.81611702701606  13.9733075093563 5.05644982834787  13.9733075093563 5.31084330528128  C 13.9733075093563 5.74118523084276  13.6323114355567 6.1000940414568  13.188 6.13740350877193  L 13.0551272727273 6.14378947368421  C 12.8231540000041 6.16997623066383  12.6401333537938 6.3463718790211  12.6127272727273 6.57017543859649  L 12.6091636363636 6.62715789473684  L 12.6096727272727 7.48140350877193  C 13.2594112681133 8.19780481479476  13.6175502455418 9.11743019407314  13.6175502455418 10.0694204614631  C 13.6175502455418 12.2398026362367  11.7941281357617 13.9992450228666  9.54482297281449 13.9992450228666  C 8.55324547625879 13.9992450228666  7.59572816450144 13.6501893677007  6.85185454545455 13.0175438596491  L 3.94545454545455 13.0175438596491  C 2.58266011947631 13.0174678852972  1.46169073045706 11.9817380771651  1.40254545454545 10.668  L 1.4 10.5614035087719  L 1.4 6.63157894736842  C 1.39996595304164 6.38253868019561  1.20679637941099 6.17292718303008  0.95047272727273 6.14378947368421  L 0.803345454545456 6.1359298245614  C 0.363909175733107 6.09248899066275  0.029753179004644 5.73533677903864  0.029753179004644 5.3090998564934  C 0.029753179004644 5.08223188189804  0.125861961574903 4.8652232593171  0.29578181818182 4.70842105263158  L 0.35890909090909 4.6558596491228  L 6.05665454545455 0.336491228070177  Z M 9.54545451326968 7.12280701754386  C 7.85847565883446 7.12280701754386  6.49090909090909 8.44238880751625  6.49090909090909 10.0701754385965  C 6.49090909090909 11.6979620696767  7.85847565883446 13.0175438596491  9.54545451326968 13.0175438596491  C 11.2324333677049 13.0175438596491  12.5999999356303 11.6979620696767  12.5999999356303 10.0701754385965  C 12.5999999356303 8.44238880751625  11.2324333677049 7.12280701754386  9.54545451326968 7.12280701754386  Z M 11.9320727272727 9.69291228070175  L 9.968 7.77122807017544  L 11.9320727272727 9.69291228070175  C 12.1256487503415 9.88470967076847  12.1444895542106 10.1843616572885  11.9763636363636 10.3973333333333  L 11.9305454545455 10.4479298245614  L 9.96647272727273 12.3701052631579  C 9.86508435386266 12.4698408394333  9.7263821439909 12.5260346244295  9.58159480894559 12.5260346244295  C 9.43656026669566 12.5260346244295  9.29764270961046 12.4696493518945  9.19621818181819 12.3696140350877  C 9.00065044686123 12.1771223735865  8.9823904866117 11.8748681652371  9.15345454545455 11.6617543859649  L 9.19621818181818 11.6150877192983  L 10.2734545454545 10.5614035087719  L 7.50909090909091 10.5614035087719  C 7.22792776372251 10.5614035087719  7 10.3414732104432  7 10.0701754385965  C 7 9.79887766674979  7.22792776372251 9.57894736842105  7.50909090909091 9.57894736842105  L 10.2749818181818 9.57894736842105  L 9.19570909090909 8.52477192982456  C 9.00090360676495 8.33151885603768  8.98352615574968 8.0292807770856  9.15498181818182 7.81642105263157  L 9.19774545454546 7.76975438596492  C 9.3920185882526 7.5787193233919  9.70488326598517 7.56128641387159  9.92065454545454 7.72947368421053  L 9.968 7.77122807017544  L 11.9320727272727 9.69291228070175  Z M 12.7211636363636 5.20750877192982  L 12.7206545454545 5.20701754385965  L 7.31410909090909 1.10870175438597  C 7.14979107988703 0.98419174955432  6.92331459708065 0.969194596840106  6.74290909090909 1.07087719298246  L 6.68538181818182 1.10870175438597  L 1.28087272727273 5.20701754385965  C 1.91818783714157 5.36963461794094  2.37561726210556 5.90824009734413  2.41563636363637 6.54315789473684  L 2.41818181818182 6.63157894736842  L 2.41818181818182 10.5614035087719  C 2.41813676808609 11.341747598076  3.04852722335494 11.9868513935146  3.85585454545454 12.0326315789474  L 3.94545454545455 12.0350877192982  L 6.01745454545454 12.0350877192982  C 5.65902132993508 11.4370762883276  5.47029379313186 10.7584609407504  5.47029379313186 10.0676393521572  C 5.47029379313186 7.89725717738358  7.29371590291191 6.13781479075371  9.54302106585914 6.13781479075371  C 10.2628795180577 6.13781479075371  10.9698769770733 6.32191676202561  11.592 6.67136842105263  L 11.592 6.62715789473684  C 11.592 5.97775438596491  12.0282909090909 5.42708771929825  12.6336 5.23256140350877  L 12.7211636363636 5.20750877192982  L 7.31461818181818 1.10870175438597  L 12.7211636363636 5.20750877192982  Z " fill-rule="nonzero" fill="#aaaaaa" stroke="none" transform="matrix(1 0 0 1 18 235 )" />
  </g>
</svg>