<?xml version="1.0" encoding="utf-8"?>
<svg version="1.1" xmlns:xlink="http://www.w3.org/1999/xlink" width="14px" height="14px" xmlns="http://www.w3.org/2000/svg">
  <g transform="matrix(1 0 0 1 -18 -330 )">
    <path d="M 10.1585 2.0925504587156  L 11.1165 2.0925504587156  C 12.6761479423865 2.09509712659182  13.9397975170956 3.39375581715512  13.942 4.99633027522936  L 13.942 11.0921100917431  C 13.9397961899846 12.6945175364421  12.6759861823145 13.9928815068584  11.1165 13.9948623853211  L 2.826 13.9948623853211  C 1.26620454987949 13.9934470248435  0.00192949120841157 12.6948350905651  0 11.0921100917431  L 0 4.99633027522936  C 0.00220317166776285 3.39355560278526  1.26615679199637 2.09481426813568  2.826 2.0925504587156  L 3.7825 2.0925504587156  C 3.872 0.924770642201834  4.8145 0.000513761467889623  5.9735 0.000513761467889623  L 7.9685 0.000513761467889623  C 9.1285 0.000513761467889623  10.071 0.924770642201834  10.1585 2.0925504587156  Z M 12.8115 11.0915963302752  L 12.8115 4.99633027522936  C 12.8115 4.10135779816514  12.1485 3.3702752293578  11.3025 3.2736880733945  L 11.3025 10.1067155963303  L 11.7015 10.1067155963303  C 12.0135408836544 10.1067155963303  12.2665 10.36663689019  12.2665 10.6872660550459  C 12.2665 11.0078952199018  12.0135408836544 11.2678165137615  11.7015 11.2678165137615  L 11.3025 11.2678165137615  L 11.3025 12.8142385321101  C 12.1485 12.7181651376147  12.812 11.9875963302752  12.812 11.0915963302752  Z M 9.7725 10.1067155963303  L 10.1715 10.1067155963303  L 10.1715 3.25467889908257  L 3.77 3.25467889908257  L 3.77 10.1067155963303  L 4.17 10.1067155963303  C 4.17792061484446 10.1063731265479  4.1858473626178 10.1062018348624  4.19377498685592 10.1062018348624  C 4.50609201288524 10.1062018348624  4.75927498685592 10.3663531475662  4.75927498685592 10.6872660550459  C 4.75927498685592 11.0081789625255  4.50609201288524 11.2683302752294  4.19377498685592 11.2683302752294  C 4.1858473626178 11.2683302752294  4.17792061484446 11.2681589835438  4.17 11.2678165137615  L 3.77 11.2678165137615  L 3.77 12.8342752293578  L 10.1715 12.8342752293578  L 10.1715 11.2678165137615  L 9.7725 11.2678165137615  C 9.46045908266898 11.2678165137615  9.20749996632338 11.0078952199018  9.20749996632338 10.6872660550459  C 9.20749996632338 10.36663689019  9.46045908266898 10.1067155963303  9.77249996632337 10.1067155963303  Z M 5.9735 1.16110091743119  C 5.4385 1.16110091743119  4.996 1.56594495412844  4.9125 2.0925504587156  L 9.029 2.0925504587156  C 8.94584959477781 1.55693882410649  8.4968536684149 1.16239443764488  7.969 1.16110091743119  L 5.974 1.16110091743119  Z M 2.64 10.1067155963303  L 2.64 3.2736880733945  C 1.7935 3.37078899082569  1.13 4.10187155963303  1.13 4.99684403669725  L 1.13 11.092623853211  C 1.13 11.9881100917431  1.7935 12.7181651376147  2.64 12.8152660550459  L 2.64 11.2688440366972  L 2.24 11.2688440366972  C 1.92782104515814 11.2688440366972  1.67475 11.0088077334155  1.67475 10.6880366972477  C 1.67475 10.3672656610799  1.92782104515814 10.1072293577982  2.24 10.1072293577982  L 2.64 10.1072293577982  Z " fill-rule="nonzero" fill="#aaaaaa" stroke="none" transform="matrix(1 0 0 1 18 330 )" />
  </g>
</svg>