<?xml version="1.0" encoding="utf-8"?>
<svg version="1.1" xmlns:xlink="http://www.w3.org/1999/xlink" width="11px" height="14px" xmlns="http://www.w3.org/2000/svg">
  <g transform="matrix(1 0 0 1 -45 -143 )">
    <path d="M 11 5.72732232474231  C 11 7.24627734105396  10.420546624265 8.70302093977898  9.38911111111111 9.77709090909091  L 5.5 13.8269090909091  L 1.61088888888889 9.77709090909091  C 0.579453375734951 8.70302093977898  0 7.24627734105396  0 5.72732232474231  C 0 2.56423693934776  2.46243387593064 4.95974695809874E-05  5.5 4.95974695809874E-05  C 8.53756612406936 4.95974695809874E-05  11 2.56423693934776  11 5.72732232474231  Z M 5.5 8.27272727272727  C 6.85002938847527 8.27272727272727  7.94444444444444 7.13308845411475  7.94444444444444 5.72727272727273  C 7.94444444444444 4.32145700043071  6.85002938847527 3.18181818181818  5.5 3.18181818181818  C 4.14997061152473 3.18181818181818  3.05555555555556 4.32145700043071  3.05555555555556 5.72727272727273  C 3.05555555555556 7.13308845411475  4.14997061152473 8.27272727272727  5.5 8.27272727272727  Z M 5.5 7  C 4.82498530576236 7  4.27777777777778 6.43018059069374  4.27777777777778 5.72727272727273  C 4.27777777777778 5.02436486385172  4.82498530576236 4.45454545454545  5.5 4.45454545454545  C 6.17501469423764 4.45454545454545  6.72222222222222 5.02436486385172  6.72222222222222 5.72727272727273  C 6.72222222222222 6.43018059069374  6.17501469423764 7  5.5 7  Z " fill-rule="nonzero" fill="#3478f6" stroke="none" transform="matrix(1 0 0 1 45 143 )" />
  </g>
</svg>