<?xml version="1.0" encoding="utf-8"?>
<svg version="1.1" xmlns:xlink="http://www.w3.org/1999/xlink" width="118px" height="118px" xmlns="http://www.w3.org/2000/svg">
  <g>
    <path d="M 0 0  L 118 0  L 118 118  L 0 118  L 0 0  " fill-rule="nonzero" fill="#cccccc" stroke="none" />
    <path d="M 8 8  L 110 8  L 110 110  L 8 110  L 8 8  " fill-rule="nonzero" fill="#ffffff" stroke="none" />
    <path d="M 70.21 35.4  C 65.254 35.4  61.36 31.506  61.36 26.55  C 61.36 21.594  65.254 17.7  70.21 17.7  C 75.166 17.7  79.06 21.594  79.06 26.55  C 79.06 31.506  75.166 35.4  70.21 35.4  " fill-rule="nonzero" fill="#cccccc" stroke="none" />
    <path d="M 11 107  L 11 54.2  L 35 30.2  L 68.6 49.4  L 87.8 44.6  L 107 49.4  L 107 107  L 11 107  " fill-rule="nonzero" fill="#169bd5" stroke="none" />
  </g>
</svg>