<?xml version="1.0" encoding="utf-8"?>
<svg version="1.1" xmlns:xlink="http://www.w3.org/1999/xlink" width="15px" height="18px" xmlns="http://www.w3.org/2000/svg">
  <g transform="matrix(1 0 0 1 -15 -583 )">
    <path d="M 5.6423835158715 0.68018987509613  C 6.8851467819353 0.360868758121387  8.23578880373381 0.360868758121387  9.47855206979762 0.68018987509613  C 10.7472062372377 1.012456442759  11.8518846959611 1.64678352647902  12.7925874459678 2.58748627648565  C 13.4873266328993 3.28654061364659  14.0180901111141 4.07621310562472  14.3805627303827 4.96513405287856  C 14.7473504998807 5.85405500013253  14.9285868095149 6.78181229945103  14.9285868095149 7.74840595083406  C 14.9285868095149 8.71499960221695  14.7473504998806 9.75063565727023  14.3805627303827 10.6395566045242  C 14.0137749608846 11.528477551778  13.4873266328993 12.3224651939856  12.7969025961972 13.0128892306876  C 12.7969025961972 13.0128892306876  8.21852820281628 17.6085242249862  8.21852820281628 17.6085242249862  C 8.05455249409953 17.7724999337029  7.73954652735419 17.8588029382906  7.49789811450844 17.8588029382906  C 7.25624970166269 17.8588029382906  7.05343764088146 17.7768150839323  6.8851467819353 17.6085242249862  C 6.8851467819353 17.6085242249862  2.32834813970136 13.0517255827522  2.32834813970136 13.0517255827522  C 1.38764538969473 12.1110228327455  0.753318305974659 11.0106595242516  0.421051738311769 9.7376902065821  C 0.101730621337043 8.49492694051819  0.101730621337043 7.14428491871977  0.421051738311769 5.90152165265586  C 0.753318305974659 4.63286748521568  1.38764538969473 3.52387387626295  2.32834813970136 2.58748627648565  C 3.26905088970799 1.65109867670849  4.37372934843137 1.012456442759  5.6423835158715 0.68018987509613  Z M 4.92606857779307 5.1161643109072  C 4.45571720278976 5.59946113659871  4.13639608581502 6.16043066641914  3.97242037709828 6.79475775013916  C 3.80844466838153 7.43339998408865  3.80844466838153 8.17560582354345  3.97242037709828 8.8099329072636  C 4.14071123604442 9.44857514121295  4.45571720278976 10.0052295208042  4.92606857779307 10.4885263464956  C 5.44820175554903 11.0149746744809  6.08252883926912 11.3515563923733  6.82041952849448 11.5025866504018  C 7.55831021771988 11.6579320586598  8.38250391153302 11.593204805219  9.07292794823514 11.3084048900793  C 9.76335198493727 11.0236049749396  10.315691214299 10.5705142008539  10.738575936779 9.94913256782193  C 11.1571455090297 9.32775093479004  11.3772181707285 8.64595719854669  11.3901636214166 7.89943620886256  C 11.3901636214166 7.40319393248306  11.2952303163701 6.81633350128609  11.1096788565064 6.36324272720044  C 10.9241273966427 5.90583680288532  10.6565880824206 5.5045278315522  10.3027457636108 5.15068551274239  C 9.94890344480097 4.79684319393246  9.54759447346786 4.52498872948104  9.09018854915271 4.33080696915854  C 8.63278262483756 4.14094035906537  8.05023734387015 4.04169190378952  7.56262536794927 4.04169190378952  C 7.0750133920284 4.04169190378952  6.59603171656631 4.13662520883604  6.13431064202177 4.32217666869974  C 5.67258956747724 4.50772812856344  5.26696544591475 4.77526744278566  4.92606857779307 5.1161643109072  Z M 9.0254612957119 9.26302368134925  C 9.0254612957119 9.26302368134925  9.0254612957119 9.26733883157872  9.0254612957119 9.26733883157872  C 9.21964305603437 9.09041767217368  9.37067331406296 8.87466016070425  9.48286722002706 8.62438144739976  C 9.59506112599114 8.37410273409528  9.64684292874379 8.11950887056132  9.64684292874379 7.8562847065687  C 9.64684292874379 7.37298788087733  9.4958126707152 6.83790925243316  9.18943700442864 6.46249118247629  C 8.88737648837148 6.09138826274902  8.49901296772653 5.858370150362  8.02866159272322 5.76775199554481  C 7.55831021771992 5.67713384072777  7.00597098835822 5.74617624439788  6.58308626587816 5.97487920655558  C 6.1602015433981 6.20358216871314  5.85814102734094 6.54016388660534  5.67258956747724 6.980309210003  C 5.48703810761354 7.42476968362985  5.46114720623721 7.97710891299162  5.59923201357764 8.43451483730673  C 5.73731682091806 8.88760561139252  6.00485613514013 9.25007823066112  6.40616510647322 9.52193269511254  C 6.80747407780634 9.79378715956396  7.35549815693864 9.90166591529874  7.83879498263012 9.85419926277541  C 8.3220918083216 9.80673261025222  8.72771592988409 9.60823569970025  9.05998249754696 9.26302368134925  C 9.05998249754696 9.26302368134925  9.0254612957119 9.26302368134925  9.0254612957119 9.26302368134925  Z " fill-rule="nonzero" fill="#333333" stroke="none" transform="matrix(1 0 0 1 15 583 )" />
  </g>
</svg>