<?xml version="1.0" encoding="utf-8"?>
<svg version="1.1" xmlns:xlink="http://www.w3.org/1999/xlink" width="14px" height="14px" viewBox="15 646  14 14" xmlns="http://www.w3.org/2000/svg">
  <path d="M 15.5 653  A 6.5 6.5 0 0 1 22 646.5 A 6.5 6.5 0 0 1 28.5 653 A 6.5 6.5 0 0 1 22 659.5 A 6.5 6.5 0 0 1 15.5 653 Z " fill-rule="nonzero" fill="#f0f0f0" stroke="none" />
  <path d="M 15.5 653  A 6.5 6.5 0 0 1 22 646.5 A 6.5 6.5 0 0 1 28.5 653 A 6.5 6.5 0 0 1 22 659.5 A 6.5 6.5 0 0 1 15.5 653 Z " stroke-width="1" stroke="#cccccc" fill="none" />
</svg>