<?xml version="1.0" encoding="utf-8"?>
<svg version="1.1" xmlns:xlink="http://www.w3.org/1999/xlink" width="8px" height="5px" xmlns="http://www.w3.org/2000/svg">
  <g transform="matrix(1 0 0 1 -342 -370 )">
    <path d="M 7.80467532467533 4.64718614718615  C 7.67584415584416 4.78138528138528  7.50545454545454 4.84848484848485  7.33506493506493 4.84848484848485  C 7.16492467532468 4.84848484848485  6.9947012987013 4.78084415584415  6.86503896103896 4.64556277056277  L 4.01038961038961 1.67316017316017  L 1.15532467532468 4.64718614718615  C 0.895584415584415 4.91774891774892  0.474805194805194 4.91774891774892  0.215064935064935 4.64718614718615  C -0.0446753246753246 4.37662337662338  -0.0446753246753246 3.93831168831169  0.215064935064935 3.66774891774892  L 3.53974025974026 0.204545454545455  C 3.79948051948052 -0.066017316017315  4.22025974025974 -0.066017316017315  4.48 0.204545454545455  L 7.80467532467533 3.66774891774892  C 8.06441558441558 3.93831168831169  8.06441558441558 4.37662337662338  7.80467532467533 4.64718614718615  Z " fill-rule="nonzero" fill="#797979" stroke="none" transform="matrix(1 0 0 1 342 370 )" />
  </g>
</svg>