<?xml version="1.0" encoding="utf-8"?>
<svg version="1.1" xmlns:xlink="http://www.w3.org/1999/xlink" width="23px" height="23px" xmlns="http://www.w3.org/2000/svg">
  <g transform="matrix(1 0 0 1 -17 -385 )">
    <path d="M 6.54054643237704 22.632  L 5.89704918032787 21.896  L 6.78185790778688 21.07822220625  L 3.64480872745902 17.48  L 6.13836065573771 15.272  L 5.81661200614754 14.9448888729167  L 2.59912569877049 17.8888888729167  L 1.95562839959017 17.1528888729167  L 5.17311475409836 14.2088888729167  L 4.8513661045082 13.8  L 2.03606557377049 16.4168888729167  L 0.346885245901641 14.536  L 7.5057923340164 7.99377779375  L 9.19497266188525 9.87466666666666  L 6.13836065573771 12.6551111270833  L 6.46010930532787 12.98222220625  L 9.83846996106557 9.87466666666666  L 10.4819672131148 10.6106666666667  L 7.10360655737705 13.71822220625  L 7.42535520696721 14.0453333333333  L 10.0797814364754 11.67377779375  L 13.2168306168033 15.272  L 14.1016393442623 14.45422220625  L 14.7451365963115 15.19022220625  L 6.54054643237704 22.632  Z M 1.95562839959016 14.2088888729167  L 2.43825135040984 14.6995555395833  L 3.48393442622951 13.8  L 3.00131147540983 13.3093333333333  L 1.95562839959016 14.2088888729167  Z M 3.96655737704918 12.40977779375  L 4.44918032786885 12.9004444604167  L 5.49486340368852 12.0008888729167  L 5.01224045286885 11.51022220625  L 3.96655737704918 12.40977779375  Z M 9.75803278688524 13.8  L 9.51672131147541 13.4728888729167  L 5.41442622950819 17.1528888729167  L 5.65573770491803 17.48  L 9.75803278688524 13.8  Z M 6.37967213114754 11.1013333333333  L 7.42535520696721 10.20177779375  L 6.94273225614754 9.71111112708333  L 5.89704918032787 10.6106666666667  L 6.37967213114754 11.1013333333333  Z M 6.21879782991803 17.9706666666667  L 6.46010930532787 18.29777779375  L 10.5624043872951 14.61777779375  L 10.3210929118852 14.2906666666667  L 6.21879782991803 17.9706666666667  Z M 6.94273225614754 18.87022220625  L 7.18404373155738 19.1973333333333  L 11.2863388135246 15.5173333333333  L 11.0450273381148 15.19022220625  L 6.94273225614754 18.87022220625  Z M 7.66666668237705 19.688  L 7.98841528483607 20.0151111270833  L 12.0907103668033 16.3351111270833  L 11.7689617643443 16.008  L 7.66666668237705 19.688  Z M 9.3558470102459 8.648  L 8.31016393442623 7.42133333333333  L 11.2059016393443 4.80444446041667  L 12.1711475409836 5.94933333333333  L 11.4472131147541 6.60355553958333  L 15.9516939733607 11.7555555395833  C 16.2734426229508 12.0826666666667  16.4343169241803 12.4097777458333  16.5147540983607 12.7368888729167  C 16.595191272541 13.064  16.5147540983607 13.3093333333333  16.3538797971311 13.5546666666667  C 16.1930054959016 13.8  15.7908196721311 14.2088888729167  15.0668852459016 14.8631111270833  C 14.7451365963115 14.536  14.3429508196721 14.2906666666667  13.9407650430328 13.9635555395833  C 14.1820765184426 13.8  14.5038251680328 13.5546666666667  14.7451365963115 13.3093333333333  C 14.9864480717213 13.14577779375  14.9864480717213 12.9004444604167  14.7451365963115 12.6551111270833  L 10.4015300389344 7.66666666666667  L 9.3558470102459 8.648  Z M 12.1711475409836 5.704  L 11.2863388135246 4.64088887291667  L 16.2734426229508 0.0613333333333327  L 17.2386885245902 1.12444446041667  L 15.0668852459016 3.08711112708333  L 15.6299453709016 3.98666666666667  L 17.7213114754098 2.10577779375  L 21.0996721311475 5.94933333333333  L 19.9735519282787 6.93066666666667  L 17.48 4.15022220625  L 14.9060109446721 6.44  L 17.3995628258197 9.30222220625  L 16.2734426229508 10.2835555395833  L 12.8950819672131 6.44  L 14.3429508196721 5.13155553958333  L 13.7798906946721 4.232  L 12.1711475409836 5.704  Z M 17.3995628258197 8.23911112708333  C 17.2386885245902 7.66666666666667  16.7560655737705 7.01244446041667  16.1125683217213 6.27644446041667  L 17.1582513504098 5.29511112708333  C 17.8821857766393 6.11288892083333  18.364808727459 6.84888892083333  18.7669945512295 7.50311112708333  C 19.9735519282787 7.25777779375  21.2605464795082 7.09422225416667  22.5475409836066 7.01244446041667  L 22.6279781577869 8.56622220625  C 21.6627322561475 8.56622220625  20.5366120532787 8.72977774583333  19.1691803278689 8.81155553958333  C 19.3300546290984 9.79288887291667  19.0887431536885 11.0195555395833  18.2843716004098 12.4915555395833  C 17.8017486495902 12.328  17.3191256987705 12.1644444125  16.6756283995902 12.0008888729167  C 17.1582513504098 11.2648888729167  17.3995628258197 10.6106666666667  17.5604371741803 10.03822220625  C 17.721311522541 9.46577774583333  17.6408743483607 8.81155553958333  17.3995628258197 8.23911112708333  Z " fill-rule="nonzero" fill="#ffffff" stroke="none" transform="matrix(1 0 0 1 17 385 )" />
  </g>
</svg>