<?xml version="1.0" encoding="utf-8"?>
<svg version="1.1" xmlns:xlink="http://www.w3.org/1999/xlink" width="10px" height="8px" xmlns="http://www.w3.org/2000/svg">
  <g transform="matrix(1 0 0 1 -223 -64 )">
    <path d="M 3.04166666666667 1.625  C 3.23611111111111 1.81944444444444  3.33333333333333 2.05555555555555  3.33333333333333 2.33333333333333  C 3.33333333333333 2.61111111111111  3.23611111111111 2.84722222222222  3.04166666666667 3.04166666666667  C 2.84722222222222 3.23611111111111  2.61111111111111 3.33333333333333  2.33333333333333 3.33333333333333  C 2.05555555555556 3.33333333333333  1.81944444444444 3.23611111111111  1.625 3.04166666666667  C 1.43055555555556 2.84722222222222  1.33333333333333 2.61111111111111  1.33333333333333 2.33333333333333  C 1.33333333333333 2.05555555555555  1.43055555555556 1.81944444444444  1.625 1.625  C 1.81944444444444 1.43055555555555  2.05555555555556 1.33333333333333  2.33333333333333 1.33333333333333  C 2.61111111111111 1.33333333333333  2.84722222222222 1.43055555555555  3.04166666666667 1.625  Z M 6.5 2.16666666666667  L 8.66666666666667 4.33333333333333  L 8.66666666666667 6.66666666666667  L 1.33333333333333 6.66666666666667  L 1.33333333333333 5.66666666666667  L 3 4  L 3.83333333333333 4.83333333333333  L 6.5 2.16666666666667  Z M 9.28385416666667 0.716145833333333  C 9.25086805555556 0.683159722222221  9.21180555555556 0.666666666666667  9.16666666666667 0.666666666666667  L 0.833333333333333 0.666666666666667  C 0.788194444444445 0.666666666666667  0.749131944444445 0.683159722222221  0.716145833333333 0.716145833333333  C 0.683159722222222 0.749131944444444  0.666666666666667 0.788194444444444  0.666666666666667 0.833333333333333  L 0.666666666666667 7.16666666666667  C 0.666666666666667 7.21180555555556  0.683159722222222 7.25086805555556  0.716145833333333 7.28385416666667  C 0.749131944444445 7.31684027777778  0.788194444444445 7.33333333333333  0.833333333333333 7.33333333333333  L 9.16666666666667 7.33333333333333  C 9.21180555555556 7.33333333333333  9.25086805555556 7.31684027777778  9.28385416666667 7.28385416666667  C 9.31684027777778 7.25086805555556  9.33333333333333 7.21180555555556  9.33333333333333 7.16666666666667  L 9.33333333333333 0.833333333333333  C 9.33333333333333 0.788194444444444  9.31684027777778 0.749131944444444  9.28385416666667 0.716145833333333  Z M 9.75520833333333 0.244791666666667  C 9.91840277777778 0.407986111111111  10 0.604166666666667  10 0.833333333333333  L 10 7.16666666666667  C 10 7.39583333333333  9.91840277777778 7.59201388888889  9.75520833333333 7.75520833333333  C 9.59201388888889 7.91840277777778  9.39583333333333 8  9.16666666666667 8  L 0.833333333333333 8  C 0.604166666666667 8  0.407986111111111 7.91840277777778  0.244791666666667 7.75520833333333  C 0.0815972222222222 7.59201388888889  0 7.39583333333333  0 7.16666666666667  L 0 0.833333333333333  C 0 0.604166666666667  0.0815972222222222 0.407986111111111  0.244791666666667 0.244791666666667  C 0.407986111111111 0.0815972222222214  0.604166666666667 0  0.833333333333333 0  L 9.16666666666667 0  C 9.39583333333333 0  9.59201388888889 0.0815972222222214  9.75520833333333 0.244791666666667  Z " fill-rule="nonzero" fill="#ffffff" stroke="none" transform="matrix(1 0 0 1 223 64 )" />
  </g>
</svg>