<?xml version="1.0" encoding="utf-8"?>
<svg version="1.1" xmlns:xlink="http://www.w3.org/1999/xlink" width="8px" height="13px" xmlns="http://www.w3.org/2000/svg">
  <g transform="matrix(1 0 0 1 -116 -122 )">
    <path d="M 7.90105815846734 6.64411340868523  C 7.90105815846734 6.5698238251505  7.88858997661536 6.41195846013827  7.86053656744829 6.35005047385918  C 7.8324831582813 6.28814248758009  7.79196156726225 6.229329900615  7.73585474892825 6.17361271296387  C 7.73585474892825 6.17361271296387  1.57033882311225 0.422360787640612  1.57033882311225 0.422360787640612  C 1.4674763228333 0.320212610280039  1.34591154977623 0.270686221256878  1.19629336755214 0.270686221256878  C 1.09966495819917 0.270686221256878  1.01238768523515 0.292354016454487  0.934461548660093 0.338785006163933  C 0.856535412085081 0.385215995873092  0.79107745736207 0.44712398215247  0.7443217754171 0.524508965001184  C 0.694449048009036 0.601893947849878  0.672629729768025 0.691660527954522  0.672629729768025 0.793808705315095  C 0.672629729768025 0.930006275128918  0.722502457176089 1.0507268483731  0.825364957455122 1.15597042504736  C 0.825364957455122 1.15597042504736  6.62618656409989 6.637922610057  6.62618656409989 6.637922610057  C 6.62618656409989 6.637922610057  0.825364957455122 12.0424898122179  0.825364957455122 12.0424898122179  C 0.722502457176089 12.1477333888925  0.672629729768025 12.2684539621364  0.672629729768025 12.4046515319505  C 0.672629729768025 12.5067997093107  0.697566093472068 12.5934708901014  0.7443217754171 12.6739512722641  C 0.791077457362152 12.7513362551131  0.856535412085081 12.8132442413919  0.934461548660093 12.8596752311016  C 1.01238768523515 12.9061062208108  1.09966495819917 12.9277740160084  1.19629336755214 12.9277740160084  C 1.3427945043132 12.9277740160084  1.46747632283322 12.8751522276713  1.57033882311225 12.769908650997  C 1.57033882311225 12.769908650997  7.73585474892825 7.02794292361509  7.73585474892825 7.02794292361509  C 7.79196156726225 6.97222573596399  7.83248315828122 6.91341314899888  7.86053656744829 6.85150516272008  C 7.88858997661528 6.789597176441  7.90105815846734 6.71840299221997  7.90105815846734 6.64411340868523  Z " fill-rule="nonzero" fill="#ffffff" stroke="none" transform="matrix(1 0 0 1 116 122 )" />
  </g>
</svg>