<?xml version="1.0" encoding="utf-8"?>
<svg version="1.1" xmlns:xlink="http://www.w3.org/1999/xlink" width="19px" height="18px" xmlns="http://www.w3.org/2000/svg">
  <g>
    <path d="M 11.2791294642857 17.5586538461538  C 10.8868303571429 17.7966346153846  10.4521205357143 17.9177884615385  10.0152901785714 17.9177884615385  C 9.61450892857143 17.9177884615385  9.21372767857143 17.8161057692308  8.84475446428571 17.6127403846154  C 8.82142857142857 17.5997596153846  8.80022321428571 17.5867788461538  8.77689732142857 17.5716346153846  L 4.26439732142857 14.56875  L 2.71004464285714 14.56875  C 1.25747767857143 14.56875  0.0763392857142859 13.3637019230769  0.0763392857142859 11.8817307692308  L 0.0763392857142859 6.04038461538461  C 0.0763392857142859 4.55841346153846  1.25747767857143 3.35336538461538  2.71004464285714 3.35336538461538  L 4.26651785714286 3.35336538461538  L 8.78113839285714 0.389423076923076  C 8.80234375 0.376442307692307  8.82354910714286 0.363461538461537  8.84475446428571 0.352644230769229  C 9.61662946428572 -0.0735576923076937  10.5263392857143 -0.0519230769230783  11.2791294642857 0.406730769230768  C 12.0764508928571 0.893509615384614  12.5535714285714 1.76538461538461  12.5535714285714 2.73894230769231  L 12.5535714285714 15.2264423076923  C 12.5535714285714 16.2021634615385  12.0764508928571 17.0740384615385  11.2791294642857 17.5586538461538  Z M 5.05959821428571 12.8033653846154  L 9.7671875 15.9338942307692  C 10.0089285714286 16.0528846153846  10.2103794642857 15.9685096153846  10.3142857142857 15.9057692307692  C 10.5369419642857 15.7694711538462  10.6684151785714 15.5163461538462  10.6684151785714 15.2242788461538  L 10.6684151785714 2.73894230769231  C 10.6684151785714 2.446875  10.5348214285714 2.19375  10.3142857142857 2.05745192307692  C 10.2125 1.99471153846154  10.0089285714286 1.9125  9.76506696428571 2.03149038461538  L 5.05535714285714 5.12524038461538  C 4.90267857142857 5.22475961538462  4.72667410714285 5.27884615384615  4.54430803571428 5.27884615384615  L 2.71004464285714 5.27884615384615  C 2.29654017857143 5.27884615384615  1.96149553571428 5.62067307692308  1.96149553571428 6.04254807692308  L 1.96149553571428 11.8838942307692  C 1.96149553571428 12.3057692307692  2.29654017857143 12.6475961538462  2.71004464285714 12.6475961538462  L 4.54430803571428 12.6475961538462  C 4.72667410714285 12.6475961538462  4.90691964285714 12.7016826923077  5.05959821428571 12.8033653846154  Z M 15.4671875 11.1288461538462  C 15.3357142857143 11.5247596153846  14.9688616071429 11.7778846153846  14.5765625 11.7778846153846  C 14.4747767857143 11.7778846153846  14.3729910714286 11.7605769230769  14.2733258928571 11.7259615384615  C 13.7792410714286 11.5550480769231  13.5162946428571 11.0076923076923  13.6838169642857 10.5057692307692  C 13.8386160714286 10.040625  13.9170758928571 9.54951923076923  13.9170758928571 9.04975961538462  C 13.9170758928571 8.46129807692308  13.8089285714286 7.89230769230769  13.596875 7.35793269230769  C 13.4017857142857 6.86466346153846  13.6329241071429 6.30432692307692  14.11640625 6.10528846153846  C 14.5998883928571 5.90625  15.1491071428571 6.14206730769231  15.3441964285714 6.63533653846154  C 15.6474330357143 7.40120192307693  15.8022321428571 8.2125  15.8022321428571 9.05192307692308  C 15.8022321428571 9.76370192307692  15.68984375 10.4625  15.4671875 11.1288461538462  Z M 18.0245535714286 13.4286057692308  C 17.8655133928571 13.78125  17.5262276785714 13.9867788461538  17.1699776785714 13.9867788461538  C 17.0363839285714 13.9867788461538  16.9006696428571 13.9586538461538  16.7734375 13.8959134615385  C 16.3005580357143 13.6709134615385  16.0969866071429 13.0997596153846  16.3154017857143 12.6173076923077  C 16.7946428571429 11.5658653846154  17.0469866071429 10.3326923076923  17.0469866071429 9.04759615384615  C 17.0469866071429 7.565625  16.7013392857143 6.12692307692308  16.0736607142857 4.99975961538461  C 15.8170758928571 4.53677884615384  15.9761160714286 3.95048076923077  16.4277901785714 3.68870192307692  C 16.8794642857143 3.42475961538461  17.45625 3.58918269230769  17.7128348214286 4.05  C 18.51015625 5.484375  18.9321428571429 7.2108173076923  18.9321428571429 9.04759615384615  C 18.9321428571429 10.6117788461538  18.6183035714286 12.1262019230769  18.0245535714286 13.4286057692308  Z " fill-rule="nonzero" fill="#ffffff" stroke="none" />
  </g>
</svg>