<?xml version="1.0" encoding="utf-8"?>
<svg version="1.1" xmlns:xlink="http://www.w3.org/1999/xlink" width="20px" height="18px" xmlns="http://www.w3.org/2000/svg">
  <g>
    <path d="M 11.820796460177 17.5629807692308  C 11.4070796460177 17.7966346153846  10.9535398230088 17.9177884615385  10.5 17.9177884615385  C 10.0818584070796 17.9177884615385  9.6637168141593 17.8161057692308  9.27654867256638 17.6127403846154  C 9.25221238938053 17.5997596153846  9.23008849557522 17.5867788461538  9.20575221238938 17.5716346153846  L 4.5 14.56875  L 2.88053097345132 14.56875  C 1.36504424778761 14.56875  0.132743362831858 13.3637019230769  0.132743362831858 11.8817307692308  L 0.132743362831858 6.04254807692308  C 0.132743362831858 4.56057692307692  1.36504424778761 3.35552884615384  2.88053097345132 3.35552884615384  L 4.50442477876106 3.35552884615384  L 9.21238938053098 0.391586538461537  C 9.23451327433629 0.378605769230769  9.25663716814159 0.365625000000002  9.27876106194691 0.354807692307694  C 10.0840707964602 -0.0692307692307702  11.0353982300885 -0.0497596153846144  11.820796460177 0.408894230769233  C 12.6526548672566 0.895673076923079  13.1504424778761 1.76754807692308  13 2.74326923076923  L 13 15.2286057692308  C 13.1504424778761 16.2043269230769  12.6526548672566 17.0762019230769  11.820796460177 17.5629807692308  Z M 5.32964601769912 12.7990384615385  L 10.2389380530973 15.9317307692308  C 10.4889380530973 16.0507211538462  10.7013274336283 15.9663461538462  10.8075221238938 15.9057692307692  C 11.0398230088496 15.7716346153846  11.1769911504425 15.5163461538462  11 15.2264423076923  L 11 2.73894230769231  C 11.1769911504425 2.44903846153846  11.037610619469 2.19375  10.8075221238938 2.05961538461539  C 10.7013274336283 1.99903846153846  10.4889380530973 1.91466346153846  10.2367256637168 2.03365384615385  L 5.32522123893806 5.12740384615385  C 5.16592920353982 5.22692307692308  4.98008849557523 5.28100961538461  4.7920353982301 5.28100961538461  L 2.8783185840708 5.28100961538461  C 2.44911504424779 5.28100961538461  2.0995575221239 5.62283653846154  2.0995575221239 6.04254807692308  L 2.0995575221239 11.8817307692308  C 2.0995575221239 12.3014423076923  2.44911504424779 12.6432692307692  2.8783185840708 12.6432692307692  L 4.7920353982301 12.6432692307692  C 4.98230088495576 12.6432692307692  5.17035398230089 12.6973557692308  5.32964601769912 12.7990384615385  Z M 15.462389380531 11.6567307692308  C 15.2699115044248 11.8449519230769  15.0176991150443 11.9379807692308  14.7654867256637 11.9379807692308  C 14.5132743362832 11.9379807692308  14.2610619469027 11.8449519230769  14.0685840707965 11.6567307692308  C 13.6836283185841 11.2802884615385  13.6836283185841 10.6701923076923  14.0685840707965 10.2959134615385  L 18.146017699115 6.30865384615384  C 18.5309734513274 5.93221153846154  19.1548672566372 5.93221153846154  19.537610619469 6.30865384615384  C 19.9225663716814 6.68509615384615  19.9225663716814 7.29519230769231  19.537610619469 7.66947115384615  L 15.462389380531 11.6567307692308  Z M 19.537610619469 11.6567307692308  C 19.3473451327434 11.8449519230769  19.0951327433628 11.9379807692308  18.8429203539823 11.9379807692308  C 18.5907079646018 11.9379807692308  18.3384955752212 11.8449519230769  18.146017699115 11.6567307692308  L 14.0685840707965 7.66947115384615  C 13.6836283185841 7.29302884615384  13.6836283185841 6.68293269230769  14.0685840707965 6.30865384615384  C 14.4535398230089 5.93221153846154  15.0774336283186 5.93221153846154  15.4601769911504 6.30865384615384  L 19.537610619469 10.2959134615385  C 19.9225663716814 10.6723557692308  19.9225663716814 11.2824519230769  19.537610619469 11.6567307692308  Z " fill-rule="nonzero" fill="#ffffff" stroke="none" />
  </g>
</svg>