<?xml version="1.0" encoding="utf-8"?>
<svg version="1.1" xmlns:xlink="http://www.w3.org/1999/xlink" width="46px" height="44px" xmlns="http://www.w3.org/2000/svg">
  <defs>
    <filter x="317px" y="585px" width="46px" height="44px" filterUnits="userSpaceOnUse" id="filter49">
      <feOffset dx="0" dy="0" in="SourceAlpha" result="shadowOffsetInner" />
      <feGaussianBlur stdDeviation="5" in="shadowOffsetInner" result="shadowGaussian" />
      <feComposite in2="shadowGaussian" operator="atop" in="SourceAlpha" result="shadowComposite" />
      <feColorMatrix type="matrix" values="0 0 0 0 0  0 0 0 0 0  0 0 0 0 0  0 0 0 0.313725490196078 0  " in="shadowComposite" />
    </filter>
    <g id="widget50">
      <path d="M 25.766847826087 4.18588235294118  C 25.7633152173913 1.96588235294118  24.05 0.162352941176471  21.948097826087 0.16235294117647  L 3.87527173913043 0.16235294117647  C 1.76983695652174 0.16235294117647  0.0600543478260866 1.96588235294118  0 4.18235294117647  L 0 15.2223529411765  C 0.0600543478260866 17.5094117647059  1.83695652173913 19.44  3.94239130434783 19.44  L 8.18858695652174 19.44  C 9.2625 20.5976470588235  12.0673913043478 23.5694117647059  12.0673913043478 23.5694117647059  C 12.2864130434783 23.8058823529412  12.59375 23.94  12.9116847826087 23.94  C 13.2296195652174 23.94  13.5334239130435 23.8058823529412  13.7807065217391 23.5411764705882  C 13.801902173913 23.5164705882353  15.9744565217391 21  17.5111413043478 19.44  L 21.8809782608696 19.44  C 23.9864130434783 19.44  25.766847826087 17.5094117647059  25.766847826087 15.2223529411765  L 25.766847826087 4.18588235294118  Z M 8.31929347826087 9.88235294117647  C 8.31929347826087 10.7717647058824  7.59864130434783 11.4917647058824  6.70842391304348 11.4917647058824  C 5.81820652173913 11.4917647058824  5.09755434782609 10.7717647058824  5.09755434782609 9.88235294117647  C 5.09755434782609 8.99294117647059  5.81820652173913 8.27294117647059  6.70842391304348 8.27294117647059  C 7.59864130434783 8.27294117647059  8.31929347826087 8.99294117647059  8.31929347826087 9.88235294117647  Z M 14.6567934782609 9.88235294117647  C 14.6567934782609 10.7717647058824  13.9361413043478 11.4917647058824  13.0459239130435 11.4917647058824  C 12.1557065217391 11.4917647058824  11.4350543478261 10.7717647058824  11.4350543478261 9.88235294117647  C 11.4350543478261 8.99294117647059  12.1557065217391 8.27294117647059  13.0459239130435 8.27294117647059  C 13.9361413043478 8.27294117647059  14.6567934782609 8.99294117647059  14.6567934782609 9.88235294117647  Z M 20.9942934782609 9.88235294117647  C 20.9942934782609 10.7717647058824  20.2736413043478 11.4917647058824  19.3834239130435 11.4917647058824  C 18.4932065217391 11.4917647058824  17.7725543478261 10.7717647058824  17.7725543478261 9.88235294117647  C 17.7725543478261 8.99294117647059  18.4932065217391 8.27294117647059  19.3834239130435 8.27294117647059  C 20.2736413043478 8.27294117647059  20.9942934782609 8.99294117647059  20.9942934782609 9.88235294117647  Z " fill-rule="nonzero" fill="#ffffff" stroke="none" transform="matrix(1 0 0 1 327 595 )" />
    </g>
  </defs>
  <g transform="matrix(1 0 0 1 -317 -585 )">
    <use xlink:href="#widget50" filter="url(#filter49)" />
    <use xlink:href="#widget50" />
  </g>
</svg>