<?xml version="1.0" encoding="utf-8"?>
<svg version="1.1" xmlns:xlink="http://www.w3.org/1999/xlink" width="8px" height="6px" xmlns="http://www.w3.org/2000/svg">
  <g transform="matrix(1 0 0 1 -77 -275 )">
    <path d="M 7.194 2.8608  C 7.194 2.5254  6.85 2.2674  6.506 2.2674  L 4.84333333333333 2.2674  L 4.84333333333333 0.771000000000002  C 4.84333333333333 0.435600000000002  4.55666666666667 0.177600000000002  4.184 0.177600000000002  C 3.81133333333333 0.177600000000002  3.52466666666667 0.435600000000002  3.52466666666667 0.771000000000002  L 3.52466666666667 2.2674  L 1.862 2.2674  C 1.48933333333333 2.2674  1.20266666666667 2.5254  1.20266666666667 2.8608  C 1.20266666666667 3.1962  1.48933333333333 3.4542  1.862 3.4542  L 3.55333333333333 3.4542  L 3.55333333333333 4.9506  C 3.55333333333333 5.286  3.84 5.544  4.21266666666667 5.544  C 4.58533333333333 5.544  4.872 5.286  4.872 4.9506  L 4.872 3.4542  L 6.53466666666667 3.4542  C 6.90733333333333 3.4542  7.194 3.1962  7.194 2.8608  Z " fill-rule="nonzero" fill="#ffc879" stroke="none" transform="matrix(1 0 0 1 77 275 )" />
  </g>
</svg>