<?xml version="1.0" encoding="utf-8"?>
<svg version="1.1" xmlns:xlink="http://www.w3.org/1999/xlink" width="12px" height="12px" xmlns="http://www.w3.org/2000/svg">
  <g transform="matrix(1 0 0 1 -66 -223 )">
    <path d="M 11.9115676097561 0.605268292682927  C 11.9115676097561 0.274220731418498  11.6452809017802 0.00585365853658537  11.3167996006807 0.00585365853658537  L 7.74819154622802 0.00585365853658537  C 7.41971024512843 0.00585365853658537  7.15342353715258 0.274220731418498  7.15342353715258 0.605268292682927  C 7.15342353715258 0.936315853947356  7.41971024512843 1.20468292682927  7.74819154622802 1.20468292682927  L 9.88340869880885 1.20468292682927  L 7.68871474532048 3.4105287804878  C 6.85192601468879 2.75123189785864  5.82031006079136 2.39306387334025  4.75815434100867 2.39306387334025  C 2.13030393221196 2.39306387334025  1.02684051506285E-05 4.54000045639555  1.02684051506285E-05 7.18838094651098  C 1.02684051506285E-05 9.83676143662641  2.13030393221196 11.9836980196817  4.75815434100867 11.9836980196817  C 7.38600474980537 11.9836980196817  9.51629841361219 9.83676143662641  9.51629841361219 7.18838094651098  C 9.51629841361219 6.1295366919523  9.1685630973543 5.10046536994147  8.52733763811685 4.26169756097561  L 10.7220315916052 2.04985756097561  L 10.7220315916052 4.20175609756098  C 10.7220315916052 4.5328036588254  10.9883182995811 4.80117073170732  11.3167996006807 4.80117073170732  C 11.6452809017802 4.80117073170732  11.9115676097561 4.5328036588254  11.9115676097561 4.20175609756098  L 11.9115676097561 0.605268292682927  Z M 8.34279298367949 7.19583219512195  C 8.34279298367949 8.1503733192121  7.96627052752917 9.06576036767877  7.29616785933069 9.74034731707317  C 6.62703851253757 10.413954431662  5.71995079041853 10.79232  4.77418492922686 10.79232  C 2.80329712262933 10.79232  1.20557687477422 9.18211756270853  1.20557687477422 7.19583219512195  C 1.20557687477422 5.20954682753538  2.80329712262933 3.5993443902439  4.77418492922686 3.5993443902439  C 5.71995079041853 3.5993443902439  6.62703851253757 3.97770995858194  7.29616785933069 4.65131707317073  C 7.96627052752917 5.32590402256513  8.34279298367949 6.2412910710318  8.34279298367949 7.19583219512195  Z " fill-rule="nonzero" fill="#ec808d" stroke="none" transform="matrix(1 0 0 1 66 223 )" />
  </g>
</svg>