<?xml version="1.0" encoding="utf-8"?>
<svg version="1.1" xmlns:xlink="http://www.w3.org/1999/xlink" width="20px" height="20px" xmlns="http://www.w3.org/2000/svg">
  <g transform="matrix(1 0 0 1 -50 -335 )">
    <path d="M 5.90561797752809 17.5866666666667  L 17.6467415730337 5.97688888888889  C 17.8342475457102 5.79165715028453  17.9396035419759 5.54031443415715  17.9396035419759 5.27822222222222  C 17.9396035419759 5.0161300102873  17.8342475457102 4.76478729415992  17.6467415730337 4.57955555555556  L 15.5280898876404 2.48444444444445  C 15.3407768935461 2.29902187146438  15.0866101019567 2.19483649737934  14.8215730337079 2.19483649737934  C 14.5565359654591 2.19483649737934  14.3023691738696 2.29902187146438  14.1150561797753 2.48444444444445  L 2.37573033707865 14.0942222222222  L 2.12314606741573 17.8364444444444  L 5.90651685393258 17.5866666666667  Z M 0.0449438202247189 18.9422222222222  L 0.0467415730337075 18.9422222222222  L 0.433258426966292 13.2222222222222  L 12.7020224719101 1.088  C 13.263888599843 0.532276337635544  14.0260035991311 0.220065585884132  14.8206741573034 0.220065585884132  C 15.6153447154756 0.220065585884132  16.3774597147637 0.532276337635543  16.9393258426966 1.088  L 19.0579775280899 3.18311111111111  C 19.6199452765483 3.738734282067  19.9356640142745 4.49238133691856  19.9356640142745 5.27822222222222  C 19.9356640142745 6.06406310752588  19.6199452765483 6.81771016237744  19.0579775280899 7.37333333333333  L 6.78741573033708 19.5084444444444  L 1.00314606741573 19.8897777777778  C 0.982700276515615 19.8911627102442  0.962212570237592 19.8918557840667  0.941718870044855 19.8918557840667  C 0.445283139859873 19.8918557840667  0.0428424655504732 19.4938866728052  0.0428424655504732 19.0029668951779  C 0.0428424655504732 18.9827009027651  0.0435433267193794 18.9624408376679  0.0449438202247189 18.9422222222222  Z M 16.2337078651685 7.37333333333333  L 12.7029213483146 3.88177777777778  L 11.2907865168539 5.27733333333333  L 14.8215730337079 8.77066666666667  L 16.2337078651685 7.37333333333333  Z " fill-rule="nonzero" fill="#333333" stroke="none" transform="matrix(1 0 0 1 50 335 )" />
  </g>
</svg>