<?xml version="1.0" encoding="utf-8"?>
<svg version="1.1" xmlns:xlink="http://www.w3.org/1999/xlink" width="18px" height="12px" xmlns="http://www.w3.org/2000/svg">
  <g transform="matrix(1 0 0 1 -327 -277 )">
    <path d="M 17.3151315789474 1.61052631578951  C 17.6625 1.29078947368419  17.6861842105262 0.751973684210498  17.366447368421 0.404605263157862  C 17.0486842105262 0.0572368421052261  16.5078947368421 0.0335526315789139  16.1625 0.353289473684185  L 6.30986842105261 9.87434210526311  L 1.56513157894739 4.63223684210527  C 1.24934210526311 4.28289473684214  0.71052631578948 4.25723684210527  0.361184210526403 4.57302631578949  C 0.0118421052630993 4.88881578947371  -0.0138157894735969 5.4276315789474  0.301973684210509 5.77697368421047  L 5.60526315789474 11.6368421052632  C 5.64671052631576 11.6822368421052  5.69210526315788 11.7217105263158  5.73947368421051 11.7572368421053  C 6.06118421052622 12.0039473684211  6.52302631578948 11.9940789473685  6.83289473684215 11.7098684210526  L 17.3151315789474 1.61052631578951  Z " fill-rule="nonzero" fill="#07c160" stroke="none" transform="matrix(1 0 0 1 327 277 )" />
  </g>
</svg>